<svg width="66" height="66" viewBox="0 0 66 66" fill="none" xmlns="http://www.w3.org/2000/svg">
<g clip-path="url(#clip0_538_3237)">
<mask id="path-1-outside-1_538_3237" maskUnits="userSpaceOnUse" x="8.24243" y="-1" width="57" height="68" fill="black">
<path d="M25.3929 0.320894C24.6399 0.528617 23.3936 0.995993 22.6146 1.35951C20.0181 2.60585 15.7338 6.08521 15.7338 6.96803C15.7338 7.38348 16.4089 7.98068 16.8763 7.98068C16.9541 7.98068 17.785 7.27961 18.7198 6.42276C22.0693 3.41077 25.1073 2.00864 28.3789 2.00864C29.807 2.00864 30.6639 2.16444 31.6505 2.57988L33.0007 3.17709L31.7544 3.35884C29.1059 3.72236 25.0813 6.29293 25.0813 7.5912C25.0813 8.68175 25.9641 8.62981 27.4961 7.48734C30.9495 4.86483 34.4808 4.44939 35.7271 6.50065C36.532 7.82489 36.4282 10.1098 35.4934 11.7457C33.8576 14.5759 30.0926 17.4321 23.4455 20.8595C19.8623 22.729 19.291 23.1185 17.2917 25.1178C14.9548 27.4547 13.7864 29.3502 13.2671 31.713L12.9814 33.0113L12.4362 32.466C11.6312 31.6611 11.2158 28.753 11.2158 24.209C11.2158 19.2497 11.7611 16.8349 13.8123 12.7323C15.0327 10.3176 15.2145 9.74633 14.9548 9.40878C14.3316 8.65578 13.7344 8.96736 12.7737 10.4993C11.5274 12.4987 10.333 15.6405 9.73577 18.4967C8.85295 22.703 9.24243 30.8821 10.3849 33.1411C10.5926 33.5306 11.3456 34.1538 12.0467 34.5433C13.1372 35.1405 13.3709 35.4001 13.5267 36.231C13.7864 37.6851 15.2924 40.6192 16.6426 42.3329C17.3177 43.1638 18.6419 44.4361 19.6545 45.1631L21.4462 46.4614V50.7716L18.6679 51.4467C15.0327 52.3555 13.9422 52.8489 12.3583 54.3548C10.1253 56.4321 9.2684 59.1325 9.24243 64.0919C9.24243 65.6758 9.32033 66.1172 9.65788 66.247C9.89157 66.3249 18.3822 66.4028 28.5866 66.4028C44.9189 66.4028 47.1259 66.3508 47.4115 66.0133C47.6712 65.6757 47.6972 64.9228 47.4635 62.3002C47.1259 58.3795 46.8922 57.4707 45.8276 56.0426C45.2564 55.2377 44.8929 54.978 44.4774 55.0299C43.6206 55.1598 43.6466 55.8868 44.5294 57.6784C45.2045 59.0026 45.3603 59.7037 45.4901 61.8069L45.6719 64.3255H11.086L11.1898 63.4687C11.2418 63.0273 11.3456 61.8588 11.4235 60.8722C11.6053 58.6651 12.2544 57.1331 13.6565 55.7829C14.851 54.6145 16.279 54.0173 19.8882 53.1604C23.1599 52.4074 23.5234 52.018 23.5234 49.3435C23.5234 47.7596 23.6013 47.4221 23.8869 47.5259C26.1199 48.3828 29.9109 48.5386 31.8063 47.8635C32.4295 47.6298 33.0267 47.4481 33.1565 47.4481C33.2864 47.4481 33.3902 48.4347 33.3902 49.6551C33.3902 52.3555 33.2604 52.2776 38.1679 53.524C41.9328 54.4847 42.4781 54.4847 42.4781 53.3941C42.4781 52.719 41.5174 52.3036 38.1419 51.4727L35.2078 50.7716V46.4873L36.2464 45.7863C37.3889 45.0333 37.5966 44.2543 36.7657 43.8129C36.3762 43.6052 36.0127 43.709 35.026 44.3062C29.5993 47.6298 23.9648 46.8509 19.2391 42.1252C17.1359 40.0479 15.9415 37.9447 15.3183 35.3482C14.6952 32.5699 15.2404 30.5186 17.3436 27.7923C18.7458 25.9487 20.9788 24.3129 24.4062 22.5992C25.9641 21.8202 28.1712 20.5999 29.3396 19.8728L31.4169 18.5746L33.2344 19.4574C35.4155 20.496 38.3496 23.2224 39.57 25.3775C40.8942 27.7403 42.0367 31.5053 41.8809 32.9594C41.7511 33.8682 41.829 34.3096 42.1146 34.5952C42.9974 35.452 43.7764 34.8289 43.7764 33.271C43.7764 32.2843 43.8283 32.1804 44.6332 31.9727C45.2564 31.7909 45.594 31.4534 46.0354 30.5706C46.9182 28.7789 47.4115 26.52 47.4115 24.2869C47.4115 22.1058 47.048 20.9114 45.9834 19.5093C45.568 18.964 45.3343 18.3149 45.3343 17.7177C45.3343 16.4714 44.6592 13.8748 43.9841 12.5506C43.1792 10.9927 41.1019 8.9414 39.544 8.16244C38.3756 7.5912 38.1159 7.33155 37.8563 6.50065C37.1552 4.11184 35.1818 2.03461 32.4814 0.814236C30.6119 -0.0426216 27.4701 -0.250345 25.3929 0.320894ZM39.7517 10.5772C41.076 11.486 42.3483 13.3295 42.8676 15.0952C43.4129 16.8868 43.3869 17.4061 42.7637 17.1984C42.2704 17.0426 41.4395 17.6398 41.4395 18.1331C41.4395 18.4707 42.6079 19.5353 43.6985 20.2104C45.4122 21.275 45.9055 23.3262 45.2304 26.6498C44.4774 30.3888 43.8543 30.986 43.1272 28.6751C42.8676 27.9481 42.1406 26.2863 41.4655 25.014C40.0114 22.1578 37.4149 19.4314 35.026 18.1591C34.1173 17.6917 33.3902 17.2244 33.3902 17.1205C33.3902 17.0166 33.8057 16.6012 34.325 16.1857C35.5454 15.225 37.4408 12.6285 37.8043 11.4081C37.9601 10.8888 38.1419 10.2916 38.1938 10.1098C38.3496 9.66843 38.4794 9.69439 39.7517 10.5772Z"/>
<path d="M52.2154 30.8303C51.8778 31.8949 53.3319 32.6479 53.8771 31.6872C54.2147 31.038 53.7473 30.311 52.9943 30.311C52.6048 30.311 52.3192 30.4928 52.2154 30.8303Z"/>
<path d="M48.4763 33.6605C48.1387 34.2837 48.684 35.0886 49.3591 34.9588C50.0861 34.803 50.4497 34.0759 50.0342 33.5826C49.5668 33.0113 48.7879 33.0633 48.4763 33.6605Z"/>
<path d="M38.168 35.2183C37.1813 35.8155 36.5062 36.7243 36.5062 37.4253C36.5062 37.711 37.0514 38.8015 37.7265 39.8921C38.7911 41.6058 38.9729 42.0472 38.9729 43.2935C38.9989 44.5399 39.1546 44.9553 40.2192 46.6171C41.9849 49.3434 43.3091 50.6677 46.2432 52.6411C48.9955 54.5106 49.8783 55.3674 52.8124 58.9247C55.357 61.9886 55.7725 62.3002 57.4602 62.2223C58.7845 62.1444 58.8364 62.1963 60.0568 63.4946C61.1473 64.6371 61.4849 64.8448 62.2638 64.8448C62.913 64.8448 63.4842 64.6371 64.0035 64.1697L64.8084 63.4946V59.2363C64.8084 55.5232 64.7565 54.952 64.393 54.7962C64.1593 54.7183 63.7698 54.7442 63.5361 54.9C63.1986 55.1078 63.1207 55.8088 63.0428 58.9506C62.9649 63.2869 62.8091 63.5465 61.3031 61.9886C60.3943 61.0538 60.3424 60.95 60.628 60.145C61.2512 58.3015 60.8877 57.3668 58.3171 54.4586C55.5907 51.3688 54.2925 49.4213 52.9942 46.4094C51.7998 43.657 51.5401 43.2416 49.359 40.9826C46.8404 38.3601 45.8537 37.7629 44.5554 38.0225C43.8544 38.1524 43.5947 38.0225 42.66 37.1397C40.9203 35.5039 39.8817 34.7249 39.4143 34.7249C39.1806 34.7249 38.6094 34.9586 38.168 35.2183ZM40.9203 38.1783L42.2965 39.4247L41.5175 40.2036L40.7385 41.0086L39.648 39.2689C38.7652 37.8668 38.6094 37.4773 38.869 37.1657C39.2585 36.6723 39.2845 36.6983 40.9203 38.1783ZM46.3471 41.2163C47.2818 42.8781 47.2558 44.6956 46.2692 45.5265C45.4383 46.2536 44.6593 46.3055 43.3091 45.7343C42.2186 45.2928 40.9203 44.1504 40.9203 43.657C40.9203 43.1897 44.867 39.8921 45.3344 39.9959C45.5421 40.0219 46.0095 40.5672 46.3471 41.2163ZM51.3324 47.4999C52.7605 50.6937 53.7212 52.1217 56.889 55.7829C58.395 57.5485 58.8364 58.2236 58.8364 58.8468C58.8364 59.8854 57.7978 60.6384 56.863 60.2749C56.5255 60.145 54.9935 58.5352 53.4616 56.6917C50.9949 53.7056 50.2938 53.0825 47.5934 51.213C45.9056 50.0445 44.2698 48.8241 43.9582 48.5385L43.413 47.9673H44.7891C45.7498 47.9673 46.4509 47.7855 47.1 47.396C48.0867 46.7988 48.9436 45.189 48.9696 43.9427V43.1637L49.4889 43.8128C49.7745 44.1763 50.6054 45.8381 51.3324 47.4999Z"/>
<path d="M43.4389 42.4107C43.0754 42.7742 43.2571 43.5272 43.9322 44.3061C44.6852 45.2149 45.4642 45.3448 45.8277 44.6177C46.373 43.6051 44.2438 41.6317 43.4389 42.4107Z"/>
<path d="M52.397 36.335C51.5142 37.2178 52.5788 38.3862 53.5914 37.6852C54.2665 37.2178 54.2925 36.9841 53.7472 36.4388C53.2539 35.9455 52.8125 35.9195 52.397 36.335Z"/>
</mask>
<path d="M25.3929 0.320894C24.6399 0.528617 23.3936 0.995993 22.6146 1.35951C20.0181 2.60585 15.7338 6.08521 15.7338 6.96803C15.7338 7.38348 16.4089 7.98068 16.8763 7.98068C16.9541 7.98068 17.785 7.27961 18.7198 6.42276C22.0693 3.41077 25.1073 2.00864 28.3789 2.00864C29.807 2.00864 30.6639 2.16444 31.6505 2.57988L33.0007 3.17709L31.7544 3.35884C29.1059 3.72236 25.0813 6.29293 25.0813 7.5912C25.0813 8.68175 25.9641 8.62981 27.4961 7.48734C30.9495 4.86483 34.4808 4.44939 35.7271 6.50065C36.532 7.82489 36.4282 10.1098 35.4934 11.7457C33.8576 14.5759 30.0926 17.4321 23.4455 20.8595C19.8623 22.729 19.291 23.1185 17.2917 25.1178C14.9548 27.4547 13.7864 29.3502 13.2671 31.713L12.9814 33.0113L12.4362 32.466C11.6312 31.6611 11.2158 28.753 11.2158 24.209C11.2158 19.2497 11.7611 16.8349 13.8123 12.7323C15.0327 10.3176 15.2145 9.74633 14.9548 9.40878C14.3316 8.65578 13.7344 8.96736 12.7737 10.4993C11.5274 12.4987 10.333 15.6405 9.73577 18.4967C8.85295 22.703 9.24243 30.8821 10.3849 33.1411C10.5926 33.5306 11.3456 34.1538 12.0467 34.5433C13.1372 35.1405 13.3709 35.4001 13.5267 36.231C13.7864 37.6851 15.2924 40.6192 16.6426 42.3329C17.3177 43.1638 18.6419 44.4361 19.6545 45.1631L21.4462 46.4614V50.7716L18.6679 51.4467C15.0327 52.3555 13.9422 52.8489 12.3583 54.3548C10.1253 56.4321 9.2684 59.1325 9.24243 64.0919C9.24243 65.6758 9.32033 66.1172 9.65788 66.247C9.89157 66.3249 18.3822 66.4028 28.5866 66.4028C44.9189 66.4028 47.1259 66.3508 47.4115 66.0133C47.6712 65.6757 47.6972 64.9228 47.4635 62.3002C47.1259 58.3795 46.8922 57.4707 45.8276 56.0426C45.2564 55.2377 44.8929 54.978 44.4774 55.0299C43.6206 55.1598 43.6466 55.8868 44.5294 57.6784C45.2045 59.0026 45.3603 59.7037 45.4901 61.8069L45.6719 64.3255H11.086L11.1898 63.4687C11.2418 63.0273 11.3456 61.8588 11.4235 60.8722C11.6053 58.6651 12.2544 57.1331 13.6565 55.7829C14.851 54.6145 16.279 54.0173 19.8882 53.1604C23.1599 52.4074 23.5234 52.018 23.5234 49.3435C23.5234 47.7596 23.6013 47.4221 23.8869 47.5259C26.1199 48.3828 29.9109 48.5386 31.8063 47.8635C32.4295 47.6298 33.0267 47.4481 33.1565 47.4481C33.2864 47.4481 33.3902 48.4347 33.3902 49.6551C33.3902 52.3555 33.2604 52.2776 38.1679 53.524C41.9328 54.4847 42.4781 54.4847 42.4781 53.3941C42.4781 52.719 41.5174 52.3036 38.1419 51.4727L35.2078 50.7716V46.4873L36.2464 45.7863C37.3889 45.0333 37.5966 44.2543 36.7657 43.8129C36.3762 43.6052 36.0127 43.709 35.026 44.3062C29.5993 47.6298 23.9648 46.8509 19.2391 42.1252C17.1359 40.0479 15.9415 37.9447 15.3183 35.3482C14.6952 32.5699 15.2404 30.5186 17.3436 27.7923C18.7458 25.9487 20.9788 24.3129 24.4062 22.5992C25.9641 21.8202 28.1712 20.5999 29.3396 19.8728L31.4169 18.5746L33.2344 19.4574C35.4155 20.496 38.3496 23.2224 39.57 25.3775C40.8942 27.7403 42.0367 31.5053 41.8809 32.9594C41.7511 33.8682 41.829 34.3096 42.1146 34.5952C42.9974 35.452 43.7764 34.8289 43.7764 33.271C43.7764 32.2843 43.8283 32.1804 44.6332 31.9727C45.2564 31.7909 45.594 31.4534 46.0354 30.5706C46.9182 28.7789 47.4115 26.52 47.4115 24.2869C47.4115 22.1058 47.048 20.9114 45.9834 19.5093C45.568 18.964 45.3343 18.3149 45.3343 17.7177C45.3343 16.4714 44.6592 13.8748 43.9841 12.5506C43.1792 10.9927 41.1019 8.9414 39.544 8.16244C38.3756 7.5912 38.1159 7.33155 37.8563 6.50065C37.1552 4.11184 35.1818 2.03461 32.4814 0.814236C30.6119 -0.0426216 27.4701 -0.250345 25.3929 0.320894ZM39.7517 10.5772C41.076 11.486 42.3483 13.3295 42.8676 15.0952C43.4129 16.8868 43.3869 17.4061 42.7637 17.1984C42.2704 17.0426 41.4395 17.6398 41.4395 18.1331C41.4395 18.4707 42.6079 19.5353 43.6985 20.2104C45.4122 21.275 45.9055 23.3262 45.2304 26.6498C44.4774 30.3888 43.8543 30.986 43.1272 28.6751C42.8676 27.9481 42.1406 26.2863 41.4655 25.014C40.0114 22.1578 37.4149 19.4314 35.026 18.1591C34.1173 17.6917 33.3902 17.2244 33.3902 17.1205C33.3902 17.0166 33.8057 16.6012 34.325 16.1857C35.5454 15.225 37.4408 12.6285 37.8043 11.4081C37.9601 10.8888 38.1419 10.2916 38.1938 10.1098C38.3496 9.66843 38.4794 9.69439 39.7517 10.5772Z" fill="#FF8743"/>
<path d="M52.2154 30.8303C51.8778 31.8949 53.3319 32.6479 53.8771 31.6872C54.2147 31.038 53.7473 30.311 52.9943 30.311C52.6048 30.311 52.3192 30.4928 52.2154 30.8303Z" fill="#FF8743"/>
<path d="M48.4763 33.6605C48.1387 34.2837 48.684 35.0886 49.3591 34.9588C50.0861 34.803 50.4497 34.0759 50.0342 33.5826C49.5668 33.0113 48.7879 33.0633 48.4763 33.6605Z" fill="#FF8743"/>
<path d="M38.168 35.2183C37.1813 35.8155 36.5062 36.7243 36.5062 37.4253C36.5062 37.711 37.0514 38.8015 37.7265 39.8921C38.7911 41.6058 38.9729 42.0472 38.9729 43.2935C38.9989 44.5399 39.1546 44.9553 40.2192 46.6171C41.9849 49.3434 43.3091 50.6677 46.2432 52.6411C48.9955 54.5106 49.8783 55.3674 52.8124 58.9247C55.357 61.9886 55.7725 62.3002 57.4602 62.2223C58.7845 62.1444 58.8364 62.1963 60.0568 63.4946C61.1473 64.6371 61.4849 64.8448 62.2638 64.8448C62.913 64.8448 63.4842 64.6371 64.0035 64.1697L64.8084 63.4946V59.2363C64.8084 55.5232 64.7565 54.952 64.393 54.7962C64.1593 54.7183 63.7698 54.7442 63.5361 54.9C63.1986 55.1078 63.1207 55.8088 63.0428 58.9506C62.9649 63.2869 62.8091 63.5465 61.3031 61.9886C60.3943 61.0538 60.3424 60.95 60.628 60.145C61.2512 58.3015 60.8877 57.3668 58.3171 54.4586C55.5907 51.3688 54.2925 49.4213 52.9942 46.4094C51.7998 43.657 51.5401 43.2416 49.359 40.9826C46.8404 38.3601 45.8537 37.7629 44.5554 38.0225C43.8544 38.1524 43.5947 38.0225 42.66 37.1397C40.9203 35.5039 39.8817 34.7249 39.4143 34.7249C39.1806 34.7249 38.6094 34.9586 38.168 35.2183ZM40.9203 38.1783L42.2965 39.4247L41.5175 40.2036L40.7385 41.0086L39.648 39.2689C38.7652 37.8668 38.6094 37.4773 38.869 37.1657C39.2585 36.6723 39.2845 36.6983 40.9203 38.1783ZM46.3471 41.2163C47.2818 42.8781 47.2558 44.6956 46.2692 45.5265C45.4383 46.2536 44.6593 46.3055 43.3091 45.7343C42.2186 45.2928 40.9203 44.1504 40.9203 43.657C40.9203 43.1897 44.867 39.8921 45.3344 39.9959C45.5421 40.0219 46.0095 40.5672 46.3471 41.2163ZM51.3324 47.4999C52.7605 50.6937 53.7212 52.1217 56.889 55.7829C58.395 57.5485 58.8364 58.2236 58.8364 58.8468C58.8364 59.8854 57.7978 60.6384 56.863 60.2749C56.5255 60.145 54.9935 58.5352 53.4616 56.6917C50.9949 53.7056 50.2938 53.0825 47.5934 51.213C45.9056 50.0445 44.2698 48.8241 43.9582 48.5385L43.413 47.9673H44.7891C45.7498 47.9673 46.4509 47.7855 47.1 47.396C48.0867 46.7988 48.9436 45.189 48.9696 43.9427V43.1637L49.4889 43.8128C49.7745 44.1763 50.6054 45.8381 51.3324 47.4999Z" fill="#FF8743"/>
<path d="M43.4389 42.4107C43.0754 42.7742 43.2571 43.5272 43.9322 44.3061C44.6852 45.2149 45.4642 45.3448 45.8277 44.6177C46.373 43.6051 44.2438 41.6317 43.4389 42.4107Z" fill="#FF8743"/>
<path d="M52.397 36.335C51.5142 37.2178 52.5788 38.3862 53.5914 37.6852C54.2665 37.2178 54.2925 36.9841 53.7472 36.4388C53.2539 35.9455 52.8125 35.9195 52.397 36.335Z" fill="#FF8743"/>
<path d="M25.3929 0.320894C24.6399 0.528617 23.3936 0.995993 22.6146 1.35951C20.0181 2.60585 15.7338 6.08521 15.7338 6.96803C15.7338 7.38348 16.4089 7.98068 16.8763 7.98068C16.9541 7.98068 17.785 7.27961 18.7198 6.42276C22.0693 3.41077 25.1073 2.00864 28.3789 2.00864C29.807 2.00864 30.6639 2.16444 31.6505 2.57988L33.0007 3.17709L31.7544 3.35884C29.1059 3.72236 25.0813 6.29293 25.0813 7.5912C25.0813 8.68175 25.9641 8.62981 27.4961 7.48734C30.9495 4.86483 34.4808 4.44939 35.7271 6.50065C36.532 7.82489 36.4282 10.1098 35.4934 11.7457C33.8576 14.5759 30.0926 17.4321 23.4455 20.8595C19.8623 22.729 19.291 23.1185 17.2917 25.1178C14.9548 27.4547 13.7864 29.3502 13.2671 31.713L12.9814 33.0113L12.4362 32.466C11.6312 31.6611 11.2158 28.753 11.2158 24.209C11.2158 19.2497 11.7611 16.8349 13.8123 12.7323C15.0327 10.3176 15.2145 9.74633 14.9548 9.40878C14.3316 8.65578 13.7344 8.96736 12.7737 10.4993C11.5274 12.4987 10.333 15.6405 9.73577 18.4967C8.85295 22.703 9.24243 30.8821 10.3849 33.1411C10.5926 33.5306 11.3456 34.1538 12.0467 34.5433C13.1372 35.1405 13.3709 35.4001 13.5267 36.231C13.7864 37.6851 15.2924 40.6192 16.6426 42.3329C17.3177 43.1638 18.6419 44.4361 19.6545 45.1631L21.4462 46.4614V50.7716L18.6679 51.4467C15.0327 52.3555 13.9422 52.8489 12.3583 54.3548C10.1253 56.4321 9.2684 59.1325 9.24243 64.0919C9.24243 65.6758 9.32033 66.1172 9.65788 66.247C9.89157 66.3249 18.3822 66.4028 28.5866 66.4028C44.9189 66.4028 47.1259 66.3508 47.4115 66.0133C47.6712 65.6757 47.6972 64.9228 47.4635 62.3002C47.1259 58.3795 46.8922 57.4707 45.8276 56.0426C45.2564 55.2377 44.8929 54.978 44.4774 55.0299C43.6206 55.1598 43.6466 55.8868 44.5294 57.6784C45.2045 59.0026 45.3603 59.7037 45.4901 61.8069L45.6719 64.3255H11.086L11.1898 63.4687C11.2418 63.0273 11.3456 61.8588 11.4235 60.8722C11.6053 58.6651 12.2544 57.1331 13.6565 55.7829C14.851 54.6145 16.279 54.0173 19.8882 53.1604C23.1599 52.4074 23.5234 52.018 23.5234 49.3435C23.5234 47.7596 23.6013 47.4221 23.8869 47.5259C26.1199 48.3828 29.9109 48.5386 31.8063 47.8635C32.4295 47.6298 33.0267 47.4481 33.1565 47.4481C33.2864 47.4481 33.3902 48.4347 33.3902 49.6551C33.3902 52.3555 33.2604 52.2776 38.1679 53.524C41.9328 54.4847 42.4781 54.4847 42.4781 53.3941C42.4781 52.719 41.5174 52.3036 38.1419 51.4727L35.2078 50.7716V46.4873L36.2464 45.7863C37.3889 45.0333 37.5966 44.2543 36.7657 43.8129C36.3762 43.6052 36.0127 43.709 35.026 44.3062C29.5993 47.6298 23.9648 46.8509 19.2391 42.1252C17.1359 40.0479 15.9415 37.9447 15.3183 35.3482C14.6952 32.5699 15.2404 30.5186 17.3436 27.7923C18.7458 25.9487 20.9788 24.3129 24.4062 22.5992C25.9641 21.8202 28.1712 20.5999 29.3396 19.8728L31.4169 18.5746L33.2344 19.4574C35.4155 20.496 38.3496 23.2224 39.57 25.3775C40.8942 27.7403 42.0367 31.5053 41.8809 32.9594C41.7511 33.8682 41.829 34.3096 42.1146 34.5952C42.9974 35.452 43.7764 34.8289 43.7764 33.271C43.7764 32.2843 43.8283 32.1804 44.6332 31.9727C45.2564 31.7909 45.594 31.4534 46.0354 30.5706C46.9182 28.7789 47.4115 26.52 47.4115 24.2869C47.4115 22.1058 47.048 20.9114 45.9834 19.5093C45.568 18.964 45.3343 18.3149 45.3343 17.7177C45.3343 16.4714 44.6592 13.8748 43.9841 12.5506C43.1792 10.9927 41.1019 8.9414 39.544 8.16244C38.3756 7.5912 38.1159 7.33155 37.8563 6.50065C37.1552 4.11184 35.1818 2.03461 32.4814 0.814236C30.6119 -0.0426216 27.4701 -0.250345 25.3929 0.320894ZM39.7517 10.5772C41.076 11.486 42.3483 13.3295 42.8676 15.0952C43.4129 16.8868 43.3869 17.4061 42.7637 17.1984C42.2704 17.0426 41.4395 17.6398 41.4395 18.1331C41.4395 18.4707 42.6079 19.5353 43.6985 20.2104C45.4122 21.275 45.9055 23.3262 45.2304 26.6498C44.4774 30.3888 43.8543 30.986 43.1272 28.6751C42.8676 27.9481 42.1406 26.2863 41.4655 25.014C40.0114 22.1578 37.4149 19.4314 35.026 18.1591C34.1173 17.6917 33.3902 17.2244 33.3902 17.1205C33.3902 17.0166 33.8057 16.6012 34.325 16.1857C35.5454 15.225 37.4408 12.6285 37.8043 11.4081C37.9601 10.8888 38.1419 10.2916 38.1938 10.1098C38.3496 9.66843 38.4794 9.69439 39.7517 10.5772Z" stroke="#FF8743" stroke-width="0.825" mask="url(#path-1-outside-1_538_3237)"/>
<path d="M52.2154 30.8303C51.8778 31.8949 53.3319 32.6479 53.8771 31.6872C54.2147 31.038 53.7473 30.311 52.9943 30.311C52.6048 30.311 52.3192 30.4928 52.2154 30.8303Z" stroke="#FF8743" stroke-width="0.825" mask="url(#path-1-outside-1_538_3237)"/>
<path d="M48.4763 33.6605C48.1387 34.2837 48.684 35.0886 49.3591 34.9588C50.0861 34.803 50.4497 34.0759 50.0342 33.5826C49.5668 33.0113 48.7879 33.0633 48.4763 33.6605Z" stroke="#FF8743" stroke-width="0.825" mask="url(#path-1-outside-1_538_3237)"/>
<path d="M38.168 35.2183C37.1813 35.8155 36.5062 36.7243 36.5062 37.4253C36.5062 37.711 37.0514 38.8015 37.7265 39.8921C38.7911 41.6058 38.9729 42.0472 38.9729 43.2935C38.9989 44.5399 39.1546 44.9553 40.2192 46.6171C41.9849 49.3434 43.3091 50.6677 46.2432 52.6411C48.9955 54.5106 49.8783 55.3674 52.8124 58.9247C55.357 61.9886 55.7725 62.3002 57.4602 62.2223C58.7845 62.1444 58.8364 62.1963 60.0568 63.4946C61.1473 64.6371 61.4849 64.8448 62.2638 64.8448C62.913 64.8448 63.4842 64.6371 64.0035 64.1697L64.8084 63.4946V59.2363C64.8084 55.5232 64.7565 54.952 64.393 54.7962C64.1593 54.7183 63.7698 54.7442 63.5361 54.9C63.1986 55.1078 63.1207 55.8088 63.0428 58.9506C62.9649 63.2869 62.8091 63.5465 61.3031 61.9886C60.3943 61.0538 60.3424 60.95 60.628 60.145C61.2512 58.3015 60.8877 57.3668 58.3171 54.4586C55.5907 51.3688 54.2925 49.4213 52.9942 46.4094C51.7998 43.657 51.5401 43.2416 49.359 40.9826C46.8404 38.3601 45.8537 37.7629 44.5554 38.0225C43.8544 38.1524 43.5947 38.0225 42.66 37.1397C40.9203 35.5039 39.8817 34.7249 39.4143 34.7249C39.1806 34.7249 38.6094 34.9586 38.168 35.2183ZM40.9203 38.1783L42.2965 39.4247L41.5175 40.2036L40.7385 41.0086L39.648 39.2689C38.7652 37.8668 38.6094 37.4773 38.869 37.1657C39.2585 36.6723 39.2845 36.6983 40.9203 38.1783ZM46.3471 41.2163C47.2818 42.8781 47.2558 44.6956 46.2692 45.5265C45.4383 46.2536 44.6593 46.3055 43.3091 45.7343C42.2186 45.2928 40.9203 44.1504 40.9203 43.657C40.9203 43.1897 44.867 39.8921 45.3344 39.9959C45.5421 40.0219 46.0095 40.5672 46.3471 41.2163ZM51.3324 47.4999C52.7605 50.6937 53.7212 52.1217 56.889 55.7829C58.395 57.5485 58.8364 58.2236 58.8364 58.8468C58.8364 59.8854 57.7978 60.6384 56.863 60.2749C56.5255 60.145 54.9935 58.5352 53.4616 56.6917C50.9949 53.7056 50.2938 53.0825 47.5934 51.213C45.9056 50.0445 44.2698 48.8241 43.9582 48.5385L43.413 47.9673H44.7891C45.7498 47.9673 46.4509 47.7855 47.1 47.396C48.0867 46.7988 48.9436 45.189 48.9696 43.9427V43.1637L49.4889 43.8128C49.7745 44.1763 50.6054 45.8381 51.3324 47.4999Z" stroke="#FF8743" stroke-width="0.825" mask="url(#path-1-outside-1_538_3237)"/>
<path d="M43.4389 42.4107C43.0754 42.7742 43.2571 43.5272 43.9322 44.3061C44.6852 45.2149 45.4642 45.3448 45.8277 44.6177C46.373 43.6051 44.2438 41.6317 43.4389 42.4107Z" stroke="#FF8743" stroke-width="0.825" mask="url(#path-1-outside-1_538_3237)"/>
<path d="M52.397 36.335C51.5142 37.2178 52.5788 38.3862 53.5914 37.6852C54.2665 37.2178 54.2925 36.9841 53.7472 36.4388C53.2539 35.9455 52.8125 35.9195 52.397 36.335Z" stroke="#FF8743" stroke-width="0.825" mask="url(#path-1-outside-1_538_3237)"/>
</g>
<defs>
<clipPath id="clip0_538_3237">
<rect width="66" height="66" fill="white"/>
</clipPath>
</defs>
</svg>
