<svg width="66" height="66" viewBox="0 0 66 66" fill="none" xmlns="http://www.w3.org/2000/svg">
<mask id="path-1-outside-1_538_3237" maskUnits="userSpaceOnUse" x="4.19287" y="0.824219" width="62" height="64" fill="black">
<path d="M8.02096 1.98124C5.79006 2.53896 5.08024 3.85721 5.20699 7.0768C5.28304 9.63725 5.68866 10.4485 7.26042 11.209L8.19841 11.6907V33.67C8.19841 47.5117 8.29982 56.1817 8.45192 57.0437C8.98429 59.883 10.5561 62.0125 13.0658 63.3814C14.5869 64.1927 14.7897 64.2434 17.198 64.2434C20.2402 64.2434 21.5331 63.7363 23.5611 61.7083C25.6653 59.6041 26.0202 58.3873 26.1469 52.6326C26.1976 50.0214 26.3244 47.9173 26.4005 47.9427C29.113 49.3877 31.5974 49.9961 34.5635 49.9961C37.4282 49.9961 39.5323 49.4891 42.1181 48.1962L43.9434 47.2835L45.2109 48.5257C46.1236 49.413 46.4785 49.9707 46.4785 50.4524C46.4785 50.8327 46.6052 51.4664 46.7573 51.8721C47.0615 52.6833 57.6583 63.4575 58.6977 64.0152C59.0779 64.218 59.8638 64.3701 60.4215 64.3701C61.3849 64.3701 61.6384 64.218 63.2101 62.697C64.1735 61.7843 65.0861 60.6942 65.2382 60.2886C65.9227 58.6661 65.6438 58.2859 59.0779 51.7453C53.0951 45.7878 52.8923 45.6104 51.9036 45.6104C51.0163 45.6104 50.7374 45.4329 49.5713 44.2668L48.253 42.9485L49.2671 40.9204C53.7035 31.9208 49.115 20.9945 39.6337 17.9524C36.0845 16.8116 31.065 17.0905 27.7694 18.6115C27.0089 18.9664 26.3498 19.2453 26.299 19.2453C26.2483 19.2453 26.1976 17.5468 26.1976 15.468V11.6907L27.1356 11.209C28.7327 10.4231 29.113 9.6626 29.1891 7.00074C29.2905 4.28818 28.8849 3.24879 27.4398 2.38685C26.6286 1.90519 26.0709 1.87983 17.705 1.82913C12.8377 1.80378 8.45192 1.87983 8.02096 1.98124ZM27.0596 4.33888C27.3384 4.71915 27.4652 5.50503 27.4652 6.77258C27.4652 8.39505 27.3891 8.69926 26.8314 9.23163L26.223 9.86541H8.17306L7.56464 9.23163C7.00691 8.69926 6.93086 8.39505 6.93086 6.69653C6.93086 3.57835 6.22103 3.78116 17.2994 3.78116H26.6793L27.0596 4.33888ZM24.4231 20.5128L22.9527 21.9832C21.1021 23.8338 19.8345 25.8873 18.9472 28.4984C18.3895 30.1716 18.2628 31.0082 18.2374 33.1884C18.2121 34.6587 18.3135 36.2812 18.4149 36.7882L18.6177 37.7515H9.97298V31.9208H11.3419C12.7869 31.9208 13.37 31.5405 13.2179 30.7293C13.1672 30.3744 12.8123 30.2476 11.6208 30.1462L10.0997 30.0195L9.94763 25.583H12.9644C15.4235 25.583 16.0572 25.507 16.3361 25.1774C16.5643 24.8986 16.5896 24.6704 16.3868 24.3662C16.184 24.0113 15.6009 23.9352 13.0405 23.8592L9.97298 23.7831V19.4988H11.1898C12.5841 19.4988 13.37 19.0425 13.2179 18.3327C13.1419 17.927 12.863 17.8256 11.6208 17.7242L10.0997 17.5975L9.94763 11.64H24.4231V20.5128ZM38.214 19.3974C44.9321 21.1213 49.6474 27.5858 49.191 34.4559C48.7601 40.9458 44.1208 46.4469 37.8591 47.9173C29.1637 49.92 20.5697 43.5316 19.9359 34.5573C19.4543 27.7125 23.9414 21.4001 30.6341 19.4734C32.5861 18.8904 36.1606 18.865 38.214 19.3974ZM19.4543 40.1092C19.6824 41.0725 21.5838 43.8104 23.0795 45.3822L24.4738 46.8526L24.3724 51.9988C24.2963 56.562 24.2203 57.2718 23.7639 58.2859C22.5471 60.9224 20.5697 62.342 17.8572 62.5448C14.6629 62.773 12.1785 61.3787 10.8096 58.5901L10.0997 57.1451L10.0237 48.3229L9.92228 39.5261H14.6122C19.2768 39.5261 19.3022 39.5261 19.4543 40.1092ZM48.5066 47.5117L47.5939 48.399L45.363 46.1174L47.0869 44.3428L48.253 45.4836L49.3938 46.6244L48.5066 47.5117ZM57.9371 53.1396C61.1314 56.3085 63.7172 59.0718 63.7172 59.2492C63.7172 59.4267 63.0834 60.2633 62.2722 61.0998C61.2328 62.1899 60.675 62.5956 60.1934 62.5956C59.661 62.5956 58.3681 61.4548 53.881 56.9423C50.7881 53.8241 48.253 51.0862 48.253 50.8327C48.253 50.1989 51.0163 47.3849 51.6501 47.3849C52.005 47.3849 54.1091 49.3116 57.9371 53.1396Z"/>
<path d="M32.2819 21.0453C30.406 21.3495 27.6173 22.7184 26.0963 24.0874C20.5444 29.0055 20.443 37.7516 25.8428 42.8218C30.913 47.5371 38.2141 47.5371 43.2843 42.8218C45.9208 40.3374 47.239 37.2446 47.239 33.5433C47.239 27.4844 43.0815 22.3889 37.124 21.1213C35.248 20.7411 34.3354 20.7157 32.2819 21.0453ZM36.4902 22.8198C39.9633 23.4536 42.8026 25.6085 44.3744 28.828C45.3124 30.704 45.3377 30.8308 45.3377 33.5433C45.3377 36.1798 45.287 36.4587 44.5265 38.0812C41.2308 45.0273 32.5101 46.7005 26.9836 41.4275C24.5499 39.0952 23.5105 36.408 23.7133 32.8082C23.8147 31.0082 23.9668 30.3998 24.7527 28.8027C26.2737 25.7352 28.9863 23.6057 32.2819 22.8959C34.0819 22.4903 34.6649 22.4903 36.4902 22.8198Z"/>
<path d="M34.1581 27.3069C33.7018 27.6111 31.0399 32.0729 30.6343 33.2137C29.6963 35.8502 30.4822 38.436 32.5356 39.4501C35.5777 40.9965 38.848 38.9937 38.8734 35.5713C38.8734 33.8475 38.4171 32.6053 36.6932 29.8167C35.3749 27.6872 34.9186 27.1041 34.5637 27.1041C34.4877 27.1041 34.3102 27.2055 34.1581 27.3069ZM35.1721 30.7293C37.1242 33.9489 37.5805 35.9263 36.7185 37.1431C36.1862 37.9036 34.9947 38.3346 33.9553 38.1571C31.9526 37.7769 31.4202 35.4446 32.7384 32.9095C33.7018 31.0842 34.4116 29.8927 34.5637 29.8927C34.6398 29.8927 34.9186 30.273 35.1721 30.7293Z"/>
</mask>
<path d="M8.02096 1.98124C5.79006 2.53896 5.08024 3.85721 5.20699 7.0768C5.28304 9.63725 5.68866 10.4485 7.26042 11.209L8.19841 11.6907V33.67C8.19841 47.5117 8.29982 56.1817 8.45192 57.0437C8.98429 59.883 10.5561 62.0125 13.0658 63.3814C14.5869 64.1927 14.7897 64.2434 17.198 64.2434C20.2402 64.2434 21.5331 63.7363 23.5611 61.7083C25.6653 59.6041 26.0202 58.3873 26.1469 52.6326C26.1976 50.0214 26.3244 47.9173 26.4005 47.9427C29.113 49.3877 31.5974 49.9961 34.5635 49.9961C37.4282 49.9961 39.5323 49.4891 42.1181 48.1962L43.9434 47.2835L45.2109 48.5257C46.1236 49.413 46.4785 49.9707 46.4785 50.4524C46.4785 50.8327 46.6052 51.4664 46.7573 51.8721C47.0615 52.6833 57.6583 63.4575 58.6977 64.0152C59.0779 64.218 59.8638 64.3701 60.4215 64.3701C61.3849 64.3701 61.6384 64.218 63.2101 62.697C64.1735 61.7843 65.0861 60.6942 65.2382 60.2886C65.9227 58.6661 65.6438 58.2859 59.0779 51.7453C53.0951 45.7878 52.8923 45.6104 51.9036 45.6104C51.0163 45.6104 50.7374 45.4329 49.5713 44.2668L48.253 42.9485L49.2671 40.9204C53.7035 31.9208 49.115 20.9945 39.6337 17.9524C36.0845 16.8116 31.065 17.0905 27.7694 18.6115C27.0089 18.9664 26.3498 19.2453 26.299 19.2453C26.2483 19.2453 26.1976 17.5468 26.1976 15.468V11.6907L27.1356 11.209C28.7327 10.4231 29.113 9.6626 29.1891 7.00074C29.2905 4.28818 28.8849 3.24879 27.4398 2.38685C26.6286 1.90519 26.0709 1.87983 17.705 1.82913C12.8377 1.80378 8.45192 1.87983 8.02096 1.98124ZM27.0596 4.33888C27.3384 4.71915 27.4652 5.50503 27.4652 6.77258C27.4652 8.39505 27.3891 8.69926 26.8314 9.23163L26.223 9.86541H8.17306L7.56464 9.23163C7.00691 8.69926 6.93086 8.39505 6.93086 6.69653C6.93086 3.57835 6.22103 3.78116 17.2994 3.78116H26.6793L27.0596 4.33888ZM24.4231 20.5128L22.9527 21.9832C21.1021 23.8338 19.8345 25.8873 18.9472 28.4984C18.3895 30.1716 18.2628 31.0082 18.2374 33.1884C18.2121 34.6587 18.3135 36.2812 18.4149 36.7882L18.6177 37.7515H9.97298V31.9208H11.3419C12.7869 31.9208 13.37 31.5405 13.2179 30.7293C13.1672 30.3744 12.8123 30.2476 11.6208 30.1462L10.0997 30.0195L9.94763 25.583H12.9644C15.4235 25.583 16.0572 25.507 16.3361 25.1774C16.5643 24.8986 16.5896 24.6704 16.3868 24.3662C16.184 24.0113 15.6009 23.9352 13.0405 23.8592L9.97298 23.7831V19.4988H11.1898C12.5841 19.4988 13.37 19.0425 13.2179 18.3327C13.1419 17.927 12.863 17.8256 11.6208 17.7242L10.0997 17.5975L9.94763 11.64H24.4231V20.5128ZM38.214 19.3974C44.9321 21.1213 49.6474 27.5858 49.191 34.4559C48.7601 40.9458 44.1208 46.4469 37.8591 47.9173C29.1637 49.92 20.5697 43.5316 19.9359 34.5573C19.4543 27.7125 23.9414 21.4001 30.6341 19.4734C32.5861 18.8904 36.1606 18.865 38.214 19.3974ZM19.4543 40.1092C19.6824 41.0725 21.5838 43.8104 23.0795 45.3822L24.4738 46.8526L24.3724 51.9988C24.2963 56.562 24.2203 57.2718 23.7639 58.2859C22.5471 60.9224 20.5697 62.342 17.8572 62.5448C14.6629 62.773 12.1785 61.3787 10.8096 58.5901L10.0997 57.1451L10.0237 48.3229L9.92228 39.5261H14.6122C19.2768 39.5261 19.3022 39.5261 19.4543 40.1092ZM48.5066 47.5117L47.5939 48.399L45.363 46.1174L47.0869 44.3428L48.253 45.4836L49.3938 46.6244L48.5066 47.5117ZM57.9371 53.1396C61.1314 56.3085 63.7172 59.0718 63.7172 59.2492C63.7172 59.4267 63.0834 60.2633 62.2722 61.0998C61.2328 62.1899 60.675 62.5956 60.1934 62.5956C59.661 62.5956 58.3681 61.4548 53.881 56.9423C50.7881 53.8241 48.253 51.0862 48.253 50.8327C48.253 50.1989 51.0163 47.3849 51.6501 47.3849C52.005 47.3849 54.1091 49.3116 57.9371 53.1396Z" fill="#FF8743"/>
<path d="M32.2819 21.0453C30.406 21.3495 27.6173 22.7184 26.0963 24.0874C20.5444 29.0055 20.443 37.7516 25.8428 42.8218C30.913 47.5371 38.2141 47.5371 43.2843 42.8218C45.9208 40.3374 47.239 37.2446 47.239 33.5433C47.239 27.4844 43.0815 22.3889 37.124 21.1213C35.248 20.7411 34.3354 20.7157 32.2819 21.0453ZM36.4902 22.8198C39.9633 23.4536 42.8026 25.6085 44.3744 28.828C45.3124 30.704 45.3377 30.8308 45.3377 33.5433C45.3377 36.1798 45.287 36.4587 44.5265 38.0812C41.2308 45.0273 32.5101 46.7005 26.9836 41.4275C24.5499 39.0952 23.5105 36.408 23.7133 32.8082C23.8147 31.0082 23.9668 30.3998 24.7527 28.8027C26.2737 25.7352 28.9863 23.6057 32.2819 22.8959C34.0819 22.4903 34.6649 22.4903 36.4902 22.8198Z" fill="#FF8743"/>
<path d="M34.1581 27.3069C33.7018 27.6111 31.0399 32.0729 30.6343 33.2137C29.6963 35.8502 30.4822 38.436 32.5356 39.4501C35.5777 40.9965 38.848 38.9937 38.8734 35.5713C38.8734 33.8475 38.4171 32.6053 36.6932 29.8167C35.3749 27.6872 34.9186 27.1041 34.5637 27.1041C34.4877 27.1041 34.3102 27.2055 34.1581 27.3069ZM35.1721 30.7293C37.1242 33.9489 37.5805 35.9263 36.7185 37.1431C36.1862 37.9036 34.9947 38.3346 33.9553 38.1571C31.9526 37.7769 31.4202 35.4446 32.7384 32.9095C33.7018 31.0842 34.4116 29.8927 34.5637 29.8927C34.6398 29.8927 34.9186 30.273 35.1721 30.7293Z" fill="#FF8743"/>
<path d="M8.02096 1.98124C5.79006 2.53896 5.08024 3.85721 5.20699 7.0768C5.28304 9.63725 5.68866 10.4485 7.26042 11.209L8.19841 11.6907V33.67C8.19841 47.5117 8.29982 56.1817 8.45192 57.0437C8.98429 59.883 10.5561 62.0125 13.0658 63.3814C14.5869 64.1927 14.7897 64.2434 17.198 64.2434C20.2402 64.2434 21.5331 63.7363 23.5611 61.7083C25.6653 59.6041 26.0202 58.3873 26.1469 52.6326C26.1976 50.0214 26.3244 47.9173 26.4005 47.9427C29.113 49.3877 31.5974 49.9961 34.5635 49.9961C37.4282 49.9961 39.5323 49.4891 42.1181 48.1962L43.9434 47.2835L45.2109 48.5257C46.1236 49.413 46.4785 49.9707 46.4785 50.4524C46.4785 50.8327 46.6052 51.4664 46.7573 51.8721C47.0615 52.6833 57.6583 63.4575 58.6977 64.0152C59.0779 64.218 59.8638 64.3701 60.4215 64.3701C61.3849 64.3701 61.6384 64.218 63.2101 62.697C64.1735 61.7843 65.0861 60.6942 65.2382 60.2886C65.9227 58.6661 65.6438 58.2859 59.0779 51.7453C53.0951 45.7878 52.8923 45.6104 51.9036 45.6104C51.0163 45.6104 50.7374 45.4329 49.5713 44.2668L48.253 42.9485L49.2671 40.9204C53.7035 31.9208 49.115 20.9945 39.6337 17.9524C36.0845 16.8116 31.065 17.0905 27.7694 18.6115C27.0089 18.9664 26.3498 19.2453 26.299 19.2453C26.2483 19.2453 26.1976 17.5468 26.1976 15.468V11.6907L27.1356 11.209C28.7327 10.4231 29.113 9.6626 29.1891 7.00074C29.2905 4.28818 28.8849 3.24879 27.4398 2.38685C26.6286 1.90519 26.0709 1.87983 17.705 1.82913C12.8377 1.80378 8.45192 1.87983 8.02096 1.98124ZM27.0596 4.33888C27.3384 4.71915 27.4652 5.50503 27.4652 6.77258C27.4652 8.39505 27.3891 8.69926 26.8314 9.23163L26.223 9.86541H8.17306L7.56464 9.23163C7.00691 8.69926 6.93086 8.39505 6.93086 6.69653C6.93086 3.57835 6.22103 3.78116 17.2994 3.78116H26.6793L27.0596 4.33888ZM24.4231 20.5128L22.9527 21.9832C21.1021 23.8338 19.8345 25.8873 18.9472 28.4984C18.3895 30.1716 18.2628 31.0082 18.2374 33.1884C18.2121 34.6587 18.3135 36.2812 18.4149 36.7882L18.6177 37.7515H9.97298V31.9208H11.3419C12.7869 31.9208 13.37 31.5405 13.2179 30.7293C13.1672 30.3744 12.8123 30.2476 11.6208 30.1462L10.0997 30.0195L9.94763 25.583H12.9644C15.4235 25.583 16.0572 25.507 16.3361 25.1774C16.5643 24.8986 16.5896 24.6704 16.3868 24.3662C16.184 24.0113 15.6009 23.9352 13.0405 23.8592L9.97298 23.7831V19.4988H11.1898C12.5841 19.4988 13.37 19.0425 13.2179 18.3327C13.1419 17.927 12.863 17.8256 11.6208 17.7242L10.0997 17.5975L9.94763 11.64H24.4231V20.5128ZM38.214 19.3974C44.9321 21.1213 49.6474 27.5858 49.191 34.4559C48.7601 40.9458 44.1208 46.4469 37.8591 47.9173C29.1637 49.92 20.5697 43.5316 19.9359 34.5573C19.4543 27.7125 23.9414 21.4001 30.6341 19.4734C32.5861 18.8904 36.1606 18.865 38.214 19.3974ZM19.4543 40.1092C19.6824 41.0725 21.5838 43.8104 23.0795 45.3822L24.4738 46.8526L24.3724 51.9988C24.2963 56.562 24.2203 57.2718 23.7639 58.2859C22.5471 60.9224 20.5697 62.342 17.8572 62.5448C14.6629 62.773 12.1785 61.3787 10.8096 58.5901L10.0997 57.1451L10.0237 48.3229L9.92228 39.5261H14.6122C19.2768 39.5261 19.3022 39.5261 19.4543 40.1092ZM48.5066 47.5117L47.5939 48.399L45.363 46.1174L47.0869 44.3428L48.253 45.4836L49.3938 46.6244L48.5066 47.5117ZM57.9371 53.1396C61.1314 56.3085 63.7172 59.0718 63.7172 59.2492C63.7172 59.4267 63.0834 60.2633 62.2722 61.0998C61.2328 62.1899 60.675 62.5956 60.1934 62.5956C59.661 62.5956 58.3681 61.4548 53.881 56.9423C50.7881 53.8241 48.253 51.0862 48.253 50.8327C48.253 50.1989 51.0163 47.3849 51.6501 47.3849C52.005 47.3849 54.1091 49.3116 57.9371 53.1396Z" stroke="#FF8743" stroke-width="0.825" mask="url(#path-1-outside-1_538_3237)"/>
<path d="M32.2819 21.0453C30.406 21.3495 27.6173 22.7184 26.0963 24.0874C20.5444 29.0055 20.443 37.7516 25.8428 42.8218C30.913 47.5371 38.2141 47.5371 43.2843 42.8218C45.9208 40.3374 47.239 37.2446 47.239 33.5433C47.239 27.4844 43.0815 22.3889 37.124 21.1213C35.248 20.7411 34.3354 20.7157 32.2819 21.0453ZM36.4902 22.8198C39.9633 23.4536 42.8026 25.6085 44.3744 28.828C45.3124 30.704 45.3377 30.8308 45.3377 33.5433C45.3377 36.1798 45.287 36.4587 44.5265 38.0812C41.2308 45.0273 32.5101 46.7005 26.9836 41.4275C24.5499 39.0952 23.5105 36.408 23.7133 32.8082C23.8147 31.0082 23.9668 30.3998 24.7527 28.8027C26.2737 25.7352 28.9863 23.6057 32.2819 22.8959C34.0819 22.4903 34.6649 22.4903 36.4902 22.8198Z" stroke="#FF8743" stroke-width="0.825" mask="url(#path-1-outside-1_538_3237)"/>
<path d="M34.1581 27.3069C33.7018 27.6111 31.0399 32.0729 30.6343 33.2137C29.6963 35.8502 30.4822 38.436 32.5356 39.4501C35.5777 40.9965 38.848 38.9937 38.8734 35.5713C38.8734 33.8475 38.4171 32.6053 36.6932 29.8167C35.3749 27.6872 34.9186 27.1041 34.5637 27.1041C34.4877 27.1041 34.3102 27.2055 34.1581 27.3069ZM35.1721 30.7293C37.1242 33.9489 37.5805 35.9263 36.7185 37.1431C36.1862 37.9036 34.9947 38.3346 33.9553 38.1571C31.9526 37.7769 31.4202 35.4446 32.7384 32.9095C33.7018 31.0842 34.4116 29.8927 34.5637 29.8927C34.6398 29.8927 34.9186 30.273 35.1721 30.7293Z" stroke="#FF8743" stroke-width="0.825" mask="url(#path-1-outside-1_538_3237)"/>
</svg>
