<svg width="66" height="66" viewBox="0 0 66 66" fill="none" xmlns="http://www.w3.org/2000/svg">
<g clip-path="url(#clip0_470_1108)">
<path d="M51.1074 38.8639L60.0214 34.604" stroke="#FF8743" stroke-width="2.4375" stroke-miterlimit="1.5" stroke-linecap="round" stroke-linejoin="round"/>
<path d="M51.1074 47.4033L60.0214 51.6641" stroke="#FF8743" stroke-width="2.4375" stroke-miterlimit="1.5" stroke-linecap="round" stroke-linejoin="round"/>
<path d="M44.6309 25.2886L51.1081 30.3789C50.7547 32.3346 49.466 33.8117 46.8409 34.6039L47.4348 39.2043C44.7982 40.969 42.0016 41.4126 39.1197 41.151C39.9175 44.05 42.2535 45.8334 46.1998 46.4477C45.8187 47.5795 45.6635 48.7487 45.7139 49.9528C45.7838 51.9629 44.4789 53.7626 42.5476 54.3233C38.949 55.4689 35.058 55.347 31.0385 54.658C28.3995 55.8394 26.8501 57.9462 25.9434 60.5982" stroke="#FF8743" stroke-width="2.4375" stroke-miterlimit="1.5" stroke-linecap="round" stroke-linejoin="round"/>
<path d="M44.631 25.2887C46.243 4.03371 19.2842 0.526148 9.28314 13.2426C2.43052 21.9558 3.08133 29.1432 12.248 41.4014C13.8965 46.3536 13.2311 50.4632 10.649 53.8749" stroke="#FF8743" stroke-width="2.4375" stroke-miterlimit="1.5" stroke-linecap="round" stroke-linejoin="round"/>
<path d="M52.2051 42.9434H61.9656" stroke="#FF8743" stroke-width="2.4375" stroke-miterlimit="1.5" stroke-linecap="round" stroke-linejoin="round"/>
</g>
<defs>
<clipPath id="clip0_470_1108">
<rect width="65" height="65" fill="white" transform="translate(0.5 0.5)"/>
</clipPath>
</defs>
</svg>
