<svg width="66" height="66" viewBox="0 0 66 66" fill="none" xmlns="http://www.w3.org/2000/svg">
<g clip-path="url(#clip0_470_999)">
<path fill-rule="evenodd" clip-rule="evenodd" d="M33.0003 36.3726C37.5422 36.3116 40.884 33.4378 41.5502 28.1655C42.7682 18.5325 51.5919 2.705 59.5496 9.06362C62.3275 11.2834 59.7112 18.7421 59.5496 28.1655C59.4001 36.9218 57.6288 45.3361 52.2907 52.9963C50.2944 55.8612 45.0432 60.9442 39.9074 55.8522C39.588 55.5882 39.1924 55.0982 38.9194 54.7667C37.7607 53.3611 37.2415 47.6241 33.0003 47.5607C29.106 47.503 28.4324 51.4046 26.8749 54.9341C26.7375 55.2445 26.2208 56.1236 25.9681 56.3332C20.8323 61.4252 15.7062 55.8612 13.7099 52.9963C8.3718 45.3361 6.60055 36.9218 6.45105 28.1655C6.28936 18.7421 3.67311 11.2834 6.45105 9.06362C14.4087 2.705 23.2324 18.5325 24.4504 28.1655C25.2482 34.477 29.0694 36.4254 33.0003 36.3726Z" stroke="#FF8743" stroke-width="2.4375" stroke-miterlimit="1.5" stroke-linecap="round" stroke-linejoin="round"/>
</g>
<defs>
<clipPath id="clip0_470_999">
<rect width="65" height="65" fill="white" transform="translate(0.5 0.5)"/>
</clipPath>
</defs>
</svg>
