<svg width="66" height="66" viewBox="0 0 66 66" fill="none" xmlns="http://www.w3.org/2000/svg">
<mask id="path-1-outside-1_538_3237" maskUnits="userSpaceOnUse" x="0.961914" y="1.08032" width="63" height="63" fill="black">
<path d="M26.2886 2.37238C26.0723 2.58872 26.0002 4.48775 26.0002 9.46367C26.0002 15.0405 25.9281 16.4107 25.6396 16.9876C25.3031 17.6367 24.4137 18.4299 24.0531 18.4299C23.9569 18.4299 23.8367 17.5405 23.7887 16.4348C23.6685 13.7184 22.8512 11.9396 20.8079 10.0406C19.1252 8.45406 17.5628 7.73291 15.2791 7.49253C10.6157 6.96369 5.37535 9.96847 3.28402 14.3915C2.25037 16.555 1.96191 18.0453 1.96191 21.0501C1.96191 23.4539 2.13018 23.9587 2.97152 23.9587C3.64459 23.9587 3.88498 22.9732 3.88498 20.329C3.88498 16.603 4.84651 14.2954 7.37053 11.9636C9.9907 9.55982 14.1253 8.62233 17.1781 9.77617C18.8608 10.4012 20.6156 12.0598 21.4329 13.7425C22.2743 15.5213 22.2502 18.0694 21.3848 19.9444L20.7358 21.3145L19.63 20.2328C18.3801 19.0309 17.2503 18.7665 16.9858 19.6319C16.8656 19.9924 17.1541 20.4011 18.1156 21.3626C20.6877 23.9107 20.6397 27.0597 17.9714 29.4154C16.8176 30.425 16.6253 30.9058 17.2262 31.4106C17.707 31.8193 18.4522 31.5068 19.6541 30.401L20.6877 29.4395L21.1685 30.2327C22.755 32.8529 22.2743 36.4827 19.9906 38.9586C15.9041 43.4057 7.77918 41.4586 4.82247 35.3289C4.07728 33.7904 4.02921 33.5019 3.88498 30.3289C3.81286 28.4779 3.66863 26.8193 3.57248 26.651C3.3321 26.2905 2.63499 26.2664 2.25037 26.651C2.05807 26.8433 1.96191 27.8529 1.96191 29.6077C1.96191 34.151 2.92344 36.7471 5.66381 39.4875C8.35609 42.1798 11.3368 43.3576 14.9666 43.1413C18.5002 42.9249 21.457 40.9298 23.0435 37.7086C23.5483 36.651 23.7166 35.9298 23.7887 34.2471L23.8848 32.1318L24.5819 32.5404C25.7838 33.2616 26.0002 34.0789 26.0002 38.2134V41.9634L24.5819 43.3096C22.2502 45.5211 20.9521 48.5499 20.9521 51.723C20.9521 55.0883 22.0579 57.7566 24.4377 60.1363C29.0771 64.7517 36.4088 64.7517 41.0241 60.1363C43.4039 57.7566 44.5097 55.0883 44.5097 51.723C44.5097 48.5499 43.2116 45.5211 40.8799 43.3096L39.4616 41.9634V38.2134C39.4616 34.0789 39.678 33.2616 40.8799 32.5404L41.577 32.1318L41.6731 34.2471C41.7453 35.9298 41.9135 36.651 42.4183 37.7086C44.4375 41.8192 48.7164 43.8624 53.4519 42.973C56.3846 42.3961 57.9471 41.1942 56.8894 40.3048C56.6009 40.0644 56.3365 40.0884 55.375 40.4971C51.649 42.1076 47.8269 41.5067 45.4712 38.9586C43.1876 36.4827 42.7068 32.8529 44.2933 30.2327L44.7741 29.4395L45.8077 30.401C47.0096 31.5068 47.7548 31.8193 48.2356 31.4106C48.8125 30.9298 48.6683 30.5452 47.4904 29.4395C44.8222 26.9635 44.7741 23.9107 47.3462 21.3626C48.3077 20.4011 48.5962 19.9924 48.476 19.6319C48.2116 18.7665 47.0818 19.0309 45.8318 20.2328L44.726 21.3145L44.077 19.9444C43.5481 18.7905 43.4279 18.2376 43.452 16.7473C43.476 14.5357 44.101 13.0454 45.7116 11.4348C48.7644 8.35791 54.4615 8.62233 58.0913 11.9636C59.6057 13.3579 60.4711 14.68 61.072 16.4588C61.5288 17.829 61.5768 18.478 61.5768 25.401C61.5768 33.7904 61.4807 34.3433 59.7499 36.8673C58.8365 38.1894 58.7884 38.7663 59.4855 39.199C60.3749 39.7279 62.3461 36.7231 63.1393 33.6942C63.4278 32.5885 63.4999 30.7856 63.4999 25.4972C63.4999 21.7713 63.3797 18.1415 63.2595 17.4444C62.3701 12.7569 58.3557 8.71848 53.5961 7.70888C50.1346 6.96369 47.1298 7.73291 44.726 9.96847C42.6347 11.8915 41.8174 13.6223 41.6731 16.3146C41.6251 17.4925 41.5049 18.4299 41.4087 18.4299C41.0481 18.4299 40.1587 17.6367 39.8222 16.9876C39.5337 16.4107 39.4616 15.0405 39.4616 9.46367C39.4616 4.48775 39.3895 2.58872 39.1732 2.37238C38.6924 1.89161 38.0193 2.03584 37.7789 2.70892C37.4905 3.4541 37.4664 14.9925 37.7549 16.4348C38.1155 18.3338 39.726 19.9924 41.4328 20.2809C42.2501 20.4011 42.4424 20.6174 43.2597 22.3241C43.4039 22.6366 41.7693 22.5405 40.4953 22.1559C38.8366 21.6751 37.2982 20.4251 36.4568 18.8867L35.7357 17.5886L35.6636 10.1367C35.6155 5.32909 35.4953 2.58872 35.327 2.39642C34.9424 1.93969 34.2213 2.01181 33.9328 2.54065C33.5482 3.2618 33.6203 15.8098 34.029 17.4925C34.4376 19.2472 35.303 20.7376 36.6972 22.0116C38.1636 23.3818 39.6539 23.9828 41.8414 24.1751L43.6443 24.3193L43.6924 26.3145L41.9376 26.4107C38.5962 26.627 35.5674 28.8145 34.3655 31.8914C33.9809 32.9491 33.8367 33.9106 33.7405 36.6269L33.6203 40.0644H31.8415L31.7213 36.6269C31.6251 33.9106 31.4809 32.9491 31.0963 31.8914C29.8944 28.8145 26.8656 26.627 23.5242 26.4107L21.7695 26.3145L21.8175 24.3193L23.6204 24.1751C25.8079 23.9828 27.2983 23.3818 28.7646 22.0116C30.8319 20.1126 31.7694 17.7809 31.7694 14.5117C31.7694 12.6848 31.505 11.9396 30.8319 11.9396C30.0627 11.9396 29.8944 12.4685 29.7982 15.0646C29.7261 17.3001 29.63 17.7328 29.005 18.8867C28.1636 20.4251 26.6252 21.6511 24.9665 22.1559C23.6925 22.5405 22.0579 22.6366 22.2021 22.3241C23.0435 20.5694 23.1877 20.4011 24.1012 20.2569C24.7021 20.1607 25.3992 19.7761 26.0242 19.2232C27.8031 17.6126 27.8031 17.6607 27.8752 10.1367C27.9233 5.83389 27.8752 3.16564 27.7069 2.73295C27.4425 2.03584 26.7935 1.86758 26.2886 2.37238ZM25.88 28.8626C27.3704 29.5356 28.9569 31.2904 29.4617 32.7808C29.7261 33.5741 29.8463 34.824 29.8463 37.0596V40.2327L27.9713 40.9538L27.8752 37.4442C27.755 33.5019 27.5146 32.6606 26.0963 31.4106C25.6396 31.026 24.7983 30.5693 24.2454 30.4491C23.4281 30.2327 23.1396 29.9924 22.7069 29.2231L22.2021 28.2856H23.4281C24.2214 28.2856 25.1108 28.502 25.88 28.8626ZM42.7549 29.2231C42.3222 29.9924 42.0337 30.2327 41.2164 30.4491C40.6635 30.5693 39.8222 31.026 39.3655 31.4106C37.9472 32.6606 37.7068 33.5019 37.5866 37.4442L37.4905 40.9538L35.6155 40.2327V37.0596C35.6155 33.3096 35.928 32.2039 37.3703 30.5452C38.6203 29.127 40.351 28.2856 42.0337 28.2856H43.2597L42.7549 29.2231ZM34.8703 42.0115C38.8366 42.9249 41.8895 46.1942 42.6106 50.2566C43.3318 54.5114 41.0001 58.8864 36.8655 60.9056C35.6155 61.5306 35.279 61.5786 32.7309 61.5786C30.1828 61.5786 29.8463 61.5306 28.5963 60.9056C24.4617 58.8864 22.13 54.5114 22.8512 50.2566C23.8608 44.5355 29.3896 40.7375 34.8703 42.0115Z"/>
<path d="M31.2647 44.271C30.3752 44.7518 29.8464 46.0258 29.8464 47.6123V48.9585H28.4041C25.9041 48.9585 24.6061 50.1363 24.8705 52.1315C25.0868 53.8142 26.433 54.7277 28.6445 54.7277H29.8464V56.0498C29.8464 57.6603 30.3272 58.6699 31.3608 59.2949C32.3464 59.8959 33.1156 59.8959 34.1012 59.2949C35.1348 58.6699 35.6156 57.6603 35.6156 56.0498V54.7277H36.8175C39.029 54.7277 40.3752 53.8142 40.5915 52.1315C40.8559 50.1363 39.5579 48.9585 37.0579 48.9585H35.6156V47.6123C35.6156 45.2566 34.5339 43.8864 32.6829 43.9104C32.2502 43.9345 31.6012 44.0787 31.2647 44.271ZM33.2358 45.8335C33.6204 46.0498 33.6925 46.3623 33.6925 48.0691C33.6925 49.295 33.8127 50.1844 33.981 50.3527C34.1493 50.521 34.9425 50.6412 35.88 50.6412C38.0675 50.6412 38.7406 50.9056 38.7406 51.819C38.7406 52.6844 38.4521 52.8046 36.0964 52.8046C34.8464 52.8046 34.1252 52.9008 34.005 53.0931C33.9089 53.2613 33.7646 54.319 33.6925 55.4248C33.5964 56.9873 33.4762 57.4921 33.1637 57.7084C32.8512 57.9007 32.6108 57.9007 32.3223 57.7084C31.9858 57.4921 31.8656 56.9873 31.7695 55.4248C31.6973 54.319 31.5531 53.2613 31.457 53.0931C31.3368 52.9008 30.6156 52.8046 29.3656 52.8046C27.0099 52.8046 26.7214 52.6844 26.7214 51.819C26.7214 50.9056 27.3945 50.6412 29.582 50.6412C30.5195 50.6412 31.3127 50.521 31.481 50.3527C31.6493 50.1844 31.7695 49.295 31.7695 48.0691C31.7695 46.4345 31.8416 46.0498 32.2022 45.8575C32.707 45.545 32.6829 45.545 33.2358 45.8335Z"/>
<path d="M30.1349 2.37219C29.9426 2.5645 29.8464 3.67026 29.8464 5.80967C29.8464 9.05483 29.9666 9.5356 30.856 9.5356C31.0723 9.5356 31.3848 9.31925 31.5291 9.07887C31.8416 8.47791 31.8416 3.14142 31.5291 2.54046C31.2406 2.03566 30.5675 1.9395 30.1349 2.37219Z"/>
</mask>
<path d="M26.2886 2.37238C26.0723 2.58872 26.0002 4.48775 26.0002 9.46367C26.0002 15.0405 25.9281 16.4107 25.6396 16.9876C25.3031 17.6367 24.4137 18.4299 24.0531 18.4299C23.9569 18.4299 23.8367 17.5405 23.7887 16.4348C23.6685 13.7184 22.8512 11.9396 20.8079 10.0406C19.1252 8.45406 17.5628 7.73291 15.2791 7.49253C10.6157 6.96369 5.37535 9.96847 3.28402 14.3915C2.25037 16.555 1.96191 18.0453 1.96191 21.0501C1.96191 23.4539 2.13018 23.9587 2.97152 23.9587C3.64459 23.9587 3.88498 22.9732 3.88498 20.329C3.88498 16.603 4.84651 14.2954 7.37053 11.9636C9.9907 9.55982 14.1253 8.62233 17.1781 9.77617C18.8608 10.4012 20.6156 12.0598 21.4329 13.7425C22.2743 15.5213 22.2502 18.0694 21.3848 19.9444L20.7358 21.3145L19.63 20.2328C18.3801 19.0309 17.2503 18.7665 16.9858 19.6319C16.8656 19.9924 17.1541 20.4011 18.1156 21.3626C20.6877 23.9107 20.6397 27.0597 17.9714 29.4154C16.8176 30.425 16.6253 30.9058 17.2262 31.4106C17.707 31.8193 18.4522 31.5068 19.6541 30.401L20.6877 29.4395L21.1685 30.2327C22.755 32.8529 22.2743 36.4827 19.9906 38.9586C15.9041 43.4057 7.77918 41.4586 4.82247 35.3289C4.07728 33.7904 4.02921 33.5019 3.88498 30.3289C3.81286 28.4779 3.66863 26.8193 3.57248 26.651C3.3321 26.2905 2.63499 26.2664 2.25037 26.651C2.05807 26.8433 1.96191 27.8529 1.96191 29.6077C1.96191 34.151 2.92344 36.7471 5.66381 39.4875C8.35609 42.1798 11.3368 43.3576 14.9666 43.1413C18.5002 42.9249 21.457 40.9298 23.0435 37.7086C23.5483 36.651 23.7166 35.9298 23.7887 34.2471L23.8848 32.1318L24.5819 32.5404C25.7838 33.2616 26.0002 34.0789 26.0002 38.2134V41.9634L24.5819 43.3096C22.2502 45.5211 20.9521 48.5499 20.9521 51.723C20.9521 55.0883 22.0579 57.7566 24.4377 60.1363C29.0771 64.7517 36.4088 64.7517 41.0241 60.1363C43.4039 57.7566 44.5097 55.0883 44.5097 51.723C44.5097 48.5499 43.2116 45.5211 40.8799 43.3096L39.4616 41.9634V38.2134C39.4616 34.0789 39.678 33.2616 40.8799 32.5404L41.577 32.1318L41.6731 34.2471C41.7453 35.9298 41.9135 36.651 42.4183 37.7086C44.4375 41.8192 48.7164 43.8624 53.4519 42.973C56.3846 42.3961 57.9471 41.1942 56.8894 40.3048C56.6009 40.0644 56.3365 40.0884 55.375 40.4971C51.649 42.1076 47.8269 41.5067 45.4712 38.9586C43.1876 36.4827 42.7068 32.8529 44.2933 30.2327L44.7741 29.4395L45.8077 30.401C47.0096 31.5068 47.7548 31.8193 48.2356 31.4106C48.8125 30.9298 48.6683 30.5452 47.4904 29.4395C44.8222 26.9635 44.7741 23.9107 47.3462 21.3626C48.3077 20.4011 48.5962 19.9924 48.476 19.6319C48.2116 18.7665 47.0818 19.0309 45.8318 20.2328L44.726 21.3145L44.077 19.9444C43.5481 18.7905 43.4279 18.2376 43.452 16.7473C43.476 14.5357 44.101 13.0454 45.7116 11.4348C48.7644 8.35791 54.4615 8.62233 58.0913 11.9636C59.6057 13.3579 60.4711 14.68 61.072 16.4588C61.5288 17.829 61.5768 18.478 61.5768 25.401C61.5768 33.7904 61.4807 34.3433 59.7499 36.8673C58.8365 38.1894 58.7884 38.7663 59.4855 39.199C60.3749 39.7279 62.3461 36.7231 63.1393 33.6942C63.4278 32.5885 63.4999 30.7856 63.4999 25.4972C63.4999 21.7713 63.3797 18.1415 63.2595 17.4444C62.3701 12.7569 58.3557 8.71848 53.5961 7.70888C50.1346 6.96369 47.1298 7.73291 44.726 9.96847C42.6347 11.8915 41.8174 13.6223 41.6731 16.3146C41.6251 17.4925 41.5049 18.4299 41.4087 18.4299C41.0481 18.4299 40.1587 17.6367 39.8222 16.9876C39.5337 16.4107 39.4616 15.0405 39.4616 9.46367C39.4616 4.48775 39.3895 2.58872 39.1732 2.37238C38.6924 1.89161 38.0193 2.03584 37.7789 2.70892C37.4905 3.4541 37.4664 14.9925 37.7549 16.4348C38.1155 18.3338 39.726 19.9924 41.4328 20.2809C42.2501 20.4011 42.4424 20.6174 43.2597 22.3241C43.4039 22.6366 41.7693 22.5405 40.4953 22.1559C38.8366 21.6751 37.2982 20.4251 36.4568 18.8867L35.7357 17.5886L35.6636 10.1367C35.6155 5.32909 35.4953 2.58872 35.327 2.39642C34.9424 1.93969 34.2213 2.01181 33.9328 2.54065C33.5482 3.2618 33.6203 15.8098 34.029 17.4925C34.4376 19.2472 35.303 20.7376 36.6972 22.0116C38.1636 23.3818 39.6539 23.9828 41.8414 24.1751L43.6443 24.3193L43.6924 26.3145L41.9376 26.4107C38.5962 26.627 35.5674 28.8145 34.3655 31.8914C33.9809 32.9491 33.8367 33.9106 33.7405 36.6269L33.6203 40.0644H31.8415L31.7213 36.6269C31.6251 33.9106 31.4809 32.9491 31.0963 31.8914C29.8944 28.8145 26.8656 26.627 23.5242 26.4107L21.7695 26.3145L21.8175 24.3193L23.6204 24.1751C25.8079 23.9828 27.2983 23.3818 28.7646 22.0116C30.8319 20.1126 31.7694 17.7809 31.7694 14.5117C31.7694 12.6848 31.505 11.9396 30.8319 11.9396C30.0627 11.9396 29.8944 12.4685 29.7982 15.0646C29.7261 17.3001 29.63 17.7328 29.005 18.8867C28.1636 20.4251 26.6252 21.6511 24.9665 22.1559C23.6925 22.5405 22.0579 22.6366 22.2021 22.3241C23.0435 20.5694 23.1877 20.4011 24.1012 20.2569C24.7021 20.1607 25.3992 19.7761 26.0242 19.2232C27.8031 17.6126 27.8031 17.6607 27.8752 10.1367C27.9233 5.83389 27.8752 3.16564 27.7069 2.73295C27.4425 2.03584 26.7935 1.86758 26.2886 2.37238ZM25.88 28.8626C27.3704 29.5356 28.9569 31.2904 29.4617 32.7808C29.7261 33.5741 29.8463 34.824 29.8463 37.0596V40.2327L27.9713 40.9538L27.8752 37.4442C27.755 33.5019 27.5146 32.6606 26.0963 31.4106C25.6396 31.026 24.7983 30.5693 24.2454 30.4491C23.4281 30.2327 23.1396 29.9924 22.7069 29.2231L22.2021 28.2856H23.4281C24.2214 28.2856 25.1108 28.502 25.88 28.8626ZM42.7549 29.2231C42.3222 29.9924 42.0337 30.2327 41.2164 30.4491C40.6635 30.5693 39.8222 31.026 39.3655 31.4106C37.9472 32.6606 37.7068 33.5019 37.5866 37.4442L37.4905 40.9538L35.6155 40.2327V37.0596C35.6155 33.3096 35.928 32.2039 37.3703 30.5452C38.6203 29.127 40.351 28.2856 42.0337 28.2856H43.2597L42.7549 29.2231ZM34.8703 42.0115C38.8366 42.9249 41.8895 46.1942 42.6106 50.2566C43.3318 54.5114 41.0001 58.8864 36.8655 60.9056C35.6155 61.5306 35.279 61.5786 32.7309 61.5786C30.1828 61.5786 29.8463 61.5306 28.5963 60.9056C24.4617 58.8864 22.13 54.5114 22.8512 50.2566C23.8608 44.5355 29.3896 40.7375 34.8703 42.0115Z" fill="#FF8743"/>
<path d="M31.2647 44.271C30.3752 44.7518 29.8464 46.0258 29.8464 47.6123V48.9585H28.4041C25.9041 48.9585 24.6061 50.1363 24.8705 52.1315C25.0868 53.8142 26.433 54.7277 28.6445 54.7277H29.8464V56.0498C29.8464 57.6603 30.3272 58.6699 31.3608 59.2949C32.3464 59.8959 33.1156 59.8959 34.1012 59.2949C35.1348 58.6699 35.6156 57.6603 35.6156 56.0498V54.7277H36.8175C39.029 54.7277 40.3752 53.8142 40.5915 52.1315C40.8559 50.1363 39.5579 48.9585 37.0579 48.9585H35.6156V47.6123C35.6156 45.2566 34.5339 43.8864 32.6829 43.9104C32.2502 43.9345 31.6012 44.0787 31.2647 44.271ZM33.2358 45.8335C33.6204 46.0498 33.6925 46.3623 33.6925 48.0691C33.6925 49.295 33.8127 50.1844 33.981 50.3527C34.1493 50.521 34.9425 50.6412 35.88 50.6412C38.0675 50.6412 38.7406 50.9056 38.7406 51.819C38.7406 52.6844 38.4521 52.8046 36.0964 52.8046C34.8464 52.8046 34.1252 52.9008 34.005 53.0931C33.9089 53.2613 33.7646 54.319 33.6925 55.4248C33.5964 56.9873 33.4762 57.4921 33.1637 57.7084C32.8512 57.9007 32.6108 57.9007 32.3223 57.7084C31.9858 57.4921 31.8656 56.9873 31.7695 55.4248C31.6973 54.319 31.5531 53.2613 31.457 53.0931C31.3368 52.9008 30.6156 52.8046 29.3656 52.8046C27.0099 52.8046 26.7214 52.6844 26.7214 51.819C26.7214 50.9056 27.3945 50.6412 29.582 50.6412C30.5195 50.6412 31.3127 50.521 31.481 50.3527C31.6493 50.1844 31.7695 49.295 31.7695 48.0691C31.7695 46.4345 31.8416 46.0498 32.2022 45.8575C32.707 45.545 32.6829 45.545 33.2358 45.8335Z" fill="#FF8743"/>
<path d="M30.1349 2.37219C29.9426 2.5645 29.8464 3.67026 29.8464 5.80967C29.8464 9.05483 29.9666 9.5356 30.856 9.5356C31.0723 9.5356 31.3848 9.31925 31.5291 9.07887C31.8416 8.47791 31.8416 3.14142 31.5291 2.54046C31.2406 2.03566 30.5675 1.9395 30.1349 2.37219Z" fill="#FF8743"/>
<path d="M26.2886 2.37238C26.0723 2.58872 26.0002 4.48775 26.0002 9.46367C26.0002 15.0405 25.9281 16.4107 25.6396 16.9876C25.3031 17.6367 24.4137 18.4299 24.0531 18.4299C23.9569 18.4299 23.8367 17.5405 23.7887 16.4348C23.6685 13.7184 22.8512 11.9396 20.8079 10.0406C19.1252 8.45406 17.5628 7.73291 15.2791 7.49253C10.6157 6.96369 5.37535 9.96847 3.28402 14.3915C2.25037 16.555 1.96191 18.0453 1.96191 21.0501C1.96191 23.4539 2.13018 23.9587 2.97152 23.9587C3.64459 23.9587 3.88498 22.9732 3.88498 20.329C3.88498 16.603 4.84651 14.2954 7.37053 11.9636C9.9907 9.55982 14.1253 8.62233 17.1781 9.77617C18.8608 10.4012 20.6156 12.0598 21.4329 13.7425C22.2743 15.5213 22.2502 18.0694 21.3848 19.9444L20.7358 21.3145L19.63 20.2328C18.3801 19.0309 17.2503 18.7665 16.9858 19.6319C16.8656 19.9924 17.1541 20.4011 18.1156 21.3626C20.6877 23.9107 20.6397 27.0597 17.9714 29.4154C16.8176 30.425 16.6253 30.9058 17.2262 31.4106C17.707 31.8193 18.4522 31.5068 19.6541 30.401L20.6877 29.4395L21.1685 30.2327C22.755 32.8529 22.2743 36.4827 19.9906 38.9586C15.9041 43.4057 7.77918 41.4586 4.82247 35.3289C4.07728 33.7904 4.02921 33.5019 3.88498 30.3289C3.81286 28.4779 3.66863 26.8193 3.57248 26.651C3.3321 26.2905 2.63499 26.2664 2.25037 26.651C2.05807 26.8433 1.96191 27.8529 1.96191 29.6077C1.96191 34.151 2.92344 36.7471 5.66381 39.4875C8.35609 42.1798 11.3368 43.3576 14.9666 43.1413C18.5002 42.9249 21.457 40.9298 23.0435 37.7086C23.5483 36.651 23.7166 35.9298 23.7887 34.2471L23.8848 32.1318L24.5819 32.5404C25.7838 33.2616 26.0002 34.0789 26.0002 38.2134V41.9634L24.5819 43.3096C22.2502 45.5211 20.9521 48.5499 20.9521 51.723C20.9521 55.0883 22.0579 57.7566 24.4377 60.1363C29.0771 64.7517 36.4088 64.7517 41.0241 60.1363C43.4039 57.7566 44.5097 55.0883 44.5097 51.723C44.5097 48.5499 43.2116 45.5211 40.8799 43.3096L39.4616 41.9634V38.2134C39.4616 34.0789 39.678 33.2616 40.8799 32.5404L41.577 32.1318L41.6731 34.2471C41.7453 35.9298 41.9135 36.651 42.4183 37.7086C44.4375 41.8192 48.7164 43.8624 53.4519 42.973C56.3846 42.3961 57.9471 41.1942 56.8894 40.3048C56.6009 40.0644 56.3365 40.0884 55.375 40.4971C51.649 42.1076 47.8269 41.5067 45.4712 38.9586C43.1876 36.4827 42.7068 32.8529 44.2933 30.2327L44.7741 29.4395L45.8077 30.401C47.0096 31.5068 47.7548 31.8193 48.2356 31.4106C48.8125 30.9298 48.6683 30.5452 47.4904 29.4395C44.8222 26.9635 44.7741 23.9107 47.3462 21.3626C48.3077 20.4011 48.5962 19.9924 48.476 19.6319C48.2116 18.7665 47.0818 19.0309 45.8318 20.2328L44.726 21.3145L44.077 19.9444C43.5481 18.7905 43.4279 18.2376 43.452 16.7473C43.476 14.5357 44.101 13.0454 45.7116 11.4348C48.7644 8.35791 54.4615 8.62233 58.0913 11.9636C59.6057 13.3579 60.4711 14.68 61.072 16.4588C61.5288 17.829 61.5768 18.478 61.5768 25.401C61.5768 33.7904 61.4807 34.3433 59.7499 36.8673C58.8365 38.1894 58.7884 38.7663 59.4855 39.199C60.3749 39.7279 62.3461 36.7231 63.1393 33.6942C63.4278 32.5885 63.4999 30.7856 63.4999 25.4972C63.4999 21.7713 63.3797 18.1415 63.2595 17.4444C62.3701 12.7569 58.3557 8.71848 53.5961 7.70888C50.1346 6.96369 47.1298 7.73291 44.726 9.96847C42.6347 11.8915 41.8174 13.6223 41.6731 16.3146C41.6251 17.4925 41.5049 18.4299 41.4087 18.4299C41.0481 18.4299 40.1587 17.6367 39.8222 16.9876C39.5337 16.4107 39.4616 15.0405 39.4616 9.46367C39.4616 4.48775 39.3895 2.58872 39.1732 2.37238C38.6924 1.89161 38.0193 2.03584 37.7789 2.70892C37.4905 3.4541 37.4664 14.9925 37.7549 16.4348C38.1155 18.3338 39.726 19.9924 41.4328 20.2809C42.2501 20.4011 42.4424 20.6174 43.2597 22.3241C43.4039 22.6366 41.7693 22.5405 40.4953 22.1559C38.8366 21.6751 37.2982 20.4251 36.4568 18.8867L35.7357 17.5886L35.6636 10.1367C35.6155 5.32909 35.4953 2.58872 35.327 2.39642C34.9424 1.93969 34.2213 2.01181 33.9328 2.54065C33.5482 3.2618 33.6203 15.8098 34.029 17.4925C34.4376 19.2472 35.303 20.7376 36.6972 22.0116C38.1636 23.3818 39.6539 23.9828 41.8414 24.1751L43.6443 24.3193L43.6924 26.3145L41.9376 26.4107C38.5962 26.627 35.5674 28.8145 34.3655 31.8914C33.9809 32.9491 33.8367 33.9106 33.7405 36.6269L33.6203 40.0644H31.8415L31.7213 36.6269C31.6251 33.9106 31.4809 32.9491 31.0963 31.8914C29.8944 28.8145 26.8656 26.627 23.5242 26.4107L21.7695 26.3145L21.8175 24.3193L23.6204 24.1751C25.8079 23.9828 27.2983 23.3818 28.7646 22.0116C30.8319 20.1126 31.7694 17.7809 31.7694 14.5117C31.7694 12.6848 31.505 11.9396 30.8319 11.9396C30.0627 11.9396 29.8944 12.4685 29.7982 15.0646C29.7261 17.3001 29.63 17.7328 29.005 18.8867C28.1636 20.4251 26.6252 21.6511 24.9665 22.1559C23.6925 22.5405 22.0579 22.6366 22.2021 22.3241C23.0435 20.5694 23.1877 20.4011 24.1012 20.2569C24.7021 20.1607 25.3992 19.7761 26.0242 19.2232C27.8031 17.6126 27.8031 17.6607 27.8752 10.1367C27.9233 5.83389 27.8752 3.16564 27.7069 2.73295C27.4425 2.03584 26.7935 1.86758 26.2886 2.37238ZM25.88 28.8626C27.3704 29.5356 28.9569 31.2904 29.4617 32.7808C29.7261 33.5741 29.8463 34.824 29.8463 37.0596V40.2327L27.9713 40.9538L27.8752 37.4442C27.755 33.5019 27.5146 32.6606 26.0963 31.4106C25.6396 31.026 24.7983 30.5693 24.2454 30.4491C23.4281 30.2327 23.1396 29.9924 22.7069 29.2231L22.2021 28.2856H23.4281C24.2214 28.2856 25.1108 28.502 25.88 28.8626ZM42.7549 29.2231C42.3222 29.9924 42.0337 30.2327 41.2164 30.4491C40.6635 30.5693 39.8222 31.026 39.3655 31.4106C37.9472 32.6606 37.7068 33.5019 37.5866 37.4442L37.4905 40.9538L35.6155 40.2327V37.0596C35.6155 33.3096 35.928 32.2039 37.3703 30.5452C38.6203 29.127 40.351 28.2856 42.0337 28.2856H43.2597L42.7549 29.2231ZM34.8703 42.0115C38.8366 42.9249 41.8895 46.1942 42.6106 50.2566C43.3318 54.5114 41.0001 58.8864 36.8655 60.9056C35.6155 61.5306 35.279 61.5786 32.7309 61.5786C30.1828 61.5786 29.8463 61.5306 28.5963 60.9056C24.4617 58.8864 22.13 54.5114 22.8512 50.2566C23.8608 44.5355 29.3896 40.7375 34.8703 42.0115Z" stroke="#FF8743" stroke-width="0.495" mask="url(#path-1-outside-1_538_3237)"/>
<path d="M31.2647 44.271C30.3752 44.7518 29.8464 46.0258 29.8464 47.6123V48.9585H28.4041C25.9041 48.9585 24.6061 50.1363 24.8705 52.1315C25.0868 53.8142 26.433 54.7277 28.6445 54.7277H29.8464V56.0498C29.8464 57.6603 30.3272 58.6699 31.3608 59.2949C32.3464 59.8959 33.1156 59.8959 34.1012 59.2949C35.1348 58.6699 35.6156 57.6603 35.6156 56.0498V54.7277H36.8175C39.029 54.7277 40.3752 53.8142 40.5915 52.1315C40.8559 50.1363 39.5579 48.9585 37.0579 48.9585H35.6156V47.6123C35.6156 45.2566 34.5339 43.8864 32.6829 43.9104C32.2502 43.9345 31.6012 44.0787 31.2647 44.271ZM33.2358 45.8335C33.6204 46.0498 33.6925 46.3623 33.6925 48.0691C33.6925 49.295 33.8127 50.1844 33.981 50.3527C34.1493 50.521 34.9425 50.6412 35.88 50.6412C38.0675 50.6412 38.7406 50.9056 38.7406 51.819C38.7406 52.6844 38.4521 52.8046 36.0964 52.8046C34.8464 52.8046 34.1252 52.9008 34.005 53.0931C33.9089 53.2613 33.7646 54.319 33.6925 55.4248C33.5964 56.9873 33.4762 57.4921 33.1637 57.7084C32.8512 57.9007 32.6108 57.9007 32.3223 57.7084C31.9858 57.4921 31.8656 56.9873 31.7695 55.4248C31.6973 54.319 31.5531 53.2613 31.457 53.0931C31.3368 52.9008 30.6156 52.8046 29.3656 52.8046C27.0099 52.8046 26.7214 52.6844 26.7214 51.819C26.7214 50.9056 27.3945 50.6412 29.582 50.6412C30.5195 50.6412 31.3127 50.521 31.481 50.3527C31.6493 50.1844 31.7695 49.295 31.7695 48.0691C31.7695 46.4345 31.8416 46.0498 32.2022 45.8575C32.707 45.545 32.6829 45.545 33.2358 45.8335Z" stroke="#FF8743" stroke-width="0.495" mask="url(#path-1-outside-1_538_3237)"/>
<path d="M30.1349 2.37219C29.9426 2.5645 29.8464 3.67026 29.8464 5.80967C29.8464 9.05483 29.9666 9.5356 30.856 9.5356C31.0723 9.5356 31.3848 9.31925 31.5291 9.07887C31.8416 8.47791 31.8416 3.14142 31.5291 2.54046C31.2406 2.03566 30.5675 1.9395 30.1349 2.37219Z" stroke="#FF8743" stroke-width="0.495" mask="url(#path-1-outside-1_538_3237)"/>
</svg>
