<svg width="66" height="66" viewBox="0 0 66 66" fill="none" xmlns="http://www.w3.org/2000/svg">
<mask id="path-1-outside-1_538_3237" maskUnits="userSpaceOnUse" x="5.11523" y="0.416504" width="56" height="66" fill="black">
<path d="M36.4994 1.74551C35.8512 2.51838 36.3249 2.94221 38.6185 3.61535C45.6491 5.6597 50.735 10.7706 52.7545 17.7513C53.5523 20.5436 53.5523 25.5796 52.7545 28.3719C50.735 35.3776 45.2751 40.7876 38.2446 42.6824C36.0008 43.3057 30.5159 43.3057 28.2721 42.6824C22.3634 41.0868 17.5517 37.048 14.934 31.4634C12.6652 26.7015 12.4658 21.117 14.3606 15.9313C16.8038 9.15005 24.1336 3.36604 30.2666 3.36604C33.383 3.36604 35.7016 4.71231 36.7487 7.13063C37.5714 9.07526 37.3969 11.6432 36.3498 13.139C34.3553 16.0061 29.3442 16.5795 27.8483 14.1113C27.2749 13.164 27.225 11.7927 27.7236 10.8703C28.7209 9.0254 31.1143 8.60157 32.8844 9.97278C33.8068 10.6459 34.4052 10.6459 34.6545 9.97278C35.0783 8.92567 32.7099 7.35501 30.7403 7.35501C29.1447 7.35501 27.1751 8.40212 26.3275 9.6736C25.3302 11.1695 25.3801 13.2886 26.4023 14.959C28.3718 18.1751 33.6822 18.2998 36.8484 15.2332C38.7432 13.3883 39.3415 11.4686 38.9676 8.60157C38.5687 5.85914 37.0479 3.71507 34.5797 2.49345C33.383 1.8951 32.7348 1.77044 30.84 1.67072C28.8455 1.571 28.2223 1.64579 26.4771 2.2192C20.2443 4.16383 14.5101 9.72347 12.5905 15.6072C12.3411 16.3801 12.1417 16.5546 11.3688 16.7042C9.54886 17.0532 7.65409 18.4743 6.78151 20.1696C5.98371 21.7403 5.88399 24.1336 6.58206 25.7542C7.32999 27.4744 9.12503 29.1199 10.7456 29.5437C12.5655 29.9925 12.5655 29.9925 12.5655 30.3415C12.5655 30.8401 14.211 34.1559 15.1085 35.4773C15.5323 36.1255 16.5545 37.3222 17.3274 38.1449L18.7484 39.6408L18.8482 46.6215C18.9479 53.4028 18.9728 53.6521 19.5961 55.2726C21.9396 61.4555 27.0006 65.0456 33.2583 65.0456C36.7986 65.0456 39.4662 64.1231 42.1837 61.9541L43.4801 60.9319L44.9261 62.1037C45.699 62.7519 47.2447 63.7242 48.3666 64.2478L50.386 65.2201L51.7323 64.6965C53.627 63.9486 56.2448 62.1286 57.4415 60.7574C57.99 60.1092 58.8626 58.7629 59.3861 57.7408L60.3086 55.8709L60.3834 50.9844C60.4332 47.17 60.3834 46.0232 60.1341 45.8237C59.9596 45.6741 57.7157 44.6769 55.1229 43.6298L50.4608 41.7101L49.2392 42.2336C48.5411 42.5079 47.9428 42.7572 47.868 42.7572C47.7932 42.7572 47.7184 42.084 47.7184 41.2364V39.7156L49.3638 37.9455C51.1339 36.0258 52.6547 33.6573 53.6021 31.3637C54.1007 30.0672 54.2753 29.8927 55.0731 29.7431C57.0177 29.3193 58.8875 27.8982 59.81 26.0783C60.3585 24.9813 60.5579 22.7126 60.2089 21.4162C59.6355 19.2471 57.2919 17.0532 55.1977 16.7042C54.3251 16.5546 54.2254 16.4549 53.7268 15.1335C51.483 9.00046 45.8984 3.88959 39.3415 1.99482C36.8235 1.27182 36.8983 1.27182 36.4994 1.74551ZM57.1673 19.646C57.99 20.4189 58.6881 22.0145 58.6881 23.1863C58.6881 25.0561 57.267 27.1503 55.5966 27.7985C55.1977 27.9481 54.8487 28.0229 54.7988 27.973C54.7489 27.9232 54.8237 27.2251 54.9733 26.4024C55.2725 24.9065 55.1478 19.5962 54.8237 18.7485C54.6492 18.2998 54.6742 18.2998 55.5966 18.6987C56.1202 18.923 56.8432 19.3469 57.1673 19.646ZM11.5433 19.6211C11.2691 21.117 11.2691 24.9813 11.5683 26.552C11.7179 27.275 11.7677 27.9232 11.7179 27.973C11.4935 28.1974 9.89789 27.2999 9.14996 26.527C8.20258 25.5049 7.82861 24.6073 7.82861 23.286C7.82861 21.5408 8.7012 19.9452 10.1971 19.0477C11.4686 18.2499 11.7927 18.3995 11.5433 19.6211ZM23.4355 42.7073C25.5546 43.7793 27.7735 44.4525 30.3663 44.8265L32.5852 45.1506L30.3165 46.8209C29.045 47.7434 27.8234 48.7905 27.599 49.1645C26.9508 50.1617 27.0006 52.4803 27.6738 53.4028C27.948 53.7767 30.6406 55.8709 33.6323 58.015L39.0673 61.9541L37.9454 62.4527C32.7597 64.7464 25.8289 62.5525 22.6626 57.5912C20.8426 54.774 20.6931 54.026 20.5933 47.145L20.4936 40.9372L21.2166 41.4358C21.5906 41.7101 22.5878 42.2835 23.4355 42.7073ZM45.8735 43.3805C45.8236 43.555 44.7266 44.1035 43.4302 44.627C42.1587 45.1256 40.962 45.6741 40.7875 45.8237C40.5382 46.0232 40.4884 47.17 40.5382 50.9595L40.613 55.846L41.5105 57.641L42.433 59.461L41.5604 60.2089L40.6878 60.9818L39.9149 60.3835C39.4662 60.0594 36.9481 58.2643 34.3054 56.3696C31.6627 54.4748 29.3442 52.6798 29.1447 52.4055C28.671 51.7324 28.671 50.7351 29.1447 50.062C29.3442 49.7877 30.9896 48.4913 32.8096 47.1949C35.4772 45.2752 36.3498 44.8015 37.3221 44.6519C39.516 44.3278 43.7793 42.6076 45.3499 41.4358C45.8236 41.0619 45.8485 41.0868 45.9233 42.0591C45.9732 42.6076 45.9483 43.2059 45.8735 43.3805ZM54.6991 45.35L58.5634 46.9456L58.713 55.0981L57.7905 56.943C56.6686 59.2117 54.6243 61.281 52.3805 62.4278C50.3611 63.45 49.8874 63.3752 47.2945 61.655C45.1505 60.2089 43.5549 58.2643 42.7322 56.0704C42.2834 54.8238 42.2335 54.2255 42.2834 50.8099L42.3582 46.9456L46.2225 45.35C48.3417 44.4774 50.2614 43.7794 50.4608 43.7544C50.6602 43.7544 52.5799 44.4774 54.6991 45.35Z"/>
<path d="M30.6904 50.1866C30.4411 50.4359 30.2666 50.8847 30.2666 51.1839C30.2666 51.8819 31.1142 52.7296 31.7624 52.7296C32.4356 52.7296 33.2583 51.857 33.2583 51.1589C33.2583 49.9124 31.5131 49.2642 30.6904 50.1866Z"/>
<path d="M48.1423 47.6435C48.0425 47.7433 47.9678 48.5411 47.9678 49.3887V50.9594L44.6021 51.109V55.8459L47.9428 55.9955L48.0924 59.3362H52.8293L52.9789 55.9955L56.3197 55.8459V51.109L53.0786 50.8597L52.8293 47.6186L50.5855 47.5438C49.339 47.5189 48.242 47.5438 48.1423 47.6435ZM51.2088 50.5854C51.2088 52.3555 51.5828 52.7295 53.3529 52.7295C54.6742 52.7295 54.6991 52.7295 54.6991 53.4774C54.6991 54.2253 54.6992 54.2254 53.2033 54.2254C51.4581 54.2254 51.2088 54.4996 51.2088 56.4442C51.2088 57.6908 51.1839 57.7157 50.4609 57.7157C49.7129 57.7157 49.7129 57.7157 49.7129 56.2697C49.7129 55.4719 49.5883 54.699 49.4138 54.5245C49.2392 54.35 48.4664 54.2254 47.6686 54.2254C46.2226 54.2254 46.2226 54.2253 46.2226 53.4774C46.2226 52.7544 46.2475 52.7295 47.4941 52.7295C49.4387 52.7295 49.7129 52.4802 49.7129 50.735C49.7129 49.2391 49.7129 49.2391 50.4609 49.2391C51.2088 49.2391 51.2088 49.2641 51.2088 50.5854Z"/>
<path d="M22.3883 20.0449C21.042 20.6183 20.2692 22.7624 21.2415 23.2859C21.8149 23.5851 22.1141 23.3857 22.5628 22.4383C23.0864 21.3413 23.6598 21.3662 24.4077 22.538C24.7568 23.1114 25.1307 23.5602 25.2305 23.5602C25.6543 23.5602 26.0283 22.912 26.0283 22.189C26.0283 20.6931 23.8593 19.4216 22.3883 20.0449Z"/>
<path d="M41.685 20.2442C40.5631 20.9672 39.9897 22.5379 40.6379 23.1612C41.1864 23.7096 41.5354 23.585 41.9842 22.6127C42.1836 22.1888 42.5576 21.765 42.8069 21.6653C43.3056 21.5157 43.9787 21.9645 43.9787 22.4631C43.9787 22.6376 44.1532 22.9617 44.3776 23.1612C44.951 23.7346 45.7239 23.2609 45.7239 22.3135C45.7239 20.5434 43.2308 19.247 41.685 20.2442Z"/>
<path d="M29.768 26.178C29.3442 26.7015 29.768 27.4993 30.8899 28.2472C32.6102 29.4439 34.7542 29.2196 36.2501 27.6738C36.9482 26.9508 37.0479 26.7015 36.8485 26.3525C36.4246 25.6793 35.926 25.7292 34.8789 26.5519C33.5326 27.624 32.4606 27.4993 31.0644 26.1281C30.6157 25.7043 30.142 25.7292 29.768 26.178Z"/>
</mask>
<path d="M36.4994 1.74551C35.8512 2.51838 36.3249 2.94221 38.6185 3.61535C45.6491 5.6597 50.735 10.7706 52.7545 17.7513C53.5523 20.5436 53.5523 25.5796 52.7545 28.3719C50.735 35.3776 45.2751 40.7876 38.2446 42.6824C36.0008 43.3057 30.5159 43.3057 28.2721 42.6824C22.3634 41.0868 17.5517 37.048 14.934 31.4634C12.6652 26.7015 12.4658 21.117 14.3606 15.9313C16.8038 9.15005 24.1336 3.36604 30.2666 3.36604C33.383 3.36604 35.7016 4.71231 36.7487 7.13063C37.5714 9.07526 37.3969 11.6432 36.3498 13.139C34.3553 16.0061 29.3442 16.5795 27.8483 14.1113C27.2749 13.164 27.225 11.7927 27.7236 10.8703C28.7209 9.0254 31.1143 8.60157 32.8844 9.97278C33.8068 10.6459 34.4052 10.6459 34.6545 9.97278C35.0783 8.92567 32.7099 7.35501 30.7403 7.35501C29.1447 7.35501 27.1751 8.40212 26.3275 9.6736C25.3302 11.1695 25.3801 13.2886 26.4023 14.959C28.3718 18.1751 33.6822 18.2998 36.8484 15.2332C38.7432 13.3883 39.3415 11.4686 38.9676 8.60157C38.5687 5.85914 37.0479 3.71507 34.5797 2.49345C33.383 1.8951 32.7348 1.77044 30.84 1.67072C28.8455 1.571 28.2223 1.64579 26.4771 2.2192C20.2443 4.16383 14.5101 9.72347 12.5905 15.6072C12.3411 16.3801 12.1417 16.5546 11.3688 16.7042C9.54886 17.0532 7.65409 18.4743 6.78151 20.1696C5.98371 21.7403 5.88399 24.1336 6.58206 25.7542C7.32999 27.4744 9.12503 29.1199 10.7456 29.5437C12.5655 29.9925 12.5655 29.9925 12.5655 30.3415C12.5655 30.8401 14.211 34.1559 15.1085 35.4773C15.5323 36.1255 16.5545 37.3222 17.3274 38.1449L18.7484 39.6408L18.8482 46.6215C18.9479 53.4028 18.9728 53.6521 19.5961 55.2726C21.9396 61.4555 27.0006 65.0456 33.2583 65.0456C36.7986 65.0456 39.4662 64.1231 42.1837 61.9541L43.4801 60.9319L44.9261 62.1037C45.699 62.7519 47.2447 63.7242 48.3666 64.2478L50.386 65.2201L51.7323 64.6965C53.627 63.9486 56.2448 62.1286 57.4415 60.7574C57.99 60.1092 58.8626 58.7629 59.3861 57.7408L60.3086 55.8709L60.3834 50.9844C60.4332 47.17 60.3834 46.0232 60.1341 45.8237C59.9596 45.6741 57.7157 44.6769 55.1229 43.6298L50.4608 41.7101L49.2392 42.2336C48.5411 42.5079 47.9428 42.7572 47.868 42.7572C47.7932 42.7572 47.7184 42.084 47.7184 41.2364V39.7156L49.3638 37.9455C51.1339 36.0258 52.6547 33.6573 53.6021 31.3637C54.1007 30.0672 54.2753 29.8927 55.0731 29.7431C57.0177 29.3193 58.8875 27.8982 59.81 26.0783C60.3585 24.9813 60.5579 22.7126 60.2089 21.4162C59.6355 19.2471 57.2919 17.0532 55.1977 16.7042C54.3251 16.5546 54.2254 16.4549 53.7268 15.1335C51.483 9.00046 45.8984 3.88959 39.3415 1.99482C36.8235 1.27182 36.8983 1.27182 36.4994 1.74551ZM57.1673 19.646C57.99 20.4189 58.6881 22.0145 58.6881 23.1863C58.6881 25.0561 57.267 27.1503 55.5966 27.7985C55.1977 27.9481 54.8487 28.0229 54.7988 27.973C54.7489 27.9232 54.8237 27.2251 54.9733 26.4024C55.2725 24.9065 55.1478 19.5962 54.8237 18.7485C54.6492 18.2998 54.6742 18.2998 55.5966 18.6987C56.1202 18.923 56.8432 19.3469 57.1673 19.646ZM11.5433 19.6211C11.2691 21.117 11.2691 24.9813 11.5683 26.552C11.7179 27.275 11.7677 27.9232 11.7179 27.973C11.4935 28.1974 9.89789 27.2999 9.14996 26.527C8.20258 25.5049 7.82861 24.6073 7.82861 23.286C7.82861 21.5408 8.7012 19.9452 10.1971 19.0477C11.4686 18.2499 11.7927 18.3995 11.5433 19.6211ZM23.4355 42.7073C25.5546 43.7793 27.7735 44.4525 30.3663 44.8265L32.5852 45.1506L30.3165 46.8209C29.045 47.7434 27.8234 48.7905 27.599 49.1645C26.9508 50.1617 27.0006 52.4803 27.6738 53.4028C27.948 53.7767 30.6406 55.8709 33.6323 58.015L39.0673 61.9541L37.9454 62.4527C32.7597 64.7464 25.8289 62.5525 22.6626 57.5912C20.8426 54.774 20.6931 54.026 20.5933 47.145L20.4936 40.9372L21.2166 41.4358C21.5906 41.7101 22.5878 42.2835 23.4355 42.7073ZM45.8735 43.3805C45.8236 43.555 44.7266 44.1035 43.4302 44.627C42.1587 45.1256 40.962 45.6741 40.7875 45.8237C40.5382 46.0232 40.4884 47.17 40.5382 50.9595L40.613 55.846L41.5105 57.641L42.433 59.461L41.5604 60.2089L40.6878 60.9818L39.9149 60.3835C39.4662 60.0594 36.9481 58.2643 34.3054 56.3696C31.6627 54.4748 29.3442 52.6798 29.1447 52.4055C28.671 51.7324 28.671 50.7351 29.1447 50.062C29.3442 49.7877 30.9896 48.4913 32.8096 47.1949C35.4772 45.2752 36.3498 44.8015 37.3221 44.6519C39.516 44.3278 43.7793 42.6076 45.3499 41.4358C45.8236 41.0619 45.8485 41.0868 45.9233 42.0591C45.9732 42.6076 45.9483 43.2059 45.8735 43.3805ZM54.6991 45.35L58.5634 46.9456L58.713 55.0981L57.7905 56.943C56.6686 59.2117 54.6243 61.281 52.3805 62.4278C50.3611 63.45 49.8874 63.3752 47.2945 61.655C45.1505 60.2089 43.5549 58.2643 42.7322 56.0704C42.2834 54.8238 42.2335 54.2255 42.2834 50.8099L42.3582 46.9456L46.2225 45.35C48.3417 44.4774 50.2614 43.7794 50.4608 43.7544C50.6602 43.7544 52.5799 44.4774 54.6991 45.35Z" fill="#FF8743"/>
<path d="M30.6904 50.1866C30.4411 50.4359 30.2666 50.8847 30.2666 51.1839C30.2666 51.8819 31.1142 52.7296 31.7624 52.7296C32.4356 52.7296 33.2583 51.857 33.2583 51.1589C33.2583 49.9124 31.5131 49.2642 30.6904 50.1866Z" fill="#FF8743"/>
<path d="M48.1423 47.6435C48.0425 47.7433 47.9678 48.5411 47.9678 49.3887V50.9594L44.6021 51.109V55.8459L47.9428 55.9955L48.0924 59.3362H52.8293L52.9789 55.9955L56.3197 55.8459V51.109L53.0786 50.8597L52.8293 47.6186L50.5855 47.5438C49.339 47.5189 48.242 47.5438 48.1423 47.6435ZM51.2088 50.5854C51.2088 52.3555 51.5828 52.7295 53.3529 52.7295C54.6742 52.7295 54.6991 52.7295 54.6991 53.4774C54.6991 54.2253 54.6992 54.2254 53.2033 54.2254C51.4581 54.2254 51.2088 54.4996 51.2088 56.4442C51.2088 57.6908 51.1839 57.7157 50.4609 57.7157C49.7129 57.7157 49.7129 57.7157 49.7129 56.2697C49.7129 55.4719 49.5883 54.699 49.4138 54.5245C49.2392 54.35 48.4664 54.2254 47.6686 54.2254C46.2226 54.2254 46.2226 54.2253 46.2226 53.4774C46.2226 52.7544 46.2475 52.7295 47.4941 52.7295C49.4387 52.7295 49.7129 52.4802 49.7129 50.735C49.7129 49.2391 49.7129 49.2391 50.4609 49.2391C51.2088 49.2391 51.2088 49.2641 51.2088 50.5854Z" fill="#FF8743"/>
<path d="M22.3883 20.0449C21.042 20.6183 20.2692 22.7624 21.2415 23.2859C21.8149 23.5851 22.1141 23.3857 22.5628 22.4383C23.0864 21.3413 23.6598 21.3662 24.4077 22.538C24.7568 23.1114 25.1307 23.5602 25.2305 23.5602C25.6543 23.5602 26.0283 22.912 26.0283 22.189C26.0283 20.6931 23.8593 19.4216 22.3883 20.0449Z" fill="#FF8743"/>
<path d="M41.685 20.2442C40.5631 20.9672 39.9897 22.5379 40.6379 23.1612C41.1864 23.7096 41.5354 23.585 41.9842 22.6127C42.1836 22.1888 42.5576 21.765 42.8069 21.6653C43.3056 21.5157 43.9787 21.9645 43.9787 22.4631C43.9787 22.6376 44.1532 22.9617 44.3776 23.1612C44.951 23.7346 45.7239 23.2609 45.7239 22.3135C45.7239 20.5434 43.2308 19.247 41.685 20.2442Z" fill="#FF8743"/>
<path d="M29.768 26.178C29.3442 26.7015 29.768 27.4993 30.8899 28.2472C32.6102 29.4439 34.7542 29.2196 36.2501 27.6738C36.9482 26.9508 37.0479 26.7015 36.8485 26.3525C36.4246 25.6793 35.926 25.7292 34.8789 26.5519C33.5326 27.624 32.4606 27.4993 31.0644 26.1281C30.6157 25.7043 30.142 25.7292 29.768 26.178Z" fill="#FF8743"/>
<path d="M36.4994 1.74551C35.8512 2.51838 36.3249 2.94221 38.6185 3.61535C45.6491 5.6597 50.735 10.7706 52.7545 17.7513C53.5523 20.5436 53.5523 25.5796 52.7545 28.3719C50.735 35.3776 45.2751 40.7876 38.2446 42.6824C36.0008 43.3057 30.5159 43.3057 28.2721 42.6824C22.3634 41.0868 17.5517 37.048 14.934 31.4634C12.6652 26.7015 12.4658 21.117 14.3606 15.9313C16.8038 9.15005 24.1336 3.36604 30.2666 3.36604C33.383 3.36604 35.7016 4.71231 36.7487 7.13063C37.5714 9.07526 37.3969 11.6432 36.3498 13.139C34.3553 16.0061 29.3442 16.5795 27.8483 14.1113C27.2749 13.164 27.225 11.7927 27.7236 10.8703C28.7209 9.0254 31.1143 8.60157 32.8844 9.97278C33.8068 10.6459 34.4052 10.6459 34.6545 9.97278C35.0783 8.92567 32.7099 7.35501 30.7403 7.35501C29.1447 7.35501 27.1751 8.40212 26.3275 9.6736C25.3302 11.1695 25.3801 13.2886 26.4023 14.959C28.3718 18.1751 33.6822 18.2998 36.8484 15.2332C38.7432 13.3883 39.3415 11.4686 38.9676 8.60157C38.5687 5.85914 37.0479 3.71507 34.5797 2.49345C33.383 1.8951 32.7348 1.77044 30.84 1.67072C28.8455 1.571 28.2223 1.64579 26.4771 2.2192C20.2443 4.16383 14.5101 9.72347 12.5905 15.6072C12.3411 16.3801 12.1417 16.5546 11.3688 16.7042C9.54886 17.0532 7.65409 18.4743 6.78151 20.1696C5.98371 21.7403 5.88399 24.1336 6.58206 25.7542C7.32999 27.4744 9.12503 29.1199 10.7456 29.5437C12.5655 29.9925 12.5655 29.9925 12.5655 30.3415C12.5655 30.8401 14.211 34.1559 15.1085 35.4773C15.5323 36.1255 16.5545 37.3222 17.3274 38.1449L18.7484 39.6408L18.8482 46.6215C18.9479 53.4028 18.9728 53.6521 19.5961 55.2726C21.9396 61.4555 27.0006 65.0456 33.2583 65.0456C36.7986 65.0456 39.4662 64.1231 42.1837 61.9541L43.4801 60.9319L44.9261 62.1037C45.699 62.7519 47.2447 63.7242 48.3666 64.2478L50.386 65.2201L51.7323 64.6965C53.627 63.9486 56.2448 62.1286 57.4415 60.7574C57.99 60.1092 58.8626 58.7629 59.3861 57.7408L60.3086 55.8709L60.3834 50.9844C60.4332 47.17 60.3834 46.0232 60.1341 45.8237C59.9596 45.6741 57.7157 44.6769 55.1229 43.6298L50.4608 41.7101L49.2392 42.2336C48.5411 42.5079 47.9428 42.7572 47.868 42.7572C47.7932 42.7572 47.7184 42.084 47.7184 41.2364V39.7156L49.3638 37.9455C51.1339 36.0258 52.6547 33.6573 53.6021 31.3637C54.1007 30.0672 54.2753 29.8927 55.0731 29.7431C57.0177 29.3193 58.8875 27.8982 59.81 26.0783C60.3585 24.9813 60.5579 22.7126 60.2089 21.4162C59.6355 19.2471 57.2919 17.0532 55.1977 16.7042C54.3251 16.5546 54.2254 16.4549 53.7268 15.1335C51.483 9.00046 45.8984 3.88959 39.3415 1.99482C36.8235 1.27182 36.8983 1.27182 36.4994 1.74551ZM57.1673 19.646C57.99 20.4189 58.6881 22.0145 58.6881 23.1863C58.6881 25.0561 57.267 27.1503 55.5966 27.7985C55.1977 27.9481 54.8487 28.0229 54.7988 27.973C54.7489 27.9232 54.8237 27.2251 54.9733 26.4024C55.2725 24.9065 55.1478 19.5962 54.8237 18.7485C54.6492 18.2998 54.6742 18.2998 55.5966 18.6987C56.1202 18.923 56.8432 19.3469 57.1673 19.646ZM11.5433 19.6211C11.2691 21.117 11.2691 24.9813 11.5683 26.552C11.7179 27.275 11.7677 27.9232 11.7179 27.973C11.4935 28.1974 9.89789 27.2999 9.14996 26.527C8.20258 25.5049 7.82861 24.6073 7.82861 23.286C7.82861 21.5408 8.7012 19.9452 10.1971 19.0477C11.4686 18.2499 11.7927 18.3995 11.5433 19.6211ZM23.4355 42.7073C25.5546 43.7793 27.7735 44.4525 30.3663 44.8265L32.5852 45.1506L30.3165 46.8209C29.045 47.7434 27.8234 48.7905 27.599 49.1645C26.9508 50.1617 27.0006 52.4803 27.6738 53.4028C27.948 53.7767 30.6406 55.8709 33.6323 58.015L39.0673 61.9541L37.9454 62.4527C32.7597 64.7464 25.8289 62.5525 22.6626 57.5912C20.8426 54.774 20.6931 54.026 20.5933 47.145L20.4936 40.9372L21.2166 41.4358C21.5906 41.7101 22.5878 42.2835 23.4355 42.7073ZM45.8735 43.3805C45.8236 43.555 44.7266 44.1035 43.4302 44.627C42.1587 45.1256 40.962 45.6741 40.7875 45.8237C40.5382 46.0232 40.4884 47.17 40.5382 50.9595L40.613 55.846L41.5105 57.641L42.433 59.461L41.5604 60.2089L40.6878 60.9818L39.9149 60.3835C39.4662 60.0594 36.9481 58.2643 34.3054 56.3696C31.6627 54.4748 29.3442 52.6798 29.1447 52.4055C28.671 51.7324 28.671 50.7351 29.1447 50.062C29.3442 49.7877 30.9896 48.4913 32.8096 47.1949C35.4772 45.2752 36.3498 44.8015 37.3221 44.6519C39.516 44.3278 43.7793 42.6076 45.3499 41.4358C45.8236 41.0619 45.8485 41.0868 45.9233 42.0591C45.9732 42.6076 45.9483 43.2059 45.8735 43.3805ZM54.6991 45.35L58.5634 46.9456L58.713 55.0981L57.7905 56.943C56.6686 59.2117 54.6243 61.281 52.3805 62.4278C50.3611 63.45 49.8874 63.3752 47.2945 61.655C45.1505 60.2089 43.5549 58.2643 42.7322 56.0704C42.2834 54.8238 42.2335 54.2255 42.2834 50.8099L42.3582 46.9456L46.2225 45.35C48.3417 44.4774 50.2614 43.7794 50.4608 43.7544C50.6602 43.7544 52.5799 44.4774 54.6991 45.35Z" stroke="#FF8743" stroke-width="0.825" mask="url(#path-1-outside-1_538_3237)"/>
<path d="M30.6904 50.1866C30.4411 50.4359 30.2666 50.8847 30.2666 51.1839C30.2666 51.8819 31.1142 52.7296 31.7624 52.7296C32.4356 52.7296 33.2583 51.857 33.2583 51.1589C33.2583 49.9124 31.5131 49.2642 30.6904 50.1866Z" stroke="#FF8743" stroke-width="0.825" mask="url(#path-1-outside-1_538_3237)"/>
<path d="M48.1423 47.6435C48.0425 47.7433 47.9678 48.5411 47.9678 49.3887V50.9594L44.6021 51.109V55.8459L47.9428 55.9955L48.0924 59.3362H52.8293L52.9789 55.9955L56.3197 55.8459V51.109L53.0786 50.8597L52.8293 47.6186L50.5855 47.5438C49.339 47.5189 48.242 47.5438 48.1423 47.6435ZM51.2088 50.5854C51.2088 52.3555 51.5828 52.7295 53.3529 52.7295C54.6742 52.7295 54.6991 52.7295 54.6991 53.4774C54.6991 54.2253 54.6992 54.2254 53.2033 54.2254C51.4581 54.2254 51.2088 54.4996 51.2088 56.4442C51.2088 57.6908 51.1839 57.7157 50.4609 57.7157C49.7129 57.7157 49.7129 57.7157 49.7129 56.2697C49.7129 55.4719 49.5883 54.699 49.4138 54.5245C49.2392 54.35 48.4664 54.2254 47.6686 54.2254C46.2226 54.2254 46.2226 54.2253 46.2226 53.4774C46.2226 52.7544 46.2475 52.7295 47.4941 52.7295C49.4387 52.7295 49.7129 52.4802 49.7129 50.735C49.7129 49.2391 49.7129 49.2391 50.4609 49.2391C51.2088 49.2391 51.2088 49.2641 51.2088 50.5854Z" stroke="#FF8743" stroke-width="0.825" mask="url(#path-1-outside-1_538_3237)"/>
<path d="M22.3883 20.0449C21.042 20.6183 20.2692 22.7624 21.2415 23.2859C21.8149 23.5851 22.1141 23.3857 22.5628 22.4383C23.0864 21.3413 23.6598 21.3662 24.4077 22.538C24.7568 23.1114 25.1307 23.5602 25.2305 23.5602C25.6543 23.5602 26.0283 22.912 26.0283 22.189C26.0283 20.6931 23.8593 19.4216 22.3883 20.0449Z" stroke="#FF8743" stroke-width="0.825" mask="url(#path-1-outside-1_538_3237)"/>
<path d="M41.685 20.2442C40.5631 20.9672 39.9897 22.5379 40.6379 23.1612C41.1864 23.7096 41.5354 23.585 41.9842 22.6127C42.1836 22.1888 42.5576 21.765 42.8069 21.6653C43.3056 21.5157 43.9787 21.9645 43.9787 22.4631C43.9787 22.6376 44.1532 22.9617 44.3776 23.1612C44.951 23.7346 45.7239 23.2609 45.7239 22.3135C45.7239 20.5434 43.2308 19.247 41.685 20.2442Z" stroke="#FF8743" stroke-width="0.825" mask="url(#path-1-outside-1_538_3237)"/>
<path d="M29.768 26.178C29.3442 26.7015 29.768 27.4993 30.8899 28.2472C32.6102 29.4439 34.7542 29.2196 36.2501 27.6738C36.9482 26.9508 37.0479 26.7015 36.8485 26.3525C36.4246 25.6793 35.926 25.7292 34.8789 26.5519C33.5326 27.624 32.4606 27.4993 31.0644 26.1281C30.6157 25.7043 30.142 25.7292 29.768 26.178Z" stroke="#FF8743" stroke-width="0.825" mask="url(#path-1-outside-1_538_3237)"/>
</svg>
