<svg width="66" height="66" viewBox="0 0 66 66" fill="none" xmlns="http://www.w3.org/2000/svg">
<g clip-path="url(#clip0_470_1109)">
<path fill-rule="evenodd" clip-rule="evenodd" d="M7.31262 47.2935C0.344625 52.9647 9.29106 67.3939 19.9234 60.8135L32.999 52.721C40.9428 47.8045 56.8678 42.6232 48.6088 19.8261C47.1991 17.4398 46.3069 15.8335 43.3762 14.3783C31.6332 8.23579 27.9461 20.1267 29.6401 28.1055C31.0246 34.6274 26.4267 41.1461 15.1524 43.5186C12.2494 44.1296 9.46494 45.5409 7.31262 47.2935Z" stroke="#FF8743" stroke-width="2.4375" stroke-miterlimit="1.5" stroke-linecap="round" stroke-linejoin="round"/>
<path fill-rule="evenodd" clip-rule="evenodd" d="M44.0829 2.91772C46.5838 1.41541 49.6274 1.88341 50.8763 3.96259C52.1251 6.04097 51.1086 8.94809 48.6086 10.4504C46.1077 11.9519 43.0641 11.4839 41.8153 9.40553C40.5664 7.32716 41.5829 4.42003 44.0829 2.91772Z" stroke="#FF8743" stroke-width="2.4375" stroke-miterlimit="1.5" stroke-linecap="round" stroke-linejoin="round"/>
<path fill-rule="evenodd" clip-rule="evenodd" d="M52.4437 10.9422C53.842 10.1021 55.5442 10.3645 56.2422 11.5264C56.9401 12.6891 56.3721 14.3141 54.9738 15.1542C53.5755 15.9943 51.8741 15.7327 51.1754 14.57C50.4775 13.4081 51.0454 11.7823 52.4437 10.9422Z" stroke="#FF8743" stroke-width="2.4375" stroke-miterlimit="1.5" stroke-linecap="round" stroke-linejoin="round"/>
<path fill-rule="evenodd" clip-rule="evenodd" d="M54.6199 17.9947C55.8354 17.2651 57.315 17.4926 57.9219 18.5026C58.5288 19.5133 58.0348 20.9262 56.8193 21.6567C55.6038 22.3871 54.1243 22.1596 53.5173 21.1489C52.9104 20.1381 53.4044 18.7252 54.6199 17.9947Z" stroke="#FF8743" stroke-width="2.4375" stroke-miterlimit="1.5" stroke-linecap="round" stroke-linejoin="round"/>
<path fill-rule="evenodd" clip-rule="evenodd" d="M56.322 24.5963C57.4693 24.3006 58.6238 24.8287 58.8976 25.7752C59.1714 26.721 58.4613 27.7285 57.3141 28.0234C56.166 28.3192 55.0123 27.791 54.7384 26.8453C54.4646 25.8987 55.1739 24.8912 56.322 24.5963Z" stroke="#FF8743" stroke-width="2.06375" stroke-miterlimit="1.5" stroke-linecap="round" stroke-linejoin="round"/>
<path fill-rule="evenodd" clip-rule="evenodd" d="M55.5466 30.8639C56.6939 30.5681 57.8484 31.0963 58.1214 32.0428C58.3952 32.9886 57.6859 33.9961 56.5387 34.291C55.3906 34.5868 54.2369 34.0586 53.9631 33.1129C53.6892 32.1663 54.3986 31.1588 55.5466 30.8639Z" stroke="#FF8743" stroke-width="2.06375" stroke-miterlimit="1.5" stroke-linecap="round" stroke-linejoin="round"/>
</g>
<defs>
<clipPath id="clip0_470_1109">
<rect width="65" height="65" fill="white" transform="translate(0.5 0.5)"/>
</clipPath>
</defs>
</svg>
