<svg width="66" height="66" viewBox="0 0 66 66" fill="none" xmlns="http://www.w3.org/2000/svg">
<g clip-path="url(#clip0_470_978)">
<path fill-rule="evenodd" clip-rule="evenodd" d="M16.5221 8.07197C16.475 5.00884 18.3486 2.49253 20.7032 2.45597C23.0587 2.41941 25.0095 4.87722 25.0566 7.94034C27.6859 6.36734 30.8018 6.73216 32.0108 8.75366C33.2198 10.7743 32.0669 13.692 29.4376 15.265C32.114 16.756 33.3563 19.6363 32.2107 21.6943C31.0642 23.7516 27.9613 24.2123 25.2849 22.7213C25.332 25.7845 23.4584 28.3016 21.103 28.3373C18.7484 28.3739 16.7975 25.9169 16.7504 22.8538C14.1212 24.426 11.0052 24.062 9.79623 22.0405C8.58723 20.019 9.74016 17.1013 12.3694 15.5283C9.69304 14.0382 8.45073 11.157 9.59635 9.09978C10.7428 7.04172 13.8457 6.58103 16.5221 8.07197Z" stroke="#FF8743" stroke-width="2.4375" stroke-miterlimit="1.5" stroke-linecap="round" stroke-linejoin="round"/>
<path d="M16.298 23.8569C16.0851 40.0232 22.6842 52.6958 32.6365 63.3712" stroke="#FF8743" stroke-width="2.4375" stroke-miterlimit="1.5" stroke-linecap="round" stroke-linejoin="round"/>
<path fill-rule="evenodd" clip-rule="evenodd" d="M26.1621 53.9114C31.7822 43.1003 38.5584 37.6476 46.3982 37.1309C42.3504 52.5082 35.345 57.1582 26.1621 53.9114Z" stroke="#FF8743" stroke-width="2.4375" stroke-miterlimit="1.5" stroke-linecap="round" stroke-linejoin="round"/>
<path fill-rule="evenodd" clip-rule="evenodd" d="M21.0425 46.6457C16.5331 37.332 11.1275 32.6179 4.89648 32.1426C8.17492 45.3741 13.76 49.3985 21.0425 46.6457Z" stroke="#FF8743" stroke-width="2.4375" stroke-miterlimit="1.5" stroke-linecap="round" stroke-linejoin="round"/>
<path fill-rule="evenodd" clip-rule="evenodd" d="M21.5695 11.0082C23.9915 11.3755 25.6588 13.6407 25.2915 16.062C24.9243 18.484 22.6599 20.1521 20.2378 19.7848C17.8157 19.4176 16.1477 17.1531 16.5157 14.7311C16.883 12.309 19.1474 10.641 21.5695 11.0082Z" stroke="#FF8743" stroke-width="2.4375" stroke-miterlimit="1.5" stroke-linecap="round" stroke-linejoin="round"/>
<path d="M40.7589 17.7843C41.6106 17.7843 42.301 17.1008 42.301 16.2576C42.301 15.4145 41.6106 14.731 40.7589 14.731C39.9072 14.731 39.2168 15.4145 39.2168 16.2576C39.2168 17.1008 39.9072 17.7843 40.7589 17.7843Z" fill="#FF8743"/>
<path d="M46.3976 11.8336C47.2493 11.8336 47.9397 11.1501 47.9397 10.307C47.9397 9.46379 47.2493 8.78027 46.3976 8.78027C45.5459 8.78027 44.8555 9.46379 44.8555 10.307C44.8555 11.1501 45.5459 11.8336 46.3976 11.8336Z" fill="#FF8743"/>
<path d="M54.1417 17.7843C54.9934 17.7843 55.6839 17.1008 55.6839 16.2576C55.6839 15.4145 54.9934 14.731 54.1417 14.731C53.29 14.731 52.5996 15.4145 52.5996 16.2576C52.5996 17.1008 53.29 17.7843 54.1417 17.7843Z" fill="#FF8743"/>
<path d="M57.7453 6.92105C58.5969 6.92105 59.2874 6.23753 59.2874 5.39436C59.2874 4.5512 58.5969 3.86768 57.7453 3.86768C56.8936 3.86768 56.2031 4.5512 56.2031 5.39436C56.2031 6.23753 56.8936 6.92105 57.7453 6.92105Z" fill="#FF8743"/>
</g>
<defs>
<clipPath id="clip0_470_978">
<rect width="65" height="65" fill="white" transform="translate(0.5 0.5)"/>
</clipPath>
</defs>
</svg>
