<svg width="66" height="66" viewBox="0 0 66 66" fill="none" xmlns="http://www.w3.org/2000/svg">
<path d="M17.9849 6.19159C10.9238 7.26871 5.13126 12.5346 3.07276 19.7394C2.3068 22.4202 2.3068 27.2074 3.07276 30.1037C4.19775 34.2207 6.59136 38.601 9.9424 42.5983C10.9956 43.8669 11.4264 44.226 11.953 44.226C12.719 44.226 13.1738 43.843 13.1738 43.1488C13.1738 42.8855 12.5754 41.976 11.8333 41.1143C8.79347 37.5239 6.56742 33.5266 5.46636 29.7447C5.03551 28.1888 4.93977 27.2553 4.93977 24.7181C4.93977 21.9894 5.03551 21.367 5.58604 19.6915C7.35731 14.3538 11.5701 10.2847 16.7642 8.89636C17.7216 8.657 19.2535 8.48945 20.7136 8.46551C23.4184 8.46551 25.6444 9.01604 28.0859 10.2847C29.2588 10.9309 29.546 10.9788 30.0726 10.7394C30.5753 10.524 30.671 10.3325 30.5992 9.68625C30.5274 8.99211 30.3359 8.82455 28.8519 8.03466C25.7402 6.38308 21.4556 5.665 17.9849 6.19159Z" fill="#FF8743"/>
<path d="M42.9742 6.16767C38.5221 6.81395 33.8067 9.49478 32.4424 12.1517C31.9636 13.0852 31.7243 15.1198 31.9397 16.3166C32.0354 16.7953 32.7057 18.0878 33.4477 19.1649C35.2189 21.75 35.6737 22.7793 35.6737 24.3112V25.5798L34.836 25.4123C33.5913 25.1968 32.4424 25.4841 31.6046 26.274L30.8386 26.992L30.2163 26.5133C29.8812 26.25 29.211 25.9628 28.7323 25.891L27.8227 25.7474L27.727 23.4256C27.6551 21.7022 27.5115 20.8883 27.1286 20.1703C26.4105 18.8059 24.9982 17.5373 23.3467 16.7713C22.102 16.1969 21.6233 16.1011 19.7563 16.1011C17.7935 16.1011 17.4345 16.1729 15.9983 16.891C11.0196 19.3325 9.65524 25.2686 13.0302 29.8165C14.0116 31.109 14.0595 31.2766 14.227 33.3112C14.5143 37.2127 15.5674 40.0611 17.6499 42.6701C19.9477 45.4946 22.9876 47.4095 26.6738 48.343C30.3599 49.2765 35.1232 48.6063 38.1391 46.6914C40.3652 45.3031 41.9689 42.8856 42.4716 40.2287C42.7109 38.9361 42.8545 38.625 43.2136 38.601C45.1524 38.4335 46.4928 37.3563 46.78 35.7526C47.0194 34.508 45.8705 30.5585 44.8891 29.2899C43.4769 27.4229 41.562 26.5851 39.3359 26.8484L38.0673 26.992V24.9575C38.0673 22.4442 37.6604 21.1756 36.1285 18.9256C35.5062 17.9681 34.812 16.8671 34.5966 16.4841C33.2083 13.7793 35.7455 10.7634 40.82 9.11181C43.2375 8.32192 46.8758 8.22617 49.3173 8.89638C54.5353 10.3086 58.7241 14.3538 60.4954 19.6915C61.0459 21.3671 61.1417 21.9894 61.1417 24.7181C61.1417 28.4521 60.6869 30.391 58.9156 34.0532C55.1577 41.7845 46.4449 49.7791 35.3865 55.6914L33.0647 56.936L31.6046 56.194C29.0195 54.9015 25.094 52.46 22.2695 50.4494C19.086 48.1754 19.11 48.1754 18.4876 48.5105C17.5781 48.9893 17.6499 49.7552 18.7031 50.7366C21.0249 52.9387 31.7003 59.3775 33.0408 59.3775C34.5009 59.3775 43.429 53.9201 48.1683 50.1621C56.2109 43.7473 61.1177 37.117 62.9848 30.0558C63.7507 27.1835 63.7746 22.3724 63.0087 19.7394C60.3997 10.6437 51.8545 4.85119 42.9742 6.16767ZM22.102 18.8538C23.4663 19.3804 24.711 20.4814 25.1179 21.5586C25.2615 21.9415 25.3812 23.3777 25.3812 24.766V27.3032L24.3041 28.4521C23.0116 29.8404 22.8679 30.8457 23.8014 31.9468C24.3759 32.5931 24.4477 32.617 27.1764 32.6888C30.5753 32.8085 30.7908 32.6888 32.0594 30.1516C33.1604 27.9734 33.5195 27.5904 34.3572 27.8059C35.3865 28.0692 35.3386 28.859 34.1658 31.2048C33.0408 33.4308 32.1791 34.4601 31.0541 34.867C30.6711 35.0106 28.8759 35.1303 27.0567 35.1303C24.352 35.1303 23.6578 35.2021 23.3706 35.5133C22.844 36.0159 22.8919 36.4707 23.4903 37.0691C23.969 37.5478 24.1844 37.5718 27.727 37.476C31.7721 37.4042 32.3945 37.2367 33.8067 35.8962C34.1658 35.5611 34.5009 35.3218 34.5727 35.3936C34.6205 35.4415 34.8599 36.1356 35.1232 36.9016C35.6259 38.4813 36.0328 38.8643 36.9423 38.625C37.8519 38.4095 37.8998 37.8111 37.2296 35.6329C36.4876 33.3351 36.4397 32.1383 36.9663 31.133C38.0673 28.9787 40.7242 28.5239 42.4716 30.1995C43.0939 30.7739 43.4529 31.4681 43.9317 33.0239C44.6258 35.25 44.554 35.8962 43.5726 36.1595C42.8785 36.351 42.2322 35.6808 41.7774 34.2447C41.3466 32.8324 40.9636 32.4255 40.1976 32.5452C39.2402 32.6888 39.0966 33.2872 39.6232 35.0585C40.3173 37.4042 40.2694 40.1808 39.5514 41.593C38.3546 43.8909 36.3679 45.327 33.4716 46.0212C26.4583 47.6728 19.11 43.4122 17.1472 36.5665C16.9318 35.8484 16.6685 34.1489 16.5728 32.8085C16.3813 30.75 16.2616 30.2234 15.735 29.4574C15.376 28.9548 14.8015 28.117 14.4425 27.6144C13.8919 26.8245 13.7483 26.3697 13.7004 24.8378C13.6286 23.3298 13.7004 22.8272 14.1313 21.8937C15.4956 18.9735 18.9424 17.6809 22.102 18.8538ZM29.1152 28.7394C29.6658 29.2181 29.7136 29.3617 29.4743 29.8165C29.2349 30.2713 28.9956 30.3431 27.4876 30.3431H25.7881L26.7216 29.2899C27.7988 28.0692 28.2296 27.9734 29.1152 28.7394Z" fill="#FF8743"/>
<path d="M44.6736 12.0559C43.9316 12.774 44.4582 14.0666 45.4875 14.0666C45.7507 14.0666 46.1337 13.8033 46.3492 13.4681C46.7082 12.9176 46.7082 12.8219 46.3492 12.2713C45.8944 11.5772 45.2242 11.5054 44.6736 12.0559Z" fill="#FF8743"/>
<path d="M48.7427 12.7023C48.4555 12.9177 48.3358 13.2528 48.4076 13.7076C48.4555 14.306 48.7188 14.5454 49.8917 15.1677C52.9555 16.7714 55.0379 19.7156 55.5645 23.1863C55.8996 25.3645 56.0193 25.6517 56.7852 25.7475C58.1257 25.915 58.4368 24.79 57.8145 21.8938C57.0725 18.3991 54.3916 14.8087 51.3278 13.1571C49.7002 12.2954 49.3651 12.2475 48.7427 12.7023Z" fill="#FF8743"/>
<path d="M14.8492 45.8537C14.1072 46.4521 14.3466 47.5052 15.2561 47.7207C16.4769 48.0318 17.2189 46.8111 16.3811 45.8776C15.8785 45.3031 15.5194 45.3031 14.8492 45.8537Z" fill="#FF8743"/>
</svg>
