<svg width="66" height="66" viewBox="0 0 66 66" fill="none" xmlns="http://www.w3.org/2000/svg">
<g clip-path="url(#clip0_470_1035)">
<path fill-rule="evenodd" clip-rule="evenodd" d="M17.877 20.3323C29.5672 23.0769 39.2343 23.0648 46.3811 19.6198C44.7277 29.1398 46.3843 35.8657 49.7172 41.1762C48.7349 44.0711 46.8897 44.9316 44.3287 44.1044C35.6927 39.3733 27.5303 35.3871 28.0942 45.1672L29.9174 58.5068C32.6734 61.7268 35.6228 61.4619 38.7208 58.5068L37.299 50.0999C47.5495 55.6298 57.2995 51.1708 59.1195 44.1044C60.0612 40.4466 54.2575 37.5354 54.7767 30.6698C57.3401 18.2856 61.2799 10.7635 54.7767 8.45194C47.8225 5.98032 40.1842 11.6597 33.1252 13.2116C22.4229 15.3834 10.874 3.58832 7.29334 18.4538C5.38965 35.1669 8.80215 44.2068 16.7248 46.7361C18.0647 49.8025 20.1658 51.5177 22.8966 52.1124C23.8285 51.5803 24.4598 50.8133 24.1917 49.3467C22.1832 48.3644 21.1042 47.4186 20.6281 45.1672C25.7802 40.3296 20.0626 31.0004 17.877 20.3323Z" stroke="#FF8743" stroke-width="2.4375" stroke-miterlimit="1.5" stroke-linecap="round" stroke-linejoin="round"/>
</g>
<defs>
<clipPath id="clip0_470_1035">
<rect width="65" height="65" fill="white" transform="translate(0.5 0.5)"/>
</clipPath>
</defs>
</svg>
