<svg width="66" height="66" viewBox="0 0 66 66" fill="none" xmlns="http://www.w3.org/2000/svg">
<g clip-path="url(#clip0_470_1095)">
<path fill-rule="evenodd" clip-rule="evenodd" d="M55.3233 20.2859L43.9004 9.88916C43.9004 9.88916 21.3186 34.7013 13.053 43.7834C12.2617 44.6536 11.8481 45.8017 11.9033 46.9765C11.9586 48.1514 12.4778 49.2564 13.348 50.0478C14.8738 51.4372 16.6849 53.0849 18.2116 54.4743C19.081 55.2657 20.2298 55.6792 21.4047 55.624C22.5796 55.5687 23.6838 55.0495 24.476 54.1793C32.7415 45.0972 55.3233 20.2859 55.3233 20.2859Z" stroke="#FF8743" stroke-width="2.4375" stroke-miterlimit="1.5" stroke-linecap="round" stroke-linejoin="round"/>
<path d="M15.7795 52.2612L6.37891 62.5897" stroke="#FF8743" stroke-width="2.4375" stroke-miterlimit="1.5" stroke-linecap="round" stroke-linejoin="round"/>
<path d="M31.2578 23.7812L42.6808 34.1772" stroke="#FF8743" stroke-width="2.4375" stroke-miterlimit="1.5" stroke-linecap="round" stroke-linejoin="round"/>
<path d="M26.8477 29.6606L31.2571 33.6744" stroke="#FF8743" stroke-width="2.4375" stroke-miterlimit="1.5" stroke-linecap="round" stroke-linejoin="round"/>
<path d="M20.1426 36.7969L24.5528 40.8106" stroke="#FF8743" stroke-width="2.4375" stroke-miterlimit="1.5" stroke-linecap="round" stroke-linejoin="round"/>
<path d="M36.9688 18.4712L41.3782 22.4849" stroke="#FF8743" stroke-width="2.4375" stroke-miterlimit="1.5" stroke-linecap="round" stroke-linejoin="round"/>
<path d="M49.6113 15.0876L55.506 8.61035" stroke="#FF8743" stroke-width="2.4375" stroke-miterlimit="1.5" stroke-linecap="round" stroke-linejoin="round"/>
<path d="M49.7969 3.41211L61.219 13.8089" stroke="#FF8743" stroke-width="2.4375" stroke-miterlimit="1.5" stroke-linecap="round" stroke-linejoin="round"/>
<path d="M40.5449 6.66748L59.3486 23.7812" stroke="#FF8743" stroke-width="2.4375" stroke-miterlimit="1.5" stroke-linecap="round" stroke-linejoin="round"/>
</g>
<defs>
<clipPath id="clip0_470_1095">
</clipPath>
</defs>
</svg>
