<svg width="66" height="66" viewBox="0 0 66 66" fill="none" xmlns="http://www.w3.org/2000/svg">
<g clip-path="url(#clip0_470_1115)">
<path d="M26.5391 35.6366C23.5133 33.7995 20.6907 31.0411 19.8286 27.9243C19.4183 26.4407 19.0811 26.5463 18.8374 25.0261M18.8374 25.0261C18.8081 24.8466 19.0129 25.0716 18.8374 25.0261ZM18.8374 25.0261C16.7574 24.4818 15.03 19.6011 18.4645 17.8843M18.4645 17.8843C18.445 18.1443 18.6993 17.7665 18.4645 17.8843ZM18.4645 17.8843C19.0072 10.4304 21.8217 2.71245 32.9993 2.54102" stroke="#FF8743" stroke-width="2.4375" stroke-miterlimit="1.5" stroke-linecap="round" stroke-linejoin="round"/>
<path d="M2.77947 62.7634C2.75347 54.3296 5.60454 50.5426 10.9971 48.6844C17.2217 46.5394 21.5994 46.0665 24.1117 43.5786" stroke="#FF8743" stroke-width="2.4375" stroke-miterlimit="1.5" stroke-linecap="round" stroke-linejoin="round"/>
<path d="M62.588 62.7634C62.614 54.3296 59.763 50.5426 54.3704 48.6844C48.1459 46.5394 43.7681 46.0665 41.2559 43.5786" stroke="#FF8743" stroke-width="2.4375" stroke-miterlimit="1.5" stroke-linecap="round" stroke-linejoin="round"/>
<path d="M39.4602 35.6366C42.4859 33.7995 45.3086 31.0411 46.1706 27.9243C46.5809 26.4407 46.9181 26.5463 47.1619 25.0261M47.1619 25.0261C46.9872 25.0741 47.1911 24.8466 47.1619 25.0261ZM47.1619 25.0261C49.3524 24.429 50.9481 19.4638 47.5348 17.8843M47.5348 17.8843C47.2959 17.7738 47.5543 18.1443 47.5348 17.8843ZM47.5348 17.8843C46.9921 10.4304 45.0859 2.58489 33 2.54102" stroke="#FF8743" stroke-width="2.4375" stroke-miterlimit="1.5" stroke-linecap="round" stroke-linejoin="round"/>
<path fill-rule="evenodd" clip-rule="evenodd" d="M31.9673 36.9083C31.9909 36.5711 31.8795 36.2477 31.6577 36.0088C31.4359 35.7708 31.1223 35.6367 30.7843 35.6367C29.2999 35.6367 26.8607 35.6367 25.3763 35.6367C25.0391 35.6367 24.706 35.7708 24.4509 36.0088C24.1949 36.2477 24.0389 36.5711 24.0145 36.9083C23.9105 38.3903 23.7399 40.8253 23.6359 42.3073C23.6124 42.6445 23.7237 42.9679 23.9455 43.2068C24.1673 43.4448 24.4817 43.5789 24.8189 43.5789C26.3034 43.5789 28.7433 43.5789 30.2277 43.5789C30.5649 43.5789 30.898 43.4448 31.1532 43.2068C31.4083 42.9679 31.5651 42.6445 31.5887 42.3073C31.6927 40.8253 31.8633 38.3903 31.9673 36.9083Z" stroke="#FF8743" stroke-width="2.4375" stroke-miterlimit="1.5" stroke-linecap="round" stroke-linejoin="round"/>
<path fill-rule="evenodd" clip-rule="evenodd" d="M42.4765 36.9083C42.4489 36.5711 42.288 36.2477 42.0305 36.0088C41.7721 35.7708 41.4373 35.6367 41.1002 35.6367C39.6157 35.6367 37.1758 35.6367 35.6913 35.6367C35.3542 35.6367 35.0422 35.7708 34.8228 36.0088C34.6042 36.2477 34.4962 36.5711 34.5238 36.9083C34.6457 38.3903 34.8455 40.8253 34.9674 42.3073C34.995 42.6445 35.1559 42.9679 35.4143 43.2068C35.6718 43.4448 36.0066 43.5789 36.3438 43.5789C37.8282 43.5789 40.2682 43.5789 41.7526 43.5789C42.0898 43.5789 42.4026 43.4448 42.6212 43.2068C42.8405 42.9679 42.9478 42.6445 42.9202 42.3073C42.7983 40.8253 42.5984 38.3903 42.4765 36.9083Z" stroke="#FF8743" stroke-width="2.4375" stroke-miterlimit="1.5" stroke-linecap="round" stroke-linejoin="round"/>
<path d="M27.5221 39.6079C23.8943 48.5795 29.4624 54.8203 27.5221 62.9088" stroke="#FF8743" stroke-width="2.4375" stroke-miterlimit="1.5" stroke-linecap="round" stroke-linejoin="round"/>
<path fill-rule="evenodd" clip-rule="evenodd" d="M19.8038 51.5183C19.8387 51.1445 19.7071 50.774 19.4439 50.5067C19.1806 50.2394 18.8126 50.1021 18.438 50.1313C16.852 50.2556 14.3966 50.4474 13.0007 50.5571C12.3841 50.605 11.8917 51.0901 11.8332 51.7059C11.7032 53.088 11.4757 55.5084 11.3278 57.0782C11.2929 57.4519 11.4245 57.8216 11.6877 58.0898C11.951 58.3571 12.3191 58.4944 12.6936 58.4651C14.2796 58.3408 16.735 58.1483 18.1309 58.0394C18.7476 57.9906 19.2399 57.5064 19.2976 56.8905C19.4284 55.5084 19.6559 53.088 19.8038 51.5183Z" stroke="#FF8743" stroke-width="2.4375" stroke-miterlimit="1.5" stroke-linecap="round" stroke-linejoin="round"/>
<path d="M15.1628 54.6128C13.9432 57.6288 13.7629 60.336 13.9871 62.9092" stroke="#FF8743" stroke-width="2.4375" stroke-miterlimit="1.5" stroke-linecap="round" stroke-linejoin="round"/>
<path fill-rule="evenodd" clip-rule="evenodd" d="M44.8183 51.5183C44.7825 51.1445 44.9141 50.774 45.1782 50.5067C45.4415 50.2394 45.8095 50.1021 46.1833 50.1313C47.7693 50.2556 50.2246 50.4474 51.6213 50.5571C52.2372 50.605 52.7304 51.0901 52.7881 51.7059C52.9181 53.088 53.1464 55.5084 53.2943 57.0782C53.3292 57.4519 53.1976 57.8216 52.9343 58.0898C52.6703 58.3571 52.3022 58.4944 51.9285 58.4651C50.3425 58.3408 47.8871 58.1483 46.4904 58.0394C45.8745 57.9906 45.3813 57.5064 45.3236 56.8905C45.1936 55.5084 44.9653 53.088 44.8183 51.5183Z" stroke="#FF8743" stroke-width="2.4375" stroke-miterlimit="1.5" stroke-linecap="round" stroke-linejoin="round"/>
<path d="M49.4609 54.6128C50.6805 57.6288 50.8609 60.336 50.6366 62.9092" stroke="#FF8743" stroke-width="2.4375" stroke-miterlimit="1.5" stroke-linecap="round" stroke-linejoin="round"/>
<path d="M38.6303 39.6079C42.2581 48.5795 36.6901 54.8203 38.6303 62.9088" stroke="#FF8743" stroke-width="2.4375" stroke-miterlimit="1.5" stroke-linecap="round" stroke-linejoin="round"/>
</g>
<defs>
<clipPath id="clip0_470_1115">
</clipPath>
</defs>
</svg>
