<svg width="66" height="66" viewBox="0 0 66 66" fill="none" xmlns="http://www.w3.org/2000/svg">
<g clip-path="url(#clip0_470_1110)">
<path fill-rule="evenodd" clip-rule="evenodd" d="M27.2192 21.9705C27.2192 21.9705 27.2192 43.0224 27.2192 51.6674C27.2192 53.8774 25.9094 55.8778 23.8838 56.7626C19.7937 58.5493 13.3953 61.3426 13.3953 61.3426C8.33016 63.2236 4.78522 61.0664 2.83278 54.6761C0.479781 33.6543 11.5899 24.1667 21.3472 18.298C24.5907 16.5024 27.2192 18.8042 27.2192 21.9705Z" stroke="#FF8743" stroke-width="2.4375" stroke-miterlimit="1.5" stroke-linecap="round" stroke-linejoin="round"/>
<path d="M26.3501 36.0566C20.3669 39.162 18.5778 46.3551 13.7832 48.986" stroke="#FF8743" stroke-width="2.4375" stroke-miterlimit="1.5" stroke-linecap="round" stroke-linejoin="round"/>
<path d="M18.4941 44.2759C19.9306 46.3445 20.4263 48.7479 19.847 51.5356" stroke="#FF8743" stroke-width="2.4375" stroke-miterlimit="1.5" stroke-linecap="round" stroke-linejoin="round"/>
<path d="M20.0841 42.0552C15.6519 44.6495 11.1824 45.5505 6.66406 44.2757" stroke="#FF8743" stroke-width="2.4375" stroke-miterlimit="1.5" stroke-linecap="round" stroke-linejoin="round"/>
<path d="M27.22 31.4033C22.5099 36.3653 16.0148 30.9808 10.9277 36.0565" stroke="#FF8743" stroke-width="2.4375" stroke-miterlimit="1.5" stroke-linecap="round" stroke-linejoin="round"/>
<path d="M20.9258 26.2852C22.229 28.2498 22.7417 30.498 22.5483 32.9997" stroke="#FF8743" stroke-width="2.4375" stroke-miterlimit="1.5" stroke-linecap="round" stroke-linejoin="round"/>
<path d="M10.7587 44.8486C8.29037 46.3509 6.88637 48.7194 6.67188 52.0555" stroke="#FF8743" stroke-width="2.4375" stroke-miterlimit="1.5" stroke-linecap="round" stroke-linejoin="round"/>
<path d="M16.4758 33.689C16.618 35.6926 16.1378 37.4907 14.9727 39.062" stroke="#FF8743" stroke-width="2.4375" stroke-miterlimit="1.5" stroke-linecap="round" stroke-linejoin="round"/>
<path fill-rule="evenodd" clip-rule="evenodd" d="M38.9082 21.9705C38.9082 21.9705 38.9082 43.0224 38.9082 51.6674C38.9082 53.8774 40.2171 55.8778 42.2427 56.7626C46.3328 58.5493 52.7313 61.3426 52.7313 61.3426C57.7964 63.2236 61.3413 61.0664 63.2938 54.6761C65.6468 33.6543 54.5366 24.1667 44.7793 18.298C41.5358 16.5024 38.9082 18.8042 38.9082 21.9705Z" stroke="#FF8743" stroke-width="2.4375" stroke-miterlimit="1.5" stroke-linecap="round" stroke-linejoin="round"/>
<path d="M39.7773 36.0566C45.7606 39.162 47.5505 46.3551 52.3443 48.986" stroke="#FF8743" stroke-width="2.4375" stroke-miterlimit="1.5" stroke-linecap="round" stroke-linejoin="round"/>
<path d="M47.6346 44.2759C46.1981 46.3445 45.7025 48.7479 46.2818 51.5356" stroke="#FF8743" stroke-width="2.4375" stroke-miterlimit="1.5" stroke-linecap="round" stroke-linejoin="round"/>
<path d="M46.0449 42.0552C50.4771 44.6495 54.9467 45.5505 59.465 44.2757" stroke="#FF8743" stroke-width="2.4375" stroke-miterlimit="1.5" stroke-linecap="round" stroke-linejoin="round"/>
<path d="M38.9082 31.4033C43.6175 36.3653 50.1126 30.9808 55.1996 36.0565" stroke="#FF8743" stroke-width="2.4375" stroke-miterlimit="1.5" stroke-linecap="round" stroke-linejoin="round"/>
<path d="M45.2031 26.2852C43.8998 28.2498 43.3871 30.498 43.5805 32.9997" stroke="#FF8743" stroke-width="2.4375" stroke-miterlimit="1.5" stroke-linecap="round" stroke-linejoin="round"/>
<path d="M55.3691 44.8486C57.8375 46.3509 59.2415 48.7194 59.456 52.0555" stroke="#FF8743" stroke-width="2.4375" stroke-miterlimit="1.5" stroke-linecap="round" stroke-linejoin="round"/>
<path d="M49.6515 33.689C49.5085 35.6926 49.9887 37.4907 51.1538 39.062" stroke="#FF8743" stroke-width="2.4375" stroke-miterlimit="1.5" stroke-linecap="round" stroke-linejoin="round"/>
<path d="M38.7798 28.9359C38.7798 28.9359 38.1144 28.9359 37.3945 28.9359C36.4211 28.9359 35.6314 28.147 35.6314 27.1728C35.6314 22.5407 35.6314 10.1038 35.6314 6.01611C35.6314 5.28567 35.039 4.69336 34.3094 4.69336C33.505 4.69336 32.4813 4.69336 31.6769 4.69336C30.9465 4.69336 30.355 5.28567 30.355 6.01611C30.355 10.0794 30.355 22.3929 30.355 27.0891C30.355 27.579 30.16 28.0487 29.8139 28.3956C29.4677 28.7417 28.9973 28.9359 28.5074 28.9359C27.8687 28.9359 27.3105 28.9359 27.3105 28.9359V38.7347C30.1185 33.4786 36.1554 34.0969 38.7798 38.7347" stroke="#FF8743" stroke-width="2.4375" stroke-miterlimit="1.5" stroke-linecap="round" stroke-linejoin="round"/>
</g>
<defs>
<clipPath id="clip0_470_1110">
<rect width="65" height="65" fill="white" transform="translate(0.5 0.5)"/>
</clipPath>
</defs>
</svg>
