<svg width="66" height="66" viewBox="0 0 66 66" fill="none" xmlns="http://www.w3.org/2000/svg">
<g clip-path="url(#clip0_470_1112)">
<path fill-rule="evenodd" clip-rule="evenodd" d="M57.2013 15.7487L44.6035 4.57031C44.6035 4.57031 22.6831 4.57031 12.7413 4.57031C11.4681 4.57031 10.247 5.07569 9.34589 5.97675C8.44564 6.877 7.93945 8.09819 7.93945 9.37219C7.93945 20.0062 7.93945 45.4423 7.93945 56.0771C7.93945 57.3503 8.44564 58.5715 9.34589 59.4717C10.247 60.3728 11.4681 60.8782 12.7413 60.8782C22.1639 60.8782 42.9769 60.8782 52.3995 60.8782C53.6735 60.8782 54.8946 60.3728 55.7949 59.4717C56.696 58.5715 57.2013 57.3503 57.2013 56.0771C57.2013 44.4527 57.2013 15.7487 57.2013 15.7487Z" stroke="#FF8743" stroke-width="2.4375" stroke-miterlimit="1.5" stroke-linecap="round" stroke-linejoin="round"/>
<path d="M44.6035 4.57031V15.7487H57.2013" stroke="#FF8743" stroke-width="2.4375" stroke-miterlimit="1.5" stroke-linecap="round" stroke-linejoin="round"/>
<path d="M13.9766 20.1961L16.8731 22.6222L21.3435 15.7266" stroke="#FF8743" stroke-width="2.4375" stroke-miterlimit="1.5" stroke-linecap="round" stroke-linejoin="round"/>
<path d="M26.2676 20.394H45.4166" stroke="#FF8743" stroke-width="2.4375" stroke-miterlimit="1.5" stroke-linecap="round" stroke-linejoin="round"/>
<path d="M13.9766 30.5508L16.8731 32.9769L21.3435 26.082" stroke="#FF8743" stroke-width="2.4375" stroke-miterlimit="1.5" stroke-linecap="round" stroke-linejoin="round"/>
<path d="M26.2676 30.7495H38.1601" stroke="#FF8743" stroke-width="2.4375" stroke-miterlimit="1.5" stroke-linecap="round" stroke-linejoin="round"/>
<path d="M13.9766 41.8579L16.8731 44.284L21.3435 37.3892" stroke="#FF8743" stroke-width="2.4375" stroke-miterlimit="1.5" stroke-linecap="round" stroke-linejoin="round"/>
<path d="M26.2676 42.0562H36.592" stroke="#FF8743" stroke-width="2.4375" stroke-miterlimit="1.5" stroke-linecap="round" stroke-linejoin="round"/>
<path d="M42.6212 54.7018C46.9079 54.7018 50.383 51.2268 50.383 46.94C50.383 42.6533 46.9079 39.1782 42.6212 39.1782C38.3345 39.1782 34.8594 42.6533 34.8594 46.94C34.8594 51.2268 38.3345 54.7018 42.6212 54.7018Z" stroke="#FF8743" stroke-width="2.4375" stroke-miterlimit="1.5" stroke-linecap="round" stroke-linejoin="round"/>
</g>
<defs>
<clipPath id="clip0_470_1112">
<rect width="65" height="65" fill="white" transform="translate(0.5 0.5)"/>
</clipPath>
</defs>
</svg>
