<svg width="66" height="66" viewBox="0 0 66 66" fill="none" xmlns="http://www.w3.org/2000/svg">
<mask id="path-1-outside-1_538_3237" maskUnits="userSpaceOnUse" x="1.17578" y="1.28076" width="64" height="64" fill="black">
<path d="M19.3441 2.45287C17.7078 2.86844 15.3702 4.271 14.2273 5.49174C13.6559 6.11509 12.7988 7.41375 12.3573 8.37476C11.6041 9.95913 11.5261 10.3487 11.5261 12.6084C11.5261 14.946 11.5781 15.1797 12.4871 17.0498C13.6559 19.4134 15.1624 20.8679 17.5779 22.0107C19.1623 22.7639 19.5519 22.8418 21.7855 22.8418C24.0192 22.8418 24.4088 22.7639 25.9932 22.0107C28.4087 20.8679 29.9152 19.4134 31.084 17.0498C31.993 15.1797 32.045 14.946 32.045 12.5824C32.045 10.2189 31.993 9.9851 31.084 8.11503C29.3178 4.58267 26.201 2.47885 22.357 2.29703C21.2661 2.24509 19.9155 2.32301 19.3441 2.45287ZM25.6815 5.3359C27.4217 6.24496 28.4866 7.36181 29.3697 9.20591C29.8113 10.115 29.9411 10.8422 29.9411 12.5824C29.9671 14.6083 29.8892 14.92 29.084 16.4265C28.097 18.2446 27.2659 19.0238 25.3179 20.0627C23.5258 20.9977 20.2012 21.0497 18.409 20.1666C16.5649 19.2575 15.4481 18.2186 14.5131 16.4265C13.7079 14.946 13.63 14.5824 13.604 12.5824C13.604 10.5305 13.6819 10.2448 14.539 8.68644C16.2013 5.67355 18.8506 4.19308 22.2271 4.37489C23.7076 4.47878 24.4348 4.66059 25.6815 5.3359Z"/>
<path d="M9.99372 23.2575C8.38338 23.6471 6.01982 25.0236 4.87699 26.2704C4.30558 26.8937 3.44847 28.1924 3.00692 29.1534L2.17578 30.8936V39.205C2.17578 47.4905 2.17578 47.5164 2.79914 48.5034C3.13679 49.0489 3.86404 49.8021 4.43545 50.1917C5.34451 50.7631 5.81203 50.893 7.91586 50.9709L10.3573 51.0748V60.3732H12.4352V51.0488L29.7593 50.893L30.7983 50.1917C32.4346 49.1268 33.0839 47.8541 33.0839 45.8022C33.0839 44.3997 32.954 43.9321 32.3826 43.049C31.1619 41.179 30.1749 40.7894 26.4607 40.6335L23.2141 40.5037L19.422 33.2312C17.3441 29.2313 15.6559 25.9327 15.6818 25.9067C15.6818 25.8808 16.461 26.0885 17.3701 26.3743C20.8765 27.4651 24.5647 27.2314 28.0191 25.673C29.4217 25.0496 29.8113 24.9977 31.4995 25.1275C33.5254 25.2834 34.954 25.8288 36.6163 27.1534C37.3955 27.7508 37.7071 27.8547 38.4863 27.7249C39.0318 27.6469 39.4473 27.4392 39.4473 27.2573C39.4473 26.66 37.0838 24.7639 35.3955 23.9587C34.0189 23.3094 33.2397 23.1276 31.3697 23.0237C29.1879 22.8938 28.9542 22.9458 27.2919 23.699C23.6556 25.3873 19.9155 25.4132 16.3572 23.751C14.9806 23.1016 14.4092 22.9718 12.8508 22.9977C11.8378 23.0237 10.5651 23.1276 9.99372 23.2575ZM18.9285 36.7635C22.279 43.2049 25.0842 48.5813 25.1101 48.7112C25.1621 48.8411 23.8894 48.945 22.2531 48.945H19.2921L13.5001 37.7765C10.3054 31.6208 7.73405 26.5561 7.78599 26.5041C8.51324 25.8548 10.7469 25.1275 12.0456 25.0756C12.8248 25.0496 12.9027 25.1795 18.9285 36.7635ZM9.29244 34.2441C11.0326 37.5687 12.4352 40.3738 12.4352 40.4777C12.4352 40.5556 11.9677 40.6335 11.3963 40.6335H10.3573V42.7114H13.6819L15.2663 45.7243C16.1494 47.3866 16.8506 48.7891 16.8506 48.8411C16.8506 48.919 14.4092 48.945 11.3963 48.893L5.9419 48.8151L5.11075 47.958L4.25364 47.1268V39.1271C4.25364 31.2312 4.25364 31.1533 4.87699 29.9845C5.47438 28.8417 5.91592 28.1664 6.09774 28.1664C6.12371 28.1664 7.57821 30.8936 9.29244 34.2441ZM30.1489 43.6984C30.8762 44.4256 31.006 44.7113 31.006 45.8282C31.006 46.9191 30.8762 47.2307 30.2268 47.906C29.7593 48.3736 29.0321 48.7632 28.5386 48.8411L27.6295 48.9709L25.9672 45.8282L24.3309 42.6594L26.8244 42.7374C29.2399 42.8413 29.3438 42.8672 30.1489 43.6984Z"/>
<path d="M47.9406 26.8937C45.7329 28.0365 41.4992 29.3871 38.5383 29.8806C37.1098 30.1404 35.7851 30.452 35.6033 30.6079C35.0319 31.0234 35.3176 46.6853 35.941 48.945C36.5124 51.1267 38.0708 54.4513 39.3954 56.3993C41.1096 58.9446 44.5121 61.9316 47.2653 63.3601C49.5509 64.5548 49.7068 64.5808 50.5899 64.2691C53.5768 63.2042 58.174 59.4901 60.2259 56.4772C62.2258 53.5422 63.6024 50.1397 64.1219 46.8671C64.5115 44.3217 64.4595 30.8936 64.0699 30.5819C63.8881 30.452 62.5635 30.1404 61.135 29.8806C58.174 29.3871 53.9923 28.0625 51.6807 26.8937C50.8236 26.4522 49.9665 26.0885 49.7847 26.0885C49.6029 26.1145 48.7717 26.4522 47.9406 26.8937ZM51.6807 29.1793C54.0443 30.2442 58.2 31.5169 60.4337 31.8806L62.3557 32.1922L62.2258 39.5946C62.1479 46.2697 62.07 47.1788 61.5505 48.893C59.9922 54.1656 56.6156 58.5291 52.0703 61.2043C50.0184 62.425 49.6288 62.3991 47.3432 61.0485C44.0446 59.1005 41.1876 55.9577 39.4473 52.2695C37.6552 48.5034 37.5513 47.8541 37.4214 39.5946L37.3175 32.1922L39.3175 31.8806C41.4733 31.5169 46.8497 29.8287 48.46 28.9716C49.7327 28.2963 49.7327 28.2963 51.6807 29.1793Z"/>
<path d="M52.434 42.5815L46.59 48.4255L43.8628 45.6983L41.1097 42.9711L39.7071 44.4256L43.0317 47.7242C44.8758 49.5424 46.4861 51.0228 46.616 51.0228C46.7459 51.0228 49.7587 48.1138 53.3431 44.5295L59.8104 38.0622L59.187 37.3869C58.8494 37.0233 58.5117 36.7376 58.4338 36.7376C58.3299 36.7376 55.6547 39.3609 52.434 42.5815Z"/>
<path d="M20.7468 32.3221H22.8246V30.2443H20.7468V32.3221Z"/>
</mask>
<path d="M19.3441 2.45287C17.7078 2.86844 15.3702 4.271 14.2273 5.49174C13.6559 6.11509 12.7988 7.41375 12.3573 8.37476C11.6041 9.95913 11.5261 10.3487 11.5261 12.6084C11.5261 14.946 11.5781 15.1797 12.4871 17.0498C13.6559 19.4134 15.1624 20.8679 17.5779 22.0107C19.1623 22.7639 19.5519 22.8418 21.7855 22.8418C24.0192 22.8418 24.4088 22.7639 25.9932 22.0107C28.4087 20.8679 29.9152 19.4134 31.084 17.0498C31.993 15.1797 32.045 14.946 32.045 12.5824C32.045 10.2189 31.993 9.9851 31.084 8.11503C29.3178 4.58267 26.201 2.47885 22.357 2.29703C21.2661 2.24509 19.9155 2.32301 19.3441 2.45287ZM25.6815 5.3359C27.4217 6.24496 28.4866 7.36181 29.3697 9.20591C29.8113 10.115 29.9411 10.8422 29.9411 12.5824C29.9671 14.6083 29.8892 14.92 29.084 16.4265C28.097 18.2446 27.2659 19.0238 25.3179 20.0627C23.5258 20.9977 20.2012 21.0497 18.409 20.1666C16.5649 19.2575 15.4481 18.2186 14.5131 16.4265C13.7079 14.946 13.63 14.5824 13.604 12.5824C13.604 10.5305 13.6819 10.2448 14.539 8.68644C16.2013 5.67355 18.8506 4.19308 22.2271 4.37489C23.7076 4.47878 24.4348 4.66059 25.6815 5.3359Z" fill="#FF8743"/>
<path d="M9.99372 23.2575C8.38338 23.6471 6.01982 25.0236 4.87699 26.2704C4.30558 26.8937 3.44847 28.1924 3.00692 29.1534L2.17578 30.8936V39.205C2.17578 47.4905 2.17578 47.5164 2.79914 48.5034C3.13679 49.0489 3.86404 49.8021 4.43545 50.1917C5.34451 50.7631 5.81203 50.893 7.91586 50.9709L10.3573 51.0748V60.3732H12.4352V51.0488L29.7593 50.893L30.7983 50.1917C32.4346 49.1268 33.0839 47.8541 33.0839 45.8022C33.0839 44.3997 32.954 43.9321 32.3826 43.049C31.1619 41.179 30.1749 40.7894 26.4607 40.6335L23.2141 40.5037L19.422 33.2312C17.3441 29.2313 15.6559 25.9327 15.6818 25.9067C15.6818 25.8808 16.461 26.0885 17.3701 26.3743C20.8765 27.4651 24.5647 27.2314 28.0191 25.673C29.4217 25.0496 29.8113 24.9977 31.4995 25.1275C33.5254 25.2834 34.954 25.8288 36.6163 27.1534C37.3955 27.7508 37.7071 27.8547 38.4863 27.7249C39.0318 27.6469 39.4473 27.4392 39.4473 27.2573C39.4473 26.66 37.0838 24.7639 35.3955 23.9587C34.0189 23.3094 33.2397 23.1276 31.3697 23.0237C29.1879 22.8938 28.9542 22.9458 27.2919 23.699C23.6556 25.3873 19.9155 25.4132 16.3572 23.751C14.9806 23.1016 14.4092 22.9718 12.8508 22.9977C11.8378 23.0237 10.5651 23.1276 9.99372 23.2575ZM18.9285 36.7635C22.279 43.2049 25.0842 48.5813 25.1101 48.7112C25.1621 48.8411 23.8894 48.945 22.2531 48.945H19.2921L13.5001 37.7765C10.3054 31.6208 7.73405 26.5561 7.78599 26.5041C8.51324 25.8548 10.7469 25.1275 12.0456 25.0756C12.8248 25.0496 12.9027 25.1795 18.9285 36.7635ZM9.29244 34.2441C11.0326 37.5687 12.4352 40.3738 12.4352 40.4777C12.4352 40.5556 11.9677 40.6335 11.3963 40.6335H10.3573V42.7114H13.6819L15.2663 45.7243C16.1494 47.3866 16.8506 48.7891 16.8506 48.8411C16.8506 48.919 14.4092 48.945 11.3963 48.893L5.9419 48.8151L5.11075 47.958L4.25364 47.1268V39.1271C4.25364 31.2312 4.25364 31.1533 4.87699 29.9845C5.47438 28.8417 5.91592 28.1664 6.09774 28.1664C6.12371 28.1664 7.57821 30.8936 9.29244 34.2441ZM30.1489 43.6984C30.8762 44.4256 31.006 44.7113 31.006 45.8282C31.006 46.9191 30.8762 47.2307 30.2268 47.906C29.7593 48.3736 29.0321 48.7632 28.5386 48.8411L27.6295 48.9709L25.9672 45.8282L24.3309 42.6594L26.8244 42.7374C29.2399 42.8413 29.3438 42.8672 30.1489 43.6984Z" fill="#FF8743"/>
<path d="M47.9406 26.8937C45.7329 28.0365 41.4992 29.3871 38.5383 29.8806C37.1098 30.1404 35.7851 30.452 35.6033 30.6079C35.0319 31.0234 35.3176 46.6853 35.941 48.945C36.5124 51.1267 38.0708 54.4513 39.3954 56.3993C41.1096 58.9446 44.5121 61.9316 47.2653 63.3601C49.5509 64.5548 49.7068 64.5808 50.5899 64.2691C53.5768 63.2042 58.174 59.4901 60.2259 56.4772C62.2258 53.5422 63.6024 50.1397 64.1219 46.8671C64.5115 44.3217 64.4595 30.8936 64.0699 30.5819C63.8881 30.452 62.5635 30.1404 61.135 29.8806C58.174 29.3871 53.9923 28.0625 51.6807 26.8937C50.8236 26.4522 49.9665 26.0885 49.7847 26.0885C49.6029 26.1145 48.7717 26.4522 47.9406 26.8937ZM51.6807 29.1793C54.0443 30.2442 58.2 31.5169 60.4337 31.8806L62.3557 32.1922L62.2258 39.5946C62.1479 46.2697 62.07 47.1788 61.5505 48.893C59.9922 54.1656 56.6156 58.5291 52.0703 61.2043C50.0184 62.425 49.6288 62.3991 47.3432 61.0485C44.0446 59.1005 41.1876 55.9577 39.4473 52.2695C37.6552 48.5034 37.5513 47.8541 37.4214 39.5946L37.3175 32.1922L39.3175 31.8806C41.4733 31.5169 46.8497 29.8287 48.46 28.9716C49.7327 28.2963 49.7327 28.2963 51.6807 29.1793Z" fill="#FF8743"/>
<path d="M52.434 42.5815L46.59 48.4255L43.8628 45.6983L41.1097 42.9711L39.7071 44.4256L43.0317 47.7242C44.8758 49.5424 46.4861 51.0228 46.616 51.0228C46.7459 51.0228 49.7587 48.1138 53.3431 44.5295L59.8104 38.0622L59.187 37.3869C58.8494 37.0233 58.5117 36.7376 58.4338 36.7376C58.3299 36.7376 55.6547 39.3609 52.434 42.5815Z" fill="#FF8743"/>
<path d="M20.7468 32.3221H22.8246V30.2443H20.7468V32.3221Z" fill="#FF8743"/>
<path d="M19.3441 2.45287C17.7078 2.86844 15.3702 4.271 14.2273 5.49174C13.6559 6.11509 12.7988 7.41375 12.3573 8.37476C11.6041 9.95913 11.5261 10.3487 11.5261 12.6084C11.5261 14.946 11.5781 15.1797 12.4871 17.0498C13.6559 19.4134 15.1624 20.8679 17.5779 22.0107C19.1623 22.7639 19.5519 22.8418 21.7855 22.8418C24.0192 22.8418 24.4088 22.7639 25.9932 22.0107C28.4087 20.8679 29.9152 19.4134 31.084 17.0498C31.993 15.1797 32.045 14.946 32.045 12.5824C32.045 10.2189 31.993 9.9851 31.084 8.11503C29.3178 4.58267 26.201 2.47885 22.357 2.29703C21.2661 2.24509 19.9155 2.32301 19.3441 2.45287ZM25.6815 5.3359C27.4217 6.24496 28.4866 7.36181 29.3697 9.20591C29.8113 10.115 29.9411 10.8422 29.9411 12.5824C29.9671 14.6083 29.8892 14.92 29.084 16.4265C28.097 18.2446 27.2659 19.0238 25.3179 20.0627C23.5258 20.9977 20.2012 21.0497 18.409 20.1666C16.5649 19.2575 15.4481 18.2186 14.5131 16.4265C13.7079 14.946 13.63 14.5824 13.604 12.5824C13.604 10.5305 13.6819 10.2448 14.539 8.68644C16.2013 5.67355 18.8506 4.19308 22.2271 4.37489C23.7076 4.47878 24.4348 4.66059 25.6815 5.3359Z" stroke="#FF8743" stroke-width="0.825" mask="url(#path-1-outside-1_538_3237)"/>
<path d="M9.99372 23.2575C8.38338 23.6471 6.01982 25.0236 4.87699 26.2704C4.30558 26.8937 3.44847 28.1924 3.00692 29.1534L2.17578 30.8936V39.205C2.17578 47.4905 2.17578 47.5164 2.79914 48.5034C3.13679 49.0489 3.86404 49.8021 4.43545 50.1917C5.34451 50.7631 5.81203 50.893 7.91586 50.9709L10.3573 51.0748V60.3732H12.4352V51.0488L29.7593 50.893L30.7983 50.1917C32.4346 49.1268 33.0839 47.8541 33.0839 45.8022C33.0839 44.3997 32.954 43.9321 32.3826 43.049C31.1619 41.179 30.1749 40.7894 26.4607 40.6335L23.2141 40.5037L19.422 33.2312C17.3441 29.2313 15.6559 25.9327 15.6818 25.9067C15.6818 25.8808 16.461 26.0885 17.3701 26.3743C20.8765 27.4651 24.5647 27.2314 28.0191 25.673C29.4217 25.0496 29.8113 24.9977 31.4995 25.1275C33.5254 25.2834 34.954 25.8288 36.6163 27.1534C37.3955 27.7508 37.7071 27.8547 38.4863 27.7249C39.0318 27.6469 39.4473 27.4392 39.4473 27.2573C39.4473 26.66 37.0838 24.7639 35.3955 23.9587C34.0189 23.3094 33.2397 23.1276 31.3697 23.0237C29.1879 22.8938 28.9542 22.9458 27.2919 23.699C23.6556 25.3873 19.9155 25.4132 16.3572 23.751C14.9806 23.1016 14.4092 22.9718 12.8508 22.9977C11.8378 23.0237 10.5651 23.1276 9.99372 23.2575ZM18.9285 36.7635C22.279 43.2049 25.0842 48.5813 25.1101 48.7112C25.1621 48.8411 23.8894 48.945 22.2531 48.945H19.2921L13.5001 37.7765C10.3054 31.6208 7.73405 26.5561 7.78599 26.5041C8.51324 25.8548 10.7469 25.1275 12.0456 25.0756C12.8248 25.0496 12.9027 25.1795 18.9285 36.7635ZM9.29244 34.2441C11.0326 37.5687 12.4352 40.3738 12.4352 40.4777C12.4352 40.5556 11.9677 40.6335 11.3963 40.6335H10.3573V42.7114H13.6819L15.2663 45.7243C16.1494 47.3866 16.8506 48.7891 16.8506 48.8411C16.8506 48.919 14.4092 48.945 11.3963 48.893L5.9419 48.8151L5.11075 47.958L4.25364 47.1268V39.1271C4.25364 31.2312 4.25364 31.1533 4.87699 29.9845C5.47438 28.8417 5.91592 28.1664 6.09774 28.1664C6.12371 28.1664 7.57821 30.8936 9.29244 34.2441ZM30.1489 43.6984C30.8762 44.4256 31.006 44.7113 31.006 45.8282C31.006 46.9191 30.8762 47.2307 30.2268 47.906C29.7593 48.3736 29.0321 48.7632 28.5386 48.8411L27.6295 48.9709L25.9672 45.8282L24.3309 42.6594L26.8244 42.7374C29.2399 42.8413 29.3438 42.8672 30.1489 43.6984Z" stroke="#FF8743" stroke-width="0.825" mask="url(#path-1-outside-1_538_3237)"/>
<path d="M47.9406 26.8937C45.7329 28.0365 41.4992 29.3871 38.5383 29.8806C37.1098 30.1404 35.7851 30.452 35.6033 30.6079C35.0319 31.0234 35.3176 46.6853 35.941 48.945C36.5124 51.1267 38.0708 54.4513 39.3954 56.3993C41.1096 58.9446 44.5121 61.9316 47.2653 63.3601C49.5509 64.5548 49.7068 64.5808 50.5899 64.2691C53.5768 63.2042 58.174 59.4901 60.2259 56.4772C62.2258 53.5422 63.6024 50.1397 64.1219 46.8671C64.5115 44.3217 64.4595 30.8936 64.0699 30.5819C63.8881 30.452 62.5635 30.1404 61.135 29.8806C58.174 29.3871 53.9923 28.0625 51.6807 26.8937C50.8236 26.4522 49.9665 26.0885 49.7847 26.0885C49.6029 26.1145 48.7717 26.4522 47.9406 26.8937ZM51.6807 29.1793C54.0443 30.2442 58.2 31.5169 60.4337 31.8806L62.3557 32.1922L62.2258 39.5946C62.1479 46.2697 62.07 47.1788 61.5505 48.893C59.9922 54.1656 56.6156 58.5291 52.0703 61.2043C50.0184 62.425 49.6288 62.3991 47.3432 61.0485C44.0446 59.1005 41.1876 55.9577 39.4473 52.2695C37.6552 48.5034 37.5513 47.8541 37.4214 39.5946L37.3175 32.1922L39.3175 31.8806C41.4733 31.5169 46.8497 29.8287 48.46 28.9716C49.7327 28.2963 49.7327 28.2963 51.6807 29.1793Z" stroke="#FF8743" stroke-width="0.825" mask="url(#path-1-outside-1_538_3237)"/>
<path d="M52.434 42.5815L46.59 48.4255L43.8628 45.6983L41.1097 42.9711L39.7071 44.4256L43.0317 47.7242C44.8758 49.5424 46.4861 51.0228 46.616 51.0228C46.7459 51.0228 49.7587 48.1138 53.3431 44.5295L59.8104 38.0622L59.187 37.3869C58.8494 37.0233 58.5117 36.7376 58.4338 36.7376C58.3299 36.7376 55.6547 39.3609 52.434 42.5815Z" stroke="#FF8743" stroke-width="0.825" mask="url(#path-1-outside-1_538_3237)"/>
<path d="M20.7468 32.3221H22.8246V30.2443H20.7468V32.3221Z" stroke="#FF8743" stroke-width="0.825" mask="url(#path-1-outside-1_538_3237)"/>
</svg>
