<svg width="66" height="66" viewBox="0 0 66 66" fill="none" xmlns="http://www.w3.org/2000/svg">
<mask id="path-1-outside-1_538_3237" maskUnits="userSpaceOnUse" x="7.04297" y="-0.288818" width="58" height="66" fill="black">
<path d="M34.019 1.00532C33.5136 1.30854 26.5142 11.7445 25.4024 13.8923C24.5685 15.459 24.6444 16.1412 25.6046 16.1412C26.1099 16.1412 26.489 15.6864 27.8029 13.5386C28.6621 12.1235 30.633 9.11655 32.1491 6.86764L34.9287 2.74885L37.1271 5.98324C42.1555 13.3111 45.2888 18.8702 46.6281 22.8374C48.2453 27.6132 46.906 33.0712 43.4189 35.9013C38.3147 40.0454 30.6077 39.8179 25.9836 35.4212C22.5218 32.1363 21.6121 27.2342 23.482 22.2057C23.9368 21.0181 24.3159 19.7041 24.3411 19.2998C24.3664 18.6428 24.2653 18.5417 23.6589 18.4659C23.0272 18.3901 22.9008 18.5165 22.3702 19.7294C21.0815 22.6353 20.6519 24.5051 20.6519 27.0067C20.6519 35.0169 26.6406 40.7529 34.9792 40.7276C41.7765 40.7023 47.184 36.7604 48.7506 30.696C49.7866 26.5772 49.2813 23.5197 46.6281 18.0364C44.8845 14.3977 42.8125 10.9612 39.2244 5.65474C35.8384 0.676823 35.3583 0.247256 34.019 1.00532Z"/>
<path d="M30.1783 20.9423C28.1821 21.9278 27.2977 24.4041 28.1316 26.5772C28.6117 27.8659 34.2213 33.5766 35.0047 33.5766C35.2826 33.5766 36.7735 32.2627 38.5423 30.4686C41.1702 27.8154 41.625 27.2342 41.903 26.1982C42.8379 22.4079 39.6541 19.4515 36.2175 20.9171L34.9541 21.473L33.817 20.9676C32.402 20.3106 31.4418 20.3106 30.1783 20.9423ZM33.6401 23.0902C34.1455 23.4439 34.752 23.7219 34.9541 23.7219C35.1563 23.7219 35.7627 23.4439 36.2681 23.0902C37.5821 22.2058 38.6686 22.2563 39.5025 23.2418C39.9826 23.7977 40.1595 24.3031 40.1595 25.0358C40.1595 26.0213 40.0078 26.2235 37.5062 28.7503L34.8783 31.4288L32.3767 28.9019C29.7488 26.2487 29.4456 25.6423 29.8499 24.0251C30.2794 22.4332 32.023 21.9783 33.6401 23.0902Z"/>
<path d="M34.5245 43.8358L28.738 45.9583L26.4385 45.175C24.4423 44.4927 23.9117 44.4169 22.5724 44.5433C21.7133 44.6191 20.4499 44.8718 19.7929 45.0739C18.6558 45.4277 18.5295 45.4277 18.302 45.0234C18.1757 44.796 17.7967 44.3411 17.4934 44.0126C16.9628 43.4567 16.7606 43.4315 13.2483 43.4315H9.53382L8.06824 44.897V48.2072C8.06824 51.0626 8.11877 51.5174 8.4978 51.7448C8.77576 51.8965 9.10425 51.8965 9.38221 51.7448C9.7865 51.5427 9.83704 51.1131 9.83704 48.6621C9.83704 46.7669 9.93812 45.7056 10.1403 45.5035C10.3424 45.3013 11.4037 45.2003 13.2988 45.2003C15.851 45.2003 16.1542 45.2508 16.4069 45.6804C16.7606 46.3626 16.7606 60.7152 16.4069 61.3975C16.1542 61.827 15.851 61.8776 13.2736 61.8776C11.2015 61.8776 10.3171 61.7765 10.1403 61.5491C9.96339 61.3469 9.81177 59.8561 9.7865 58.062L9.7107 54.9287H8.19458L8.04297 62.1555L8.80103 62.8883L9.53382 63.6464H13.1725C16.9881 63.6464 17.4682 63.4948 18.1252 62.2819C18.6305 61.3217 21.7891 61.8018 28.7885 63.9243C33.1347 65.2636 33.2611 65.2888 36.3691 65.2888C39.4266 65.2636 39.6288 65.2383 42.6863 64.177C46.1228 62.9894 60.8039 57.1271 62.3705 56.3185C64.0635 55.4593 64.6447 53.2104 63.6845 51.3153C63.4066 50.7846 62.9012 50.2035 62.5474 50.0266C62.042 49.7486 61.9662 49.5717 62.1431 49.218C62.8254 47.9798 62.1431 46.0089 60.8039 45.2003C59.7173 44.5433 58.7066 44.5686 56.6851 45.3266C54.6383 46.0847 54.5625 46.1099 54.5625 45.4277C54.5625 44.5686 53.6276 43.2799 52.7432 42.9008C51.5556 42.4207 50.6459 42.5471 47.74 43.6336C43.7981 45.1245 43.9497 45.0992 43.9497 44.3664C43.9497 43.1788 42.2062 41.6374 40.8669 41.6627C40.5384 41.6879 37.6831 42.6481 34.5245 43.8358ZM41.9535 44.2148C42.5347 45.3013 41.9535 45.7814 38.5422 47.0701L35.3584 48.2578L33.5896 47.7019C32.6294 47.3734 31.8208 47.0701 31.8208 46.9943C31.8208 46.7417 40.2605 43.7094 40.968 43.7094C41.4228 43.6841 41.7513 43.861 41.9535 44.2148ZM52.2884 44.9476C53.5265 46.1857 52.8695 46.7164 47.2346 48.839L42.3325 50.6836L40.3616 50.0266C39.275 49.6728 38.3906 49.3191 38.3906 49.2433C38.4159 49.0664 50.7975 44.4675 51.3534 44.4675C51.5808 44.4422 52.0104 44.6696 52.2884 44.9476ZM25.9584 46.9943C26.7418 47.2723 30.81 48.7126 34.9793 50.1529C39.1487 51.6185 42.7115 52.983 42.8884 53.2104C43.3685 53.8674 43.2675 55.4846 42.6863 56.0658C41.8019 56.9502 40.2605 56.7228 34.9035 55.0045C30.4815 53.5895 30.0014 53.4884 29.6477 53.8421C29.395 54.0948 29.2939 54.4486 29.395 54.7518C29.5466 55.1814 30.5068 55.5857 34.3476 56.8238C36.9756 57.6577 39.4772 58.4158 39.8815 58.4916C41.1954 58.7695 42.8884 58.3652 43.7728 57.6072C44.6825 56.7986 59.212 51.2647 60.3996 51.2647C61.4609 51.2647 62.2442 52.0481 62.2442 53.1346C62.2442 53.64 62.0673 54.1959 61.8904 54.398C61.4356 54.8023 48.7002 59.9824 43.4443 61.9028C39.9067 63.1915 39.654 63.2421 36.7481 63.3179L33.7159 63.419L29.0412 62.0039C24.4676 60.6141 20.9805 59.8561 19.2875 59.8561H18.4284V47.525L19.6413 47.1207C22.2187 46.3121 23.9622 46.2616 25.9584 46.9943ZM59.9953 47.0701C60.6017 47.7019 60.627 48.4599 60.0206 48.9653C59.6921 49.2433 45.4153 54.6255 45.3647 54.4991C45.1879 54.0696 44.4803 51.8965 44.5309 51.8712C44.6572 51.7701 59.0098 46.489 59.1867 46.4637C59.2878 46.4637 59.6668 46.7417 59.9953 47.0701Z"/>
</mask>
<path d="M34.019 1.00532C33.5136 1.30854 26.5142 11.7445 25.4024 13.8923C24.5685 15.459 24.6444 16.1412 25.6046 16.1412C26.1099 16.1412 26.489 15.6864 27.8029 13.5386C28.6621 12.1235 30.633 9.11655 32.1491 6.86764L34.9287 2.74885L37.1271 5.98324C42.1555 13.3111 45.2888 18.8702 46.6281 22.8374C48.2453 27.6132 46.906 33.0712 43.4189 35.9013C38.3147 40.0454 30.6077 39.8179 25.9836 35.4212C22.5218 32.1363 21.6121 27.2342 23.482 22.2057C23.9368 21.0181 24.3159 19.7041 24.3411 19.2998C24.3664 18.6428 24.2653 18.5417 23.6589 18.4659C23.0272 18.3901 22.9008 18.5165 22.3702 19.7294C21.0815 22.6353 20.6519 24.5051 20.6519 27.0067C20.6519 35.0169 26.6406 40.7529 34.9792 40.7276C41.7765 40.7023 47.184 36.7604 48.7506 30.696C49.7866 26.5772 49.2813 23.5197 46.6281 18.0364C44.8845 14.3977 42.8125 10.9612 39.2244 5.65474C35.8384 0.676823 35.3583 0.247256 34.019 1.00532Z" fill="#FF8743"/>
<path d="M30.1783 20.9423C28.1821 21.9278 27.2977 24.4041 28.1316 26.5772C28.6117 27.8659 34.2213 33.5766 35.0047 33.5766C35.2826 33.5766 36.7735 32.2627 38.5423 30.4686C41.1702 27.8154 41.625 27.2342 41.903 26.1982C42.8379 22.4079 39.6541 19.4515 36.2175 20.9171L34.9541 21.473L33.817 20.9676C32.402 20.3106 31.4418 20.3106 30.1783 20.9423ZM33.6401 23.0902C34.1455 23.4439 34.752 23.7219 34.9541 23.7219C35.1563 23.7219 35.7627 23.4439 36.2681 23.0902C37.5821 22.2058 38.6686 22.2563 39.5025 23.2418C39.9826 23.7977 40.1595 24.3031 40.1595 25.0358C40.1595 26.0213 40.0078 26.2235 37.5062 28.7503L34.8783 31.4288L32.3767 28.9019C29.7488 26.2487 29.4456 25.6423 29.8499 24.0251C30.2794 22.4332 32.023 21.9783 33.6401 23.0902Z" fill="#FF8743"/>
<path d="M34.5245 43.8358L28.738 45.9583L26.4385 45.175C24.4423 44.4927 23.9117 44.4169 22.5724 44.5433C21.7133 44.6191 20.4499 44.8718 19.7929 45.0739C18.6558 45.4277 18.5295 45.4277 18.302 45.0234C18.1757 44.796 17.7967 44.3411 17.4934 44.0126C16.9628 43.4567 16.7606 43.4315 13.2483 43.4315H9.53382L8.06824 44.897V48.2072C8.06824 51.0626 8.11877 51.5174 8.4978 51.7448C8.77576 51.8965 9.10425 51.8965 9.38221 51.7448C9.7865 51.5427 9.83704 51.1131 9.83704 48.6621C9.83704 46.7669 9.93812 45.7056 10.1403 45.5035C10.3424 45.3013 11.4037 45.2003 13.2988 45.2003C15.851 45.2003 16.1542 45.2508 16.4069 45.6804C16.7606 46.3626 16.7606 60.7152 16.4069 61.3975C16.1542 61.827 15.851 61.8776 13.2736 61.8776C11.2015 61.8776 10.3171 61.7765 10.1403 61.5491C9.96339 61.3469 9.81177 59.8561 9.7865 58.062L9.7107 54.9287H8.19458L8.04297 62.1555L8.80103 62.8883L9.53382 63.6464H13.1725C16.9881 63.6464 17.4682 63.4948 18.1252 62.2819C18.6305 61.3217 21.7891 61.8018 28.7885 63.9243C33.1347 65.2636 33.2611 65.2888 36.3691 65.2888C39.4266 65.2636 39.6288 65.2383 42.6863 64.177C46.1228 62.9894 60.8039 57.1271 62.3705 56.3185C64.0635 55.4593 64.6447 53.2104 63.6845 51.3153C63.4066 50.7846 62.9012 50.2035 62.5474 50.0266C62.042 49.7486 61.9662 49.5717 62.1431 49.218C62.8254 47.9798 62.1431 46.0089 60.8039 45.2003C59.7173 44.5433 58.7066 44.5686 56.6851 45.3266C54.6383 46.0847 54.5625 46.1099 54.5625 45.4277C54.5625 44.5686 53.6276 43.2799 52.7432 42.9008C51.5556 42.4207 50.6459 42.5471 47.74 43.6336C43.7981 45.1245 43.9497 45.0992 43.9497 44.3664C43.9497 43.1788 42.2062 41.6374 40.8669 41.6627C40.5384 41.6879 37.6831 42.6481 34.5245 43.8358ZM41.9535 44.2148C42.5347 45.3013 41.9535 45.7814 38.5422 47.0701L35.3584 48.2578L33.5896 47.7019C32.6294 47.3734 31.8208 47.0701 31.8208 46.9943C31.8208 46.7417 40.2605 43.7094 40.968 43.7094C41.4228 43.6841 41.7513 43.861 41.9535 44.2148ZM52.2884 44.9476C53.5265 46.1857 52.8695 46.7164 47.2346 48.839L42.3325 50.6836L40.3616 50.0266C39.275 49.6728 38.3906 49.3191 38.3906 49.2433C38.4159 49.0664 50.7975 44.4675 51.3534 44.4675C51.5808 44.4422 52.0104 44.6696 52.2884 44.9476ZM25.9584 46.9943C26.7418 47.2723 30.81 48.7126 34.9793 50.1529C39.1487 51.6185 42.7115 52.983 42.8884 53.2104C43.3685 53.8674 43.2675 55.4846 42.6863 56.0658C41.8019 56.9502 40.2605 56.7228 34.9035 55.0045C30.4815 53.5895 30.0014 53.4884 29.6477 53.8421C29.395 54.0948 29.2939 54.4486 29.395 54.7518C29.5466 55.1814 30.5068 55.5857 34.3476 56.8238C36.9756 57.6577 39.4772 58.4158 39.8815 58.4916C41.1954 58.7695 42.8884 58.3652 43.7728 57.6072C44.6825 56.7986 59.212 51.2647 60.3996 51.2647C61.4609 51.2647 62.2442 52.0481 62.2442 53.1346C62.2442 53.64 62.0673 54.1959 61.8904 54.398C61.4356 54.8023 48.7002 59.9824 43.4443 61.9028C39.9067 63.1915 39.654 63.2421 36.7481 63.3179L33.7159 63.419L29.0412 62.0039C24.4676 60.6141 20.9805 59.8561 19.2875 59.8561H18.4284V47.525L19.6413 47.1207C22.2187 46.3121 23.9622 46.2616 25.9584 46.9943ZM59.9953 47.0701C60.6017 47.7019 60.627 48.4599 60.0206 48.9653C59.6921 49.2433 45.4153 54.6255 45.3647 54.4991C45.1879 54.0696 44.4803 51.8965 44.5309 51.8712C44.6572 51.7701 59.0098 46.489 59.1867 46.4637C59.2878 46.4637 59.6668 46.7417 59.9953 47.0701Z" fill="#FF8743"/>
<path d="M34.019 1.00532C33.5136 1.30854 26.5142 11.7445 25.4024 13.8923C24.5685 15.459 24.6444 16.1412 25.6046 16.1412C26.1099 16.1412 26.489 15.6864 27.8029 13.5386C28.6621 12.1235 30.633 9.11655 32.1491 6.86764L34.9287 2.74885L37.1271 5.98324C42.1555 13.3111 45.2888 18.8702 46.6281 22.8374C48.2453 27.6132 46.906 33.0712 43.4189 35.9013C38.3147 40.0454 30.6077 39.8179 25.9836 35.4212C22.5218 32.1363 21.6121 27.2342 23.482 22.2057C23.9368 21.0181 24.3159 19.7041 24.3411 19.2998C24.3664 18.6428 24.2653 18.5417 23.6589 18.4659C23.0272 18.3901 22.9008 18.5165 22.3702 19.7294C21.0815 22.6353 20.6519 24.5051 20.6519 27.0067C20.6519 35.0169 26.6406 40.7529 34.9792 40.7276C41.7765 40.7023 47.184 36.7604 48.7506 30.696C49.7866 26.5772 49.2813 23.5197 46.6281 18.0364C44.8845 14.3977 42.8125 10.9612 39.2244 5.65474C35.8384 0.676823 35.3583 0.247256 34.019 1.00532Z" stroke="#FF8743" stroke-width="0.825" mask="url(#path-1-outside-1_538_3237)"/>
<path d="M30.1783 20.9423C28.1821 21.9278 27.2977 24.4041 28.1316 26.5772C28.6117 27.8659 34.2213 33.5766 35.0047 33.5766C35.2826 33.5766 36.7735 32.2627 38.5423 30.4686C41.1702 27.8154 41.625 27.2342 41.903 26.1982C42.8379 22.4079 39.6541 19.4515 36.2175 20.9171L34.9541 21.473L33.817 20.9676C32.402 20.3106 31.4418 20.3106 30.1783 20.9423ZM33.6401 23.0902C34.1455 23.4439 34.752 23.7219 34.9541 23.7219C35.1563 23.7219 35.7627 23.4439 36.2681 23.0902C37.5821 22.2058 38.6686 22.2563 39.5025 23.2418C39.9826 23.7977 40.1595 24.3031 40.1595 25.0358C40.1595 26.0213 40.0078 26.2235 37.5062 28.7503L34.8783 31.4288L32.3767 28.9019C29.7488 26.2487 29.4456 25.6423 29.8499 24.0251C30.2794 22.4332 32.023 21.9783 33.6401 23.0902Z" stroke="#FF8743" stroke-width="0.825" mask="url(#path-1-outside-1_538_3237)"/>
<path d="M34.5245 43.8358L28.738 45.9583L26.4385 45.175C24.4423 44.4927 23.9117 44.4169 22.5724 44.5433C21.7133 44.6191 20.4499 44.8718 19.7929 45.0739C18.6558 45.4277 18.5295 45.4277 18.302 45.0234C18.1757 44.796 17.7967 44.3411 17.4934 44.0126C16.9628 43.4567 16.7606 43.4315 13.2483 43.4315H9.53382L8.06824 44.897V48.2072C8.06824 51.0626 8.11877 51.5174 8.4978 51.7448C8.77576 51.8965 9.10425 51.8965 9.38221 51.7448C9.7865 51.5427 9.83704 51.1131 9.83704 48.6621C9.83704 46.7669 9.93812 45.7056 10.1403 45.5035C10.3424 45.3013 11.4037 45.2003 13.2988 45.2003C15.851 45.2003 16.1542 45.2508 16.4069 45.6804C16.7606 46.3626 16.7606 60.7152 16.4069 61.3975C16.1542 61.827 15.851 61.8776 13.2736 61.8776C11.2015 61.8776 10.3171 61.7765 10.1403 61.5491C9.96339 61.3469 9.81177 59.8561 9.7865 58.062L9.7107 54.9287H8.19458L8.04297 62.1555L8.80103 62.8883L9.53382 63.6464H13.1725C16.9881 63.6464 17.4682 63.4948 18.1252 62.2819C18.6305 61.3217 21.7891 61.8018 28.7885 63.9243C33.1347 65.2636 33.2611 65.2888 36.3691 65.2888C39.4266 65.2636 39.6288 65.2383 42.6863 64.177C46.1228 62.9894 60.8039 57.1271 62.3705 56.3185C64.0635 55.4593 64.6447 53.2104 63.6845 51.3153C63.4066 50.7846 62.9012 50.2035 62.5474 50.0266C62.042 49.7486 61.9662 49.5717 62.1431 49.218C62.8254 47.9798 62.1431 46.0089 60.8039 45.2003C59.7173 44.5433 58.7066 44.5686 56.6851 45.3266C54.6383 46.0847 54.5625 46.1099 54.5625 45.4277C54.5625 44.5686 53.6276 43.2799 52.7432 42.9008C51.5556 42.4207 50.6459 42.5471 47.74 43.6336C43.7981 45.1245 43.9497 45.0992 43.9497 44.3664C43.9497 43.1788 42.2062 41.6374 40.8669 41.6627C40.5384 41.6879 37.6831 42.6481 34.5245 43.8358ZM41.9535 44.2148C42.5347 45.3013 41.9535 45.7814 38.5422 47.0701L35.3584 48.2578L33.5896 47.7019C32.6294 47.3734 31.8208 47.0701 31.8208 46.9943C31.8208 46.7417 40.2605 43.7094 40.968 43.7094C41.4228 43.6841 41.7513 43.861 41.9535 44.2148ZM52.2884 44.9476C53.5265 46.1857 52.8695 46.7164 47.2346 48.839L42.3325 50.6836L40.3616 50.0266C39.275 49.6728 38.3906 49.3191 38.3906 49.2433C38.4159 49.0664 50.7975 44.4675 51.3534 44.4675C51.5808 44.4422 52.0104 44.6696 52.2884 44.9476ZM25.9584 46.9943C26.7418 47.2723 30.81 48.7126 34.9793 50.1529C39.1487 51.6185 42.7115 52.983 42.8884 53.2104C43.3685 53.8674 43.2675 55.4846 42.6863 56.0658C41.8019 56.9502 40.2605 56.7228 34.9035 55.0045C30.4815 53.5895 30.0014 53.4884 29.6477 53.8421C29.395 54.0948 29.2939 54.4486 29.395 54.7518C29.5466 55.1814 30.5068 55.5857 34.3476 56.8238C36.9756 57.6577 39.4772 58.4158 39.8815 58.4916C41.1954 58.7695 42.8884 58.3652 43.7728 57.6072C44.6825 56.7986 59.212 51.2647 60.3996 51.2647C61.4609 51.2647 62.2442 52.0481 62.2442 53.1346C62.2442 53.64 62.0673 54.1959 61.8904 54.398C61.4356 54.8023 48.7002 59.9824 43.4443 61.9028C39.9067 63.1915 39.654 63.2421 36.7481 63.3179L33.7159 63.419L29.0412 62.0039C24.4676 60.6141 20.9805 59.8561 19.2875 59.8561H18.4284V47.525L19.6413 47.1207C22.2187 46.3121 23.9622 46.2616 25.9584 46.9943ZM59.9953 47.0701C60.6017 47.7019 60.627 48.4599 60.0206 48.9653C59.6921 49.2433 45.4153 54.6255 45.3647 54.4991C45.1879 54.0696 44.4803 51.8965 44.5309 51.8712C44.6572 51.7701 59.0098 46.489 59.1867 46.4637C59.2878 46.4637 59.6668 46.7417 59.9953 47.0701Z" stroke="#FF8743" stroke-width="0.825" mask="url(#path-1-outside-1_538_3237)"/>
</svg>
