<svg width="66" height="66" viewBox="0 0 66 66" fill="none" xmlns="http://www.w3.org/2000/svg">
<g clip-path="url(#clip0_538_3237)">
<mask id="path-1-outside-1_538_3237" maskUnits="userSpaceOnUse" x="-0.262451" y="-0.531006" width="67" height="67" fill="black">
<path d="M27.8084 0.856174C23.578 1.97747 20.2396 5.34137 18.9909 9.72463C18.4048 11.7634 18.5831 15.2802 19.3732 17.3444C20.6474 20.7083 23.8074 23.6134 27.2987 24.6838C28.7513 25.117 29.5413 25.1935 31.5545 25.117C34.5107 24.9641 36.2946 24.3525 38.4352 22.747C44.1946 18.4147 44.9591 9.85205 40.0917 4.52588C37.0081 1.16198 32.0897 -0.290609 27.8084 0.856174ZM35.4536 3.43006C39.6075 5.46879 42.054 10.0814 41.2894 14.4137C40.5504 18.6186 37.9255 21.6512 33.95 22.8744C27.8848 24.7602 21.7432 20.8612 20.5964 14.4392C19.9083 10.4637 22.0235 5.97847 25.5913 3.88878C27.5281 2.76748 28.7003 2.48715 31.3761 2.56361C33.5168 2.61457 34.001 2.71651 35.4536 3.43006Z"/>
<path d="M29.0826 5.90217C28.2162 6.38637 27.8084 7.27831 27.7829 8.65445V9.87769H26.3813C25.209 9.87769 24.8523 9.97963 24.3426 10.5148C23.7819 11.05 23.7055 11.3558 23.7055 12.8084C23.7055 14.3374 23.7819 14.5668 24.4445 15.2548C25.0816 15.8664 25.4129 15.9939 26.4578 15.9939H27.732L27.8339 17.4465C28.0123 19.4597 28.7258 20.0713 30.9684 20.0713C33.211 20.0713 33.9246 19.4597 34.103 17.4465L34.2049 15.9939H35.4791C36.524 15.9939 36.8552 15.8664 37.4924 15.2548C38.1295 14.5922 38.2314 14.3119 38.2314 13.0632C38.2314 11.5596 37.7472 10.2854 37.0846 10.0306C36.8553 9.95414 36.0907 9.87769 35.4027 9.87769H34.1539V8.73091C34.1539 7.27831 33.7207 6.36089 32.8543 5.90217C31.9623 5.44346 29.8981 5.44346 29.0826 5.90217ZM32.1152 9.31704C32.1152 10.3364 32.2426 11.1774 32.421 11.3558C32.5994 11.5342 33.4404 11.6616 34.4597 11.6616H36.1927V13.9551H34.6127C33.7207 13.9551 32.8288 14.0826 32.6249 14.21C32.3701 14.3629 32.1917 15.0255 32.1152 16.2997L31.9878 18.16L30.9175 18.2365L29.8216 18.3129V16.529C29.8216 14.2355 29.5668 13.9551 27.3752 13.9551H25.7442V11.6616H27.4771C28.4965 11.6616 29.3375 11.5342 29.5158 11.3558C29.6942 11.1774 29.8216 10.3364 29.8216 9.31704V7.58412H32.1152V9.31704Z"/>
<path d="M3.0632 18.9754C2.47706 19.2048 1.53415 20.1222 1.12641 20.8867C0.591243 21.9061 0.616727 31.59 1.15189 32.0487C1.63609 32.4565 2.47706 32.1507 2.65545 31.4626C2.7319 31.1568 2.80836 28.8123 2.80836 26.2384C2.80836 21.9316 2.83384 21.5748 3.31804 21.0906C3.98062 20.428 4.61772 20.4535 5.4587 21.1161L6.12128 21.6258V31.9978C6.12128 38.0885 6.22322 42.5227 6.37612 42.752C6.58 43.0833 8.28743 43.1343 18.7359 43.2108L30.8408 43.2872V46.5747H2.80836V41.1975C2.80836 37.9865 2.70642 35.642 2.55352 35.3362C2.24771 34.801 1.53415 34.6991 1.07544 35.1578C0.642211 35.591 0.642211 47.8743 1.07544 48.3076C1.25383 48.486 2.17125 48.6134 3.36901 48.6134H5.35676V56.4625L4.71966 56.6154C3.72578 56.8702 2.37513 58.2209 1.89093 59.4441C0.183498 63.9038 5.78999 67.7264 9.28131 64.4645C10.0713 63.6999 10.9378 62.0435 10.9633 61.228C10.9633 59.4186 9.58712 57.3034 8.0071 56.7173C7.16613 56.4115 7.14065 56.386 7.14065 54.9334V53.4553H60.4023V54.9589C60.4023 56.335 60.3514 56.4625 59.7907 56.6154C59.4339 56.6918 58.8223 57.0741 58.3636 57.4309C56.2994 59.1893 56.121 62.018 57.9304 64.0822C61.0649 67.65 66.7988 64.7193 65.9069 59.9538C65.6775 58.8325 64.4798 57.4054 63.1546 56.7428L62.1862 56.2586V48.6134H63.6643C64.4798 48.6134 65.2698 48.486 65.4482 48.3076C65.6775 48.0782 65.754 45.3769 65.754 37.7062C65.754 27.691 65.7285 27.3597 65.2188 26.5187C64.5562 25.4484 63.5369 24.9132 62.1353 24.9132C60.8356 24.9132 59.5359 25.6268 58.9243 26.6971L58.491 27.4616H54.1078C50.4635 27.4616 49.6735 27.5381 49.3422 27.8693C49.1129 28.0732 48.9345 28.3535 48.9345 28.481C48.9345 28.6084 49.1129 28.8887 49.3422 29.0926C49.6735 29.4239 50.4636 29.5003 54.0568 29.5003H58.3636V46.5747H32.6247V39.541C32.6247 31.6665 32.7012 31.2587 34.3831 30.1119C35.275 29.5258 35.4025 29.5003 40.5248 29.5003C43.4045 29.5003 45.8764 29.3984 46.0293 29.2965C46.5135 28.9652 46.6155 28.2516 46.2332 27.8439C45.6725 27.3087 36.6257 27.2832 34.7654 27.8439C32.8031 28.43 31.1466 30.3668 30.8663 32.431L30.7134 33.4504L25.0559 33.5268L19.3985 33.5778L19.1182 32.5839C18.6594 30.851 17.691 30.2903 12.6707 28.7358L8.16001 27.3342V24.5309C8.16001 21.3199 7.82872 20.3261 6.40161 19.3832C5.56063 18.8225 4.00611 18.6186 3.0632 18.9754ZM63.333 27.3342L63.9701 27.9458V46.5747H60.4023V37.222C60.4023 27.9713 60.4023 27.8693 60.963 27.2832C61.6765 26.5187 62.5685 26.5442 63.333 27.3342ZM17.003 32.4565C17.793 33.5268 17.5636 33.5778 12.7471 33.5778H8.16001V29.2965L12.4158 30.6726C14.9133 31.4626 16.8246 32.2016 17.003 32.4565ZM30.8663 41.223H8.16001V35.3617L19.4494 35.4126L30.7134 35.4891L30.8663 41.223ZM60.4023 51.4166H7.14065V48.6134H60.4023V51.4166ZM8.05807 59.1638C9.02647 60.1322 9.17937 61.1261 8.54227 62.3748C8.05807 63.3177 7.44645 63.649 6.12128 63.649C3.39449 63.649 2.55352 59.9283 4.9745 58.6031C5.99386 58.0425 7.14065 58.2464 8.05807 59.1638ZM62.6959 58.6796C63.6388 59.1638 63.9701 59.7754 63.9701 61.1006C63.9701 62.5786 62.8998 63.649 61.4217 63.649C60.0965 63.649 59.4849 63.3177 59.0007 62.3748C58.3636 61.1261 58.5165 60.1322 59.4849 59.1638C60.4533 58.1954 61.4472 58.0425 62.6959 58.6796Z"/>
</mask>
<path d="M27.8084 0.856174C23.578 1.97747 20.2396 5.34137 18.9909 9.72463C18.4048 11.7634 18.5831 15.2802 19.3732 17.3444C20.6474 20.7083 23.8074 23.6134 27.2987 24.6838C28.7513 25.117 29.5413 25.1935 31.5545 25.117C34.5107 24.9641 36.2946 24.3525 38.4352 22.747C44.1946 18.4147 44.9591 9.85205 40.0917 4.52588C37.0081 1.16198 32.0897 -0.290609 27.8084 0.856174ZM35.4536 3.43006C39.6075 5.46879 42.054 10.0814 41.2894 14.4137C40.5504 18.6186 37.9255 21.6512 33.95 22.8744C27.8848 24.7602 21.7432 20.8612 20.5964 14.4392C19.9083 10.4637 22.0235 5.97847 25.5913 3.88878C27.5281 2.76748 28.7003 2.48715 31.3761 2.56361C33.5168 2.61457 34.001 2.71651 35.4536 3.43006Z" fill="#FF8743"/>
<path d="M29.0826 5.90217C28.2162 6.38637 27.8084 7.27831 27.7829 8.65445V9.87769H26.3813C25.209 9.87769 24.8523 9.97963 24.3426 10.5148C23.7819 11.05 23.7055 11.3558 23.7055 12.8084C23.7055 14.3374 23.7819 14.5668 24.4445 15.2548C25.0816 15.8664 25.4129 15.9939 26.4578 15.9939H27.732L27.8339 17.4465C28.0123 19.4597 28.7258 20.0713 30.9684 20.0713C33.211 20.0713 33.9246 19.4597 34.103 17.4465L34.2049 15.9939H35.4791C36.524 15.9939 36.8552 15.8664 37.4924 15.2548C38.1295 14.5922 38.2314 14.3119 38.2314 13.0632C38.2314 11.5596 37.7472 10.2854 37.0846 10.0306C36.8553 9.95414 36.0907 9.87769 35.4027 9.87769H34.1539V8.73091C34.1539 7.27831 33.7207 6.36089 32.8543 5.90217C31.9623 5.44346 29.8981 5.44346 29.0826 5.90217ZM32.1152 9.31704C32.1152 10.3364 32.2426 11.1774 32.421 11.3558C32.5994 11.5342 33.4404 11.6616 34.4597 11.6616H36.1927V13.9551H34.6127C33.7207 13.9551 32.8288 14.0826 32.6249 14.21C32.3701 14.3629 32.1917 15.0255 32.1152 16.2997L31.9878 18.16L30.9175 18.2365L29.8216 18.3129V16.529C29.8216 14.2355 29.5668 13.9551 27.3752 13.9551H25.7442V11.6616H27.4771C28.4965 11.6616 29.3375 11.5342 29.5158 11.3558C29.6942 11.1774 29.8216 10.3364 29.8216 9.31704V7.58412H32.1152V9.31704Z" fill="#FF8743"/>
<path d="M3.0632 18.9754C2.47706 19.2048 1.53415 20.1222 1.12641 20.8867C0.591243 21.9061 0.616727 31.59 1.15189 32.0487C1.63609 32.4565 2.47706 32.1507 2.65545 31.4626C2.7319 31.1568 2.80836 28.8123 2.80836 26.2384C2.80836 21.9316 2.83384 21.5748 3.31804 21.0906C3.98062 20.428 4.61772 20.4535 5.4587 21.1161L6.12128 21.6258V31.9978C6.12128 38.0885 6.22322 42.5227 6.37612 42.752C6.58 43.0833 8.28743 43.1343 18.7359 43.2108L30.8408 43.2872V46.5747H2.80836V41.1975C2.80836 37.9865 2.70642 35.642 2.55352 35.3362C2.24771 34.801 1.53415 34.6991 1.07544 35.1578C0.642211 35.591 0.642211 47.8743 1.07544 48.3076C1.25383 48.486 2.17125 48.6134 3.36901 48.6134H5.35676V56.4625L4.71966 56.6154C3.72578 56.8702 2.37513 58.2209 1.89093 59.4441C0.183498 63.9038 5.78999 67.7264 9.28131 64.4645C10.0713 63.6999 10.9378 62.0435 10.9633 61.228C10.9633 59.4186 9.58712 57.3034 8.0071 56.7173C7.16613 56.4115 7.14065 56.386 7.14065 54.9334V53.4553H60.4023V54.9589C60.4023 56.335 60.3514 56.4625 59.7907 56.6154C59.4339 56.6918 58.8223 57.0741 58.3636 57.4309C56.2994 59.1893 56.121 62.018 57.9304 64.0822C61.0649 67.65 66.7988 64.7193 65.9069 59.9538C65.6775 58.8325 64.4798 57.4054 63.1546 56.7428L62.1862 56.2586V48.6134H63.6643C64.4798 48.6134 65.2698 48.486 65.4482 48.3076C65.6775 48.0782 65.754 45.3769 65.754 37.7062C65.754 27.691 65.7285 27.3597 65.2188 26.5187C64.5562 25.4484 63.5369 24.9132 62.1353 24.9132C60.8356 24.9132 59.5359 25.6268 58.9243 26.6971L58.491 27.4616H54.1078C50.4635 27.4616 49.6735 27.5381 49.3422 27.8693C49.1129 28.0732 48.9345 28.3535 48.9345 28.481C48.9345 28.6084 49.1129 28.8887 49.3422 29.0926C49.6735 29.4239 50.4636 29.5003 54.0568 29.5003H58.3636V46.5747H32.6247V39.541C32.6247 31.6665 32.7012 31.2587 34.3831 30.1119C35.275 29.5258 35.4025 29.5003 40.5248 29.5003C43.4045 29.5003 45.8764 29.3984 46.0293 29.2965C46.5135 28.9652 46.6155 28.2516 46.2332 27.8439C45.6725 27.3087 36.6257 27.2832 34.7654 27.8439C32.8031 28.43 31.1466 30.3668 30.8663 32.431L30.7134 33.4504L25.0559 33.5268L19.3985 33.5778L19.1182 32.5839C18.6594 30.851 17.691 30.2903 12.6707 28.7358L8.16001 27.3342V24.5309C8.16001 21.3199 7.82872 20.3261 6.40161 19.3832C5.56063 18.8225 4.00611 18.6186 3.0632 18.9754ZM63.333 27.3342L63.9701 27.9458V46.5747H60.4023V37.222C60.4023 27.9713 60.4023 27.8693 60.963 27.2832C61.6765 26.5187 62.5685 26.5442 63.333 27.3342ZM17.003 32.4565C17.793 33.5268 17.5636 33.5778 12.7471 33.5778H8.16001V29.2965L12.4158 30.6726C14.9133 31.4626 16.8246 32.2016 17.003 32.4565ZM30.8663 41.223H8.16001V35.3617L19.4494 35.4126L30.7134 35.4891L30.8663 41.223ZM60.4023 51.4166H7.14065V48.6134H60.4023V51.4166ZM8.05807 59.1638C9.02647 60.1322 9.17937 61.1261 8.54227 62.3748C8.05807 63.3177 7.44645 63.649 6.12128 63.649C3.39449 63.649 2.55352 59.9283 4.9745 58.6031C5.99386 58.0425 7.14065 58.2464 8.05807 59.1638ZM62.6959 58.6796C63.6388 59.1638 63.9701 59.7754 63.9701 61.1006C63.9701 62.5786 62.8998 63.649 61.4217 63.649C60.0965 63.649 59.4849 63.3177 59.0007 62.3748C58.3636 61.1261 58.5165 60.1322 59.4849 59.1638C60.4533 58.1954 61.4472 58.0425 62.6959 58.6796Z" fill="#FF8743"/>
<path d="M27.8084 0.856174C23.578 1.97747 20.2396 5.34137 18.9909 9.72463C18.4048 11.7634 18.5831 15.2802 19.3732 17.3444C20.6474 20.7083 23.8074 23.6134 27.2987 24.6838C28.7513 25.117 29.5413 25.1935 31.5545 25.117C34.5107 24.9641 36.2946 24.3525 38.4352 22.747C44.1946 18.4147 44.9591 9.85205 40.0917 4.52588C37.0081 1.16198 32.0897 -0.290609 27.8084 0.856174ZM35.4536 3.43006C39.6075 5.46879 42.054 10.0814 41.2894 14.4137C40.5504 18.6186 37.9255 21.6512 33.95 22.8744C27.8848 24.7602 21.7432 20.8612 20.5964 14.4392C19.9083 10.4637 22.0235 5.97847 25.5913 3.88878C27.5281 2.76748 28.7003 2.48715 31.3761 2.56361C33.5168 2.61457 34.001 2.71651 35.4536 3.43006Z" stroke="#FF8743" stroke-width="0.825" mask="url(#path-1-outside-1_538_3237)"/>
<path d="M29.0826 5.90217C28.2162 6.38637 27.8084 7.27831 27.7829 8.65445V9.87769H26.3813C25.209 9.87769 24.8523 9.97963 24.3426 10.5148C23.7819 11.05 23.7055 11.3558 23.7055 12.8084C23.7055 14.3374 23.7819 14.5668 24.4445 15.2548C25.0816 15.8664 25.4129 15.9939 26.4578 15.9939H27.732L27.8339 17.4465C28.0123 19.4597 28.7258 20.0713 30.9684 20.0713C33.211 20.0713 33.9246 19.4597 34.103 17.4465L34.2049 15.9939H35.4791C36.524 15.9939 36.8552 15.8664 37.4924 15.2548C38.1295 14.5922 38.2314 14.3119 38.2314 13.0632C38.2314 11.5596 37.7472 10.2854 37.0846 10.0306C36.8553 9.95414 36.0907 9.87769 35.4027 9.87769H34.1539V8.73091C34.1539 7.27831 33.7207 6.36089 32.8543 5.90217C31.9623 5.44346 29.8981 5.44346 29.0826 5.90217ZM32.1152 9.31704C32.1152 10.3364 32.2426 11.1774 32.421 11.3558C32.5994 11.5342 33.4404 11.6616 34.4597 11.6616H36.1927V13.9551H34.6127C33.7207 13.9551 32.8288 14.0826 32.6249 14.21C32.3701 14.3629 32.1917 15.0255 32.1152 16.2997L31.9878 18.16L30.9175 18.2365L29.8216 18.3129V16.529C29.8216 14.2355 29.5668 13.9551 27.3752 13.9551H25.7442V11.6616H27.4771C28.4965 11.6616 29.3375 11.5342 29.5158 11.3558C29.6942 11.1774 29.8216 10.3364 29.8216 9.31704V7.58412H32.1152V9.31704Z" stroke="#FF8743" stroke-width="0.825" mask="url(#path-1-outside-1_538_3237)"/>
<path d="M3.0632 18.9754C2.47706 19.2048 1.53415 20.1222 1.12641 20.8867C0.591243 21.9061 0.616727 31.59 1.15189 32.0487C1.63609 32.4565 2.47706 32.1507 2.65545 31.4626C2.7319 31.1568 2.80836 28.8123 2.80836 26.2384C2.80836 21.9316 2.83384 21.5748 3.31804 21.0906C3.98062 20.428 4.61772 20.4535 5.4587 21.1161L6.12128 21.6258V31.9978C6.12128 38.0885 6.22322 42.5227 6.37612 42.752C6.58 43.0833 8.28743 43.1343 18.7359 43.2108L30.8408 43.2872V46.5747H2.80836V41.1975C2.80836 37.9865 2.70642 35.642 2.55352 35.3362C2.24771 34.801 1.53415 34.6991 1.07544 35.1578C0.642211 35.591 0.642211 47.8743 1.07544 48.3076C1.25383 48.486 2.17125 48.6134 3.36901 48.6134H5.35676V56.4625L4.71966 56.6154C3.72578 56.8702 2.37513 58.2209 1.89093 59.4441C0.183498 63.9038 5.78999 67.7264 9.28131 64.4645C10.0713 63.6999 10.9378 62.0435 10.9633 61.228C10.9633 59.4186 9.58712 57.3034 8.0071 56.7173C7.16613 56.4115 7.14065 56.386 7.14065 54.9334V53.4553H60.4023V54.9589C60.4023 56.335 60.3514 56.4625 59.7907 56.6154C59.4339 56.6918 58.8223 57.0741 58.3636 57.4309C56.2994 59.1893 56.121 62.018 57.9304 64.0822C61.0649 67.65 66.7988 64.7193 65.9069 59.9538C65.6775 58.8325 64.4798 57.4054 63.1546 56.7428L62.1862 56.2586V48.6134H63.6643C64.4798 48.6134 65.2698 48.486 65.4482 48.3076C65.6775 48.0782 65.754 45.3769 65.754 37.7062C65.754 27.691 65.7285 27.3597 65.2188 26.5187C64.5562 25.4484 63.5369 24.9132 62.1353 24.9132C60.8356 24.9132 59.5359 25.6268 58.9243 26.6971L58.491 27.4616H54.1078C50.4635 27.4616 49.6735 27.5381 49.3422 27.8693C49.1129 28.0732 48.9345 28.3535 48.9345 28.481C48.9345 28.6084 49.1129 28.8887 49.3422 29.0926C49.6735 29.4239 50.4636 29.5003 54.0568 29.5003H58.3636V46.5747H32.6247V39.541C32.6247 31.6665 32.7012 31.2587 34.3831 30.1119C35.275 29.5258 35.4025 29.5003 40.5248 29.5003C43.4045 29.5003 45.8764 29.3984 46.0293 29.2965C46.5135 28.9652 46.6155 28.2516 46.2332 27.8439C45.6725 27.3087 36.6257 27.2832 34.7654 27.8439C32.8031 28.43 31.1466 30.3668 30.8663 32.431L30.7134 33.4504L25.0559 33.5268L19.3985 33.5778L19.1182 32.5839C18.6594 30.851 17.691 30.2903 12.6707 28.7358L8.16001 27.3342V24.5309C8.16001 21.3199 7.82872 20.3261 6.40161 19.3832C5.56063 18.8225 4.00611 18.6186 3.0632 18.9754ZM63.333 27.3342L63.9701 27.9458V46.5747H60.4023V37.222C60.4023 27.9713 60.4023 27.8693 60.963 27.2832C61.6765 26.5187 62.5685 26.5442 63.333 27.3342ZM17.003 32.4565C17.793 33.5268 17.5636 33.5778 12.7471 33.5778H8.16001V29.2965L12.4158 30.6726C14.9133 31.4626 16.8246 32.2016 17.003 32.4565ZM30.8663 41.223H8.16001V35.3617L19.4494 35.4126L30.7134 35.4891L30.8663 41.223ZM60.4023 51.4166H7.14065V48.6134H60.4023V51.4166ZM8.05807 59.1638C9.02647 60.1322 9.17937 61.1261 8.54227 62.3748C8.05807 63.3177 7.44645 63.649 6.12128 63.649C3.39449 63.649 2.55352 59.9283 4.9745 58.6031C5.99386 58.0425 7.14065 58.2464 8.05807 59.1638ZM62.6959 58.6796C63.6388 59.1638 63.9701 59.7754 63.9701 61.1006C63.9701 62.5786 62.8998 63.649 61.4217 63.649C60.0965 63.649 59.4849 63.3177 59.0007 62.3748C58.3636 61.1261 58.5165 60.1322 59.4849 59.1638C60.4533 58.1954 61.4472 58.0425 62.6959 58.6796Z" stroke="#FF8743" stroke-width="0.825" mask="url(#path-1-outside-1_538_3237)"/>
</g>
<defs>
<clipPath id="clip0_538_3237">
<rect width="66" height="66" fill="white"/>
</clipPath>
</defs>
</svg>
