<svg width="229" height="136" viewBox="0 0 229 136" fill="none" xmlns="http://www.w3.org/2000/svg">
<g filter="url(#filter0_d_413_1526)">
<path fill-rule="evenodd" clip-rule="evenodd" d="M53.5 82C68.1355 82 80 70.1355 80 55.5C80 40.8645 68.1355 29 53.5 29C38.8645 29 27 40.8645 27 55.5C27 70.1355 38.8645 82 53.5 82ZM58.1196 42.1704C57.9517 42.1286 57.755 42.0739 57.5317 42C56.8384 42.0086 56.1437 42.0279 55.46 42.0643C54.82 42.0983 54.173 42.1283 53.5255 42.1583L53.3882 42.1647C53.0871 42.1647 52.7903 42.1704 52.4978 42.1786C52.211 42.1886 51.91 42.2025 51.5993 42.2204C51.4023 42.229 51.211 42.2707 51.0292 42.3533C50.8464 42.4354 50.6689 42.5276 50.49 42.6376C50.1751 42.8262 49.9198 43.0423 49.7146 43.2809C49.5094 43.5238 49.3405 43.786 49.2073 44.0707C49.0714 44.3511 48.9659 44.654 48.8839 44.979C48.8065 45.3012 48.7288 45.632 48.661 45.9627C48.5875 46.3296 48.5375 46.6925 48.5098 47.0511C48.4874 47.414 48.4555 47.7808 48.4182 48.1577L48.378 48.7088C48.3681 48.7546 48.3585 48.8135 48.3504 48.8831C48.346 48.915 48.342 48.9472 48.338 48.979C48.3329 49.0196 48.3279 49.0596 48.3223 49.0978C48.3106 49.1425 48.2973 49.1856 48.284 49.2285C48.2723 49.2662 48.2607 49.3037 48.2503 49.3421C48.2268 49.4243 48.2087 49.5068 48.1906 49.599C48.1448 49.7593 48.0951 49.9715 48.0355 50.2323C47.9801 50.4891 47.9219 50.7556 47.8622 51.0263C47.8065 51.2928 47.7526 51.5453 47.6972 51.7796C47.6429 52.014 47.6013 52.1843 47.5736 52.289C47.4515 52.8359 47.3102 53.447 47.1494 54.1168C46.99 54.7822 46.7983 55.448 46.5754 56.1149C46.3521 56.7804 46.0954 57.414 45.8082 58.0252C45.5157 58.6349 45.1788 59.1579 44.7947 59.5904C44.6829 59.6581 44.5662 59.7276 44.4452 59.7998C44.3937 59.8305 44.3415 59.8617 44.2884 59.8933C44.1109 59.9937 43.9377 60.1041 43.7645 60.2284C43.5856 60.348 43.4258 60.4766 43.2764 60.6092C43.1209 60.7474 42.992 60.8938 42.888 61.0556C42.5816 61.5232 42.3722 61.9276 42.2444 62.2669C42.1212 62.6073 42.0434 62.942 42.0157 63.2631C41.9934 63.5896 41.9934 63.9243 42.0253 64.2733C42.0573 64.6219 42.0796 65.0405 42.0974 65.5274V65.6002V65.6602C42.0796 65.8764 42.0654 66.0732 42.0615 66.2475C42.0573 66.4232 42.053 66.5922 42.0477 66.7665C42.0434 66.9369 42.0434 67.1112 42.0434 67.2898V67.8827V68.1492C42.0711 68.3839 42.0892 68.5846 42.1031 68.755C42.1169 68.925 42.1389 69.0854 42.1766 69.2418C42.2128 69.394 42.2667 69.5501 42.3359 69.7051C42.408 69.8612 42.5135 70.0413 42.659 70.2477C42.9696 70.6889 43.3484 71.0193 43.8003 71.2439C44.2526 71.4686 44.7127 71.5929 45.1969 71.6208C45.3286 71.6293 45.4617 71.6293 45.5977 71.6151C45.6607 71.6085 45.7234 71.601 45.7864 71.5935C45.8566 71.5851 45.9274 71.5767 45.9995 71.5693L46.1593 71.5286C46.4976 71.445 46.8207 71.3168 47.1313 71.1382C47.4462 70.9596 47.7206 70.7249 47.962 70.4349C47.9696 70.4255 47.977 70.4152 47.9846 70.4047C47.9952 70.3901 48.006 70.3753 48.0174 70.3624C48.0248 70.348 48.0349 70.3343 48.0456 70.3196C48.0527 70.3098 48.0602 70.2996 48.0674 70.2884C48.1033 70.2423 48.1352 70.1963 48.1672 70.1459C48.1844 70.1211 48.2004 70.0951 48.2158 70.0701C48.229 70.0486 48.2417 70.0279 48.2545 70.0091L48.2946 69.9395C48.3323 69.8852 48.3543 69.8434 48.3642 69.8209C48.432 69.6912 48.4917 69.5683 48.5375 69.444C48.6152 69.2376 48.661 69.0354 48.6692 68.8371V68.5625V68.2596C48.6692 68.2135 48.6734 68.1717 48.683 68.1313C48.6926 68.0892 48.6968 68.0474 48.6968 68.0027V67.089V66.9129V66.6843C48.7149 66.6383 48.7245 66.574 48.7245 66.4918C48.8743 66.4818 49.0256 66.4818 49.1711 66.4875C49.318 66.4918 49.4676 66.4918 49.6187 66.4918H49.6191H50.4498C50.6493 66.4918 50.8364 66.4875 51.01 66.4818C51.1833 66.4779 51.3703 66.4679 51.5759 66.45C51.7811 66.4357 52.0651 66.4136 52.43 66.3814C52.8819 66.3396 53.3285 66.2796 53.7765 66.2014C54.2189 66.1246 54.6655 66.055 55.1174 66.0046L55.6513 65.9364C55.8107 66.0689 55.9939 66.1932 56.1991 66.2993C56.1855 66.526 56.1701 66.7518 56.1548 66.9751C56.1448 67.1212 56.1349 67.2663 56.1256 67.4098C56.0993 67.7727 56.0798 68.1395 56.0617 68.5164C56.0894 68.7507 56.1075 68.9529 56.1213 69.1218C56.1352 69.2922 56.1575 69.458 56.1948 69.6087C56.231 69.7609 56.285 69.9173 56.3542 70.0734C56.4277 70.2299 56.5317 70.4124 56.6776 70.6188C56.952 71.0096 57.2946 71.3222 57.705 71.5511C58.1154 71.7811 58.5438 71.9237 58.9876 71.9737C59.4342 72.0298 59.8822 71.9962 60.3288 71.8733C60.7807 71.7533 61.1872 71.5372 61.5518 71.2204C61.7488 71.06 61.8986 70.9135 62.0079 70.7796C62.1134 70.6428 62.1993 70.5088 62.2689 70.3763C62.3324 70.2381 62.3906 70.0916 62.4464 69.9312C62.5017 69.7691 62.5738 69.5765 62.6611 69.3522C62.6973 68.695 62.7431 68.0474 62.7928 67.4001C62.8482 66.7583 62.8926 66.1107 62.9302 65.4634C62.9331 65.3996 62.936 65.3352 62.9389 65.2706C62.9541 64.9298 62.9699 64.5784 62.9899 64.2229C63.0119 63.7961 62.998 63.3788 62.9483 62.9659C62.8983 62.5512 62.8028 62.1565 62.6555 61.7757C62.506 61.3946 62.2728 61.0417 61.954 60.7195C61.7846 60.5449 61.5837 60.3802 61.3508 60.2198C61.4921 58.1938 61.5656 55.6181 61.5656 52.4872C61.5656 51.2606 61.4659 49.6911 61.2592 47.7808C61.0913 46.0352 60.7029 44.7182 60.0959 43.8267C59.9361 43.5152 59.731 43.2209 59.48 42.9544C59.3025 42.7858 59.1473 42.6519 59.0057 42.5512C58.8683 42.4551 58.727 42.3711 58.5857 42.3168C58.4441 42.2568 58.2889 42.2065 58.1196 42.1704ZM55.0219 48.791C55.2228 50.058 55.3226 51.1824 55.3226 52.1704C55.3226 53.3188 55.2132 55.6881 54.9938 59.2879C54.6832 59.32 54.3825 59.3561 54.0953 59.3925C53.8028 59.43 53.5256 59.4704 53.2607 59.5126C53.1095 59.5304 52.954 59.5529 52.7946 59.5808C52.6634 59.6031 52.5377 59.6255 52.4151 59.6472C52.3847 59.6526 52.3546 59.658 52.3246 59.6633C52.5852 59.0075 52.8127 58.346 53.0179 57.6705C53.2231 57.0008 53.4102 56.3214 53.5838 55.642C53.757 54.9569 53.9263 54.2732 54.0815 53.5896C54.237 52.9002 54.3964 52.2165 54.5654 51.5228C54.6932 51.0038 54.7887 50.5309 54.8526 50.1137C54.9218 49.6911 54.9761 49.25 55.0219 48.791ZM48.5461 48.1305C48.5489 48.1171 48.5513 48.1053 48.5513 48.0934C48.5694 48.0473 48.5733 48.0416 48.5694 48.0655C48.568 48.0723 48.5665 48.0804 48.5647 48.0898C48.5592 48.1193 48.5512 48.1617 48.5375 48.2177V48.2175C48.5375 48.1979 48.5375 48.1755 48.5417 48.1534C48.5431 48.1451 48.5446 48.1376 48.5461 48.1305Z" fill="#EDDD2E"/>
</g>
<g filter="url(#filter1_d_413_1526)">
<path fill-rule="evenodd" clip-rule="evenodd" d="M91.5 75C106.136 75 118 63.1355 118 48.5C118 33.8645 106.136 22 91.5 22C76.8645 22 65 33.8645 65 48.5C65 63.1355 76.8645 75 91.5 75ZM99.3437 36H97.1704C92.7936 36 89.7315 36.3158 87.9873 36.9517C84.6627 38.4261 83 43.1815 83 51.2133C83 52.9067 83.1552 54.5998 83.4639 56.2928C84.1932 60.098 85.8597 62 88.4569 62C91.9006 61.4615 94.9613 61.0342 97.6356 60.7184C100.022 60.7184 101.37 59.6652 101.68 57.5589C101.243 55.3429 100.31 54.2331 98.8788 54.2331C97.9719 54.2331 94.9113 54.6041 89.6957 55.3469C89.3857 53.0785 89.2305 51.9084 89.2305 51.8492C91.5448 51.6406 93.2033 51.5334 94.2097 51.5334C97.226 51.5334 98.7335 50.4705 98.7335 48.3502C98.3873 46.128 97.3437 45.02 95.609 45.02C94.6012 45.02 92.6884 45.1315 89.8549 45.3528H89.6957L90.1649 43.6045C90.1649 42.7643 92.6565 42.3471 97.6356 42.3471H99.3437C100.574 42.3471 101.457 41.4477 102 39.6416V38.6913C102 37.448 101.116 36.5526 99.3437 36Z" fill="#ADCF00"/>
</g>
<g filter="url(#filter2_d_413_1526)">
<path fill-rule="evenodd" clip-rule="evenodd" d="M140 95C154.912 95 167 83.1355 167 68.5C167 53.8645 154.912 42 140 42C125.088 42 113 53.8645 113 68.5C113 83.1355 125.088 95 140 95ZM143.954 78.9327C143.954 74.5726 143.726 69.888 143.274 64.862L143.163 63.6206H143.791C144.127 63.6206 145.137 63.781 146.819 64.1022C148.557 64.1022 149.618 62.9752 150 60.7196C150 58.2418 148.038 57 144.117 57C140.922 57 137.899 57.218 135.055 57.6527C131.017 57.9823 129 59.2182 129 61.352C129.25 63.6206 130.318 64.7533 132.19 64.7533C132.627 64.7533 134.109 64.4791 136.638 63.9373C136.693 64.1682 136.749 64.4894 136.801 64.9053C137.047 66.7491 137.261 70.4588 137.444 76.0306C137.332 76.4983 137.275 77.3055 137.275 78.4467C137.592 80.8155 138.706 82 140.615 82H141.089C143 81.3018 143.954 80.2781 143.954 78.9327Z" fill="#FF8743"/>
</g>
<g filter="url(#filter3_d_413_1526)">
<path fill-rule="evenodd" clip-rule="evenodd" d="M175.5 66C190.136 66 202 54.1355 202 39.5C202 24.8645 190.136 13 175.5 13C160.864 13 149 24.8645 149 39.5C149 54.1355 160.864 66 175.5 66ZM172.404 29.9653C171.898 28.0937 171.117 27.1233 170.064 27.0553L169.13 27C167.045 27.4831 166 28.4676 166 29.9653V38.0709C166 43.9424 166.629 47.6289 167.889 49.1227C168.947 50.1664 169.932 50.6856 170.84 50.6856H171.774C173.831 50.6856 175.812 48.6712 177.71 44.6537C179.502 41.4325 180.848 39.3918 181.76 38.5402L181.144 48.2477C181.144 49.6015 182.18 50.5166 184.255 51H184.724C186.8 51 187.89 47.989 188 41.9708V40.2487C188 34.5811 186.909 31.3096 184.724 30.4402C184.127 30.1301 183.452 29.9196 182.694 29.8104C180.609 29.8104 178.27 31.8883 175.679 36.043C174.233 38.0295 173.088 39.7419 172.244 41.1819C172.244 40.0521 172.272 38.4753 172.322 36.458C172.377 34.4354 172.404 32.2718 172.404 29.9653Z" fill="#778EC7"/>
</g>
<path d="M177.61 60.2574L174.739 59.4742C173.981 59.2677 173.292 59.9744 173.518 60.7263L174.458 63.8594C174.486 63.9526 174.5 64.0494 174.5 64.1468V68.3474C174.5 68.4485 174.515 68.5491 174.546 68.6457L176.954 76.3543C176.985 76.4509 177 76.5515 177 76.6526V95.8243C177 96.3263 177.651 96.5234 177.93 96.1057C177.976 96.0363 178.004 95.9566 178.012 95.8735L179.975 75.7553C179.991 75.5878 179.965 75.4189 179.899 75.2643L177.12 68.7794C177.042 68.5973 177.019 68.396 177.056 68.2012L178.33 61.4064C178.426 60.8944 178.113 60.3944 177.61 60.2574Z" fill="#778EC7"/>
<path d="M143.69 93.653L141.622 92.7667C141.246 92.6056 140.81 92.6896 140.521 92.9787L139.793 93.7071C139.605 93.8946 139.5 94.149 139.5 94.4142V100.397C139.5 100.465 139.507 100.534 139.521 100.601L141.981 112.411C141.994 112.47 142 112.53 142 112.591V127.878C142 128.466 142.833 128.583 142.995 128.017C142.998 128.006 143 127.994 143.001 127.982L143.994 113.096C143.998 113.032 143.996 112.968 143.988 112.905L142.525 101.203C142.509 101.069 142.519 100.933 142.556 100.804L144.258 94.8469C144.396 94.3628 144.153 93.8514 143.69 93.653Z" fill="#F88848"/>
<path d="M90.0723 70.9165L92.7454 70.1332C93.0331 70.0489 93.3435 70.0981 93.591 70.2674L94.5644 70.9329C94.837 71.1193 95 71.4282 95 71.7584V76.4151C95 76.5139 94.9854 76.6121 94.9566 76.7066L92.0434 86.2678C92.0146 86.3622 92 86.4605 92 86.5592V98.9186C92 99.5936 91.0722 99.7797 90.8119 99.1568C90.804 99.1378 90.799 99.1178 90.797 99.0974L89.6136 86.9598C89.6046 86.8674 89.6085 86.7742 89.6252 86.6829L91.3467 77.2661C91.3815 77.0757 91.3603 76.8793 91.2857 76.7007L89.4308 72.2617C89.201 71.7118 89.5003 71.0842 90.0723 70.9165Z" fill="#AFCD01"/>
<path d="M52.9454 78.7295L53.6929 78.9212C53.8907 78.9719 54.1004 78.9485 54.2821 78.8552C54.8386 78.5699 55.5 78.974 55.5 79.5994V84.4999L54 96.4999V105.929C54 106.602 53.0753 106.787 52.8159 106.166C52.8054 106.141 52.8 106.114 52.8 106.087V88.9999L53.3688 84.2356C53.3893 84.0643 53.365 83.8907 53.2985 83.7315L51.7743 80.0837C51.456 79.322 52.1457 78.5245 52.9454 78.7295Z" fill="#EDDD2E"/>
<defs>
<filter id="filter0_d_413_1526" x="0" y="16" width="107" height="107" filterUnits="userSpaceOnUse" color-interpolation-filters="sRGB">
<feFlood flood-opacity="0" result="BackgroundImageFix"/>
<feColorMatrix in="SourceAlpha" type="matrix" values="0 0 0 0 0 0 0 0 0 0 0 0 0 0 0 0 0 0 127 0" result="hardAlpha"/>
<feOffset dy="14"/>
<feGaussianBlur stdDeviation="13.5"/>
<feComposite in2="hardAlpha" operator="out"/>
<feColorMatrix type="matrix" values="0 0 0 0 0.976471 0 0 0 0 0.921568 0 0 0 0 0.337255 0 0 0 0.18 0"/>
<feBlend mode="normal" in2="BackgroundImageFix" result="effect1_dropShadow_413_1526"/>
<feBlend mode="normal" in="SourceGraphic" in2="effect1_dropShadow_413_1526" result="shape"/>
</filter>
<filter id="filter1_d_413_1526" x="38" y="9" width="107" height="107" filterUnits="userSpaceOnUse" color-interpolation-filters="sRGB">
<feFlood flood-opacity="0" result="BackgroundImageFix"/>
<feColorMatrix in="SourceAlpha" type="matrix" values="0 0 0 0 0 0 0 0 0 0 0 0 0 0 0 0 0 0 127 0" result="hardAlpha"/>
<feOffset dy="14"/>
<feGaussianBlur stdDeviation="13.5"/>
<feComposite in2="hardAlpha" operator="out"/>
<feColorMatrix type="matrix" values="0 0 0 0 0.643137 0 0 0 0 0.768627 0 0 0 0 0 0 0 0 0.26 0"/>
<feBlend mode="normal" in2="BackgroundImageFix" result="effect1_dropShadow_413_1526"/>
<feBlend mode="normal" in="SourceGraphic" in2="effect1_dropShadow_413_1526" result="shape"/>
</filter>
<filter id="filter2_d_413_1526" x="86" y="29" width="108" height="107" filterUnits="userSpaceOnUse" color-interpolation-filters="sRGB">
<feFlood flood-opacity="0" result="BackgroundImageFix"/>
<feColorMatrix in="SourceAlpha" type="matrix" values="0 0 0 0 0 0 0 0 0 0 0 0 0 0 0 0 0 0 127 0" result="hardAlpha"/>
<feOffset dy="14"/>
<feGaussianBlur stdDeviation="13.5"/>
<feComposite in2="hardAlpha" operator="out"/>
<feColorMatrix type="matrix" values="0 0 0 0 0.941176 0 0 0 0 0.486274 0 0 0 0 0 0 0 0 0.2 0"/>
<feBlend mode="normal" in2="BackgroundImageFix" result="effect1_dropShadow_413_1526"/>
<feBlend mode="normal" in="SourceGraphic" in2="effect1_dropShadow_413_1526" result="shape"/>
</filter>
<filter id="filter3_d_413_1526" x="122" y="0" width="107" height="107" filterUnits="userSpaceOnUse" color-interpolation-filters="sRGB">
<feFlood flood-opacity="0" result="BackgroundImageFix"/>
<feColorMatrix in="SourceAlpha" type="matrix" values="0 0 0 0 0 0 0 0 0 0 0 0 0 0 0 0 0 0 127 0" result="hardAlpha"/>
<feOffset dy="14"/>
<feGaussianBlur stdDeviation="13.5"/>
<feComposite in2="hardAlpha" operator="out"/>
<feColorMatrix type="matrix" values="0 0 0 0 0 0 0 0 0 0.654902 0 0 0 0 0.890196 0 0 0 0.24 0"/>
<feBlend mode="normal" in2="BackgroundImageFix" result="effect1_dropShadow_413_1526"/>
<feBlend mode="normal" in="SourceGraphic" in2="effect1_dropShadow_413_1526" result="shape"/>
</filter>
</defs>
</svg>
