<svg width="472" height="237" viewBox="0 0 472 237" fill="none" xmlns="http://www.w3.org/2000/svg">
<g clip-path="url(#clip0_497_1336)">
<g opacity="0.9" filter="url(#filter0_d_497_1336)">
<circle cx="50.5" cy="50.5" r="50.5" transform="matrix(-1 0 0 1 531 180)" fill="white"/>
<circle cx="65.5" cy="65.5" r="65.5" transform="matrix(-1 0 0 1 465 194)" fill="white"/>
<circle cx="146.5" cy="146.5" r="146.5" transform="matrix(-1 0 0 1 415 42)" fill="white"/>
<circle cx="96" cy="96" r="96" transform="matrix(-1 0 0 1 513 60)" fill="white"/>
<circle cx="72" cy="72" r="72" transform="matrix(-1 0 0 1 300 0)" fill="white"/>
<circle cx="151.5" cy="151.5" r="151.5" transform="matrix(-1 0 0 1 241 0)" fill="white"/>
<circle cx="112.5" cy="112.5" r="112.5" transform="matrix(-1 0 0 1 30 108)" fill="white"/>
</g>
<g opacity="0.9" filter="url(#filter1_d_497_1336)">
<circle cx="97.5" cy="97.5" r="97.5" transform="matrix(-1 0 0 1 520 70)" fill="white"/>
<circle cx="67" cy="67" r="67" transform="matrix(-1 0 0 1 431 38)" fill="white"/>
<circle cx="50.5" cy="50.5" r="50.5" transform="matrix(-1 0 0 1 261 140)" fill="white"/>
<circle cx="82.5" cy="82.5" r="82.5" transform="matrix(-1 0 0 1 367 53)" fill="white"/>
<circle cx="65.5" cy="65.5" r="65.5" transform="matrix(-1 0 0 1 195 154)" fill="white"/>
<circle cx="146.5" cy="146.5" r="146.5" transform="matrix(-1 0 0 1 145 2)" fill="white"/>
<circle cx="96" cy="96" r="96" transform="matrix(-1 0 0 1 243 20)" fill="white"/>
<circle cx="72" cy="72" r="72" transform="matrix(-1 0 0 1 30 -40)" fill="white"/>
</g>
<path d="M-82 116.054C18 122.554 140 37.554 247.5 22.554C331.732 10.8006 396 39.554 520 110.054" stroke="white" stroke-width="2"/>
</g>
<defs>
<filter id="filter0_d_497_1336" x="-424" y="-94" width="1713" height="577" filterUnits="userSpaceOnUse" color-interpolation-filters="sRGB">
<feFlood flood-opacity="0" result="BackgroundImageFix"/>
<feColorMatrix in="SourceAlpha" type="matrix" values="0 0 0 0 0 0 0 0 0 0 0 0 0 0 0 0 0 0 127 0" result="hardAlpha"/>
<feOffset/>
<feGaussianBlur stdDeviation="47"/>
<feComposite in2="hardAlpha" operator="out"/>
<feColorMatrix type="matrix" values="0 0 0 0 0.515104 0 0 0 0 0.758771 0 0 0 0 0.895833 0 0 0 0.44 0"/>
<feBlend mode="normal" in2="BackgroundImageFix" result="effect1_dropShadow_497_1336"/>
<feBlend mode="normal" in="SourceGraphic" in2="effect1_dropShadow_497_1336" result="shape"/>
</filter>
<filter id="filter1_d_497_1336" x="-694" y="-134" width="1713" height="544" filterUnits="userSpaceOnUse" color-interpolation-filters="sRGB">
<feFlood flood-opacity="0" result="BackgroundImageFix"/>
<feColorMatrix in="SourceAlpha" type="matrix" values="0 0 0 0 0 0 0 0 0 0 0 0 0 0 0 0 0 0 127 0" result="hardAlpha"/>
<feOffset/>
<feGaussianBlur stdDeviation="47"/>
<feComposite in2="hardAlpha" operator="out"/>
<feColorMatrix type="matrix" values="0 0 0 0 0.515104 0 0 0 0 0.758771 0 0 0 0 0.895833 0 0 0 0.44 0"/>
<feBlend mode="normal" in2="BackgroundImageFix" result="effect1_dropShadow_497_1336"/>
<feBlend mode="normal" in="SourceGraphic" in2="effect1_dropShadow_497_1336" result="shape"/>
</filter>
<clipPath id="clip0_497_1336">
<rect width="472" height="237" fill="white"/>
</clipPath>
</defs>
</svg>
