<svg width="40" height="40" viewBox="0 0 40 40" fill="none" xmlns="http://www.w3.org/2000/svg">
<circle cx="20" cy="20" r="20" fill="#ADCE01"/>
<path d="M29.0623 9.4935C28.8839 9.54756 28.1325 9.82326 27.3865 10.1098C26.0567 10.6125 20.1427 12.8559 10.3853 16.5535C7.66613 17.5806 5.29298 18.4942 5.11459 18.5753C4.63347 18.8023 4.35237 19.0348 4.16857 19.3483C3.86044 19.8889 3.97396 20.5592 4.43886 20.9808C4.76861 21.2782 5.08756 21.4133 7.84993 22.4188L10.4231 23.3594L10.6988 23.9811C12.3097 27.7003 13.2179 29.7761 13.2936 29.9275C13.4449 30.2302 13.9207 30.6789 14.2612 30.841C14.5315 30.9654 14.6396 30.987 15.0883 30.987C15.5694 30.987 15.6289 30.9762 16.0127 30.7924C16.4452 30.587 16.5371 30.5059 18.0345 29.0896L18.8994 28.2733L21.7483 30.2302C24.9755 32.4466 24.9809 32.452 25.808 32.4087C26.7 32.3601 27.3703 31.8465 27.6784 30.96C27.7379 30.7978 28.6623 26.4083 29.738 21.2079C31.6409 11.9964 31.695 11.7369 31.6733 11.2288C31.6571 10.7531 31.6409 10.6666 31.4679 10.3314C31.2517 9.90975 30.9165 9.61783 30.4841 9.47728C30.1273 9.36376 29.4786 9.36917 29.0623 9.4935ZM29.9975 11.3369C30.0083 11.4937 29.3488 14.7912 28.0893 20.8781C27.0297 25.992 26.1432 30.2518 26.1108 30.3437C26.0243 30.6194 25.8297 30.7654 25.6026 30.7275C25.4675 30.7059 24.0944 29.7923 20.8293 27.5489C18.3102 25.819 16.2073 24.3649 16.1587 24.3162C16.0776 24.2351 16.3857 23.9378 20.4184 20.2402C22.8132 18.0455 24.8188 16.1697 24.8782 16.0778C24.9972 15.8724 25.0134 15.5048 24.9053 15.2939C24.7539 15.002 24.5701 14.8885 24.2295 14.8615L23.9106 14.8398L17.4452 18.305L10.9853 21.7701L8.57971 20.8889C7.25529 20.4078 6.16872 20.0024 6.16872 19.9808C6.16872 19.9646 6.96337 19.651 7.94182 19.2834C8.91487 18.9158 14.1855 16.9157 19.6562 14.8398C26.9919 12.0559 29.6516 11.072 29.7921 11.0828C29.9759 11.0936 29.9813 11.099 29.9975 11.3369ZM18.494 19.6835C18.494 19.6997 17.4831 20.6349 16.2506 21.7647C15.018 22.8999 13.9801 23.8784 13.9423 23.9432C13.8936 24.0351 13.8666 24.473 13.845 25.4947L13.8179 26.9218L12.9963 25.0244C12.5422 23.9865 12.1692 23.1107 12.1692 23.0837C12.1692 23.0621 13.5909 22.2836 15.3208 21.3538C18.6994 19.5429 18.494 19.651 18.494 19.6835ZM15.8343 26.1596C15.9749 26.2515 16.4019 26.5488 16.7857 26.8191L17.4885 27.3056L17.2128 27.5489C17.0614 27.684 16.6181 28.1003 16.2289 28.4679L15.5208 29.1328V27.5597C15.5208 26.6948 15.537 25.9866 15.5532 25.9866C15.5694 25.9866 15.6938 26.0623 15.8343 26.1596Z" fill="white"/>
</svg>
