<svg width="1289" height="138" viewBox="0 0 1289 138" fill="none" xmlns="http://www.w3.org/2000/svg">
<g clip-path="url(#clip0_497_1332)">
<circle cx="1270.5" cy="101.842" r="17" transform="rotate(90 1270.5 101.842)" fill="white" stroke="#4CBBDE" stroke-width="3"/>
<path d="M1277.92 101.266L1271.21 94.5489C1270.82 94.1584 1270.18 94.1584 1269.79 94.5489L1263.07 101.266C1262.49 101.852 1262.49 102.802 1263.07 103.388C1263.66 103.974 1264.61 103.974 1265.2 103.388L1269 99.5844L1269 106.842C1269 107.67 1269.67 108.342 1270.5 108.342C1271.33 108.342 1272 107.67 1272 106.842L1272 99.5845L1275.8 103.388C1276.39 103.974 1277.34 103.974 1277.92 103.388C1278.51 102.802 1278.51 101.852 1277.92 101.266Z" fill="#4EC1E5"/>
<path d="M1249.61 105.52C1250.16 105.458 1250.56 104.963 1250.49 104.414C1250.43 103.866 1249.94 103.471 1249.39 103.533L1249.61 105.52ZM352.176 36.0899L352.633 36.9795L352.176 36.0899ZM-159.516 74.8074C-159.021 74.5624 -158.818 73.9626 -159.063 73.4676C-159.308 72.9726 -159.908 72.7699 -160.403 73.0149L-159.516 74.8074ZM-154.955 70.3782C-155.454 70.6143 -155.667 71.2105 -155.431 71.7098C-155.195 72.209 -154.599 72.4223 -154.1 72.1862L-154.955 70.3782ZM-151.406 70.9269C-150.905 70.6953 -150.686 70.101 -150.918 69.5997C-151.149 69.0983 -151.743 68.8797 -152.245 69.1113L-151.406 70.9269ZM-146.853 66.6788C-147.359 66.9014 -147.588 67.4915 -147.365 67.997C-147.143 68.5024 -146.553 68.7318 -146.047 68.5092L-146.853 66.6788ZM-143.382 67.3502C-142.875 67.1322 -142.64 66.5442 -142.858 66.0367C-143.076 65.5292 -143.664 65.2945 -144.171 65.5125L-143.382 67.3502ZM-138.58 63.1744C-139.092 63.3826 -139.338 63.966 -139.13 64.4776C-138.922 64.9891 -138.338 65.2351 -137.827 65.0269L-138.58 63.1744ZM-135.059 63.9165C-134.546 63.7133 -134.294 63.1323 -134.498 62.6187C-134.701 62.1052 -135.282 61.8536 -135.795 62.0568L-135.059 63.9165ZM-130.254 59.9262C-130.772 60.1194 -131.035 60.6954 -130.841 61.2128C-130.648 61.7302 -130.072 61.993 -129.555 61.7999L-130.254 59.9262ZM-126.817 60.7928C-126.298 60.6047 -126.029 60.0313 -126.217 59.512C-126.405 58.9928 -126.979 58.7243 -127.498 58.9124L-126.817 60.7928ZM-121.81 56.9169C-122.333 57.0945 -122.613 57.6623 -122.436 58.1853C-122.258 58.7083 -121.69 58.9883 -121.167 58.8108L-121.81 56.9169ZM-118.338 57.8667C-117.814 57.6946 -117.528 57.1297 -117.7 56.6049C-117.872 56.0801 -118.437 55.7942 -118.962 55.9664L-118.338 57.8667ZM-113.294 54.1715C-113.822 54.3328 -114.12 54.8917 -113.958 55.4199C-113.797 55.9481 -113.238 56.2456 -112.71 56.0843L-113.294 54.1715ZM-109.91 55.245C-109.38 55.0892 -109.077 54.5333 -109.233 54.0035C-109.389 53.4736 -109.945 53.1705 -110.474 53.3263L-109.91 55.245ZM-104.681 51.6886C-105.214 51.8331 -105.529 52.3824 -105.384 52.9155C-105.239 53.4485 -104.69 53.7634 -104.157 53.6188L-104.681 51.6886ZM-101.279 52.8546C-100.744 52.7157 -100.423 52.1698 -100.562 51.6353C-100.701 51.1008 -101.247 50.78 -101.782 50.9189L-101.279 52.8546ZM-96.0125 49.4854C-96.5499 49.6129 -96.8822 50.1518 -96.7548 50.6892C-96.6273 51.2266 -96.0883 51.5589 -95.551 51.4314L-96.0125 49.4854ZM-92.7014 50.7714C-92.1627 50.6497 -91.8247 50.1143 -91.9465 49.5756C-92.0682 49.0369 -92.6037 48.6989 -93.1424 48.8206L-92.7014 50.7714ZM-87.2489 47.5557C-87.7901 47.6657 -88.1397 48.1936 -88.0296 48.7348C-87.9196 49.2761 -87.3917 49.6256 -86.8505 49.5156L-87.2489 47.5557ZM-83.9357 48.9395C-83.3934 48.8353 -83.0381 48.3112 -83.1423 47.7688C-83.2464 47.2265 -83.7706 46.8712 -84.3129 46.9754L-83.9357 48.9395ZM-78.4693 45.918C-79.0138 46.0105 -79.3802 46.5269 -79.2877 47.0714C-79.1952 47.6159 -78.6788 47.9823 -78.1344 47.8898L-78.4693 45.918ZM-75.2206 47.4109C-74.6752 47.3242 -74.3033 46.8118 -74.3899 46.2663C-74.4766 45.7209 -74.989 45.349 -75.5344 45.4356L-75.2206 47.4109ZM-69.5875 44.5566C-70.1346 44.6315 -70.5175 45.1357 -70.4427 45.6829C-70.3678 46.2301 -69.8635 46.613 -69.3164 46.5382L-69.5875 44.5566ZM-66.3778 46.1521C-65.8299 46.0831 -65.4416 45.5829 -65.5107 45.0349C-65.5797 44.487 -66.0798 44.0987 -66.6278 44.1678L-66.3778 46.1521ZM-60.7353 43.4884C-61.2846 43.5459 -61.6833 44.0378 -61.6258 44.5871C-61.5683 45.1364 -61.0764 45.5351 -60.5271 45.4776L-60.7353 43.4884ZM-57.5567 45.1825C-57.0068 45.1308 -56.603 44.6431 -56.6547 44.0932C-56.7064 43.5434 -57.194 43.1395 -57.7439 43.1912L-57.5567 45.1825ZM-51.7752 42.6926C-52.326 42.7329 -52.7399 43.2121 -52.6996 43.7629C-52.6593 44.3137 -52.1801 44.7276 -51.6293 44.6873L-51.7752 42.6926ZM-48.6781 44.4866C-48.1269 44.4519 -47.7082 43.977 -47.7429 43.4258C-47.7775 42.8746 -48.2525 42.4559 -48.8037 42.4905L-48.6781 44.4866ZM-42.8558 42.1763C-43.4076 42.2 -43.8358 42.6664 -43.8121 43.2182C-43.7885 43.77 -43.322 44.1981 -42.7703 44.1745L-42.8558 42.1763ZM-39.7929 44.0618C-39.2409 44.0436 -38.8082 43.5814 -38.8264 43.0294C-38.8445 42.4774 -39.3067 42.0447 -39.8587 42.0628L-39.7929 44.0618ZM-33.8883 41.9242C-34.4406 41.9317 -34.8821 42.3855 -34.8746 42.9377C-34.8671 43.49 -34.4133 43.9315 -33.8611 43.924L-33.8883 41.9242ZM-30.9062 43.8977C-30.3539 43.8953 -29.9081 43.4457 -29.9105 42.8934C-29.9128 42.3412 -30.3624 41.8953 -30.9147 41.8977L-30.9062 43.8977ZM-24.9387 41.9276C-25.4909 41.9198 -25.9449 42.3611 -25.9527 42.9134C-25.9605 43.4656 -25.5192 43.9196 -24.9669 43.9274L-24.9387 41.9276ZM-21.9957 43.9828C-21.4436 43.9955 -20.9857 43.5583 -20.9729 43.0061C-20.9602 42.454 -21.3974 41.996 -21.9496 41.9833L-21.9957 43.9828ZM-15.9922 42.1727C-16.5441 42.1504 -17.0095 42.5797 -17.0318 43.1315C-17.0541 43.6834 -16.6248 44.1488 -16.0729 44.1711L-15.9922 42.1727ZM-13.1157 44.3029C-12.564 44.3298 -12.0951 43.9044 -12.0682 43.3527C-12.0413 42.8011 -12.4667 42.3321 -13.0183 42.3052L-13.1157 44.3029ZM-7.04727 42.6451C-7.59839 42.6093 -8.07418 43.027 -8.10998 43.5781C-8.14577 44.1293 -7.72802 44.6051 -7.1769 44.6408L-7.04727 42.6451ZM-4.21607 44.8447C-3.66523 44.8848 -3.18622 44.4707 -3.14616 43.9199C-3.1061 43.3691 -3.52015 42.8901 -4.07098 42.85L-4.21607 44.8447ZM1.86565 43.3265C1.31547 43.2783 0.830361 43.6852 0.782141 44.2354C0.733907 44.7855 1.14082 45.2706 1.691 45.3189L1.86565 43.3265ZM4.6536 45.5892C5.20342 45.6414 5.69138 45.2379 5.74353 44.6881C5.79566 44.1383 5.39221 43.6503 4.84239 43.5982L4.6536 45.5892ZM10.7803 44.2022C10.2312 44.1426 9.7378 44.5394 9.67825 45.0885C9.61869 45.6376 10.0155 46.1309 10.5646 46.1905L10.7803 44.2022ZM13.5134 46.52C14.0621 46.583 14.558 46.1894 14.621 45.6407C14.6841 45.092 14.2904 44.5961 13.7418 44.533L13.5134 46.52ZM19.6615 45.2502C19.1136 45.1805 18.613 45.5682 18.5433 46.116C18.4736 46.6639 18.8613 47.1645 19.4091 47.2342L19.6615 45.2502ZM22.3565 47.6177C22.9039 47.6905 23.4068 47.3057 23.4796 46.7582C23.5524 46.2108 23.1676 45.7079 22.6201 45.6351L22.3565 47.6177ZM28.5255 46.4528C27.9789 46.3742 27.472 46.7537 27.3934 47.3003C27.3148 47.847 27.6942 48.3539 28.2409 48.4325L28.5255 46.4528ZM31.1784 48.8623C31.7246 48.9436 32.2334 48.5667 32.3147 48.0204C32.396 47.4741 32.019 46.9654 31.4728 46.8841L31.1784 48.8623ZM37.3672 47.7893C36.8217 47.7031 36.3096 48.0753 36.2233 48.6208C36.137 49.1664 36.5093 49.6785 37.0548 49.7648L37.3672 47.7893ZM39.9894 50.2353C40.5346 50.3238 41.0483 49.9537 41.1369 49.4085C41.2254 48.8634 40.8553 48.3497 40.3101 48.2611L39.9894 50.2353ZM46.188 49.2394C45.6436 49.1467 45.1271 49.5129 45.0344 50.0574C44.9417 50.6018 45.308 51.1183 45.8524 51.211L46.188 49.2394ZM48.7822 51.7149C49.3263 51.8095 49.8441 51.445 49.9386 50.9009C50.0331 50.3567 49.6687 49.839 49.1245 49.7445L48.7822 51.7149ZM54.9919 50.7826C54.4484 50.6848 53.9284 51.0461 53.8306 51.5897C53.7328 52.1332 54.0941 52.6532 54.6377 52.751L54.9919 50.7826ZM57.5637 53.2816C58.107 53.3809 58.6279 53.0209 58.7271 52.4776C58.8264 51.9343 58.4664 51.4135 57.9231 51.3142L57.5637 53.2816ZM63.7802 52.3983C63.2374 52.2966 62.7149 52.6543 62.6132 53.1971C62.5115 53.7399 62.8691 54.2624 63.412 54.3641L63.7802 52.3983ZM66.3344 54.9145C66.877 55.0172 67.4002 54.6605 67.5029 54.1178C67.6056 53.5752 67.2489 53.052 66.7063 52.9493L66.3344 54.9145ZM72.5565 54.0659C72.0142 53.9616 71.49 54.3167 71.3857 54.8591C71.2814 55.4014 71.6365 55.9256 72.1789 56.0299L72.5565 54.0659ZM75.1014 56.5936C75.6436 56.6985 76.1682 56.3439 76.2731 55.8017C76.3779 55.2594 76.0234 54.7349 75.4811 54.63L75.1014 56.5936ZM81.3237 55.7647C80.7816 55.6591 80.2565 56.0129 80.1509 56.555C80.0453 57.0971 80.3991 57.6221 80.9412 57.7278L81.3237 55.7647ZM83.8618 58.2974C84.4039 58.4032 84.9291 58.0495 85.0349 57.5074C85.1407 56.9654 84.787 56.4402 84.2449 56.3344L83.8618 58.2974ZM90.0896 57.4751C89.5475 57.3694 89.0224 57.7231 88.9167 58.2652C88.811 58.8073 89.1647 59.3324 89.7068 59.4381L90.0896 57.4751ZM92.6276 60.007C93.1697 60.1124 93.6947 59.7584 93.8001 59.2163C93.9055 58.6742 93.5516 58.1492 93.0094 58.0438L92.6276 60.007ZM98.8494 59.1751C98.3071 59.0705 97.7827 59.4254 97.6782 59.9677C97.5737 60.51 97.9286 61.0344 98.4709 61.1389L98.8494 59.1751ZM101.396 61.7009C101.938 61.8047 102.462 61.4492 102.566 60.9068C102.67 60.3644 102.314 59.8404 101.772 59.7366L101.396 61.7009ZM107.618 60.8467C107.075 60.7446 106.553 61.1018 106.451 61.6446C106.348 62.1874 106.706 62.7101 107.248 62.8122L107.618 60.8467ZM110.173 63.3596C110.716 63.4606 111.238 63.1024 111.339 62.5594C111.44 62.0164 111.082 61.4944 110.539 61.3933L110.173 63.3596ZM116.389 62.4682C115.846 62.3697 115.326 62.7304 115.227 63.2738C115.129 63.8173 115.489 64.3377 116.033 64.4361L116.389 62.4682ZM118.968 64.9638C119.511 65.0608 120.031 64.6987 120.128 64.155C120.225 63.6113 119.863 63.0919 119.319 62.9949L118.968 64.9638ZM125.172 64.0208C124.628 63.9272 124.111 64.2925 124.017 64.8368C123.923 65.3811 124.289 65.8982 124.833 65.9918L125.172 64.0208ZM127.769 66.4917C128.314 66.5834 128.83 66.2162 128.921 65.6716C129.013 65.127 128.646 64.6112 128.101 64.5194L127.769 66.4917ZM133.972 65.4855C133.427 65.398 132.914 65.7691 132.826 66.3144C132.738 66.8597 133.11 67.3727 133.655 67.4603L133.972 65.4855ZM136.599 67.9267C137.145 68.012 137.656 67.6388 137.742 67.0931C137.827 66.5474 137.454 66.036 136.908 65.9507L136.599 67.9267ZM142.777 66.8411C142.231 66.7607 141.723 67.1386 141.642 67.685C141.562 68.2314 141.94 68.7395 142.486 68.8198L142.777 66.8411ZM145.438 69.2463C145.985 69.324 146.491 68.9436 146.568 68.3968C146.646 67.85 146.266 67.3438 145.719 67.2662L145.438 69.2463ZM151.613 68.0722C151.066 68.0003 150.564 68.3859 150.492 68.9334C150.42 69.481 150.805 69.9832 151.353 70.0551L151.613 68.0722ZM154.303 70.4344C154.851 70.5032 155.351 70.1148 155.42 69.5669C155.489 69.0189 155.101 68.5188 154.553 68.45L154.303 70.4344ZM160.449 69.1562C159.9 69.0938 159.404 69.4881 159.342 70.0368C159.28 70.5856 159.674 71.081 160.223 71.1434L160.449 69.1562ZM163.192 71.4719C163.741 71.5309 164.234 71.1336 164.293 70.5845C164.352 70.0353 163.955 69.5423 163.406 69.4833L163.192 71.4719ZM169.312 70.0794C168.762 70.0276 168.274 70.4313 168.222 70.9812C168.171 71.531 168.574 72.0188 169.124 72.0706L169.312 70.0794ZM172.09 72.3401C172.64 72.3882 173.125 71.9811 173.173 71.4309C173.221 70.8808 172.814 70.3957 172.264 70.3477L172.09 72.3401ZM178.188 70.8234C177.637 70.7831 177.158 71.197 177.118 71.7479C177.078 72.2987 177.492 72.7778 178.042 72.8181L178.188 70.8234ZM181.03 73.0253C181.581 73.0614 182.058 72.644 182.094 72.0929C182.13 71.5418 181.712 71.0657 181.161 71.0296L181.03 73.0253ZM187.069 71.3721C186.517 71.3444 186.047 71.769 186.02 72.3206C185.992 72.8722 186.417 73.3418 186.968 73.3696L187.069 71.3721ZM189.947 73.5075C190.499 73.5308 190.966 73.1024 190.989 72.5506C191.012 71.9989 190.584 71.5326 190.032 71.5093L189.947 73.5075ZM195.983 71.7125C195.431 71.6982 194.971 72.1342 194.957 72.6863C194.943 73.2384 195.379 73.6975 195.931 73.7118L195.983 71.7125ZM198.909 73.7764C199.462 73.7861 199.917 73.3463 199.927 72.7941C199.936 72.2419 199.497 71.7864 198.944 71.7767L198.909 73.7764ZM204.861 71.8296C204.309 71.8294 203.861 72.277 203.861 72.8293C203.861 73.3816 204.308 73.8294 204.861 73.8296L204.861 71.8296ZM207.85 73.8172C208.402 73.8125 208.846 73.361 208.841 72.8087C208.836 72.2565 208.385 71.8126 207.832 71.8173L207.85 73.8172ZM213.787 71.7127C213.235 71.7274 212.799 72.1869 212.814 72.739C212.829 73.2911 213.288 73.7267 213.84 73.712L213.787 71.7127ZM216.804 73.6194C217.356 73.5997 217.787 73.1362 217.767 72.5843C217.748 72.0324 217.284 71.601 216.732 71.6207L216.804 73.6194ZM222.65 71.3537C222.099 71.3838 221.676 71.8552 221.706 72.4067C221.736 72.9581 222.208 73.3808 222.759 73.3508L222.65 71.3537ZM225.751 73.1735C226.303 73.1382 226.721 72.6627 226.685 72.1116C226.65 71.5604 226.175 71.1422 225.624 71.1775L225.751 73.1735ZM231.544 70.7414C230.993 70.7872 230.585 71.2706 230.63 71.821C230.676 72.3714 231.16 72.7803 231.71 72.7344L231.544 70.7414ZM234.666 72.4737C235.216 72.4225 235.62 71.9352 235.569 71.3853C235.518 70.8354 235.031 70.4311 234.481 70.4823L234.666 72.4737ZM240.384 69.8745C239.835 69.9365 239.44 70.4316 239.502 70.9804C239.564 71.5292 240.059 71.9238 240.608 71.8619L240.384 69.8745ZM243.594 71.5098C244.143 71.4424 244.532 70.9434 244.465 70.3952C244.397 69.847 243.898 69.4573 243.35 69.5247L243.594 71.5098ZM249.213 68.7451C248.666 68.8233 248.287 69.3299 248.365 69.8766C248.443 70.4233 248.95 70.8031 249.496 70.7249L249.213 68.7451ZM252.434 70.2898C252.98 70.2061 253.355 69.6958 253.271 69.1499C253.188 68.604 252.677 68.2292 252.131 68.3128L252.434 70.2898ZM257.999 67.354C257.455 67.4485 257.09 67.9662 257.185 68.5104C257.279 69.0545 257.797 69.419 258.341 69.3245L257.999 67.354ZM261.31 68.7934C261.854 68.6934 262.213 68.172 262.113 67.6289C262.013 67.0857 261.492 66.7265 260.948 66.8264L261.31 68.7934ZM266.734 65.7023C266.193 65.813 265.844 66.3413 265.954 66.8824C266.065 67.4235 266.593 67.7724 267.134 67.6617L266.734 65.7023ZM270.042 67.0518C270.582 66.9358 270.926 66.404 270.81 65.864C270.694 65.324 270.162 64.9804 269.622 65.0964L270.042 67.0518ZM275.431 63.7877C274.893 63.9144 274.56 64.4529 274.687 64.9905C274.813 65.528 275.352 65.861 275.889 65.7343L275.431 63.7877ZM278.829 65.0258C279.365 64.8937 279.693 64.3519 279.561 63.8157C279.429 63.2794 278.887 62.9518 278.351 63.0838L278.829 65.0258ZM284.046 61.6225C283.513 61.7649 283.195 62.3129 283.338 62.8465C283.48 63.3801 284.028 63.6973 284.562 63.5548L284.046 61.6225ZM287.427 62.7753C287.959 62.6278 288.271 62.0767 288.123 61.5445C287.976 61.0123 287.425 60.7005 286.893 60.8481L287.427 62.7753ZM292.617 59.2013C292.088 59.359 291.787 59.916 291.944 60.4453C292.102 60.9745 292.659 61.2757 293.188 61.1179L292.617 59.2013ZM296.085 60.2391C296.613 60.0763 296.909 59.5165 296.746 58.9887C296.583 58.461 296.023 58.1652 295.496 58.3281L296.085 60.2391ZM301.1 56.541C300.576 56.7137 300.29 57.2789 300.463 57.8035C300.636 58.3281 301.201 58.6134 301.726 58.4408L301.1 56.541ZM304.535 57.5017C305.058 57.3243 305.338 56.7564 305.161 56.2334C304.983 55.7104 304.416 55.4303 303.893 55.6078L304.535 57.5017ZM309.509 53.6444C308.989 53.8314 308.719 54.4043 308.906 54.924C309.093 55.4436 309.666 55.7133 310.186 55.5262L309.509 53.6444ZM313.027 54.4891C313.545 54.2973 313.809 53.722 313.617 53.2041C313.426 52.6861 312.85 52.4217 312.332 52.6135L313.027 54.4891ZM317.86 50.5112C317.345 50.7121 317.091 51.292 317.292 51.8065C317.493 52.3209 318.073 52.5751 318.587 52.3742L317.86 50.5112ZM321.33 51.2894C321.843 51.0841 322.092 50.5021 321.887 49.9894C321.681 49.4767 321.099 49.2275 320.587 49.4328L321.33 51.2894ZM326.071 47.1815C325.562 47.3956 325.323 47.9818 325.537 48.4909C325.751 49 326.337 49.2392 326.846 49.0251L326.071 47.1815ZM329.62 47.8449C330.127 47.6265 330.361 47.0383 330.143 46.531C329.924 46.0237 329.336 45.7896 328.829 46.008L329.62 47.8449ZM334.305 43.5955C333.801 43.8224 333.577 44.4145 333.804 44.918C334.031 45.4215 334.623 45.6458 335.126 45.419L334.305 43.5955ZM337.793 44.2048C338.295 43.9739 338.514 43.38 338.283 42.8783C338.053 42.3766 337.459 42.157 336.957 42.3879L337.793 44.2048ZM342.29 39.8821C341.792 40.1209 341.582 40.7182 341.821 41.2161C342.06 41.7141 342.657 41.9243 343.155 41.6855L342.29 39.8821ZM345.851 40.3799C346.347 40.1372 346.552 39.5383 346.31 39.0422C346.067 38.5461 345.468 38.3406 344.972 38.5833L345.851 40.3799ZM350.365 35.8927C349.872 36.1431 349.676 36.7451 349.927 37.2374C350.177 37.7297 350.779 37.9258 351.271 37.6754L350.365 35.8927ZM353.898 36.3403C354.393 36.0945 354.594 35.4943 354.349 34.9997C354.103 34.5051 353.503 34.3035 353.008 34.5493L353.898 36.3403ZM358.354 32.0592C357.848 32.2801 357.617 32.8695 357.838 33.3757C358.059 33.8819 358.648 34.1131 359.155 33.8922L358.354 32.0592ZM361.898 32.7327C362.41 32.5236 362.654 31.9397 362.445 31.4285C362.236 30.9174 361.652 30.6725 361.141 30.8816L361.898 32.7327ZM366.937 28.659C366.417 28.8458 366.147 29.4185 366.334 29.9383C366.521 30.458 367.093 30.7279 367.613 30.5412L366.937 28.659ZM370.34 29.5902C370.863 29.4132 371.144 28.8456 370.967 28.3224C370.79 27.7993 370.222 27.5187 369.699 27.6958L370.34 29.5902ZM375.324 25.9017C374.795 26.0606 374.495 26.6182 374.654 27.1471C374.813 27.6761 375.371 27.9761 375.899 27.8172L375.324 25.9017ZM378.768 26.9811C379.3 26.8309 379.609 26.2782 379.458 25.7468C379.308 25.2153 378.755 24.9063 378.224 25.0566L378.768 26.9811ZM384.195 23.4683C383.659 23.6022 383.334 24.1452 383.467 24.6809C383.601 25.2167 384.144 25.5425 384.68 25.4085L384.195 23.4683ZM387.546 24.7128C388.084 24.5861 388.417 24.0476 388.29 23.5101C388.164 22.9725 387.625 22.6394 387.088 22.7661L387.546 24.7128ZM392.819 21.4916C392.278 21.6049 391.932 22.1349 392.045 22.6755C392.159 23.216 392.689 23.5624 393.229 23.4491L392.819 21.4916ZM396.14 22.857C396.682 22.7501 397.034 22.2241 396.927 21.6823C396.82 21.1405 396.295 20.7879 395.753 20.8948L396.14 22.857ZM401.754 19.781C401.21 19.8758 400.845 20.3937 400.94 20.9378C401.035 21.4819 401.553 21.8461 402.097 21.7513L401.754 19.781ZM405.143 21.2372C405.688 21.1481 406.057 20.634 405.968 20.089C405.879 19.5439 405.365 19.1743 404.82 19.2633L405.143 21.2372ZM410.612 18.3729C410.065 18.4518 409.686 18.9589 409.765 19.5055C409.844 20.0522 410.351 20.4313 410.898 20.3524L410.612 18.3729ZM413.808 19.9455C414.355 19.8714 414.739 19.3677 414.665 18.8204C414.59 18.2731 414.087 17.8895 413.539 17.9636L413.808 19.9455ZM419.5 17.2083C418.952 17.2732 418.56 17.7704 418.625 18.3188C418.69 18.8673 419.187 19.2593 419.735 19.1944L419.5 17.2083ZM422.752 18.8499C423.301 18.7895 423.697 18.2954 423.637 17.7465C423.576 17.1975 423.082 16.8015 422.533 16.862L422.752 18.8499ZM428.611 16.2395C428.061 16.2917 427.658 16.7797 427.71 17.3295C427.762 17.8793 428.25 18.2827 428.8 18.2305L428.611 16.2395ZM431.69 17.9664C432.24 17.9179 432.646 17.4327 432.598 16.8825C432.55 16.3324 432.064 15.9256 431.514 15.9741L431.69 17.9664ZM437.406 15.4947C436.855 15.5359 436.442 16.0158 436.483 16.5666C436.524 17.1173 437.004 17.5303 437.555 17.4891L437.406 15.4947ZM440.531 17.2757C441.082 17.238 441.498 16.7607 441.46 16.2097C441.422 15.6587 440.945 15.2426 440.394 15.2804L440.531 17.2757ZM446.453 14.902C445.901 14.9331 445.479 15.4054 445.511 15.9568C445.542 16.5082 446.014 16.9299 446.565 16.8988L446.453 14.902ZM449.624 16.7349C450.176 16.7069 450.6 16.2371 450.572 15.6855C450.544 15.134 450.074 14.7095 449.523 14.7375L449.624 16.7349ZM455.462 14.4683C454.91 14.4904 454.48 14.9557 454.503 15.5076C454.525 16.0594 454.99 16.4888 455.542 16.4667L455.462 14.4683ZM458.473 16.3567C459.025 16.3374 459.457 15.8743 459.438 15.3223C459.419 14.7704 458.955 14.3386 458.403 14.3579L458.473 16.3567ZM464.355 14.1785C463.803 14.1925 463.367 14.6515 463.381 15.2036C463.395 15.7557 463.854 16.1919 464.406 16.1779L464.355 14.1785ZM467.406 16.1088C467.958 16.0974 468.396 15.6405 468.385 15.0884C468.373 14.5362 467.916 14.0978 467.364 14.1093L467.406 16.1088ZM473.449 14.011C472.896 14.0174 472.454 14.4704 472.46 15.0226C472.467 15.5749 472.92 16.0173 473.472 16.0108L473.449 14.011ZM476.538 15.9817C477.09 15.9776 477.535 15.5266 477.53 14.9743C477.526 14.4221 477.075 13.9777 476.523 13.9817L476.538 15.9817ZM482.412 13.962C481.859 13.9617 481.411 14.4091 481.411 14.9614C481.411 15.5137 481.858 15.9617 482.411 15.962L482.412 13.962ZM485.358 15.9695C485.91 15.9719 486.36 15.5262 486.362 14.9739C486.365 14.4216 485.919 13.9719 485.367 13.9695L485.358 15.9695ZM491.331 14.0182C490.779 14.0117 490.326 14.454 490.32 15.0063C490.313 15.5585 490.756 16.0115 491.308 16.0181L491.331 14.0182ZM494.31 16.059C494.862 16.0675 495.317 15.6268 495.325 15.0746C495.334 14.5223 494.893 14.0678 494.341 14.0592L494.31 16.059ZM500.412 14.1742C499.86 14.1618 499.403 14.5994 499.39 15.1516C499.378 15.7037 499.816 16.1613 500.368 16.1737L500.412 14.1742ZM503.423 16.2472C503.975 16.2615 504.434 15.8254 504.448 15.2733C504.463 14.7212 504.027 14.2621 503.474 14.2479L503.423 16.2472ZM509.383 14.4186C508.831 14.401 508.369 14.8341 508.351 15.3862C508.334 15.9382 508.767 16.4 509.319 16.4176L509.383 14.4186ZM512.267 16.5164C512.819 16.5357 513.282 16.104 513.302 15.552C513.321 15.0001 512.889 14.537 512.337 14.5176L512.267 16.5164ZM518.291 14.7436C517.739 14.7211 517.273 15.1502 517.251 15.702C517.228 16.2538 517.657 16.7194 518.209 16.742L518.291 14.7436ZM521.202 16.8685C521.754 16.8927 522.221 16.4649 522.245 15.9132C522.269 15.3614 521.841 14.8946 521.29 14.8704L521.202 16.8685ZM527.33 15.1512C526.778 15.1241 526.309 15.5492 526.282 16.1009C526.255 16.6525 526.68 17.1217 527.232 17.1488L527.33 15.1512ZM530.268 17.3023C530.819 17.331 531.29 16.9071 531.318 16.3555C531.347 15.804 530.923 15.3336 530.372 15.305L530.268 17.3023ZM536.344 15.6303C535.793 15.5989 535.32 16.0204 535.289 16.5718C535.258 17.1232 535.679 17.5957 536.231 17.6271L536.344 15.6303ZM539.173 17.7983C539.724 17.8311 540.198 17.4107 540.23 16.8594C540.263 16.3081 539.843 15.8346 539.292 15.8019L539.173 17.7983ZM545.223 16.1684C544.672 16.133 544.196 16.5512 544.161 17.1023C544.125 17.6535 544.544 18.1289 545.095 18.1643L545.223 16.1684ZM548.074 18.3587C548.625 18.3954 549.101 17.9783 549.138 17.4272C549.174 16.8762 548.757 16.3998 548.206 16.3631L548.074 18.3587ZM554.209 16.7754C553.658 16.7364 553.179 17.1513 553.14 17.7022C553.101 18.2531 553.516 18.7314 554.067 18.7704L554.209 16.7754ZM557.081 18.9874C557.632 19.0277 558.111 18.6138 558.152 18.063C558.192 17.5122 557.778 17.033 557.227 16.9928L557.081 18.9874ZM563.285 17.4484C562.734 17.4058 562.253 17.8177 562.211 18.3683C562.168 18.919 562.58 19.3999 563.131 19.4424L563.285 17.4484ZM566.064 19.6722C566.615 19.7158 567.097 19.3049 567.14 18.7544C567.184 18.2038 566.773 17.7221 566.222 17.6784L566.064 19.6722ZM572.128 18.1583C571.577 18.1125 571.094 18.5216 571.048 19.0719C571.002 19.6223 571.411 20.1056 571.962 20.1514L572.128 18.1583ZM574.926 20.4007C575.476 20.4475 575.96 20.0394 576.007 19.4891C576.054 18.9388 575.645 18.4547 575.095 18.4079L574.926 20.4007ZM581.059 18.9263C580.509 18.8775 580.023 19.2839 579.975 19.834C579.926 20.3841 580.332 20.8697 580.882 20.9185L581.059 18.9263ZM583.875 21.1868C584.425 21.2366 584.911 20.8311 584.961 20.281C585.011 19.731 584.605 19.2447 584.055 19.1949L583.875 21.1868ZM590.075 19.7506C589.525 19.6989 589.038 20.1027 588.986 20.6526C588.934 21.2025 589.338 21.6901 589.888 21.7418L590.075 19.7506ZM592.908 22.0285C593.458 22.0811 593.946 21.6781 593.999 21.1283C594.052 20.5786 593.649 20.0902 593.099 20.0376L592.908 22.0285ZM599.008 20.613C598.458 20.5586 597.968 20.96 597.914 21.5096C597.86 22.0592 598.261 22.5488 598.811 22.6032L599.008 20.613ZM601.76 22.8976C602.31 22.9528 602.8 22.5521 602.855 22.0026C602.911 21.4531 602.51 20.9629 601.96 20.9076L601.76 22.8976ZM607.89 21.513C607.34 21.4561 606.849 21.8552 606.792 22.4046C606.735 22.9539 607.134 23.4454 607.683 23.5023L607.89 21.513ZM610.657 23.8127C611.206 23.8704 611.698 23.472 611.756 22.9227C611.814 22.3735 611.415 21.8814 610.866 21.8236L610.657 23.8127ZM616.841 22.4606C616.292 22.4012 615.799 22.7983 615.739 23.3474C615.68 23.8964 616.077 24.3897 616.626 24.449L616.841 22.4606ZM619.622 24.7748C620.171 24.8349 620.665 24.4386 620.725 23.8896C620.785 23.3406 620.389 22.8468 619.84 22.7867L619.622 24.7748ZM625.859 23.454C625.31 23.3924 624.815 23.7873 624.753 24.3362C624.692 24.885 625.087 25.3799 625.636 25.4415L625.859 23.454ZM628.576 25.7735C629.125 25.8358 629.62 25.4415 629.683 24.8927C629.745 24.344 629.351 23.8486 628.802 23.7863L628.576 25.7735ZM634.703 24.464C634.154 24.4003 633.658 24.7934 633.594 25.342C633.53 25.8906 633.923 26.387 634.472 26.4507L634.703 24.464ZM637.429 26.796C637.978 26.8604 638.475 26.4679 638.539 25.9194C638.603 25.3709 638.211 24.874 637.662 24.8096L637.429 26.796ZM643.6 25.514C643.052 25.4483 642.554 25.8396 642.489 26.3879C642.423 26.9363 642.814 27.4341 643.362 27.4998L643.6 25.514ZM646.338 27.8582C646.886 27.9246 647.385 27.5339 647.451 26.9856C647.517 26.4374 647.127 25.9391 646.578 25.8727L646.338 27.8582ZM652.552 26.6028C652.004 26.5351 651.505 26.9247 651.437 27.4728C651.369 28.0209 651.759 28.5201 652.307 28.5877L652.552 26.6028ZM655.3 28.9587C655.848 29.0269 656.348 28.6379 656.416 28.0899C656.484 27.5418 656.095 27.0422 655.547 26.974L655.3 28.9587ZM661.494 27.7211C660.947 27.6517 660.446 28.0395 660.377 28.5874C660.307 29.1353 660.695 29.6358 661.243 29.7052L661.494 27.7211ZM664.189 30.08C664.736 30.15 665.237 29.7626 665.307 29.2148C665.377 28.6669 664.99 28.1661 664.442 28.0961L664.189 30.08ZM670.352 28.8573C669.804 28.7862 669.303 29.1726 669.231 29.7202C669.16 30.2679 669.547 30.7696 670.094 30.8407L670.352 28.8573ZM673.055 31.2265C673.602 31.2981 674.104 30.9123 674.176 30.3647C674.247 29.817 673.862 29.315 673.314 29.2434L673.055 31.2265ZM679.252 30.0261C678.704 29.9534 678.202 30.3383 678.129 30.8858C678.056 31.4333 678.441 31.936 678.989 32.0087L679.252 30.0261ZM681.962 32.4051C682.51 32.4783 683.013 32.0939 683.086 31.5465C683.159 30.9991 682.775 30.496 682.228 30.4227L681.962 32.4051ZM688.192 31.2261C687.644 31.1518 687.141 31.5353 687.066 32.0826C686.992 32.6299 687.376 33.1337 687.923 33.2079L688.192 31.2261ZM690.909 33.6143C691.457 33.689 691.961 33.306 692.035 32.7588C692.11 32.2116 691.727 31.7074 691.18 31.6327L690.909 33.6143ZM697.088 32.4445C696.541 32.3688 696.036 32.751 695.96 33.2981C695.884 33.8452 696.267 34.35 696.814 34.4256L697.088 32.4445ZM699.763 34.8347C700.31 34.9108 700.815 34.5291 700.892 33.9821C700.968 33.435 700.586 32.9299 700.039 32.8538L699.763 34.8347ZM705.952 33.6813C705.405 33.6043 704.899 33.9853 704.822 34.5322C704.745 35.0791 705.126 35.5848 705.673 35.6618L705.952 33.6813ZM708.633 36.0797C709.18 36.1571 709.686 35.7766 709.763 35.2297C709.841 34.6829 709.46 34.1768 708.913 34.0994L708.633 36.0797ZM714.846 34.944C714.299 34.8658 713.793 35.2455 713.715 35.7922C713.636 36.3389 714.016 36.8456 714.563 36.9238L714.846 34.944ZM717.532 37.35C718.079 37.4287 718.586 37.0493 718.665 36.5027C718.743 35.956 718.364 35.4491 717.817 35.3704L717.532 37.35ZM723.768 36.2312C723.221 36.1517 722.714 36.5303 722.634 37.0769C722.555 37.6234 722.934 38.1309 723.48 38.2103L723.768 36.2312ZM726.452 38.6434C726.998 38.7232 727.506 38.3449 727.586 37.7984C727.665 37.2519 727.287 36.7442 726.741 36.6644L726.452 38.6434ZM732.639 37.5302C732.093 37.4497 731.585 37.8273 731.504 38.3736C731.424 38.92 731.801 39.4282 732.348 39.5088L732.639 37.5302ZM735.299 39.9451C735.846 40.026 736.354 39.6488 736.435 39.1024C736.516 38.5561 736.139 38.0476 735.592 37.9667L735.299 39.9451ZM741.505 38.8465C740.959 38.7649 740.45 39.1415 740.369 39.6877C740.287 40.2339 740.664 40.7429 741.21 40.8245L741.505 38.8465ZM744.168 41.2676C744.714 41.3495 745.223 40.9732 745.305 40.427C745.387 39.8809 745.011 39.3717 744.465 39.2897L744.168 41.2676ZM750.39 40.1825C749.844 40.0999 749.334 40.4756 749.252 41.0217C749.169 41.5677 749.545 42.0774 750.091 42.16L750.39 40.1825ZM753.055 42.6093C753.601 42.6923 754.111 42.3169 754.194 41.7708C754.277 41.2248 753.901 40.715 753.355 40.632L753.055 42.6093ZM759.291 41.537C758.745 41.4534 758.235 41.8283 758.151 42.3742C758.068 42.9201 758.443 43.4304 758.989 43.5139L759.291 41.537ZM761.945 43.9672C762.491 44.0511 763.002 43.6765 763.086 43.1306C763.169 42.5847 762.795 42.0743 762.249 41.9904L761.945 43.9672ZM768.153 42.9004C767.607 42.8159 767.097 43.19 767.012 43.7358C766.928 44.2816 767.302 44.7925 767.848 44.8769L768.153 42.9004ZM770.801 45.3343C771.346 45.419 771.857 45.0452 771.942 44.4994C772.027 43.9537 771.653 43.4426 771.107 43.3579L770.801 45.3343ZM777.019 44.278C776.473 44.1928 775.961 44.5661 775.876 45.1118C775.791 45.6575 776.164 46.1689 776.71 46.2541L777.019 44.278ZM779.666 46.7164C780.212 46.8018 780.723 46.4288 780.809 45.8832C780.894 45.3375 780.521 44.8259 779.976 44.7405L779.666 46.7164ZM785.892 45.6699C785.346 45.5839 784.835 45.9565 784.749 46.5021C784.663 47.0476 785.035 47.5596 785.581 47.6455L785.892 45.6699ZM788.539 48.1122C789.085 48.1984 789.597 47.8261 789.683 47.2805C789.769 46.735 789.397 46.2229 788.851 46.1367L788.539 48.1122ZM794.771 47.0745C794.226 46.9879 793.713 47.3598 793.627 47.9053C793.54 48.4507 793.912 48.9631 794.457 49.0498L794.771 47.0745ZM797.411 49.5196C797.957 49.6064 798.469 49.2347 798.556 48.6892C798.643 48.1438 798.271 47.6313 797.726 47.5444L797.411 49.5196ZM803.635 48.4877C803.09 48.4005 802.577 48.7718 802.49 49.3172C802.402 49.8625 802.774 50.3753 803.319 50.4626L803.635 48.4877ZM806.273 50.9358C806.818 51.0233 807.331 50.6521 807.419 50.1068C807.506 49.5615 807.135 49.0485 806.59 48.9611L806.273 50.9358ZM812.499 49.911C811.954 49.8231 811.441 50.1939 811.353 50.7392C811.265 51.2844 811.636 51.7977 812.181 51.8855L812.499 49.911ZM815.135 52.3619C815.68 52.4499 816.193 52.0792 816.281 51.534C816.369 50.9888 815.999 50.4754 815.453 50.3874L815.135 52.3619ZM821.361 51.343C820.816 51.2547 820.302 51.625 820.214 52.1701C820.125 52.7153 820.496 53.2289 821.041 53.3172L821.361 51.343ZM823.993 53.7962C824.539 53.8847 825.052 53.5146 825.141 52.9694C825.229 52.4243 824.859 51.9106 824.314 51.8221L823.993 53.7962ZM830.22 52.7828C829.675 52.694 829.161 53.0639 829.072 53.6089C828.983 54.154 829.353 54.6679 829.898 54.7568L830.22 52.7828ZM832.856 55.2392C833.401 55.3281 833.915 54.9584 834.004 54.4133C834.093 53.8682 833.723 53.3542 833.178 53.2653L832.856 55.2392ZM839.092 54.2321C838.547 54.1429 838.033 54.5124 837.944 55.0574C837.855 55.6024 838.224 56.1166 838.769 56.2058L839.092 54.2321ZM841.724 56.69C842.269 56.7794 842.784 56.41 842.873 55.865C842.962 55.32 842.593 54.8057 842.048 54.7163L841.724 56.69ZM847.955 55.6862C847.41 55.5966 846.896 55.9658 846.806 56.5108C846.716 57.0557 847.086 57.5701 847.631 57.6597L847.955 55.6862ZM850.582 58.1452C851.127 58.2349 851.641 57.8659 851.731 57.3209C851.821 56.776 851.452 56.2615 850.907 56.1718L850.582 58.1452ZM856.805 57.1439C856.26 57.054 855.746 57.4228 855.656 57.9677C855.566 58.5127 855.935 59.0273 856.48 59.1172L856.805 57.1439ZM859.426 59.6036C859.971 59.6935 860.486 59.3248 860.576 58.7799C860.666 58.235 860.297 57.7203 859.752 57.6303L859.426 59.6036ZM865.653 58.6057C865.108 58.5155 864.593 58.8842 864.503 59.4291C864.413 59.9739 864.781 60.4887 865.326 60.5789L865.653 58.6057ZM868.289 61.0692C868.833 61.1594 869.348 60.7909 869.438 60.246C869.529 59.7011 869.16 59.1863 868.615 59.0961L868.289 61.0692ZM874.534 60.0769C873.989 59.9866 873.474 60.355 873.384 60.8998C873.293 61.4447 873.662 61.9596 874.207 62.05L874.534 60.0769ZM877.163 62.5403C877.707 62.6307 878.223 62.2623 878.313 61.7175C878.403 61.1726 878.035 60.6577 877.49 60.5673L877.163 62.5403ZM883.395 61.5476C882.85 61.4571 882.335 61.8254 882.244 62.3702C882.154 62.915 882.522 63.43 883.067 63.5205L883.395 61.5476ZM886.016 64.0104C886.56 64.1009 887.075 63.7327 887.166 63.1878C887.256 62.643 886.888 62.128 886.343 62.0375L886.016 64.0104ZM892.232 63.0164C891.688 62.9258 891.173 63.294 891.082 63.8388C890.991 64.3836 891.36 64.8987 891.904 64.9893L892.232 63.0164ZM894.845 65.4782C895.389 65.5688 895.905 65.2006 895.995 64.6558C896.086 64.111 895.717 63.5959 895.173 63.5053L894.845 65.4782ZM901.08 64.4878C900.535 64.3972 900.02 64.7654 899.929 65.3102C899.839 65.855 900.207 66.3701 900.752 66.4607L901.08 64.4878ZM903.718 66.9541C904.263 67.0447 904.778 66.6766 904.869 66.1318C904.959 65.587 904.591 65.0718 904.046 64.9812L903.718 66.9541ZM909.969 65.9663C909.424 65.8757 908.909 66.2439 908.819 66.7887C908.728 67.3335 909.096 67.8486 909.641 67.9392L909.969 65.9663ZM912.597 68.4308C913.142 68.5214 913.657 68.1531 913.748 67.6083C913.838 67.0635 913.47 66.5484 912.925 66.4579L912.597 68.4308ZM918.826 67.4387C918.282 67.3482 917.767 67.7165 917.676 68.2613C917.586 68.8061 917.954 69.3211 918.499 69.4116L918.826 67.4387ZM921.444 69.9008C921.989 69.9913 922.503 69.623 922.594 69.0782C922.684 68.5334 922.316 68.0183 921.771 67.9279L921.444 69.9008ZM927.649 68.9035C927.104 68.8131 926.589 69.1815 926.499 69.7264C926.409 70.2712 926.777 70.7861 927.322 70.8765L927.649 68.9035ZM930.255 71.3629C930.8 71.4532 931.315 71.0848 931.405 70.5399C931.495 69.9951 931.127 69.4801 930.582 69.3898L930.255 71.3629ZM936.512 70.3722C935.968 70.282 935.453 70.6506 935.363 71.1955C935.272 71.7404 935.641 72.2552 936.186 72.3454L936.512 70.3722ZM939.156 72.8367C939.701 72.9268 940.215 72.5581 940.306 72.0133C940.396 71.4684 940.027 70.9536 939.482 70.8635L939.156 72.8367ZM945.407 71.8423C944.862 71.7523 944.347 72.1212 944.257 72.6661C944.168 73.211 944.536 73.7256 945.081 73.8156L945.407 71.8423ZM948.037 74.303C948.582 74.3928 949.096 74.0239 949.186 73.4789C949.276 72.934 948.907 72.4194 948.362 72.3296L948.037 74.303ZM954.257 73.3C953.712 73.2104 953.197 73.5796 953.108 74.1245C953.018 74.6695 953.387 75.1839 953.932 75.2735L954.257 73.3ZM956.872 75.7565C957.417 75.846 957.932 75.4767 958.021 74.9317C958.111 74.3867 957.741 73.8724 957.196 73.7829L956.872 75.7565ZM963.059 74.744C962.514 74.6548 962 75.0243 961.911 75.5694C961.822 76.1144 962.191 76.6285 962.736 76.7177L963.059 74.744ZM965.68 77.1992C966.225 77.2882 966.74 76.9186 966.829 76.3735C966.918 75.8285 966.548 75.3144 966.003 75.2254L965.68 77.1992ZM971.963 76.1974C971.418 76.1086 970.904 76.4786 970.815 77.0237C970.726 77.5688 971.096 78.0826 971.641 78.1714L971.963 76.1974ZM974.613 78.6546C975.158 78.7432 975.672 78.3731 975.76 77.8279C975.849 77.2828 975.479 76.7691 974.934 76.6805L974.613 78.6546ZM980.856 77.6406C980.311 77.5525 979.797 77.9229 979.709 78.4681C979.621 79.0133 979.991 79.5268 980.537 79.615L980.856 77.6406ZM983.489 80.092C984.034 80.18 984.547 79.8094 984.635 79.2641C984.723 78.7189 984.353 78.2056 983.807 78.1176L983.489 80.092ZM989.69 79.0648C989.145 78.9772 988.632 79.3483 988.545 79.8936C988.457 80.4389 988.828 80.9519 989.373 81.0395L989.69 79.0648ZM992.305 81.5099C992.851 81.5972 993.364 81.226 993.451 80.6806C993.538 80.1353 993.167 79.6224 992.622 79.535L992.305 81.5099ZM998.488 80.4723C997.943 80.3854 997.43 80.7571 997.344 81.3025C997.257 81.8479 997.628 82.3605 998.174 82.4474L998.488 80.4723ZM1001.17 82.9235C1001.71 83.0102 1002.22 82.6382 1002.31 82.0928C1002.4 81.5473 1002.03 81.0349 1001.48 80.9483L1001.17 82.9235ZM1007.44 81.8921C1006.9 81.806 1006.38 82.1784 1006.3 82.7239C1006.21 83.2695 1006.58 83.7815 1007.13 83.8676L1007.44 81.8921ZM1010.1 84.3355C1010.64 84.4213 1011.16 84.0486 1011.24 83.503C1011.33 82.9574 1010.95 82.4456 1010.41 82.3598L1010.1 84.3355ZM1016.32 83.2865C1015.78 83.2013 1015.26 83.5745 1015.18 84.1202C1015.09 84.6658 1015.47 85.1773 1016.01 85.2625L1016.32 83.2865ZM1018.96 85.7216C1019.5 85.8065 1020.01 85.433 1020.1 84.8872C1020.18 84.3415 1019.81 83.8303 1019.26 83.7454L1018.96 85.7216ZM1025.13 84.6539C1024.58 84.5696 1024.07 84.9438 1023.98 85.4896C1023.9 86.0354 1024.27 86.5462 1024.82 86.6305L1025.13 84.6539ZM1027.74 87.0801C1028.29 87.1641 1028.8 86.7896 1028.88 86.2437C1028.96 85.6978 1028.59 85.1873 1028.04 85.1034L1027.74 87.0801ZM1034.01 86.0169C1033.47 85.9337 1032.96 86.3089 1032.87 86.8549C1032.79 87.4009 1033.16 87.9109 1033.71 87.9941L1034.01 86.0169ZM1036.7 88.4487C1037.25 88.5315 1037.76 88.156 1037.84 87.6099C1037.92 87.0639 1037.55 86.5541 1037 86.4713L1036.7 88.4487ZM1042.95 87.3689C1042.4 87.2869 1041.89 87.6632 1041.81 88.2093C1041.73 88.7555 1042.11 89.2647 1042.65 89.3467L1042.95 87.3689ZM1045.61 89.79C1046.16 89.8716 1046.67 89.4949 1046.75 88.9487C1046.83 88.4024 1046.46 87.8935 1045.91 87.8119L1045.61 89.79ZM1051.8 88.6863C1051.25 88.6056 1050.74 88.9831 1050.66 89.5294C1050.58 90.0758 1050.96 90.5841 1051.5 90.6648L1051.8 88.6863ZM1054.43 91.0962C1054.98 91.1764 1055.49 90.7985 1055.57 90.252C1055.65 89.7056 1055.27 89.1976 1054.72 89.1174L1054.43 91.0962ZM1060.58 89.9718C1060.03 89.8925 1059.53 90.2713 1059.45 90.8179C1059.37 91.3645 1059.75 91.8718 1060.29 91.951L1060.58 89.9718ZM1063.31 92.387C1063.85 92.4657 1064.36 92.0864 1064.44 91.5397C1064.52 90.9931 1064.14 90.4861 1063.59 90.4074L1063.31 92.387ZM1069.59 91.2644C1069.04 91.1868 1068.53 91.5671 1068.45 92.1139C1068.38 92.6607 1068.76 93.1669 1069.3 93.2446L1069.59 91.2644ZM1072.28 93.6661C1072.83 93.7432 1073.34 93.3624 1073.41 92.8155C1073.49 92.2686 1073.11 91.7628 1072.56 91.6857L1072.28 93.6661ZM1078.48 92.5133C1077.93 92.4374 1077.43 92.8193 1077.35 93.3664C1077.28 93.9134 1077.66 94.4184 1078.2 94.4943L1078.48 92.5133ZM1081.15 94.9008C1081.69 94.9761 1082.2 94.5936 1082.27 94.0465C1082.35 93.4994 1081.97 92.9948 1081.42 92.9195L1081.15 94.9008ZM1087.26 93.7162C1086.71 93.6422 1086.21 94.0259 1086.13 94.5732C1086.06 95.1205 1086.44 95.6242 1086.99 95.6982L1087.26 93.7162ZM1089.94 96.0952C1090.49 96.1685 1090.99 95.7842 1091.06 95.2368C1091.14 94.6894 1090.75 94.1862 1090.2 94.1129L1089.94 96.0952ZM1096.24 94.9138C1095.69 94.8419 1095.19 95.2276 1095.12 95.7751C1095.05 96.3227 1095.43 96.8249 1095.98 96.8968L1096.24 94.9138ZM1098.98 97.2885C1099.53 97.3596 1100.03 96.9733 1100.1 96.4256C1100.17 95.8779 1099.79 95.3763 1099.24 95.3051L1098.98 97.2885ZM1105.18 96.0689C1104.64 95.9993 1104.14 96.3871 1104.07 96.935C1104 97.4828 1104.38 97.9834 1104.93 98.0529L1105.18 96.0689ZM1107.89 98.4256C1108.43 98.4943 1108.93 98.1058 1109 97.5579C1109.07 97.0099 1108.68 96.5099 1108.13 96.4411L1107.89 98.4256ZM1113.99 97.166C1113.44 97.099 1112.94 97.489 1112.87 98.0372C1112.8 98.5855 1113.19 99.0842 1113.74 99.1512L1113.99 97.166ZM1116.65 99.5041C1117.2 99.5702 1117.69 99.1794 1117.76 98.631C1117.83 98.0827 1117.43 97.5846 1116.89 97.5185L1116.65 99.5041ZM1122.94 98.2385C1122.4 98.1743 1121.9 98.5669 1121.83 99.1155C1121.77 99.664 1122.16 100.161 1122.71 100.225L1122.94 98.2385ZM1125.73 100.575C1126.28 100.638 1126.77 100.245 1126.84 99.6961C1126.9 99.1475 1126.51 98.6515 1125.96 98.5883L1125.73 100.575ZM1131.92 99.2639C1131.38 99.2029 1130.88 99.5984 1130.82 100.147C1130.76 100.696 1131.15 101.191 1131.7 101.252L1131.92 99.2639ZM1134.66 101.578C1135.21 101.638 1135.7 101.241 1135.76 100.692C1135.82 100.143 1135.43 99.6495 1134.88 99.5896L1134.66 101.578ZM1140.73 100.216C1140.18 100.158 1139.69 100.557 1139.63 101.106C1139.57 101.655 1139.97 102.147 1140.52 102.205L1140.73 100.216ZM1143.42 102.506C1143.97 102.563 1144.46 102.163 1144.52 101.613C1144.57 101.064 1144.17 100.573 1143.62 100.517L1143.42 102.506ZM1149.72 101.127C1149.17 101.074 1148.68 101.476 1148.62 102.025C1148.57 102.575 1148.97 103.064 1149.52 103.118L1149.72 101.127ZM1152.55 103.41C1153.1 103.462 1153.58 103.059 1153.64 102.509C1153.69 101.959 1153.29 101.471 1152.74 101.419L1152.55 103.41ZM1158.71 101.971C1158.16 101.922 1157.67 102.327 1157.62 102.878C1157.57 103.428 1157.98 103.914 1158.53 103.963L1158.71 101.971ZM1161.48 104.224C1162.03 104.272 1162.51 103.865 1162.56 103.314C1162.61 102.764 1162.2 102.279 1161.65 102.231L1161.48 104.224ZM1167.47 102.721C1166.92 102.676 1166.44 103.086 1166.4 103.637C1166.35 104.187 1166.76 104.669 1167.31 104.714L1167.47 102.721ZM1170.31 104.952C1170.86 104.995 1171.34 104.583 1171.38 104.032C1171.42 103.482 1171.01 103.001 1170.46 102.958L1170.31 104.952ZM1176.57 103.412C1176.02 103.373 1175.54 103.788 1175.5 104.339C1175.46 104.89 1175.88 105.368 1176.43 105.407L1176.57 103.412ZM1179.45 105.615C1180 105.652 1180.47 105.235 1180.51 104.684C1180.55 104.133 1180.13 103.657 1179.58 103.62L1179.45 105.615ZM1185.51 103.995C1184.96 103.962 1184.48 104.382 1184.45 104.934C1184.42 105.485 1184.84 105.959 1185.39 105.991L1185.51 103.995ZM1188.31 106.159C1188.86 106.189 1189.34 105.767 1189.37 105.216C1189.4 104.664 1188.97 104.193 1188.42 104.162L1188.31 106.159ZM1194.35 104.464C1193.8 104.438 1193.33 104.865 1193.31 105.416C1193.28 105.968 1193.71 106.436 1194.26 106.462L1194.35 104.464ZM1197.35 106.597C1197.9 106.62 1198.36 106.192 1198.39 105.64C1198.41 105.088 1197.98 104.622 1197.43 104.599L1197.35 106.597ZM1203.47 104.818C1202.91 104.801 1202.45 105.235 1202.43 105.787C1202.42 106.339 1202.85 106.8 1203.4 106.817L1203.47 104.818ZM1206.37 106.901C1206.93 106.915 1207.38 106.479 1207.4 105.927C1207.41 105.375 1206.98 104.916 1206.42 104.902L1206.37 106.901ZM1212.22 105.015C1211.67 105.008 1211.21 105.45 1211.21 106.002C1211.2 106.554 1211.64 107.008 1212.19 107.015L1212.22 105.015ZM1215.23 107.046C1215.78 107.05 1216.23 106.606 1216.24 106.053C1216.24 105.501 1215.8 105.05 1215.24 105.046L1215.23 107.046ZM1221.38 105.044C1220.83 105.048 1220.38 105.5 1220.39 106.052C1220.39 106.604 1220.84 107.048 1221.4 107.044L1221.38 105.044ZM1224.4 107.008C1224.95 106.999 1225.39 106.544 1225.39 105.992C1225.38 105.44 1224.92 104.999 1224.37 105.008L1224.4 107.008ZM1230.19 104.866C1229.64 104.884 1229.2 105.346 1229.22 105.898C1229.24 106.45 1229.7 106.883 1230.26 106.865L1230.19 104.866ZM1233.17 106.754C1233.72 106.73 1234.15 106.264 1234.13 105.712C1234.1 105.16 1233.64 104.732 1233.09 104.756L1233.17 106.754ZM1239.27 104.423C1238.72 104.459 1238.3 104.935 1238.33 105.486C1238.37 106.037 1238.85 106.455 1239.4 106.419L1239.27 104.423ZM1242.41 106.203C1242.96 106.16 1243.37 105.679 1243.32 105.128C1243.28 104.578 1242.8 104.166 1242.25 104.209L1242.41 106.203ZM1248 103.684C1247.45 103.742 1247.05 104.234 1247.11 104.783C1247.17 105.333 1247.66 105.731 1248.21 105.673L1248 103.684ZM-160.876 75.4843C-160.422 75.2572 -159.969 75.0316 -159.516 74.8074L-160.403 73.0149C-160.859 73.2404 -161.315 73.4673 -161.771 73.6957L-160.876 75.4843ZM-154.1 72.1862C-153.2 71.7608 -152.302 71.341 -151.406 70.9269L-152.245 69.1113C-153.147 69.528 -154.05 69.9502 -154.955 70.3782L-154.1 72.1862ZM-146.047 68.5092C-145.157 68.1174 -144.269 67.7311 -143.382 67.3502L-144.171 65.5125C-145.064 65.8958 -145.958 66.2845 -146.853 66.6788L-146.047 68.5092ZM-137.827 65.0269C-136.903 64.6509 -135.98 64.2808 -135.059 63.9165L-135.795 62.0568C-136.722 62.4235 -137.65 62.796 -138.58 63.1744L-137.827 65.0269ZM-129.555 61.7999C-128.641 61.4585 -127.728 61.1229 -126.817 60.7928L-127.498 58.9124C-128.415 59.2447 -129.334 59.5826 -130.254 59.9262L-129.555 61.7999ZM-121.167 58.8108C-120.223 58.4902 -119.28 58.1755 -118.338 57.8667L-118.962 55.9664C-119.91 56.2773 -120.859 56.5941 -121.81 56.9169L-121.167 58.8108ZM-112.71 56.0843C-111.775 55.7988 -110.842 55.5191 -109.91 55.245L-110.474 53.3263C-111.413 53.6023 -112.352 53.884 -113.294 54.1715L-112.71 56.0843ZM-104.157 53.6188C-103.196 53.3582 -102.236 53.1034 -101.279 52.8546L-101.782 50.9189C-102.746 51.1695 -103.713 51.426 -104.681 51.6886L-104.157 53.6188ZM-95.551 51.4314C-94.5995 51.2057 -93.6497 50.9858 -92.7014 50.7714L-93.1424 48.8206C-94.0975 49.0365 -95.0542 49.2581 -96.0125 49.4854L-95.551 51.4314ZM-86.8505 49.5156C-85.8773 49.3178 -84.9057 49.1258 -83.9357 48.9395L-84.3129 46.9754C-85.29 47.163 -86.2686 47.3564 -87.2489 47.5557L-86.8505 49.5156ZM-78.1344 47.8898C-77.1616 47.7245 -76.1904 47.5649 -75.2206 47.4109L-75.5344 45.4356C-76.5112 45.5908 -77.4895 45.7516 -78.4693 45.918L-78.1344 47.8898ZM-69.3164 46.5382C-68.3354 46.4039 -67.3559 46.2753 -66.3778 46.1521L-66.6278 44.1678C-67.6128 44.2919 -68.5994 44.4214 -69.5875 44.5566L-69.3164 46.5382ZM-60.5271 45.4776C-59.5355 45.3738 -58.5454 45.2754 -57.5567 45.1825L-57.7439 43.1912C-58.7396 43.2849 -59.7367 43.3839 -60.7353 43.4884L-60.5271 45.4776ZM-51.6293 44.6873C-50.6442 44.6153 -49.6605 44.5484 -48.6781 44.4866L-48.8037 42.4905C-49.7928 42.5528 -50.7833 42.6201 -51.7752 42.6926L-51.6293 44.6873ZM-42.7703 44.1745C-41.7765 44.1319 -40.7841 44.0944 -39.7929 44.0618L-39.8587 42.0628C-40.8564 42.0957 -41.8554 42.1335 -42.8558 42.1763L-42.7703 44.1745ZM-33.8611 43.924C-32.8749 43.9106 -31.89 43.9018 -30.9062 43.8977L-30.9147 41.8977C-31.9047 41.9019 -32.8959 41.9107 -33.8883 41.9242L-33.8611 43.924ZM-24.9669 43.9274C-23.9754 43.9414 -22.985 43.9599 -21.9957 43.9828L-21.9496 41.9833C-22.9448 41.9603 -23.9411 41.9417 -24.9387 41.9276L-24.9669 43.9274ZM-16.0729 44.1711C-15.0862 44.2109 -14.1004 44.2549 -13.1157 44.3029L-13.0183 42.3052C-14.0085 42.257 -14.9998 42.2128 -15.9922 42.1727L-16.0729 44.1711ZM-7.1769 44.6408C-6.18902 44.705 -5.20209 44.773 -4.21607 44.8447L-4.07098 42.85C-5.06208 42.7779 -6.05417 42.7096 -7.04727 42.6451L-7.1769 44.6408ZM1.691 45.3189C2.67935 45.4055 3.66687 45.4957 4.6536 45.5892L4.84239 43.5982C3.85104 43.5042 2.85879 43.4136 1.86565 43.3265L1.691 45.3189ZM10.5646 46.1905C11.5482 46.2972 12.5312 46.4071 13.5134 46.52L13.7418 44.533C12.7554 44.4197 11.7682 44.3093 10.7803 44.2022L10.5646 46.1905ZM19.4091 47.2342C20.3922 47.3593 21.3746 47.4871 22.3565 47.6177L22.6201 45.6351C21.6346 45.5041 20.6484 45.3757 19.6615 45.2502L19.4091 47.2342ZM28.2409 48.4325C29.2205 48.5733 30.1997 48.7167 31.1784 48.8623L31.4728 46.8841C30.4909 46.738 29.5085 46.5942 28.5255 46.4528L28.2409 48.4325ZM37.0548 49.7648C38.0334 49.9196 39.0116 50.0764 39.9894 50.2353L40.3101 48.2611C39.3296 48.1019 38.3487 47.9446 37.3672 47.7893L37.0548 49.7648ZM45.8524 51.211C46.8293 51.3773 47.8059 51.5453 48.7822 51.7149L49.1245 49.7445C48.1461 49.5745 47.1672 49.406 46.188 49.2394L45.8524 51.211ZM54.6377 52.751C55.6132 52.9266 56.5885 53.1035 57.5637 53.2816L57.9231 51.3142C56.9463 51.1357 55.9692 50.9585 54.9919 50.7826L54.6377 52.751ZM63.412 54.3641C64.3862 54.5466 65.3603 54.7301 66.3344 54.9145L66.7063 52.9493C65.7311 52.7648 64.7557 52.5811 63.7802 52.3983L63.412 54.3641ZM72.1789 56.0299C73.153 56.2172 74.1271 56.4052 75.1014 56.5936L75.4811 54.63C74.5063 54.4414 73.5314 54.2534 72.5565 54.0659L72.1789 56.0299ZM80.9412 57.7278C81.9146 57.9174 82.8881 58.1073 83.8618 58.2974L84.2449 56.3344C83.2711 56.1444 82.2973 55.9544 81.3237 55.7647L80.9412 57.7278ZM89.7068 59.4381C90.6801 59.6279 91.6537 59.8176 92.6276 60.007L93.0094 58.0438C92.0359 57.8544 91.0627 57.6648 90.0896 57.4751L89.7068 59.4381ZM98.4709 61.1389C99.4455 61.3268 100.42 61.5141 101.396 61.7009L101.772 59.7366C100.797 59.55 99.8233 59.3628 98.8494 59.1751L98.4709 61.1389ZM107.248 62.8122C108.223 62.9956 109.198 63.1781 110.173 63.3596L110.539 61.3933C109.565 61.2121 108.591 61.0298 107.618 60.8467L107.248 62.8122ZM116.033 64.4361C117.01 64.6133 117.989 64.7892 118.968 64.9638L119.319 62.9949C118.342 62.8206 117.365 62.645 116.389 62.4682L116.033 64.4361ZM124.833 65.9918C125.811 66.16 126.79 66.3267 127.769 66.4917L128.101 64.5194C127.124 64.3549 126.148 64.1886 125.172 64.0208L124.833 65.9918ZM133.655 67.4603C134.635 67.6177 135.617 67.7732 136.599 67.9267L136.908 65.9507C135.929 65.7977 134.95 65.6426 133.972 65.4855L133.655 67.4603ZM142.486 68.8198C143.469 68.9643 144.453 69.1065 145.438 69.2463L145.719 67.2662C144.738 67.1268 143.757 66.9851 142.777 66.8411L142.486 68.8198ZM151.353 70.0551C152.335 70.1842 153.319 70.3106 154.303 70.4344L154.553 68.45C153.572 68.3267 152.592 68.2007 151.613 68.0722L151.353 70.0551ZM160.223 71.1434C161.211 71.2559 162.201 71.3654 163.192 71.4719L163.406 69.4833C162.419 69.3773 161.433 69.2682 160.449 69.1562L160.223 71.1434ZM169.124 72.0706C170.111 72.1637 171.1 72.2536 172.09 72.3401L172.264 70.3477C171.279 70.2616 170.295 70.1721 169.312 70.0794L169.124 72.0706ZM178.042 72.8181C179.037 72.8907 180.033 72.9599 181.03 73.0253L181.161 71.0296C180.169 70.9645 179.178 70.8957 178.188 70.8234L178.042 72.8181ZM186.968 73.3696C187.96 73.4194 188.953 73.4654 189.947 73.5075L190.032 71.5093C189.043 71.4674 188.055 71.4217 187.069 71.3721L186.968 73.3696ZM195.931 73.7118C196.922 73.7375 197.915 73.759 198.909 73.7764L198.944 71.7767C197.956 71.7595 196.969 71.738 195.983 71.7125L195.931 73.7118ZM204.861 73.8296C205.855 73.8299 206.852 73.8258 207.85 73.8172L207.832 71.8173C206.841 71.8258 205.85 71.8299 204.861 71.8296L204.861 73.8296ZM213.84 73.712C214.827 73.6857 215.814 73.6549 216.804 73.6194L216.732 71.6207C215.749 71.6559 214.767 71.6866 213.787 71.7127L213.84 73.712ZM222.759 73.3508C223.755 73.2965 224.752 73.2374 225.751 73.1735L225.624 71.1775C224.631 71.2411 223.64 71.2998 222.65 71.3537L222.759 73.3508ZM231.71 72.7344C232.694 72.6524 233.679 72.5655 234.666 72.4737L234.481 70.4823C233.5 70.5736 232.521 70.6599 231.544 70.7414L231.71 72.7344ZM240.608 71.8619C241.602 71.7497 242.597 71.6324 243.594 71.5098L243.35 69.5247C242.36 69.6465 241.371 69.7631 240.384 69.8745L240.608 71.8619ZM249.496 70.7249C250.474 70.585 251.453 70.44 252.434 70.2898L252.131 68.3128C251.157 68.4621 250.184 68.6061 249.213 68.7451L249.496 70.7249ZM258.341 69.3245C259.329 69.1529 260.319 68.9759 261.31 68.7934L260.948 66.8264C259.963 67.0077 258.98 67.1836 257.999 67.354L258.341 69.3245ZM267.134 67.6617C268.102 67.4637 269.071 67.2605 270.042 67.0518L269.622 65.0964C268.657 65.3037 267.695 65.5056 266.734 65.7023L267.134 67.6617ZM275.889 65.7343C276.868 65.5037 277.847 65.2676 278.829 65.0258L278.351 63.0838C277.376 63.324 276.402 63.5586 275.431 63.7877L275.889 65.7343ZM284.562 63.5548C285.515 63.3004 286.47 63.0406 287.427 62.7753L286.893 60.8481C285.942 61.1116 284.993 61.3697 284.046 61.6225L284.562 63.5548ZM293.188 61.1179C294.152 60.8306 295.118 60.5377 296.085 60.2391L295.496 58.3281C294.534 58.6247 293.575 58.9158 292.617 59.2013L293.188 61.1179ZM301.726 58.4408C302.66 58.1331 303.597 57.8201 304.535 57.5017L303.893 55.6078C302.96 55.9242 302.029 56.2353 301.1 56.541L301.726 58.4408ZM310.186 55.5262C311.131 55.186 312.078 54.8403 313.027 54.4891L312.332 52.6135C311.389 52.9627 310.448 53.3063 309.509 53.6444L310.186 55.5262ZM318.587 52.3742C319.5 52.0178 320.414 51.6563 321.33 51.2894L320.587 49.4328C319.676 49.7975 318.767 50.1569 317.86 50.5112L318.587 52.3742ZM326.846 49.0251C327.769 48.6371 328.694 48.2437 329.62 47.8449L328.829 46.008C327.908 46.4045 326.989 46.7957 326.071 47.1815L326.846 49.0251ZM335.126 45.419C336.014 45.0192 336.903 44.6145 337.793 44.2048L336.957 42.3879C336.071 42.7954 335.187 43.198 334.305 43.5955L335.126 45.419ZM343.155 41.6855C344.052 41.2554 344.951 40.8202 345.851 40.3799L344.972 38.5833C344.076 39.0214 343.183 39.4543 342.29 39.8821L343.155 41.6855ZM351.271 37.6754C351.725 37.4447 352.179 37.2128 352.633 36.9795L351.719 35.2003C351.267 35.4324 350.816 35.6632 350.365 35.8927L351.271 37.6754ZM352.633 36.9795C353.051 36.7646 353.473 36.5515 353.898 36.3403L353.008 34.5493C352.575 34.7644 352.146 34.9814 351.719 35.2003L352.633 36.9795ZM359.155 33.8922C360.056 33.4985 360.971 33.1121 361.898 32.7327L361.141 30.8816C360.2 31.2667 359.271 31.6592 358.354 32.0592L359.155 33.8922ZM367.613 30.5412C368.512 30.2183 369.421 29.9013 370.34 29.5902L369.699 27.6958C368.768 28.0108 367.847 28.3318 366.937 28.659L367.613 30.5412ZM375.899 27.8172C376.846 27.5329 377.802 27.2543 378.768 26.9811L378.224 25.0566C377.248 25.3326 376.281 25.6143 375.324 25.9017L375.899 27.8172ZM384.68 25.4085C385.627 25.1718 386.582 24.9399 387.546 24.7128L387.088 22.7661C386.115 22.9952 385.151 23.2293 384.195 23.4683L384.68 25.4085ZM393.229 23.4491C394.192 23.2473 395.162 23.05 396.14 22.857L395.753 20.8948C394.767 21.0893 393.789 21.2882 392.819 21.4916L393.229 23.4491ZM402.097 21.7513C403.105 21.5756 404.12 21.4043 405.143 21.2372L404.82 19.2633C403.791 19.4316 402.769 19.6041 401.754 19.781L402.097 21.7513ZM410.898 20.3524C411.862 20.2133 412.832 20.0776 413.808 19.9455L413.539 17.9636C412.558 18.0965 411.582 18.2329 410.612 18.3729L410.898 20.3524ZM419.735 19.1944C420.735 19.0762 421.741 18.9614 422.752 18.8499L422.533 16.862C421.516 16.974 420.506 17.0894 419.5 17.2083L419.735 19.1944ZM428.8 18.2305C429.758 18.1396 430.722 18.0516 431.69 17.9664L431.514 15.9741C430.542 16.0597 429.574 16.1481 428.611 16.2395L428.8 18.2305ZM437.555 17.4891C438.542 17.4152 439.534 17.3441 440.531 17.2757L440.394 15.2804C439.393 15.3491 438.397 15.4205 437.406 15.4947L437.555 17.4891ZM446.565 16.8988C447.58 16.8414 448.6 16.7868 449.624 16.7349L449.523 14.7375C448.495 14.7896 447.471 14.8444 446.453 14.902L446.565 16.8988ZM455.542 16.4667C456.515 16.4278 457.492 16.3911 458.473 16.3567L458.403 14.3579C457.419 14.3924 456.438 14.4292 455.462 14.4683L455.542 16.4667ZM464.406 16.1779C465.402 16.1526 466.402 16.1296 467.406 16.1088L467.364 14.1093C466.357 14.1301 465.354 14.1532 464.355 14.1785L464.406 16.1779ZM473.472 16.0108C474.49 15.9989 475.512 15.9892 476.538 15.9817L476.523 13.9817C475.495 13.9893 474.47 13.999 473.449 14.011L473.472 16.0108ZM482.411 15.962C483.39 15.9626 484.372 15.9651 485.358 15.9695L485.367 13.9695C484.379 13.9651 483.394 13.9626 482.412 13.962L482.411 15.962ZM491.308 16.0181C492.305 16.0299 493.306 16.0435 494.31 16.059L494.341 14.0592C493.335 14.0437 492.332 14.03 491.331 14.0182L491.308 16.0181ZM500.368 16.1737C501.383 16.1964 502.402 16.2209 503.423 16.2472L503.474 14.2479C502.451 14.2216 501.43 14.197 500.412 14.1742L500.368 16.1737ZM509.319 16.4176C510.299 16.449 511.282 16.4819 512.267 16.5164L512.337 14.5176C511.35 14.4831 510.365 14.4501 509.383 14.4186L509.319 16.4176ZM518.209 16.742C519.204 16.7826 520.202 16.8248 521.202 16.8685L521.29 14.8704C520.288 14.8267 519.288 14.7844 518.291 14.7436L518.209 16.742ZM527.232 17.1488C528.241 17.1985 529.254 17.2497 530.268 17.3023L530.372 15.305C529.355 15.2523 528.342 15.201 527.33 15.1512L527.232 17.1488ZM536.231 17.6271C537.209 17.6829 538.19 17.74 539.173 17.7983L539.292 15.8019C538.307 15.7434 537.325 15.6862 536.344 15.6303L536.231 17.6271ZM545.095 18.1643C546.086 18.2278 547.079 18.2927 548.074 18.3587L548.206 16.3631C547.21 16.297 546.215 16.232 545.223 16.1684L545.095 18.1643ZM554.067 18.7704C555.07 18.8415 556.075 18.9139 557.081 18.9874L557.227 16.9928C556.219 16.9191 555.213 16.8466 554.209 16.7754L554.067 18.7704ZM563.131 19.4424C564.107 19.5179 565.085 19.5945 566.064 19.6722L566.222 17.6784C565.241 17.6006 564.262 17.524 563.285 17.4484L563.131 19.4424ZM571.962 20.1514C572.948 20.2334 573.936 20.3165 574.926 20.4007L575.095 18.4079C574.104 18.3236 573.115 18.2404 572.128 18.1583L571.962 20.1514ZM580.882 20.9185C581.878 21.0069 582.876 21.0963 583.875 21.1868L584.055 19.1949C583.055 19.1044 582.056 19.0148 581.059 18.9263L580.882 20.9185ZM589.888 21.7418C590.893 21.8364 591.9 21.9319 592.908 22.0285L593.099 20.0376C592.09 19.9409 591.082 19.8453 590.075 19.7506L589.888 21.7418ZM598.811 22.6032C599.792 22.7004 600.776 22.7985 601.76 22.8976L601.96 20.9076C600.975 20.8085 599.991 20.7103 599.008 20.613L598.811 22.6032ZM607.683 23.5023C608.673 23.6049 609.664 23.7084 610.657 23.8127L610.866 21.8236C609.872 21.7192 608.88 21.6157 607.89 21.513L607.683 23.5023ZM616.626 24.449C617.624 24.5567 618.622 24.6654 619.622 24.7748L619.84 22.7867C618.839 22.6771 617.839 22.5684 616.841 22.4606L616.626 24.449ZM625.636 25.4415C626.615 25.5514 627.595 25.6621 628.576 25.7735L628.802 23.7863C627.82 23.6747 626.839 23.564 625.859 23.454L625.636 25.4415ZM634.472 26.4507C635.457 26.565 636.442 26.6801 637.429 26.796L637.662 24.8096C636.675 24.6937 635.688 24.5785 634.703 24.464L634.472 26.4507ZM643.362 27.4998C644.353 27.6186 645.345 27.7381 646.338 27.8582L646.578 25.8727C645.585 25.7525 644.592 25.6329 643.6 25.514L643.362 27.4998ZM652.307 28.5877C653.304 28.7107 654.301 28.8343 655.3 28.9587L655.547 26.974C654.548 26.8496 653.549 26.7258 652.552 26.6028L652.307 28.5877ZM661.243 29.7052C662.224 29.8295 663.206 29.9544 664.189 30.08L664.442 28.0961C663.459 27.9705 662.476 27.8455 661.494 27.7211L661.243 29.7052ZM670.094 30.8407C671.08 30.9687 672.067 31.0973 673.055 31.2265L673.314 29.2434C672.326 29.1141 671.338 28.9854 670.352 28.8573L670.094 30.8407ZM678.989 32.0087C679.979 32.1403 680.97 32.2724 681.962 32.4051L682.228 30.4227C681.235 30.29 680.243 30.1578 679.252 30.0261L678.989 32.0087ZM687.923 33.2079C688.918 33.3428 689.913 33.4783 690.909 33.6143L691.18 31.6327C690.183 31.4966 689.187 31.3611 688.192 31.2261L687.923 33.2079ZM696.814 34.4256C697.796 34.5615 698.78 34.6979 699.763 34.8347L700.039 32.8538C699.055 32.7169 698.071 32.5804 697.088 32.4445L696.814 34.4256ZM705.673 35.6618C706.659 35.8006 707.646 35.9399 708.633 36.0797L708.913 34.0994C707.926 33.9596 706.938 33.8202 705.952 33.6813L705.673 35.6618ZM714.563 36.9238C715.552 37.0655 716.542 37.2075 717.532 37.35L717.817 35.3704C716.826 35.2278 715.836 35.0857 714.846 34.944L714.563 36.9238ZM723.48 38.2103C724.47 38.3543 725.461 38.4986 726.452 38.6434L726.741 36.6644C725.749 36.5195 724.758 36.3751 723.768 36.2312L723.48 38.2103ZM732.348 39.5088C733.331 39.6539 734.315 39.7993 735.299 39.9451L735.592 37.9667C734.608 37.8208 733.623 37.6753 732.639 37.5302L732.348 39.5088ZM741.21 40.8245C742.195 40.9718 743.182 41.1195 744.168 41.2676L744.465 39.2897C743.478 39.1416 742.491 38.9939 741.505 38.8465L741.21 40.8245ZM750.091 42.16C751.079 42.3095 752.067 42.4592 753.055 42.6093L753.355 40.632C752.367 40.4819 751.378 40.332 750.39 40.1825L750.091 42.16ZM758.989 43.5139C759.974 43.6647 760.959 43.8158 761.945 43.9672L762.249 41.9904C761.263 41.839 760.277 41.6878 759.291 41.537L758.989 43.5139ZM767.848 44.8769C768.832 45.0291 769.816 45.1815 770.801 45.3343L771.107 43.3579C770.122 43.2051 769.138 43.0526 768.153 42.9004L767.848 44.8769ZM776.71 46.2541C777.695 46.4079 778.681 46.562 779.666 46.7164L779.976 44.7405C778.99 44.5861 778.004 44.4319 777.019 44.278L776.71 46.2541ZM785.581 47.6455C786.567 47.8008 787.553 47.9564 788.539 48.1122L788.851 46.1367C787.865 45.9809 786.878 45.8253 785.892 45.6699L785.581 47.6455ZM794.457 49.0498C795.442 49.2062 796.427 49.3627 797.411 49.5196L797.726 47.5444C796.741 47.3876 795.756 47.231 794.771 47.0745L794.457 49.0498ZM803.319 50.4626C804.304 50.6202 805.288 50.7779 806.273 50.9358L806.59 48.9611C805.605 48.8031 804.62 48.6453 803.635 48.4877L803.319 50.4626ZM812.181 51.8855C813.166 52.0441 814.15 52.2029 815.135 52.3619L815.453 50.3874C814.469 50.2284 813.484 50.0696 812.499 49.911L812.181 51.8855ZM821.041 53.3172C822.025 53.4768 823.009 53.6364 823.993 53.7962L824.314 51.8221C823.33 51.6623 822.345 51.5026 821.361 51.343L821.041 53.3172ZM829.898 54.7568C830.884 54.9175 831.87 55.0783 832.856 55.2392L833.178 53.2653C832.192 53.1043 831.206 52.9435 830.22 52.7828L829.898 54.7568ZM838.769 56.2058C839.754 56.3671 840.739 56.5285 841.724 56.69L842.048 54.7163C841.063 54.5548 840.078 54.3934 839.092 54.2321L838.769 56.2058ZM847.631 57.6597C848.615 57.8215 849.598 57.9833 850.582 58.1452L850.907 56.1718C849.923 56.0099 848.939 55.848 847.955 55.6862L847.631 57.6597ZM856.48 59.1172C857.462 59.2793 858.444 59.4414 859.426 59.6036L859.752 57.6303C858.77 57.4681 857.788 57.306 856.805 57.1439L856.48 59.1172ZM865.326 60.5789C866.314 60.7423 867.301 60.9058 868.289 61.0692L868.615 59.0961C867.628 58.9326 866.641 58.7691 865.653 58.6057L865.326 60.5789ZM874.207 62.05C875.192 62.2134 876.178 62.3769 877.163 62.5403L877.49 60.5673C876.505 60.4038 875.52 60.2404 874.534 60.0769L874.207 62.05ZM883.067 63.5205C884.05 63.6839 885.033 63.8471 886.016 64.0104L886.343 62.0375C885.361 61.8742 884.378 61.7109 883.395 61.5476L883.067 63.5205ZM891.904 64.9893C892.885 65.1523 893.865 65.3153 894.845 65.4782L895.173 63.5053C894.193 63.3424 893.213 63.1794 892.232 63.0164L891.904 64.9893ZM900.752 66.4607C901.741 66.6253 902.73 66.7897 903.718 66.9541L904.046 64.9812C903.058 64.8168 902.069 64.6524 901.08 64.4878L900.752 66.4607ZM909.641 67.9392C910.627 68.1032 911.612 68.267 912.597 68.4308L912.925 66.4579C911.94 66.2941 910.955 66.1303 909.969 65.9663L909.641 67.9392ZM918.499 69.4116C919.481 69.5749 920.463 69.7379 921.444 69.9008L921.771 67.9279C920.79 67.765 919.809 67.6019 918.826 67.4387L918.499 69.4116ZM927.322 70.8765C928.3 71.0388 929.278 71.2009 930.255 71.3629L930.582 69.3898C929.605 69.2279 928.627 69.0658 927.649 68.9035L927.322 70.8765ZM936.186 72.3454C937.177 72.5094 938.167 72.6731 939.156 72.8367L939.482 70.8635C938.493 70.7 937.503 70.5362 936.512 70.3722L936.186 72.3454ZM945.081 73.8156C946.067 73.9783 947.052 74.1407 948.037 74.303L948.362 72.3296C947.378 72.1674 946.393 72.0049 945.407 71.8423L945.081 73.8156ZM953.932 75.2735C954.913 75.4348 955.893 75.5958 956.872 75.7565L957.196 73.7829C956.217 73.6222 955.238 73.4612 954.257 73.3L953.932 75.2735ZM962.736 76.7177C963.719 76.8785 964.7 77.039 965.68 77.1992L966.003 75.2254C965.023 75.0652 964.042 74.9047 963.059 74.744L962.736 76.7177ZM971.641 78.1714C972.633 78.3328 973.623 78.4939 974.613 78.6546L974.934 76.6805C973.944 76.5198 972.954 76.3587 971.963 76.1974L971.641 78.1714ZM980.537 79.615C981.522 79.7744 982.506 79.9334 983.489 80.092L983.807 78.1176C982.825 77.959 981.841 77.8 980.856 77.6406L980.537 79.615ZM989.373 81.0395C990.352 81.1967 991.329 81.3535 992.305 81.5099L992.622 79.535C991.646 79.3787 990.669 79.2219 989.69 79.0648L989.373 81.0395ZM998.174 82.4474C999.173 82.6066 1000.17 82.7653 1001.17 82.9235L1001.48 80.9483C1000.48 80.7901 999.487 80.6314 998.488 80.4723L998.174 82.4474ZM1007.13 83.8676C1008.12 84.024 1009.11 84.18 1010.1 84.3355L1010.41 82.3598C1009.42 82.2043 1008.43 82.0484 1007.44 81.8921L1007.13 83.8676ZM1016.01 85.2625C1017 85.4161 1017.98 85.5691 1018.96 85.7216L1019.26 83.7454C1018.28 83.5929 1017.3 83.4399 1016.32 83.2865L1016.01 85.2625ZM1024.82 86.6305C1025.79 86.7809 1026.77 86.9308 1027.74 87.0801L1028.04 85.1034C1027.07 84.9541 1026.1 84.8042 1025.13 84.6539L1024.82 86.6305ZM1033.71 87.9941C1034.71 88.1462 1035.71 88.2978 1036.7 88.4487L1037 86.4713C1036.01 86.3204 1035.01 86.169 1034.01 86.0169L1033.71 87.9941ZM1042.65 89.3467C1043.64 89.4951 1044.63 89.6429 1045.61 89.79L1045.91 87.8119C1044.92 87.6649 1043.94 87.5172 1042.95 87.3689L1042.65 89.3467ZM1051.5 90.6648C1052.48 90.8093 1053.46 90.9531 1054.43 91.0962L1054.72 89.1174C1053.75 88.9744 1052.77 88.8307 1051.8 88.6863L1051.5 90.6648ZM1060.29 91.951C1061.3 92.0971 1062.3 92.2424 1063.31 92.387L1063.59 90.4074C1062.59 90.263 1061.59 90.1177 1060.58 89.9718L1060.29 91.951ZM1069.3 93.2446C1070.3 93.3859 1071.29 93.5264 1072.28 93.6661L1072.56 91.6857C1071.57 91.5461 1070.58 91.4057 1069.59 91.2644L1069.3 93.2446ZM1078.2 94.4943C1079.19 94.6307 1080.17 94.7662 1081.15 94.9008L1081.42 92.9195C1080.44 92.785 1079.46 92.6496 1078.48 92.5133L1078.2 94.4943ZM1086.99 95.6982C1087.98 95.8315 1088.96 95.9638 1089.94 96.0952L1090.2 94.1129C1089.22 93.9816 1088.24 93.8494 1087.26 93.7162L1086.99 95.6982ZM1095.98 96.8968C1096.98 97.0284 1097.98 97.159 1098.98 97.2885L1099.24 95.3051C1098.24 95.1757 1097.24 95.0453 1096.24 94.9138L1095.98 96.8968ZM1104.93 98.0529C1105.92 98.1782 1106.9 98.3025 1107.89 98.4256L1108.13 96.4411C1107.15 96.3182 1106.17 96.1941 1105.18 96.0689L1104.93 98.0529ZM1113.74 99.1512C1114.71 99.27 1115.68 99.3876 1116.65 99.5041L1116.89 97.5185C1115.92 97.4021 1114.95 97.2846 1113.99 97.166L1113.74 99.1512ZM1122.71 100.225C1123.72 100.343 1124.73 100.46 1125.73 100.575L1125.96 98.5883C1124.96 98.473 1123.95 98.3564 1122.94 98.2385L1122.71 100.225ZM1131.7 101.252C1132.69 101.362 1133.68 101.47 1134.66 101.578L1134.88 99.5896C1133.9 99.4824 1132.91 99.3738 1131.92 99.2639L1131.7 101.252ZM1140.52 102.205C1141.49 102.307 1142.46 102.407 1143.42 102.506L1143.62 100.517C1142.66 100.418 1141.7 100.318 1140.73 100.216L1140.52 102.205ZM1149.52 103.118C1150.53 103.217 1151.54 103.314 1152.55 103.41L1152.74 101.419C1151.73 101.323 1150.73 101.226 1149.72 101.127L1149.52 103.118ZM1158.53 103.963C1159.51 104.052 1160.5 104.139 1161.48 104.224L1161.65 102.231C1160.67 102.146 1159.69 102.06 1158.71 101.971L1158.53 103.963ZM1167.31 104.714C1168.32 104.795 1169.31 104.875 1170.31 104.952L1170.46 102.958C1169.47 102.881 1168.47 102.802 1167.47 102.721L1167.31 104.714ZM1176.43 105.407C1177.44 105.479 1178.45 105.548 1179.45 105.615L1179.58 103.62C1178.58 103.553 1177.58 103.483 1176.57 103.412L1176.43 105.407ZM1185.39 105.991C1186.37 106.049 1187.34 106.105 1188.31 106.159L1188.42 104.162C1187.46 104.109 1186.48 104.053 1185.51 103.995L1185.39 105.991ZM1194.26 106.462C1195.29 106.51 1196.32 106.555 1197.35 106.597L1197.43 104.599C1196.41 104.557 1195.38 104.512 1194.35 104.464L1194.26 106.462ZM1203.4 106.817C1204.4 106.848 1205.39 106.876 1206.37 106.901L1206.42 104.902C1205.44 104.877 1204.46 104.849 1203.47 104.818L1203.4 106.817ZM1212.19 107.015C1213.21 107.029 1214.23 107.04 1215.23 107.046L1215.24 105.046C1214.24 105.04 1213.24 105.029 1212.22 105.015L1212.19 107.015ZM1221.4 107.044C1222.41 107.036 1223.41 107.024 1224.4 107.008L1224.37 105.008C1223.38 105.024 1222.39 105.036 1221.38 105.044L1221.4 107.044ZM1230.26 106.865C1231.24 106.832 1232.21 106.795 1233.17 106.754L1233.09 104.756C1232.13 104.797 1231.16 104.833 1230.19 104.866L1230.26 106.865ZM1239.4 106.419C1240.41 106.352 1241.41 106.28 1242.41 106.203L1242.25 104.209C1241.27 104.286 1240.27 104.357 1239.27 104.423L1239.4 106.419ZM1248.21 105.673C1248.68 105.624 1249.15 105.573 1249.61 105.52L1249.39 103.533C1248.93 103.585 1248.46 103.635 1248 103.684L1248.21 105.673Z" fill="#4CBBDE"/>
</g>
<defs>
<clipPath id="clip0_497_1332">
<rect width="1452" height="138" fill="white" transform="translate(-163)"/>
</clipPath>
</defs>
</svg>
