<svg width="40" height="40" viewBox="0 0 40 40" fill="none" xmlns="http://www.w3.org/2000/svg">
<circle cx="20" cy="20" r="20" fill="#EDDD2E"/>
<path d="M16.8178 14.9215C16.9062 15.036 17.2037 15.6986 17.4933 16.3939C17.8631 17.2936 18.0079 17.719 17.9677 17.8662C17.9195 18.0871 17.6701 18.4552 17.2278 18.9542C16.9142 19.3222 16.9222 19.4858 17.3083 20.0666C18.201 21.4163 19.2463 22.3652 20.5491 23.0195C21.3292 23.4204 21.5865 23.4858 21.7635 23.3631C21.8037 23.3304 22.1253 22.9623 22.471 22.5451C22.9939 21.9153 23.1305 21.7926 23.2753 21.8335C23.3637 21.8662 24.0392 22.1852 24.771 22.5533L26.0979 23.224L26.0899 23.6412C26.0658 24.6555 25.5913 25.3263 24.5459 25.8252C24.0473 26.0706 23.9508 26.087 23.1627 26.0788C22.3988 26.0788 22.2378 26.0461 21.4739 25.768C19.0453 24.8764 17.26 23.494 15.5472 21.1545C14.357 19.5431 13.9388 18.4715 14.0192 17.2773C14.0674 16.5329 14.357 15.8295 14.8475 15.2569C15.2415 14.7906 15.523 14.6761 16.1583 14.7006C16.6006 14.717 16.689 14.7415 16.8178 14.9215Z" fill="white"/>
<path fill-rule="evenodd" clip-rule="evenodd" d="M21.112 8.17312C23.0661 8.28764 25.2857 9.12198 27.0469 10.398C27.8912 11.0033 29.186 12.3203 29.7811 13.1792C30.73 14.537 31.4698 16.2712 31.8236 17.948C32.0328 18.946 32.0328 21.7026 31.8156 22.6923C30.6334 28.2219 26.114 32.1564 20.5893 32.4836C18.9569 32.5736 16.9384 32.1973 15.4346 31.5266L15.3324 31.4806C14.9479 31.3075 14.573 31.1388 14.4695 31.1012C14.3006 31.0276 13.7457 31.1503 11.1563 31.8374C9.45147 32.2955 8.03609 32.6718 8.02005 32.6718C8.0039 32.6718 8.36576 31.273 8.83221 29.5552L9.66854 26.4387L9.26647 25.5635C8.14067 23.1504 7.81088 20.7783 8.25328 18.1934C9.17804 12.762 13.794 8.50849 19.182 8.1404C19.6242 8.10768 20.0747 8.09132 20.1873 8.09949C20.2999 8.11586 20.718 8.14858 21.112 8.17312ZM18.3698 10.2263C14.2364 10.9297 10.9071 14.2835 10.1752 18.4797C10.0064 19.4531 10.0064 21.1545 10.1672 22.087C10.4004 23.3467 10.8267 24.5328 11.4217 25.5226C11.5986 25.8171 11.7434 26.0952 11.7434 26.1361C11.7434 26.177 11.5262 27.0195 11.2528 28.0174C10.9875 29.0072 10.7783 29.8334 10.7945 29.8497C10.8105 29.8743 11.671 29.6616 12.7084 29.3835C14.3408 28.9499 14.6062 28.9008 14.751 28.9908C15.2013 29.2853 16.3513 29.817 16.9304 30.0051C19.0453 30.6841 21.4096 30.6513 23.42 29.9233C26.1864 28.909 28.4703 26.635 29.4433 23.9111C29.8695 22.7169 30.0062 22.0134 30.0545 20.6883C30.159 17.6699 29.21 15.1832 27.1433 13.081C25.5993 11.5105 23.806 10.5698 21.6991 10.2181C20.7904 10.0708 19.2544 10.0708 18.3698 10.2263Z" fill="white"/>
</svg>
