<svg width="66" height="66" viewBox="0 0 66 66" fill="none" xmlns="http://www.w3.org/2000/svg">
<g clip-path="url(#clip0_470_1113)">
<path fill-rule="evenodd" clip-rule="evenodd" d="M9.03102 8.99837C16.2132 -1.56879 32.8606 6.87381 21.0568 19.6686C24.3783 23.2755 24.3385 26.7556 20.6364 30.1247C32.7811 42.642 15.563 51.0452 8.67414 41.461C1.92003 32.0513 2.4751 18.6301 9.03102 8.99837Z" stroke="#FF8743" stroke-width="2.37821" stroke-miterlimit="1.5" stroke-linecap="round" stroke-linejoin="round"/>
<path d="M23.4824 24.9085C27.5888 23.8383 29.6497 30.5847 29.8479 44.4497V61.8341" stroke="#FF8743" stroke-width="2.37821" stroke-miterlimit="1.5" stroke-linecap="round" stroke-linejoin="round"/>
<path fill-rule="evenodd" clip-rule="evenodd" d="M56.9573 8.99837C49.7751 -1.56879 33.1277 6.87381 44.9315 19.6686C41.61 23.2755 41.6498 26.7556 45.3519 30.1247C33.2072 42.642 50.4253 51.0452 57.3141 41.461C64.0682 32.0513 63.5132 18.6301 56.9573 8.99837Z" stroke="#FF8743" stroke-width="2.37821" stroke-miterlimit="1.5" stroke-linecap="round" stroke-linejoin="round"/>
<path d="M42.5078 24.9085C38.4014 23.8383 36.3405 30.5847 36.1423 44.4497V61.8341" stroke="#FF8743" stroke-width="2.37821" stroke-miterlimit="1.5" stroke-linecap="round" stroke-linejoin="round"/>
</g>
<defs>
<clipPath id="clip0_470_1113">
<rect width="65" height="65" fill="white" transform="translate(0.5 0.5)"/>
</clipPath>
</defs>
</svg>
