<svg width="66" height="66" viewBox="0 0 66 66" fill="none" xmlns="http://www.w3.org/2000/svg">
<g clip-path="url(#clip0_470_1114)">
<path fill-rule="evenodd" clip-rule="evenodd" d="M33.0001 9.07571V54.9226C29.0124 63.5676 18.8513 61.6185 17.7771 53.465C11.8833 54.2418 9.20527 48.5364 10.541 42.9188C3.62584 37.4523 3.03515 30.8783 10.541 22.8874C11.9686 14.0051 15.8564 8.10883 26.0061 5.67458C30.0166 4.71258 33.0001 6.90715 33.0001 9.07571Z" stroke="#FF8743" stroke-width="2.4375" stroke-miterlimit="1.5" stroke-linecap="round" stroke-linejoin="round"/>
<path fill-rule="evenodd" clip-rule="evenodd" d="M33 9.07571V54.9226C36.9877 63.5676 47.1489 61.6185 48.223 53.465C54.1169 54.2418 56.7949 48.5364 55.4591 42.9188C62.3743 37.4523 62.965 30.8783 55.4591 22.8874C54.0316 14.0051 50.1438 8.10883 39.994 5.67458C35.9835 4.71258 33 6.90715 33 9.07571Z" stroke="#FF8743" stroke-width="2.4375" stroke-miterlimit="1.5" stroke-linecap="round" stroke-linejoin="round"/>
<path d="M10.541 42.9192C12.2107 40.0763 14.2501 38.8713 17.6317 38.9639C19.9278 39.0265 21.3481 37.2991 21.5025 34.4399" stroke="#FF8743" stroke-width="2.4375" stroke-miterlimit="1.5" stroke-linecap="round" stroke-linejoin="round"/>
<path d="M23.3359 22.3164C23.6951 25.0358 25.225 26.7787 28.2199 27.3019" stroke="#FF8743" stroke-width="2.4375" stroke-miterlimit="1.5" stroke-linecap="round" stroke-linejoin="round"/>
<path d="M24.5505 25.3618L21.502 28.2397" stroke="#FF8743" stroke-width="2.4375" stroke-miterlimit="1.5" stroke-linecap="round" stroke-linejoin="round"/>
<path d="M10.541 32.4638C12.2383 31.6935 13.7658 31.7 15.1227 32.4849" stroke="#FF8743" stroke-width="2.4375" stroke-miterlimit="1.5" stroke-linecap="round" stroke-linejoin="round"/>
<path d="M33.6562 38.451C35.8021 37.1851 37.7253 37.4126 39.4868 38.7329" stroke="#FF8743" stroke-width="2.4375" stroke-miterlimit="1.5" stroke-linecap="round" stroke-linejoin="round"/>
<path d="M51.7699 32.1094C49.9109 32.5628 48.0373 30.963 46.9355 29.7109" stroke="#FF8743" stroke-width="2.4375" stroke-miterlimit="1.5" stroke-linecap="round" stroke-linejoin="round"/>
<path d="M33.6562 25.3758C36.2879 25.0882 38.3712 23.1788 38.7636 21.0127" stroke="#FF8743" stroke-width="2.4375" stroke-miterlimit="1.5" stroke-linecap="round" stroke-linejoin="round"/>
<path d="M10.541 23.0696C12.2521 22.0531 14.3874 21.5811 16.9565 21.6672" stroke="#FF8743" stroke-width="2.4375" stroke-miterlimit="1.5" stroke-linecap="round" stroke-linejoin="round"/>
<path d="M55.685 23.0696C53.9747 22.0531 51.8395 21.5811 49.2695 21.6672" stroke="#FF8743" stroke-width="2.4375" stroke-miterlimit="1.5" stroke-linecap="round" stroke-linejoin="round"/>
<path d="M42.4783 11.4316C41.1019 11.5633 39.5354 12.8365 39.4883 14.5378" stroke="#FF8743" stroke-width="2.4375" stroke-miterlimit="1.5" stroke-linecap="round" stroke-linejoin="round"/>
<path d="M17.7417 53.5708C17.4947 50.6019 18.7273 48.3041 21.7254 46.3403" stroke="#FF8743" stroke-width="2.4375" stroke-miterlimit="1.5" stroke-linecap="round" stroke-linejoin="round"/>
<path d="M48.22 53.5708C48.467 50.6019 47.2345 48.3041 44.2363 46.3403" stroke="#FF8743" stroke-width="2.4375" stroke-miterlimit="1.5" stroke-linecap="round" stroke-linejoin="round"/>
<path d="M24.998 49.9556C26.9537 50.3561 28.1042 51.4189 28.2204 53.3331" stroke="#FF8743" stroke-width="2.4375" stroke-miterlimit="1.5" stroke-linecap="round" stroke-linejoin="round"/>
<path d="M55.3575 42.9186C53.9413 39.6207 51.5598 38.5905 48.3789 38.679" stroke="#FF8743" stroke-width="2.4375" stroke-miterlimit="1.5" stroke-linecap="round" stroke-linejoin="round"/>
</g>
<defs>
<clipPath id="clip0_470_1114">
<rect width="65" height="65" fill="white" transform="translate(0.5 0.5)"/>
</clipPath>
</defs>
</svg>
