<svg width="80" height="80" viewBox="0 0 80 80" fill="none" xmlns="http://www.w3.org/2000/svg">
<mask id="path-1-outside-1_540_1867" maskUnits="userSpaceOnUse" x="8.64478" y="1.4375" width="62" height="74" fill="black">
<path d="M32.4897 2.62419C29.5878 3.24402 26.714 5.44157 25.4744 8.00539C24.3756 10.2875 24.2347 11.9779 24.3474 22.7403C24.4601 31.5305 24.5446 33.1364 24.9672 34.4606C26.1787 38.2077 28.5453 41.335 31.6163 43.2227L33.1095 44.1524L31.1655 44.6595C22.9669 46.9134 15.2191 53.8724 11.9228 61.9864C10.7676 64.8038 9.9506 68.2692 9.75338 71.2274C9.55616 73.7349 9.58434 73.8476 10.2042 74.1857C11.2184 74.721 11.5002 74.1012 11.8664 70.6921C12.7398 62.8035 16.4588 56.0981 22.6006 51.3086C24.1502 50.1253 27.3902 48.1531 27.5311 48.3221C27.6156 48.3785 27.4747 49.4209 27.2493 50.6324C27.0239 51.8439 26.8267 53.2807 26.8267 53.8442C26.8267 55.5346 26.5732 56.0699 25.7279 56.239C24.2911 56.5207 22.2626 58.183 21.361 59.817C20.5158 61.3384 20.4876 61.4793 20.3749 65.6772C20.2622 71.1148 20.4313 72.2417 21.4737 73.3123C22.657 74.4674 24.3192 74.6928 24.6855 73.7349C24.9391 73.0869 24.601 72.608 23.6431 72.1854L22.7415 71.7909L22.657 67.0014C22.6288 64.353 22.657 61.9301 22.7415 61.592C22.9387 60.7468 24.4601 59.0564 25.4462 58.5211C26.4323 58.0139 28.5453 58.0139 29.7286 58.5211C30.9401 59 32.4051 60.7186 32.6024 61.8456C32.6869 62.3527 32.7432 64.8038 32.6869 67.2831L32.6024 71.7909L31.7008 72.1854C30.7429 72.608 30.4048 73.0869 30.6584 73.7349C31.0246 74.6928 32.6869 74.4674 33.8702 73.3123C34.9126 72.2417 35.0816 71.0866 34.969 65.8181C34.8563 61.9019 34.7999 61.5357 34.0392 60.0143C33.1658 58.2111 31.7008 56.9433 29.8695 56.3798C28.8552 56.0699 28.7989 56.0136 28.7989 54.9148C28.8271 52.2946 29.8977 47.1107 30.433 47.1388C30.5457 47.167 32.4615 49.7026 34.7154 52.7736C36.9693 55.8727 38.9696 58.4647 39.1387 58.5211C39.3359 58.6056 39.674 58.6056 39.8712 58.5492C40.0402 58.4647 42.0406 55.8727 44.2945 52.7736C46.5484 49.7026 48.4642 47.167 48.5487 47.1388C48.8305 47.1388 49.8166 49.6181 50.3237 51.5058C50.8872 53.7597 51.5633 57.9858 51.7887 60.944L51.9578 63.3388L50.9717 63.705C49.6475 64.184 48.0698 65.9871 47.6753 67.4522C47.1119 69.5088 47.7599 71.481 49.4785 73.0024C53.0323 76.1069 58.5059 73.2685 58.5059 68.8045C58.5059 66.5472 57.1847 64.851 55.1978 63.8177C53.9299 63.1979 53.8736 63.1134 53.8736 61.9301C53.8736 59.9016 53.0002 53.9287 52.324 51.224C51.9859 49.8153 51.7042 48.6602 51.7324 48.632C51.7605 48.5757 52.6058 49.0265 53.5637 49.6181C57.9306 52.1819 61.9031 56.5207 64.2979 61.3666C65.932 64.6911 66.8054 67.7339 67.0308 71.1711C67.228 73.904 67.5379 74.6365 68.4676 74.3547C69.3128 74.073 69.4255 73.4532 69.0874 70.4949C68.2986 63.3669 65.1149 56.9151 59.9028 51.9284C56.3529 48.5475 52.0423 45.9555 47.9007 44.7441C46.9992 44.4905 46.2667 44.1806 46.2667 44.0679C46.2667 43.9552 46.6893 43.6735 47.1964 43.4199C48.6051 42.7437 51.0562 40.4053 52.2395 38.5458C52.8312 37.6443 53.62 35.982 53.9581 34.8832C54.5498 32.9956 54.5779 32.4884 54.5779 21.7824C54.5779 11.837 54.5216 10.5129 54.0708 9.24504C53.0847 6.45583 50.7463 4.08923 47.9007 2.99045C46.9147 2.62419 45.3933 2.5115 40.2093 2.45515C36.6594 2.3988 33.1658 2.48332 32.4897 2.62419ZM47.8162 5.27253C50.7181 6.5967 52.4649 9.30139 52.4649 12.4005V14.1755H50.9999C49.563 14.1755 49.4785 14.1191 48.1825 12.6541C46.4639 10.6819 44.8016 9.89304 42.3223 9.89304C39.843 9.89304 38.1808 10.6819 36.4622 12.6541L35.138 14.1755H26.545V12.4005C26.545 9.30139 28.2918 6.5967 31.1937 5.27253C32.546 4.62453 32.8559 4.59636 39.5049 4.59636C46.154 4.59636 46.4639 4.62453 47.8162 5.27253ZM44.8016 12.4569C46.8301 13.4993 47.9571 15.3306 47.9571 17.5563C47.9571 20.74 45.506 23.1911 42.3223 23.1911C36.2931 23.1911 34.5182 15.2461 39.9275 12.4005C41.1108 11.7525 43.5056 11.8089 44.8016 12.4569ZM34.7154 18.6833H26.545V16.4294H34.7154V18.6833ZM52.4649 18.6833H49.9293V16.4294H52.4649V18.6833ZM36.4622 22.4586C38.1808 24.4307 39.843 25.2196 42.3223 25.2196C44.8016 25.2196 46.4639 24.4307 48.1825 22.4586C49.4785 20.9935 49.5348 20.9372 50.9999 20.9372H52.4931L52.324 33.7563L51.2816 35.9538C49.5348 39.5601 46.5766 42.0394 42.7449 43.0536C36.1804 44.7441 29.137 40.7434 27.0803 34.1507C26.6295 32.7138 26.545 31.5305 26.545 26.6846V20.9372H35.138L36.4622 22.4586ZM44.5762 46.0401C45.4214 46.2091 46.1821 46.4063 46.2385 46.4627C46.3512 46.5754 39.7303 55.591 39.5049 55.591C39.2232 55.591 32.6587 46.5472 32.8277 46.3781C32.9123 46.2936 34.0392 46.0682 35.3352 45.8428C37.899 45.4202 42.1251 45.5048 44.5762 46.0401ZM54.7188 65.8744C55.1696 66.128 55.7331 66.6915 55.9866 67.1422C57.1981 69.5088 55.6204 72.2135 53.0284 72.2135C50.4364 72.2135 48.8586 69.5088 50.0701 67.1422C50.8872 65.5927 53.0284 65.001 54.7188 65.8744Z"/>
<path d="M41.2235 14.5417C39.2795 15.2179 38.4625 17.8099 39.7022 19.4721C40.8009 20.9654 43.4774 21.1626 44.6889 19.8384C46.9428 17.3309 44.4072 13.4429 41.2235 14.5417ZM43.3366 17.1619C43.4493 17.6408 43.3647 18.0353 43.083 18.317C42.435 18.965 41.1954 18.5706 41.1954 17.7535C41.1954 16.3448 42.9985 15.8377 43.3366 17.1619Z"/>
</mask>
<path d="M32.4897 2.62419C29.5878 3.24402 26.714 5.44157 25.4744 8.00539C24.3756 10.2875 24.2347 11.9779 24.3474 22.7403C24.4601 31.5305 24.5446 33.1364 24.9672 34.4606C26.1787 38.2077 28.5453 41.335 31.6163 43.2227L33.1095 44.1524L31.1655 44.6595C22.9669 46.9134 15.2191 53.8724 11.9228 61.9864C10.7676 64.8038 9.9506 68.2692 9.75338 71.2274C9.55616 73.7349 9.58434 73.8476 10.2042 74.1857C11.2184 74.721 11.5002 74.1012 11.8664 70.6921C12.7398 62.8035 16.4588 56.0981 22.6006 51.3086C24.1502 50.1253 27.3902 48.1531 27.5311 48.3221C27.6156 48.3785 27.4747 49.4209 27.2493 50.6324C27.0239 51.8439 26.8267 53.2807 26.8267 53.8442C26.8267 55.5346 26.5732 56.0699 25.7279 56.239C24.2911 56.5207 22.2626 58.183 21.361 59.817C20.5158 61.3384 20.4876 61.4793 20.3749 65.6772C20.2622 71.1148 20.4313 72.2417 21.4737 73.3123C22.657 74.4674 24.3192 74.6928 24.6855 73.7349C24.9391 73.0869 24.601 72.608 23.6431 72.1854L22.7415 71.7909L22.657 67.0014C22.6288 64.353 22.657 61.9301 22.7415 61.592C22.9387 60.7468 24.4601 59.0564 25.4462 58.5211C26.4323 58.0139 28.5453 58.0139 29.7286 58.5211C30.9401 59 32.4051 60.7186 32.6024 61.8456C32.6869 62.3527 32.7432 64.8038 32.6869 67.2831L32.6024 71.7909L31.7008 72.1854C30.7429 72.608 30.4048 73.0869 30.6584 73.7349C31.0246 74.6928 32.6869 74.4674 33.8702 73.3123C34.9126 72.2417 35.0816 71.0866 34.969 65.8181C34.8563 61.9019 34.7999 61.5357 34.0392 60.0143C33.1658 58.2111 31.7008 56.9433 29.8695 56.3798C28.8552 56.0699 28.7989 56.0136 28.7989 54.9148C28.8271 52.2946 29.8977 47.1107 30.433 47.1388C30.5457 47.167 32.4615 49.7026 34.7154 52.7736C36.9693 55.8727 38.9696 58.4647 39.1387 58.5211C39.3359 58.6056 39.674 58.6056 39.8712 58.5492C40.0402 58.4647 42.0406 55.8727 44.2945 52.7736C46.5484 49.7026 48.4642 47.167 48.5487 47.1388C48.8305 47.1388 49.8166 49.6181 50.3237 51.5058C50.8872 53.7597 51.5633 57.9858 51.7887 60.944L51.9578 63.3388L50.9717 63.705C49.6475 64.184 48.0698 65.9871 47.6753 67.4522C47.1119 69.5088 47.7599 71.481 49.4785 73.0024C53.0323 76.1069 58.5059 73.2685 58.5059 68.8045C58.5059 66.5472 57.1847 64.851 55.1978 63.8177C53.9299 63.1979 53.8736 63.1134 53.8736 61.9301C53.8736 59.9016 53.0002 53.9287 52.324 51.224C51.9859 49.8153 51.7042 48.6602 51.7324 48.632C51.7605 48.5757 52.6058 49.0265 53.5637 49.6181C57.9306 52.1819 61.9031 56.5207 64.2979 61.3666C65.932 64.6911 66.8054 67.7339 67.0308 71.1711C67.228 73.904 67.5379 74.6365 68.4676 74.3547C69.3128 74.073 69.4255 73.4532 69.0874 70.4949C68.2986 63.3669 65.1149 56.9151 59.9028 51.9284C56.3529 48.5475 52.0423 45.9555 47.9007 44.7441C46.9992 44.4905 46.2667 44.1806 46.2667 44.0679C46.2667 43.9552 46.6893 43.6735 47.1964 43.4199C48.6051 42.7437 51.0562 40.4053 52.2395 38.5458C52.8312 37.6443 53.62 35.982 53.9581 34.8832C54.5498 32.9956 54.5779 32.4884 54.5779 21.7824C54.5779 11.837 54.5216 10.5129 54.0708 9.24504C53.0847 6.45583 50.7463 4.08923 47.9007 2.99045C46.9147 2.62419 45.3933 2.5115 40.2093 2.45515C36.6594 2.3988 33.1658 2.48332 32.4897 2.62419ZM47.8162 5.27253C50.7181 6.5967 52.4649 9.30139 52.4649 12.4005V14.1755H50.9999C49.563 14.1755 49.4785 14.1191 48.1825 12.6541C46.4639 10.6819 44.8016 9.89304 42.3223 9.89304C39.843 9.89304 38.1808 10.6819 36.4622 12.6541L35.138 14.1755H26.545V12.4005C26.545 9.30139 28.2918 6.5967 31.1937 5.27253C32.546 4.62453 32.8559 4.59636 39.5049 4.59636C46.154 4.59636 46.4639 4.62453 47.8162 5.27253ZM44.8016 12.4569C46.8301 13.4993 47.9571 15.3306 47.9571 17.5563C47.9571 20.74 45.506 23.1911 42.3223 23.1911C36.2931 23.1911 34.5182 15.2461 39.9275 12.4005C41.1108 11.7525 43.5056 11.8089 44.8016 12.4569ZM34.7154 18.6833H26.545V16.4294H34.7154V18.6833ZM52.4649 18.6833H49.9293V16.4294H52.4649V18.6833ZM36.4622 22.4586C38.1808 24.4307 39.843 25.2196 42.3223 25.2196C44.8016 25.2196 46.4639 24.4307 48.1825 22.4586C49.4785 20.9935 49.5348 20.9372 50.9999 20.9372H52.4931L52.324 33.7563L51.2816 35.9538C49.5348 39.5601 46.5766 42.0394 42.7449 43.0536C36.1804 44.7441 29.137 40.7434 27.0803 34.1507C26.6295 32.7138 26.545 31.5305 26.545 26.6846V20.9372H35.138L36.4622 22.4586ZM44.5762 46.0401C45.4214 46.2091 46.1821 46.4063 46.2385 46.4627C46.3512 46.5754 39.7303 55.591 39.5049 55.591C39.2232 55.591 32.6587 46.5472 32.8277 46.3781C32.9123 46.2936 34.0392 46.0682 35.3352 45.8428C37.899 45.4202 42.1251 45.5048 44.5762 46.0401ZM54.7188 65.8744C55.1696 66.128 55.7331 66.6915 55.9866 67.1422C57.1981 69.5088 55.6204 72.2135 53.0284 72.2135C50.4364 72.2135 48.8586 69.5088 50.0701 67.1422C50.8872 65.5927 53.0284 65.001 54.7188 65.8744Z" fill="#FF8743"/>
<path d="M41.2235 14.5417C39.2795 15.2179 38.4625 17.8099 39.7022 19.4721C40.8009 20.9654 43.4774 21.1626 44.6889 19.8384C46.9428 17.3309 44.4072 13.4429 41.2235 14.5417ZM43.3366 17.1619C43.4493 17.6408 43.3647 18.0353 43.083 18.317C42.435 18.965 41.1954 18.5706 41.1954 17.7535C41.1954 16.3448 42.9985 15.8377 43.3366 17.1619Z" fill="#FF8743"/>
<path d="M32.4897 2.62419C29.5878 3.24402 26.714 5.44157 25.4744 8.00539C24.3756 10.2875 24.2347 11.9779 24.3474 22.7403C24.4601 31.5305 24.5446 33.1364 24.9672 34.4606C26.1787 38.2077 28.5453 41.335 31.6163 43.2227L33.1095 44.1524L31.1655 44.6595C22.9669 46.9134 15.2191 53.8724 11.9228 61.9864C10.7676 64.8038 9.9506 68.2692 9.75338 71.2274C9.55616 73.7349 9.58434 73.8476 10.2042 74.1857C11.2184 74.721 11.5002 74.1012 11.8664 70.6921C12.7398 62.8035 16.4588 56.0981 22.6006 51.3086C24.1502 50.1253 27.3902 48.1531 27.5311 48.3221C27.6156 48.3785 27.4747 49.4209 27.2493 50.6324C27.0239 51.8439 26.8267 53.2807 26.8267 53.8442C26.8267 55.5346 26.5732 56.0699 25.7279 56.239C24.2911 56.5207 22.2626 58.183 21.361 59.817C20.5158 61.3384 20.4876 61.4793 20.3749 65.6772C20.2622 71.1148 20.4313 72.2417 21.4737 73.3123C22.657 74.4674 24.3192 74.6928 24.6855 73.7349C24.9391 73.0869 24.601 72.608 23.6431 72.1854L22.7415 71.7909L22.657 67.0014C22.6288 64.353 22.657 61.9301 22.7415 61.592C22.9387 60.7468 24.4601 59.0564 25.4462 58.5211C26.4323 58.0139 28.5453 58.0139 29.7286 58.5211C30.9401 59 32.4051 60.7186 32.6024 61.8456C32.6869 62.3527 32.7432 64.8038 32.6869 67.2831L32.6024 71.7909L31.7008 72.1854C30.7429 72.608 30.4048 73.0869 30.6584 73.7349C31.0246 74.6928 32.6869 74.4674 33.8702 73.3123C34.9126 72.2417 35.0816 71.0866 34.969 65.8181C34.8563 61.9019 34.7999 61.5357 34.0392 60.0143C33.1658 58.2111 31.7008 56.9433 29.8695 56.3798C28.8552 56.0699 28.7989 56.0136 28.7989 54.9148C28.8271 52.2946 29.8977 47.1107 30.433 47.1388C30.5457 47.167 32.4615 49.7026 34.7154 52.7736C36.9693 55.8727 38.9696 58.4647 39.1387 58.5211C39.3359 58.6056 39.674 58.6056 39.8712 58.5492C40.0402 58.4647 42.0406 55.8727 44.2945 52.7736C46.5484 49.7026 48.4642 47.167 48.5487 47.1388C48.8305 47.1388 49.8166 49.6181 50.3237 51.5058C50.8872 53.7597 51.5633 57.9858 51.7887 60.944L51.9578 63.3388L50.9717 63.705C49.6475 64.184 48.0698 65.9871 47.6753 67.4522C47.1119 69.5088 47.7599 71.481 49.4785 73.0024C53.0323 76.1069 58.5059 73.2685 58.5059 68.8045C58.5059 66.5472 57.1847 64.851 55.1978 63.8177C53.9299 63.1979 53.8736 63.1134 53.8736 61.9301C53.8736 59.9016 53.0002 53.9287 52.324 51.224C51.9859 49.8153 51.7042 48.6602 51.7324 48.632C51.7605 48.5757 52.6058 49.0265 53.5637 49.6181C57.9306 52.1819 61.9031 56.5207 64.2979 61.3666C65.932 64.6911 66.8054 67.7339 67.0308 71.1711C67.228 73.904 67.5379 74.6365 68.4676 74.3547C69.3128 74.073 69.4255 73.4532 69.0874 70.4949C68.2986 63.3669 65.1149 56.9151 59.9028 51.9284C56.3529 48.5475 52.0423 45.9555 47.9007 44.7441C46.9992 44.4905 46.2667 44.1806 46.2667 44.0679C46.2667 43.9552 46.6893 43.6735 47.1964 43.4199C48.6051 42.7437 51.0562 40.4053 52.2395 38.5458C52.8312 37.6443 53.62 35.982 53.9581 34.8832C54.5498 32.9956 54.5779 32.4884 54.5779 21.7824C54.5779 11.837 54.5216 10.5129 54.0708 9.24504C53.0847 6.45583 50.7463 4.08923 47.9007 2.99045C46.9147 2.62419 45.3933 2.5115 40.2093 2.45515C36.6594 2.3988 33.1658 2.48332 32.4897 2.62419ZM47.8162 5.27253C50.7181 6.5967 52.4649 9.30139 52.4649 12.4005V14.1755H50.9999C49.563 14.1755 49.4785 14.1191 48.1825 12.6541C46.4639 10.6819 44.8016 9.89304 42.3223 9.89304C39.843 9.89304 38.1808 10.6819 36.4622 12.6541L35.138 14.1755H26.545V12.4005C26.545 9.30139 28.2918 6.5967 31.1937 5.27253C32.546 4.62453 32.8559 4.59636 39.5049 4.59636C46.154 4.59636 46.4639 4.62453 47.8162 5.27253ZM44.8016 12.4569C46.8301 13.4993 47.9571 15.3306 47.9571 17.5563C47.9571 20.74 45.506 23.1911 42.3223 23.1911C36.2931 23.1911 34.5182 15.2461 39.9275 12.4005C41.1108 11.7525 43.5056 11.8089 44.8016 12.4569ZM34.7154 18.6833H26.545V16.4294H34.7154V18.6833ZM52.4649 18.6833H49.9293V16.4294H52.4649V18.6833ZM36.4622 22.4586C38.1808 24.4307 39.843 25.2196 42.3223 25.2196C44.8016 25.2196 46.4639 24.4307 48.1825 22.4586C49.4785 20.9935 49.5348 20.9372 50.9999 20.9372H52.4931L52.324 33.7563L51.2816 35.9538C49.5348 39.5601 46.5766 42.0394 42.7449 43.0536C36.1804 44.7441 29.137 40.7434 27.0803 34.1507C26.6295 32.7138 26.545 31.5305 26.545 26.6846V20.9372H35.138L36.4622 22.4586ZM44.5762 46.0401C45.4214 46.2091 46.1821 46.4063 46.2385 46.4627C46.3512 46.5754 39.7303 55.591 39.5049 55.591C39.2232 55.591 32.6587 46.5472 32.8277 46.3781C32.9123 46.2936 34.0392 46.0682 35.3352 45.8428C37.899 45.4202 42.1251 45.5048 44.5762 46.0401ZM54.7188 65.8744C55.1696 66.128 55.7331 66.6915 55.9866 67.1422C57.1981 69.5088 55.6204 72.2135 53.0284 72.2135C50.4364 72.2135 48.8586 69.5088 50.0701 67.1422C50.8872 65.5927 53.0284 65.001 54.7188 65.8744Z" stroke="#FF8743" mask="url(#path-1-outside-1_540_1867)"/>
<path d="M41.2235 14.5417C39.2795 15.2179 38.4625 17.8099 39.7022 19.4721C40.8009 20.9654 43.4774 21.1626 44.6889 19.8384C46.9428 17.3309 44.4072 13.4429 41.2235 14.5417ZM43.3366 17.1619C43.4493 17.6408 43.3647 18.0353 43.083 18.317C42.435 18.965 41.1954 18.5706 41.1954 17.7535C41.1954 16.3448 42.9985 15.8377 43.3366 17.1619Z" stroke="#FF8743" mask="url(#path-1-outside-1_540_1867)"/>
</svg>
