<svg width="66" height="66" viewBox="0 0 66 66" fill="none" xmlns="http://www.w3.org/2000/svg">
<g clip-path="url(#clip0_470_1116)">
<path fill-rule="evenodd" clip-rule="evenodd" d="M23.9635 43.7362C21.7535 49.3579 19.7873 55.5833 17.5041 61.7461C15.2698 65.5803 9.07852 62.7357 10.3866 58.5774C15.1723 41.9284 21.9078 28.2265 28.9521 17.3341C33.9246 9.63322 40.1078 4.05135 49.1265 2.40279C54.6109 1.40017 56.1547 7.82135 51.3609 8.78904C42.8947 10.4961 38.7753 14.83 35.6796 20.1559C37.199 21.1772 47.8916 29.6589 45.4866 35.972C45.0966 36.9933 44.1866 37.7254 43.0979 37.8042L30.3579 39.7485L39.7096 58.5774C41.7246 63.3841 34.4448 65.495 32.7873 62.5293L23.9635 43.7362ZM36.3378 29.2323L33.6403 32.9999L38.8971 32.1841L36.3378 29.2323Z" stroke="#FF8743" stroke-width="2.4375" stroke-miterlimit="1.5" stroke-linecap="round" stroke-linejoin="round"/>
<path d="M45.6896 22.5982C48.7716 22.5982 51.2701 20.0998 51.2701 17.0178C51.2701 13.9359 48.7716 11.4375 45.6896 11.4375C42.6077 11.4375 40.1094 13.9359 40.1094 17.0178C40.1094 20.0998 42.6077 22.5982 45.6896 22.5982Z" stroke="#FF8743" stroke-width="2.4358" stroke-miterlimit="1.5" stroke-linecap="round" stroke-linejoin="round"/>
</g>
<defs>
<clipPath id="clip0_470_1116">
<rect width="65" height="65" fill="white" transform="translate(0.5 0.5)"/>
</clipPath>
</defs>
</svg>
