<svg width="66" height="66" viewBox="0 0 66 66" fill="none" xmlns="http://www.w3.org/2000/svg">
<g clip-path="url(#clip0_470_1023)">
<path d="M16.7425 5.72363C5.54055 7.72076 2.82355 16.9963 12.9107 37.2543" stroke="#FF8743" stroke-width="2.4375" stroke-miterlimit="1.5" stroke-linecap="round" stroke-linejoin="round"/>
<path d="M20.0991 9.0825C21.9542 9.0825 23.458 7.57868 23.458 5.72362C23.458 3.86857 21.9542 2.36475 20.0991 2.36475C18.2441 2.36475 16.7402 3.86857 16.7402 5.72362C16.7402 7.57868 18.2441 9.0825 20.0991 9.0825Z" stroke="#FF8743" stroke-width="2.4375" stroke-miterlimit="1.5" stroke-linecap="round" stroke-linejoin="round"/>
<path d="M36.2628 10.8423C45.0906 18.0215 42.9683 27.4506 24.3223 40.2751" stroke="#FF8743" stroke-width="2.4375" stroke-miterlimit="1.5" stroke-linecap="round" stroke-linejoin="round"/>
<path fill-rule="evenodd" clip-rule="evenodd" d="M34.9548 6.27625C33.3339 5.37682 31.2872 5.96344 30.3886 7.58438C29.4891 9.20613 30.0757 11.252 31.6967 12.1506C33.3184 13.0501 35.3643 12.4634 36.2629 10.8425C37.1624 9.22075 36.5757 7.17488 34.9548 6.27625Z" stroke="#FF8743" stroke-width="2.4375" stroke-miterlimit="1.5" stroke-linecap="round" stroke-linejoin="round"/>
<path fill-rule="evenodd" clip-rule="evenodd" d="M11.6992 38.5627L15.0077 35.3281C17.1324 38.4359 19.6544 39.1477 23.0442 37.7518L24.622 42.7105C19.721 42.7836 19.0239 44.2087 18.3146 47.0931L13.9832 46.0515C14.521 42.704 14.5267 40.5549 11.6992 38.5627Z" stroke="#FF8743" stroke-width="2.4375" stroke-miterlimit="1.5" stroke-linecap="round" stroke-linejoin="round"/>
<path d="M15.6377 46.449C5.57406 60.7644 24.3192 70.5193 31.6976 54.2815C39.4057 37.3213 65.4358 67.1011 55.4616 37.2539" stroke="#FF8743" stroke-width="2.4375" stroke-miterlimit="1.5" stroke-linecap="round" stroke-linejoin="round"/>
<path d="M52.814 37.2544C56.6215 37.2544 59.708 34.1679 59.708 30.3604C59.708 26.5529 56.6215 23.4663 52.814 23.4663C49.0065 23.4663 45.9199 26.5529 45.9199 30.3604C45.9199 34.1679 49.0065 37.2544 52.814 37.2544Z" stroke="#FF8743" stroke-width="2.4375" stroke-miterlimit="1.5" stroke-linecap="round" stroke-linejoin="round"/>
</g>
<defs>
<clipPath id="clip0_470_1023">
<rect width="65" height="65" fill="white" transform="translate(0.5 0.5)"/>
</clipPath>
</defs>
</svg>
