<svg width="66" height="66" viewBox="0 0 66 66" fill="none" xmlns="http://www.w3.org/2000/svg">
<g clip-path="url(#clip0_470_1071)">
<path fill-rule="evenodd" clip-rule="evenodd" d="M19.4787 31.6913L16.3595 22.8001C14.7849 18.3102 8.03466 20.8939 9.24122 25.7803L14 45.0593C16.5545 60.6886 36.5152 64.0093 43.324 52.215L57.3623 27.9001C59.8364 23.615 57.052 19.7776 51.8967 22.0209C54.3431 15.7224 50.5739 13.9438 46.9502 14.2339C49.2203 9.51813 43.4987 5.38738 40.1317 10.2973C40.5574 6.0837 35.4947 3.95007 31.771 10.4013L19.4787 31.6913Z" stroke="#FF8743" stroke-width="2.4375" stroke-miterlimit="1.5" stroke-linecap="round" stroke-linejoin="round"/>
<path d="M51.8972 22.0205L46.5469 31.2871" stroke="#FF8743" stroke-width="2.4375" stroke-miterlimit="1.5" stroke-linecap="round" stroke-linejoin="round"/>
<path d="M46.9504 14.2334L39.4648 27.1985" stroke="#FF8743" stroke-width="2.4375" stroke-miterlimit="1.5" stroke-linecap="round" stroke-linejoin="round"/>
<path d="M40.1516 10.3081L32.666 23.2732" stroke="#FF8743" stroke-width="2.4375" stroke-miterlimit="1.5" stroke-linecap="round" stroke-linejoin="round"/>
<path d="M43.5861 51.765C47.4779 43.6156 42.1983 36.7906 36.8269 34.9641C30.0165 32.6485 22.1369 37.192 22.4879 44.3257C22.8714 52.1054 32.2493 55.3497 36.4003 48.8644C39.7746 43.5929 32.2874 39.2671 29.8597 43.8399" stroke="#FF8743" stroke-width="2.4375" stroke-miterlimit="1.5" stroke-linecap="round" stroke-linejoin="round"/>
</g>
<defs>
<clipPath id="clip0_470_1071">
<rect width="65" height="65" fill="white" transform="translate(0.5 0.5)"/>
</clipPath>
</defs>
</svg>
