<svg width="66" height="66" viewBox="0 0 66 66" fill="none" xmlns="http://www.w3.org/2000/svg">
<mask id="path-1-outside-1_538_3237" maskUnits="userSpaceOnUse" x="0.813965" y="0.212646" width="65" height="65" fill="black">
<path d="M24.5879 1.49649C21.7535 2.30984 17.6867 4.50343 15.8135 6.27801C15.1727 6.89419 14.3347 8.00331 13.965 8.76737C13.3488 9.99972 13.2749 10.4187 13.2749 12.7848C13.2749 14.239 13.1763 15.496 13.0777 15.5946C12.9791 15.6932 12.2397 15.151 11.451 14.3622C10.3665 13.2778 9.8736 12.9574 9.42995 13.0313C9.0356 13.0806 8.81378 13.3024 8.76448 13.6968C8.69054 14.1651 9.55319 15.1756 13.3488 18.9959C16.2325 21.9042 18.2289 24.1225 18.574 24.7879C19.1902 26.0449 19.4859 28.8547 19.6092 34.6221L19.6831 38.1713L18.993 38.7628C18.6233 39.0832 18.0811 39.3543 17.8346 39.3543C17.2677 39.3543 17.2184 38.96 16.8487 32.6996C16.5776 27.8688 16.3558 27.0801 15.4192 27.6716C14.9262 27.9921 14.877 30.1117 15.222 36.2735L15.4192 39.9705L17.8592 42.4352C19.9296 44.5549 20.3486 44.8506 20.7183 44.6288C21.5317 44.1359 21.3838 43.5197 20.1268 42.2627C18.8944 41.0057 18.8944 41.0303 20.1021 40.3156C20.3486 40.1923 20.7676 39.6501 21.0387 39.1079C21.6056 37.9988 21.6549 35.7805 21.2852 29.8652L21.0634 26.4146L21.9753 25.0837C23.2323 23.2352 25.9681 20.3515 27.7427 19.0205C28.5807 18.4044 30.1581 17.4431 31.2672 16.9009C33.239 15.9643 33.3129 15.9397 34.2742 16.2847C37.9959 17.591 41.5204 20.4994 44.6013 24.8126C45.5625 26.1435 45.5625 26.1682 45.5625 28.485C45.5625 30.4075 45.6365 30.8265 45.9815 31.0729C46.7949 31.5905 47.2385 30.7525 47.4111 28.2139C47.5343 26.5872 47.7561 25.5766 48.1505 24.8126C48.5202 24.0732 51.3299 21.0416 56.8016 15.57C61.2627 11.0842 64.9104 7.23925 64.9104 7.04207C64.9104 6.57378 64.4175 6.08084 63.9246 6.08084C63.7274 6.08084 61.3859 8.24978 58.7487 10.887C56.1115 13.5242 53.8439 15.6685 53.6961 15.6192C53.5482 15.57 53.4496 14.3869 53.4496 12.8341C53.4496 10.6159 53.351 9.95042 52.9073 8.98919C51.4778 5.88366 46.7949 2.72884 46.7949 4.87313C46.7949 5.41537 47.0906 5.73578 48.3969 6.59843C50.2948 7.90472 51.256 9.3096 51.6503 11.4539C52.094 13.82 51.8229 13.8447 48.9145 11.6511C46.4005 9.7286 46.0062 9.55607 45.4886 10.0737C44.8478 10.7145 45.2668 11.2567 48.3476 13.5735C50.0729 14.8798 51.675 16.2354 51.9461 16.5805L52.3898 17.2213L49.8018 19.8339C48.3969 21.2881 47.0413 22.8408 46.8195 23.2845L46.4005 24.0978L45.2175 22.5451C42.6788 19.2177 38.9818 16.1861 35.9995 14.9784L34.6685 14.4362L35.1122 13.1545C35.8269 11.0842 35.7284 9.60536 34.7178 7.65825C33.8798 6.05619 33.6334 4.60201 34.0524 3.93654C34.5699 3.09854 40.1895 2.85207 42.3831 3.51754C43.9605 4.03513 44.5273 3.8626 44.4041 2.95066C44.2316 1.47184 39.9923 0.781722 35.6544 1.49649C33.7566 1.8169 32.9432 1.84155 32.1052 1.64437C30.1581 1.20072 25.9681 1.10213 24.5879 1.49649ZM31.6369 3.46825C31.9327 3.59149 32.0313 4.01049 32.0066 5.04566C32.0066 6.17943 32.1792 6.7956 32.9432 8.27442C33.4362 9.28495 33.8552 10.2955 33.8552 10.542C33.8552 10.7638 33.6334 11.6511 33.3622 12.5137L32.8693 14.0911L30.4785 15.2495C27.3977 16.7284 24.5139 19.0205 22.1725 21.8549L20.3239 24.0732L19.9049 23.2845C19.6831 22.8408 18.3275 21.2881 16.9227 19.8339L14.3347 17.2213L14.7784 16.5805C15.0495 16.2354 16.6515 14.8798 18.4015 13.5735C21.4577 11.2567 21.8767 10.7145 21.2359 10.0737C20.7183 9.55607 20.3239 9.7286 17.8099 11.6511C14.9016 13.8447 14.6305 13.82 15.0741 11.4785C15.5917 8.59484 16.8487 7.2146 20.8415 5.09496C24.1935 3.32037 24.9576 3.12319 28.3096 3.22178C29.9363 3.27107 31.4398 3.36966 31.6369 3.46825Z"/>
<path d="M2.10973 6.37667C1.9372 6.54919 1.81396 6.82031 1.81396 7.01749C1.81396 7.38719 5.33849 11.1582 6.0779 11.5279C6.62014 11.8237 7.48278 11.4047 7.48278 10.8131C7.48278 10.2955 3.31743 6.0809 2.79985 6.0809C2.57802 6.0809 2.28226 6.20414 2.10973 6.37667Z"/>
<path d="M2.10978 22.3972C1.93725 22.5698 1.81401 22.8655 1.81401 23.0627C1.81401 23.2599 3.26819 24.8866 5.04278 26.6858L8.27154 29.9392L8.96166 34.9672C9.33136 37.777 9.79966 40.291 10.0215 40.71C10.2433 41.129 12.7327 43.7662 15.5671 46.576C20.2254 51.2343 20.7922 51.7272 21.7042 51.8504C22.9612 52.023 24.3661 51.3822 24.8836 50.3963L25.2534 49.6815L26.0174 50.2237L26.7568 50.766L26.6582 52.8856C26.5596 55.0299 26.2885 55.794 25.4012 56.3362C25.1548 56.5087 22.8133 56.977 20.2007 57.396C14.4087 58.308 13.2749 58.727 11.5742 60.403C9.57783 62.3994 9.18348 63.9768 10.613 64.1986C10.9827 64.2479 11.2785 63.9768 11.7714 63.1881C12.4369 62.0297 13.4967 61.0191 14.6305 60.4276C15.0002 60.2304 17.4649 59.7375 20.0775 59.3185C25.8202 58.4066 26.1653 58.308 27.1512 57.2728C28.1617 56.2376 28.4328 55.4243 28.4328 53.5018V51.9244L29.4187 52.4173C29.9609 52.6884 31.0701 53.0828 31.8834 53.3046C33.2143 53.6497 33.5101 53.6497 34.8411 53.3046C35.6544 53.0828 36.7635 52.6884 37.3058 52.4173L38.2916 51.9244V53.5018C38.2916 55.4243 38.5628 56.2376 39.5733 57.2728C40.5592 58.308 40.9042 58.4066 46.6223 59.3185C49.4814 59.7622 51.7736 60.2551 52.3158 60.5509C53.3263 61.0684 54.5833 62.3501 55.1749 63.5331C55.6185 64.3711 56.4072 64.4451 56.8755 63.7057C57.5163 62.6705 54.7559 59.4664 52.5376 58.6284C51.8229 58.3573 49.1117 57.815 46.4991 57.396C43.64 56.9277 41.5204 56.4841 41.1507 56.2376C40.362 55.72 40.0169 54.5123 40.0169 52.368C40.0169 50.8399 40.0662 50.692 40.7563 50.1991L41.4711 49.6815L41.8408 50.3963C42.3584 51.3822 43.7633 52.023 45.0203 51.8504C45.9322 51.7272 46.4991 51.2343 51.1574 46.576C53.9918 43.7662 56.4812 41.129 56.703 40.71C56.9248 40.291 57.3931 37.777 57.7628 34.9672L58.4529 29.9392L61.6817 26.6858C63.4563 24.8866 64.9104 23.2599 64.9104 23.0627C64.9104 22.5698 64.4175 22.1015 63.9246 22.1015C63.2837 22.1015 56.8755 28.7562 56.6783 29.6188C56.6044 30.0378 56.2593 32.3793 55.9143 34.8686C55.4706 38.1713 55.1749 39.6009 54.8298 40.1677C54.5587 40.6114 52.2912 43.0022 49.8018 45.4915C45.0942 50.1498 44.5766 50.5195 43.5908 49.7062C42.6788 48.9421 43.0978 48.2766 47.2632 44.062L51.3053 39.9706L51.5025 36.2735C51.8475 30.1118 51.7982 27.9921 51.3053 27.6717C50.3687 27.0802 50.1469 27.8689 49.8758 32.6997C49.506 38.96 49.4568 39.3544 48.8899 39.3544C48.6434 39.3544 48.1012 39.0833 47.7315 38.7629C47.0906 38.2206 47.0413 38.0235 46.992 36.2735C46.9428 34.0553 46.8442 33.6856 46.228 33.6856C45.4146 33.6856 45.1928 34.2032 45.1928 36.2242C45.1928 38.5164 45.6365 39.6502 46.8195 40.4142C47.2878 40.71 47.6575 41.0304 47.6575 41.1043C47.6575 41.3755 41.3972 47.3647 39.8691 48.5231C39.0557 49.1393 37.6015 50.1005 36.6649 50.6181C35.1861 51.4314 34.7671 51.5547 33.3622 51.5547C32.1792 51.53 31.4644 51.3822 30.6511 50.9632C29.049 50.1252 27.0033 48.6956 25.3273 47.2661C23.8485 45.9845 23.1584 45.7873 22.6901 46.5267C22.4929 46.8471 22.5668 47.0936 22.9612 47.6112C23.2569 47.9809 23.5034 48.4738 23.5034 48.6956C23.5034 49.4104 22.8872 50.0266 22.1725 50.0019C21.6056 50.0019 20.6444 49.1886 16.9227 45.4915C14.4333 43.0022 12.1658 40.6114 11.8947 40.1677C11.5496 39.6009 11.2538 38.1713 10.8102 34.8686C10.4651 32.3793 10.1201 30.0378 10.0461 29.6188C9.84895 28.7562 3.44072 22.1015 2.7999 22.1015C2.57807 22.1015 2.28231 22.2247 2.10978 22.3972Z"/>
<path d="M23.8732 26.9816C22.5422 27.4252 22.1479 28.14 22.8626 28.7315C23.1584 28.978 23.5528 28.978 24.8098 28.6576C26.7815 28.1646 27.5702 28.1646 29.1476 28.6822C30.306 29.0519 30.4539 29.0519 30.799 28.7069C32.401 27.1048 27.2498 25.8231 23.8732 26.9816Z"/>
<path d="M36.8868 26.9323C35.7037 27.3513 35.3094 28.0907 35.9256 28.7069C36.2706 29.0519 36.4185 29.0519 37.5769 28.6822C39.1543 28.1646 39.943 28.1646 41.9148 28.6576C43.6647 29.1012 44.3056 28.8794 44.1577 27.9181C43.9851 26.7351 39.2529 26.1189 36.8868 26.9323Z"/>
<path d="M23.0351 32.897C22.7147 33.5132 23.1091 34.0307 24.2182 34.4005C25.3026 34.7455 27.5948 34.7209 28.6793 34.3265C29.394 34.0554 29.5419 33.8829 29.5419 33.2913C29.5419 32.5026 29.5419 32.5026 26.954 32.7245C26.3378 32.7737 25.278 32.7245 24.5632 32.6012C23.4541 32.4287 23.2569 32.478 23.0351 32.897Z"/>
<path d="M37.1579 32.7737C36.8868 33.4884 37.1825 34.006 38.0452 34.3264C39.1543 34.7208 41.619 34.7208 42.7281 34.3264C43.4429 34.0553 43.5908 33.8828 43.5908 33.2913C43.5908 32.5026 43.5908 32.5026 41.0028 32.7244C40.3866 32.7737 39.3022 32.7244 38.612 32.6011C37.5522 32.4533 37.2811 32.4779 37.1579 32.7737Z"/>
<path d="M30.4785 38.5164C30.306 38.5903 30.1581 38.9354 30.1581 39.2558C30.1581 40.1924 31.5383 40.6853 33.6826 40.5128C35.7283 40.3896 36.5663 39.798 36.0734 38.8614C35.8269 38.3931 35.679 38.3439 34.7671 38.5164C33.5347 38.7629 32.7953 38.7629 31.6369 38.541C31.1686 38.4671 30.6264 38.4424 30.4785 38.5164Z"/>
<path d="M28.6792 43.6677C28.2602 44.1606 28.4574 44.8507 29.1721 45.1958C30.0348 45.6148 36.8374 45.5162 37.3796 45.0479C37.8972 44.6289 37.9218 43.9388 37.4289 43.5444C37.1578 43.3226 36.8867 43.3226 36.1966 43.5444C35.4818 43.7909 35.0628 43.7663 34.2001 43.5444C33.3375 43.298 32.8938 43.298 32.0312 43.5444C31.1932 43.7663 30.7249 43.7909 30.1334 43.5691C29.1229 43.224 29.0489 43.224 28.6792 43.6677Z"/>
</mask>
<path d="M24.5879 1.49649C21.7535 2.30984 17.6867 4.50343 15.8135 6.27801C15.1727 6.89419 14.3347 8.00331 13.965 8.76737C13.3488 9.99972 13.2749 10.4187 13.2749 12.7848C13.2749 14.239 13.1763 15.496 13.0777 15.5946C12.9791 15.6932 12.2397 15.151 11.451 14.3622C10.3665 13.2778 9.8736 12.9574 9.42995 13.0313C9.0356 13.0806 8.81378 13.3024 8.76448 13.6968C8.69054 14.1651 9.55319 15.1756 13.3488 18.9959C16.2325 21.9042 18.2289 24.1225 18.574 24.7879C19.1902 26.0449 19.4859 28.8547 19.6092 34.6221L19.6831 38.1713L18.993 38.7628C18.6233 39.0832 18.0811 39.3543 17.8346 39.3543C17.2677 39.3543 17.2184 38.96 16.8487 32.6996C16.5776 27.8688 16.3558 27.0801 15.4192 27.6716C14.9262 27.9921 14.877 30.1117 15.222 36.2735L15.4192 39.9705L17.8592 42.4352C19.9296 44.5549 20.3486 44.8506 20.7183 44.6288C21.5317 44.1359 21.3838 43.5197 20.1268 42.2627C18.8944 41.0057 18.8944 41.0303 20.1021 40.3156C20.3486 40.1923 20.7676 39.6501 21.0387 39.1079C21.6056 37.9988 21.6549 35.7805 21.2852 29.8652L21.0634 26.4146L21.9753 25.0837C23.2323 23.2352 25.9681 20.3515 27.7427 19.0205C28.5807 18.4044 30.1581 17.4431 31.2672 16.9009C33.239 15.9643 33.3129 15.9397 34.2742 16.2847C37.9959 17.591 41.5204 20.4994 44.6013 24.8126C45.5625 26.1435 45.5625 26.1682 45.5625 28.485C45.5625 30.4075 45.6365 30.8265 45.9815 31.0729C46.7949 31.5905 47.2385 30.7525 47.4111 28.2139C47.5343 26.5872 47.7561 25.5766 48.1505 24.8126C48.5202 24.0732 51.3299 21.0416 56.8016 15.57C61.2627 11.0842 64.9104 7.23925 64.9104 7.04207C64.9104 6.57378 64.4175 6.08084 63.9246 6.08084C63.7274 6.08084 61.3859 8.24978 58.7487 10.887C56.1115 13.5242 53.8439 15.6685 53.6961 15.6192C53.5482 15.57 53.4496 14.3869 53.4496 12.8341C53.4496 10.6159 53.351 9.95042 52.9073 8.98919C51.4778 5.88366 46.7949 2.72884 46.7949 4.87313C46.7949 5.41537 47.0906 5.73578 48.3969 6.59843C50.2948 7.90472 51.256 9.3096 51.6503 11.4539C52.094 13.82 51.8229 13.8447 48.9145 11.6511C46.4005 9.7286 46.0062 9.55607 45.4886 10.0737C44.8478 10.7145 45.2668 11.2567 48.3476 13.5735C50.0729 14.8798 51.675 16.2354 51.9461 16.5805L52.3898 17.2213L49.8018 19.8339C48.3969 21.2881 47.0413 22.8408 46.8195 23.2845L46.4005 24.0978L45.2175 22.5451C42.6788 19.2177 38.9818 16.1861 35.9995 14.9784L34.6685 14.4362L35.1122 13.1545C35.8269 11.0842 35.7284 9.60536 34.7178 7.65825C33.8798 6.05619 33.6334 4.60201 34.0524 3.93654C34.5699 3.09854 40.1895 2.85207 42.3831 3.51754C43.9605 4.03513 44.5273 3.8626 44.4041 2.95066C44.2316 1.47184 39.9923 0.781722 35.6544 1.49649C33.7566 1.8169 32.9432 1.84155 32.1052 1.64437C30.1581 1.20072 25.9681 1.10213 24.5879 1.49649ZM31.6369 3.46825C31.9327 3.59149 32.0313 4.01049 32.0066 5.04566C32.0066 6.17943 32.1792 6.7956 32.9432 8.27442C33.4362 9.28495 33.8552 10.2955 33.8552 10.542C33.8552 10.7638 33.6334 11.6511 33.3622 12.5137L32.8693 14.0911L30.4785 15.2495C27.3977 16.7284 24.5139 19.0205 22.1725 21.8549L20.3239 24.0732L19.9049 23.2845C19.6831 22.8408 18.3275 21.2881 16.9227 19.8339L14.3347 17.2213L14.7784 16.5805C15.0495 16.2354 16.6515 14.8798 18.4015 13.5735C21.4577 11.2567 21.8767 10.7145 21.2359 10.0737C20.7183 9.55607 20.3239 9.7286 17.8099 11.6511C14.9016 13.8447 14.6305 13.82 15.0741 11.4785C15.5917 8.59484 16.8487 7.2146 20.8415 5.09496C24.1935 3.32037 24.9576 3.12319 28.3096 3.22178C29.9363 3.27107 31.4398 3.36966 31.6369 3.46825Z" fill="#FF8743"/>
<path d="M2.10973 6.37667C1.9372 6.54919 1.81396 6.82031 1.81396 7.01749C1.81396 7.38719 5.33849 11.1582 6.0779 11.5279C6.62014 11.8237 7.48278 11.4047 7.48278 10.8131C7.48278 10.2955 3.31743 6.0809 2.79985 6.0809C2.57802 6.0809 2.28226 6.20414 2.10973 6.37667Z" fill="#FF8743"/>
<path d="M2.10978 22.3972C1.93725 22.5698 1.81401 22.8655 1.81401 23.0627C1.81401 23.2599 3.26819 24.8866 5.04278 26.6858L8.27154 29.9392L8.96166 34.9672C9.33136 37.777 9.79966 40.291 10.0215 40.71C10.2433 41.129 12.7327 43.7662 15.5671 46.576C20.2254 51.2343 20.7922 51.7272 21.7042 51.8504C22.9612 52.023 24.3661 51.3822 24.8836 50.3963L25.2534 49.6815L26.0174 50.2237L26.7568 50.766L26.6582 52.8856C26.5596 55.0299 26.2885 55.794 25.4012 56.3362C25.1548 56.5087 22.8133 56.977 20.2007 57.396C14.4087 58.308 13.2749 58.727 11.5742 60.403C9.57783 62.3994 9.18348 63.9768 10.613 64.1986C10.9827 64.2479 11.2785 63.9768 11.7714 63.1881C12.4369 62.0297 13.4967 61.0191 14.6305 60.4276C15.0002 60.2304 17.4649 59.7375 20.0775 59.3185C25.8202 58.4066 26.1653 58.308 27.1512 57.2728C28.1617 56.2376 28.4328 55.4243 28.4328 53.5018V51.9244L29.4187 52.4173C29.9609 52.6884 31.0701 53.0828 31.8834 53.3046C33.2143 53.6497 33.5101 53.6497 34.8411 53.3046C35.6544 53.0828 36.7635 52.6884 37.3058 52.4173L38.2916 51.9244V53.5018C38.2916 55.4243 38.5628 56.2376 39.5733 57.2728C40.5592 58.308 40.9042 58.4066 46.6223 59.3185C49.4814 59.7622 51.7736 60.2551 52.3158 60.5509C53.3263 61.0684 54.5833 62.3501 55.1749 63.5331C55.6185 64.3711 56.4072 64.4451 56.8755 63.7057C57.5163 62.6705 54.7559 59.4664 52.5376 58.6284C51.8229 58.3573 49.1117 57.815 46.4991 57.396C43.64 56.9277 41.5204 56.4841 41.1507 56.2376C40.362 55.72 40.0169 54.5123 40.0169 52.368C40.0169 50.8399 40.0662 50.692 40.7563 50.1991L41.4711 49.6815L41.8408 50.3963C42.3584 51.3822 43.7633 52.023 45.0203 51.8504C45.9322 51.7272 46.4991 51.2343 51.1574 46.576C53.9918 43.7662 56.4812 41.129 56.703 40.71C56.9248 40.291 57.3931 37.777 57.7628 34.9672L58.4529 29.9392L61.6817 26.6858C63.4563 24.8866 64.9104 23.2599 64.9104 23.0627C64.9104 22.5698 64.4175 22.1015 63.9246 22.1015C63.2837 22.1015 56.8755 28.7562 56.6783 29.6188C56.6044 30.0378 56.2593 32.3793 55.9143 34.8686C55.4706 38.1713 55.1749 39.6009 54.8298 40.1677C54.5587 40.6114 52.2912 43.0022 49.8018 45.4915C45.0942 50.1498 44.5766 50.5195 43.5908 49.7062C42.6788 48.9421 43.0978 48.2766 47.2632 44.062L51.3053 39.9706L51.5025 36.2735C51.8475 30.1118 51.7982 27.9921 51.3053 27.6717C50.3687 27.0802 50.1469 27.8689 49.8758 32.6997C49.506 38.96 49.4568 39.3544 48.8899 39.3544C48.6434 39.3544 48.1012 39.0833 47.7315 38.7629C47.0906 38.2206 47.0413 38.0235 46.992 36.2735C46.9428 34.0553 46.8442 33.6856 46.228 33.6856C45.4146 33.6856 45.1928 34.2032 45.1928 36.2242C45.1928 38.5164 45.6365 39.6502 46.8195 40.4142C47.2878 40.71 47.6575 41.0304 47.6575 41.1043C47.6575 41.3755 41.3972 47.3647 39.8691 48.5231C39.0557 49.1393 37.6015 50.1005 36.6649 50.6181C35.1861 51.4314 34.7671 51.5547 33.3622 51.5547C32.1792 51.53 31.4644 51.3822 30.6511 50.9632C29.049 50.1252 27.0033 48.6956 25.3273 47.2661C23.8485 45.9845 23.1584 45.7873 22.6901 46.5267C22.4929 46.8471 22.5668 47.0936 22.9612 47.6112C23.2569 47.9809 23.5034 48.4738 23.5034 48.6956C23.5034 49.4104 22.8872 50.0266 22.1725 50.0019C21.6056 50.0019 20.6444 49.1886 16.9227 45.4915C14.4333 43.0022 12.1658 40.6114 11.8947 40.1677C11.5496 39.6009 11.2538 38.1713 10.8102 34.8686C10.4651 32.3793 10.1201 30.0378 10.0461 29.6188C9.84895 28.7562 3.44072 22.1015 2.7999 22.1015C2.57807 22.1015 2.28231 22.2247 2.10978 22.3972Z" fill="#FF8743"/>
<path d="M23.8732 26.9816C22.5422 27.4252 22.1479 28.14 22.8626 28.7315C23.1584 28.978 23.5528 28.978 24.8098 28.6576C26.7815 28.1646 27.5702 28.1646 29.1476 28.6822C30.306 29.0519 30.4539 29.0519 30.799 28.7069C32.401 27.1048 27.2498 25.8231 23.8732 26.9816Z" fill="#FF8743"/>
<path d="M36.8868 26.9323C35.7037 27.3513 35.3094 28.0907 35.9256 28.7069C36.2706 29.0519 36.4185 29.0519 37.5769 28.6822C39.1543 28.1646 39.943 28.1646 41.9148 28.6576C43.6647 29.1012 44.3056 28.8794 44.1577 27.9181C43.9851 26.7351 39.2529 26.1189 36.8868 26.9323Z" fill="#FF8743"/>
<path d="M23.0351 32.897C22.7147 33.5132 23.1091 34.0307 24.2182 34.4005C25.3026 34.7455 27.5948 34.7209 28.6793 34.3265C29.394 34.0554 29.5419 33.8829 29.5419 33.2913C29.5419 32.5026 29.5419 32.5026 26.954 32.7245C26.3378 32.7737 25.278 32.7245 24.5632 32.6012C23.4541 32.4287 23.2569 32.478 23.0351 32.897Z" fill="#FF8743"/>
<path d="M37.1579 32.7737C36.8868 33.4884 37.1825 34.006 38.0452 34.3264C39.1543 34.7208 41.619 34.7208 42.7281 34.3264C43.4429 34.0553 43.5908 33.8828 43.5908 33.2913C43.5908 32.5026 43.5908 32.5026 41.0028 32.7244C40.3866 32.7737 39.3022 32.7244 38.612 32.6011C37.5522 32.4533 37.2811 32.4779 37.1579 32.7737Z" fill="#FF8743"/>
<path d="M30.4785 38.5164C30.306 38.5903 30.1581 38.9354 30.1581 39.2558C30.1581 40.1924 31.5383 40.6853 33.6826 40.5128C35.7283 40.3896 36.5663 39.798 36.0734 38.8614C35.8269 38.3931 35.679 38.3439 34.7671 38.5164C33.5347 38.7629 32.7953 38.7629 31.6369 38.541C31.1686 38.4671 30.6264 38.4424 30.4785 38.5164Z" fill="#FF8743"/>
<path d="M28.6792 43.6677C28.2602 44.1606 28.4574 44.8507 29.1721 45.1958C30.0348 45.6148 36.8374 45.5162 37.3796 45.0479C37.8972 44.6289 37.9218 43.9388 37.4289 43.5444C37.1578 43.3226 36.8867 43.3226 36.1966 43.5444C35.4818 43.7909 35.0628 43.7663 34.2001 43.5444C33.3375 43.298 32.8938 43.298 32.0312 43.5444C31.1932 43.7663 30.7249 43.7909 30.1334 43.5691C29.1229 43.224 29.0489 43.224 28.6792 43.6677Z" fill="#FF8743"/>
<path d="M24.5879 1.49649C21.7535 2.30984 17.6867 4.50343 15.8135 6.27801C15.1727 6.89419 14.3347 8.00331 13.965 8.76737C13.3488 9.99972 13.2749 10.4187 13.2749 12.7848C13.2749 14.239 13.1763 15.496 13.0777 15.5946C12.9791 15.6932 12.2397 15.151 11.451 14.3622C10.3665 13.2778 9.8736 12.9574 9.42995 13.0313C9.0356 13.0806 8.81378 13.3024 8.76448 13.6968C8.69054 14.1651 9.55319 15.1756 13.3488 18.9959C16.2325 21.9042 18.2289 24.1225 18.574 24.7879C19.1902 26.0449 19.4859 28.8547 19.6092 34.6221L19.6831 38.1713L18.993 38.7628C18.6233 39.0832 18.0811 39.3543 17.8346 39.3543C17.2677 39.3543 17.2184 38.96 16.8487 32.6996C16.5776 27.8688 16.3558 27.0801 15.4192 27.6716C14.9262 27.9921 14.877 30.1117 15.222 36.2735L15.4192 39.9705L17.8592 42.4352C19.9296 44.5549 20.3486 44.8506 20.7183 44.6288C21.5317 44.1359 21.3838 43.5197 20.1268 42.2627C18.8944 41.0057 18.8944 41.0303 20.1021 40.3156C20.3486 40.1923 20.7676 39.6501 21.0387 39.1079C21.6056 37.9988 21.6549 35.7805 21.2852 29.8652L21.0634 26.4146L21.9753 25.0837C23.2323 23.2352 25.9681 20.3515 27.7427 19.0205C28.5807 18.4044 30.1581 17.4431 31.2672 16.9009C33.239 15.9643 33.3129 15.9397 34.2742 16.2847C37.9959 17.591 41.5204 20.4994 44.6013 24.8126C45.5625 26.1435 45.5625 26.1682 45.5625 28.485C45.5625 30.4075 45.6365 30.8265 45.9815 31.0729C46.7949 31.5905 47.2385 30.7525 47.4111 28.2139C47.5343 26.5872 47.7561 25.5766 48.1505 24.8126C48.5202 24.0732 51.3299 21.0416 56.8016 15.57C61.2627 11.0842 64.9104 7.23925 64.9104 7.04207C64.9104 6.57378 64.4175 6.08084 63.9246 6.08084C63.7274 6.08084 61.3859 8.24978 58.7487 10.887C56.1115 13.5242 53.8439 15.6685 53.6961 15.6192C53.5482 15.57 53.4496 14.3869 53.4496 12.8341C53.4496 10.6159 53.351 9.95042 52.9073 8.98919C51.4778 5.88366 46.7949 2.72884 46.7949 4.87313C46.7949 5.41537 47.0906 5.73578 48.3969 6.59843C50.2948 7.90472 51.256 9.3096 51.6503 11.4539C52.094 13.82 51.8229 13.8447 48.9145 11.6511C46.4005 9.7286 46.0062 9.55607 45.4886 10.0737C44.8478 10.7145 45.2668 11.2567 48.3476 13.5735C50.0729 14.8798 51.675 16.2354 51.9461 16.5805L52.3898 17.2213L49.8018 19.8339C48.3969 21.2881 47.0413 22.8408 46.8195 23.2845L46.4005 24.0978L45.2175 22.5451C42.6788 19.2177 38.9818 16.1861 35.9995 14.9784L34.6685 14.4362L35.1122 13.1545C35.8269 11.0842 35.7284 9.60536 34.7178 7.65825C33.8798 6.05619 33.6334 4.60201 34.0524 3.93654C34.5699 3.09854 40.1895 2.85207 42.3831 3.51754C43.9605 4.03513 44.5273 3.8626 44.4041 2.95066C44.2316 1.47184 39.9923 0.781722 35.6544 1.49649C33.7566 1.8169 32.9432 1.84155 32.1052 1.64437C30.1581 1.20072 25.9681 1.10213 24.5879 1.49649ZM31.6369 3.46825C31.9327 3.59149 32.0313 4.01049 32.0066 5.04566C32.0066 6.17943 32.1792 6.7956 32.9432 8.27442C33.4362 9.28495 33.8552 10.2955 33.8552 10.542C33.8552 10.7638 33.6334 11.6511 33.3622 12.5137L32.8693 14.0911L30.4785 15.2495C27.3977 16.7284 24.5139 19.0205 22.1725 21.8549L20.3239 24.0732L19.9049 23.2845C19.6831 22.8408 18.3275 21.2881 16.9227 19.8339L14.3347 17.2213L14.7784 16.5805C15.0495 16.2354 16.6515 14.8798 18.4015 13.5735C21.4577 11.2567 21.8767 10.7145 21.2359 10.0737C20.7183 9.55607 20.3239 9.7286 17.8099 11.6511C14.9016 13.8447 14.6305 13.82 15.0741 11.4785C15.5917 8.59484 16.8487 7.2146 20.8415 5.09496C24.1935 3.32037 24.9576 3.12319 28.3096 3.22178C29.9363 3.27107 31.4398 3.36966 31.6369 3.46825Z" stroke="#FF8743" stroke-width="0.825" mask="url(#path-1-outside-1_538_3237)"/>
<path d="M2.10973 6.37667C1.9372 6.54919 1.81396 6.82031 1.81396 7.01749C1.81396 7.38719 5.33849 11.1582 6.0779 11.5279C6.62014 11.8237 7.48278 11.4047 7.48278 10.8131C7.48278 10.2955 3.31743 6.0809 2.79985 6.0809C2.57802 6.0809 2.28226 6.20414 2.10973 6.37667Z" stroke="#FF8743" stroke-width="0.825" mask="url(#path-1-outside-1_538_3237)"/>
<path d="M2.10978 22.3972C1.93725 22.5698 1.81401 22.8655 1.81401 23.0627C1.81401 23.2599 3.26819 24.8866 5.04278 26.6858L8.27154 29.9392L8.96166 34.9672C9.33136 37.777 9.79966 40.291 10.0215 40.71C10.2433 41.129 12.7327 43.7662 15.5671 46.576C20.2254 51.2343 20.7922 51.7272 21.7042 51.8504C22.9612 52.023 24.3661 51.3822 24.8836 50.3963L25.2534 49.6815L26.0174 50.2237L26.7568 50.766L26.6582 52.8856C26.5596 55.0299 26.2885 55.794 25.4012 56.3362C25.1548 56.5087 22.8133 56.977 20.2007 57.396C14.4087 58.308 13.2749 58.727 11.5742 60.403C9.57783 62.3994 9.18348 63.9768 10.613 64.1986C10.9827 64.2479 11.2785 63.9768 11.7714 63.1881C12.4369 62.0297 13.4967 61.0191 14.6305 60.4276C15.0002 60.2304 17.4649 59.7375 20.0775 59.3185C25.8202 58.4066 26.1653 58.308 27.1512 57.2728C28.1617 56.2376 28.4328 55.4243 28.4328 53.5018V51.9244L29.4187 52.4173C29.9609 52.6884 31.0701 53.0828 31.8834 53.3046C33.2143 53.6497 33.5101 53.6497 34.8411 53.3046C35.6544 53.0828 36.7635 52.6884 37.3058 52.4173L38.2916 51.9244V53.5018C38.2916 55.4243 38.5628 56.2376 39.5733 57.2728C40.5592 58.308 40.9042 58.4066 46.6223 59.3185C49.4814 59.7622 51.7736 60.2551 52.3158 60.5509C53.3263 61.0684 54.5833 62.3501 55.1749 63.5331C55.6185 64.3711 56.4072 64.4451 56.8755 63.7057C57.5163 62.6705 54.7559 59.4664 52.5376 58.6284C51.8229 58.3573 49.1117 57.815 46.4991 57.396C43.64 56.9277 41.5204 56.4841 41.1507 56.2376C40.362 55.72 40.0169 54.5123 40.0169 52.368C40.0169 50.8399 40.0662 50.692 40.7563 50.1991L41.4711 49.6815L41.8408 50.3963C42.3584 51.3822 43.7633 52.023 45.0203 51.8504C45.9322 51.7272 46.4991 51.2343 51.1574 46.576C53.9918 43.7662 56.4812 41.129 56.703 40.71C56.9248 40.291 57.3931 37.777 57.7628 34.9672L58.4529 29.9392L61.6817 26.6858C63.4563 24.8866 64.9104 23.2599 64.9104 23.0627C64.9104 22.5698 64.4175 22.1015 63.9246 22.1015C63.2837 22.1015 56.8755 28.7562 56.6783 29.6188C56.6044 30.0378 56.2593 32.3793 55.9143 34.8686C55.4706 38.1713 55.1749 39.6009 54.8298 40.1677C54.5587 40.6114 52.2912 43.0022 49.8018 45.4915C45.0942 50.1498 44.5766 50.5195 43.5908 49.7062C42.6788 48.9421 43.0978 48.2766 47.2632 44.062L51.3053 39.9706L51.5025 36.2735C51.8475 30.1118 51.7982 27.9921 51.3053 27.6717C50.3687 27.0802 50.1469 27.8689 49.8758 32.6997C49.506 38.96 49.4568 39.3544 48.8899 39.3544C48.6434 39.3544 48.1012 39.0833 47.7315 38.7629C47.0906 38.2206 47.0413 38.0235 46.992 36.2735C46.9428 34.0553 46.8442 33.6856 46.228 33.6856C45.4146 33.6856 45.1928 34.2032 45.1928 36.2242C45.1928 38.5164 45.6365 39.6502 46.8195 40.4142C47.2878 40.71 47.6575 41.0304 47.6575 41.1043C47.6575 41.3755 41.3972 47.3647 39.8691 48.5231C39.0557 49.1393 37.6015 50.1005 36.6649 50.6181C35.1861 51.4314 34.7671 51.5547 33.3622 51.5547C32.1792 51.53 31.4644 51.3822 30.6511 50.9632C29.049 50.1252 27.0033 48.6956 25.3273 47.2661C23.8485 45.9845 23.1584 45.7873 22.6901 46.5267C22.4929 46.8471 22.5668 47.0936 22.9612 47.6112C23.2569 47.9809 23.5034 48.4738 23.5034 48.6956C23.5034 49.4104 22.8872 50.0266 22.1725 50.0019C21.6056 50.0019 20.6444 49.1886 16.9227 45.4915C14.4333 43.0022 12.1658 40.6114 11.8947 40.1677C11.5496 39.6009 11.2538 38.1713 10.8102 34.8686C10.4651 32.3793 10.1201 30.0378 10.0461 29.6188C9.84895 28.7562 3.44072 22.1015 2.7999 22.1015C2.57807 22.1015 2.28231 22.2247 2.10978 22.3972Z" stroke="#FF8743" stroke-width="0.825" mask="url(#path-1-outside-1_538_3237)"/>
<path d="M23.8732 26.9816C22.5422 27.4252 22.1479 28.14 22.8626 28.7315C23.1584 28.978 23.5528 28.978 24.8098 28.6576C26.7815 28.1646 27.5702 28.1646 29.1476 28.6822C30.306 29.0519 30.4539 29.0519 30.799 28.7069C32.401 27.1048 27.2498 25.8231 23.8732 26.9816Z" stroke="#FF8743" stroke-width="0.825" mask="url(#path-1-outside-1_538_3237)"/>
<path d="M36.8868 26.9323C35.7037 27.3513 35.3094 28.0907 35.9256 28.7069C36.2706 29.0519 36.4185 29.0519 37.5769 28.6822C39.1543 28.1646 39.943 28.1646 41.9148 28.6576C43.6647 29.1012 44.3056 28.8794 44.1577 27.9181C43.9851 26.7351 39.2529 26.1189 36.8868 26.9323Z" stroke="#FF8743" stroke-width="0.825" mask="url(#path-1-outside-1_538_3237)"/>
<path d="M23.0351 32.897C22.7147 33.5132 23.1091 34.0307 24.2182 34.4005C25.3026 34.7455 27.5948 34.7209 28.6793 34.3265C29.394 34.0554 29.5419 33.8829 29.5419 33.2913C29.5419 32.5026 29.5419 32.5026 26.954 32.7245C26.3378 32.7737 25.278 32.7245 24.5632 32.6012C23.4541 32.4287 23.2569 32.478 23.0351 32.897Z" stroke="#FF8743" stroke-width="0.825" mask="url(#path-1-outside-1_538_3237)"/>
<path d="M37.1579 32.7737C36.8868 33.4884 37.1825 34.006 38.0452 34.3264C39.1543 34.7208 41.619 34.7208 42.7281 34.3264C43.4429 34.0553 43.5908 33.8828 43.5908 33.2913C43.5908 32.5026 43.5908 32.5026 41.0028 32.7244C40.3866 32.7737 39.3022 32.7244 38.612 32.6011C37.5522 32.4533 37.2811 32.4779 37.1579 32.7737Z" stroke="#FF8743" stroke-width="0.825" mask="url(#path-1-outside-1_538_3237)"/>
<path d="M30.4785 38.5164C30.306 38.5903 30.1581 38.9354 30.1581 39.2558C30.1581 40.1924 31.5383 40.6853 33.6826 40.5128C35.7283 40.3896 36.5663 39.798 36.0734 38.8614C35.8269 38.3931 35.679 38.3439 34.7671 38.5164C33.5347 38.7629 32.7953 38.7629 31.6369 38.541C31.1686 38.4671 30.6264 38.4424 30.4785 38.5164Z" stroke="#FF8743" stroke-width="0.825" mask="url(#path-1-outside-1_538_3237)"/>
<path d="M28.6792 43.6677C28.2602 44.1606 28.4574 44.8507 29.1721 45.1958C30.0348 45.6148 36.8374 45.5162 37.3796 45.0479C37.8972 44.6289 37.9218 43.9388 37.4289 43.5444C37.1578 43.3226 36.8867 43.3226 36.1966 43.5444C35.4818 43.7909 35.0628 43.7663 34.2001 43.5444C33.3375 43.298 32.8938 43.298 32.0312 43.5444C31.1932 43.7663 30.7249 43.7909 30.1334 43.5691C29.1229 43.224 29.0489 43.224 28.6792 43.6677Z" stroke="#FF8743" stroke-width="0.825" mask="url(#path-1-outside-1_538_3237)"/>
</svg>
