<svg width="66" height="66" viewBox="0 0 66 66" fill="none" xmlns="http://www.w3.org/2000/svg">
<mask id="path-1-outside-1_538_3237" maskUnits="userSpaceOnUse" x="-0.03125" y="0.989502" width="65" height="64" fill="black">
<path d="M34.1251 2.0815C32.9613 2.40341 32.1937 3.09674 31.7727 4.18627C31.327 5.39962 31.5251 6.46438 32.4413 7.6282C32.7632 8.04915 32.887 8.44535 32.7632 8.8663C32.5899 9.55964 32.3175 9.63393 29.5442 9.88155L27.786 10.0549L26.7708 8.61868C25.8298 7.28153 25.7803 7.15772 26.127 6.73677C26.3498 6.51391 26.5975 5.82057 26.647 5.22628C26.7708 4.28532 26.6718 4.0377 26.0032 3.27008C24.9879 2.10626 24.1213 1.95769 22.1898 2.6015C18.525 3.86437 17.3117 4.80533 17.3117 6.41486C17.3117 7.90058 18.6736 9.2625 20.1346 9.2625C20.8279 9.2625 20.927 9.48535 21.1498 11.4911L21.2984 12.853L20.3574 13.3978C19.8374 13.6701 18.7231 14.5368 17.906 15.3044L16.3955 16.6663L15.3555 16.2702C14.5631 15.9482 14.3403 15.7502 14.3403 15.2797C14.3403 14.3635 13.5974 13.2739 12.6564 12.8282C11.0221 12.0606 9.43737 13.0511 7.67926 15.9482C7.01069 17.0625 7.01069 17.9044 7.72879 18.9445C8.39736 19.9597 9.75928 20.4054 10.8736 19.9845C11.4926 19.7616 11.6412 19.7864 12.2107 20.3807C12.5574 20.7521 12.8545 21.1483 12.8545 21.2721C12.8545 21.3959 12.4831 22.3864 12.0126 23.5007C11.5421 24.5902 11.0221 26.1502 10.8488 26.9674C10.6755 27.7845 10.4526 28.5769 10.3536 28.7255C10.2298 28.8493 9.43737 29.1217 8.54594 29.295L6.9364 29.6169L6.24307 28.8245C5.35163 27.834 3.59353 27.5121 2.57828 28.1807C1.31542 29.0226 0.96875 29.9636 0.96875 32.6626C0.96875 34.1484 1.09256 35.3865 1.29066 35.7579C1.68685 36.5503 3.09829 37.4912 3.86591 37.4912C4.90592 37.4912 6.19354 36.7236 6.58973 35.8569C7.03545 34.9655 7.18402 34.9655 9.51166 35.6093C10.304 35.8569 10.5021 36.0303 10.6507 36.6493C10.725 37.0703 10.8736 37.5408 10.9726 37.6893C11.2202 38.1103 11.9879 38.0608 12.3593 37.615C12.7555 37.1446 12.2355 34.5941 11.666 34.2969C10.9479 33.9255 6.51545 32.9845 5.8964 33.0836C5.45068 33.1331 5.27735 33.356 5.1783 34.0245C4.9802 35.1636 4.75734 35.5103 4.18782 35.5103C3.024 35.5103 2.94971 35.3369 2.94971 32.7864C2.94971 30.3102 3.19733 29.5674 4.03924 29.5674C4.4602 29.5674 5.1783 30.3845 5.1783 30.855C5.1783 31.0779 5.35163 31.375 5.54973 31.5483C5.84687 31.796 6.49069 31.6969 8.81832 31.1521C12.1364 30.335 12.0621 30.434 12.7307 27.2893C12.9536 26.2493 13.5726 24.4664 14.1174 23.3273C14.9098 21.7426 15.0584 21.173 14.885 20.7768C14.4888 19.9349 12.0869 17.434 11.6907 17.434C11.4926 17.434 11.0469 17.6568 10.7002 17.9292C10.2298 18.3006 9.95737 18.3502 9.6107 18.1521C8.8926 17.7806 9.04118 17.1121 10.1555 15.7006C10.8983 14.7597 11.2945 14.4625 11.6907 14.512C12.1612 14.5863 12.2355 14.7349 12.2355 15.7006V16.8149L14.0926 17.7311C15.1079 18.2264 16.1726 18.6473 16.445 18.6721C16.7174 18.6721 17.6088 18.053 18.426 17.2854C19.2431 16.5425 20.6546 15.4282 21.5955 14.8092C23.4775 13.5463 23.4279 13.7692 22.8584 10.1539C22.3879 7.20724 22.1651 6.83581 20.927 7.20724C19.8622 7.52915 19.1936 7.15772 19.3422 6.29105C19.3917 5.82057 19.7879 5.54819 21.3974 4.87961C23.7746 3.91389 24.5917 3.88913 24.6908 4.85485C24.7403 5.35009 24.5917 5.62247 24.146 5.94438C23.7994 6.16724 23.5022 6.53867 23.5022 6.76153C23.5022 6.98439 24.2451 8.24725 25.1613 9.60916L26.8203 12.0358L28.207 11.8873C28.9499 11.813 30.4356 11.6644 31.4756 11.5901C33.7042 11.392 33.8527 11.2682 34.6699 9.03964L35.2394 7.45487L34.3232 6.73677C33.2585 5.87009 33.1346 5.07771 33.927 4.28532C34.3728 3.83961 34.6451 3.76532 35.7347 3.88913C37.6413 4.11199 38.508 5.4739 37.369 6.46438C37.0966 6.712 36.6756 7.08343 36.4032 7.30629C36.007 7.65296 35.9823 7.90058 36.1804 9.28726C36.5023 11.7139 36.4775 11.6644 38.4337 12.2587C39.4242 12.5311 41.0337 13.1501 42.049 13.6206C43.0642 14.0911 43.9557 14.4625 44.0795 14.4625C44.55 14.4625 49.0071 10.6739 49.0071 10.2777C49.0071 10.0301 48.7347 9.5844 48.3881 9.2625C47.5709 8.49487 47.5709 7.57868 48.3881 7.38058C48.8585 7.25677 49.3538 7.50439 50.7405 8.56916C52.5729 9.95583 53.0433 10.773 52.3995 11.4168C52.0776 11.7635 51.9043 11.7635 51.2605 11.4911C50.8395 11.3177 50.3195 11.2435 50.1214 11.3425C49.6509 11.5158 47.4719 16.0721 47.4719 16.8892C47.4471 17.7064 48.2395 18.474 48.9824 18.3749C49.5519 18.3006 49.6262 18.1768 49.6262 17.3102C49.6262 16.7654 49.8986 15.6759 50.2205 14.8835C50.7652 13.5216 50.8395 13.472 51.7062 13.472C53.811 13.472 55.2472 11.4416 54.3805 9.63393C53.9595 8.76725 50.6414 5.94438 49.5271 5.52343C48.71 5.20152 47.67 5.44914 46.7785 6.192C45.8376 7.00915 45.59 8.27201 46.1347 9.43583C46.5309 10.2777 46.5309 10.3025 45.8623 10.8225C45.4909 11.1196 44.8966 11.5901 44.5747 11.8873L43.9557 12.4073L42.4699 11.7387C41.628 11.3673 40.3156 10.8473 39.548 10.6244C38.2604 10.2035 38.1366 10.1044 38.0623 9.41107C38.0128 8.84154 38.1861 8.42059 38.7804 7.70249C39.449 6.95962 39.5975 6.58819 39.5975 5.64724C39.5975 4.2358 38.9042 3.02246 37.7899 2.50246C36.8242 2.05674 34.9918 1.85864 34.1251 2.0815Z"/>
<path d="M34.2242 15.9483C33.6052 16.1959 33.4813 16.914 33.9518 17.3845C34.1252 17.5578 34.6452 17.6816 35.1404 17.6816C36.6261 17.6816 37.2452 16.4188 35.9823 15.9483C35.2394 15.6512 34.9423 15.6512 34.2242 15.9483Z"/>
<path d="M24.4679 17.8053C20.0602 19.2168 17.584 24.0206 19.3421 27.7349C20.3079 29.7902 22.4622 30.9292 25.0622 30.7559C27.6622 30.5826 29.4946 29.2702 28.3308 28.4283C27.9593 28.1559 27.7365 28.1806 26.9936 28.5025C24.9136 29.394 22.3879 28.874 21.224 27.3387C19.664 25.234 21.0507 21.6435 23.9726 20.1082C28.2317 17.8796 32.0946 21.1235 30.1879 25.3082C29.8165 26.1502 29.767 26.4968 29.9651 26.8683C30.4108 27.7349 31.2279 27.3635 31.9213 25.9768C33.0355 23.7482 32.6889 20.9749 31.0793 19.2168C29.7174 17.7063 26.7212 17.0872 24.4679 17.8053Z"/>
<path d="M56.287 18.4245C55.2966 18.9197 54.9747 19.3407 54.4547 20.7026C54.108 21.6931 52.8699 21.6931 52.3746 20.6778C51.8794 19.7616 51.3842 19.5883 50.7156 20.1331L50.1708 20.5788L50.8642 21.8664C51.2851 22.6093 51.7804 23.2035 52.1023 23.2778C52.5975 23.4016 55.8166 22.9807 56.2375 22.7331C56.3366 22.6588 56.4356 22.114 56.4356 21.5445C56.4356 20.3064 56.8318 19.8359 57.8471 19.9597C58.3918 20.0092 58.6642 20.2816 59.1347 21.2473C59.8528 22.6835 59.9023 23.8226 59.2833 24.2683C58.5899 24.7636 58.0699 24.6893 57.3023 23.9712C56.5099 23.2531 56.4356 23.2778 54.4547 24.615C52.7708 25.754 52.7956 25.7045 53.3404 28.7007C53.5385 29.7903 53.687 31.4245 53.7118 32.316C53.7118 33.3312 53.8356 34.0493 54.0337 34.1979C54.628 34.6931 58.9861 36.5008 59.5556 36.5008C60.0261 36.5008 60.1747 36.3027 60.3976 35.535C60.6947 34.396 61.4623 33.9998 62.0814 34.6189C62.428 34.9408 62.428 35.2379 62.1557 37.0455C61.8337 39.1751 61.388 40.2151 60.769 40.2151C60.2737 40.2151 59.6052 39.4722 59.7537 39.0513C59.828 38.8532 59.7785 38.4817 59.6547 38.2093C59.4318 37.8132 59.1347 37.7389 57.7233 37.7636C56.8071 37.7884 55.3956 37.8627 54.5785 37.9617C52.9442 38.1351 53.1918 37.8627 51.508 41.4037C50.988 42.5427 50.5918 43.657 50.6661 43.9046C50.7156 44.1275 51.4089 45.0189 52.2261 45.9103L53.6623 47.5199L54.5289 47.0494C55.5442 46.5046 56.2623 46.678 56.6337 47.5446C56.8813 48.0399 56.8566 48.3123 56.5594 48.8818C55.4947 50.937 53.4642 50.7637 53.4642 48.6094C53.4642 47.6685 53.4394 47.6437 51.8051 46.8761C49.007 45.6132 48.9822 45.638 47.1994 47.3218C46.3575 48.1389 45.0203 49.2285 44.2279 49.7237C42.5689 50.7885 42.5689 50.8875 43.2622 54.8247L43.6832 57.1771H45.1689C46.5803 57.1771 46.6546 57.2018 46.7289 57.8209C46.8279 58.6133 46.6298 58.7618 44.2032 59.7276C42.7174 60.3219 42.1479 60.4457 41.8013 60.2476C41.1327 59.9009 41.207 58.9352 41.9498 58.4399C42.2965 58.2171 42.5689 57.8704 42.5689 57.6476C42.5689 57.2266 39.4984 52.819 39.0031 52.5466C38.805 52.4475 37.8146 52.5218 36.7498 52.7199C34.5212 53.1656 31.5993 53.1904 29.5936 52.819C27.8355 52.4971 27.7364 52.5713 25.8545 55.5428C23.9973 58.4895 24.0221 58.4152 25.1116 59.4057C25.9288 60.1733 26.0031 60.3466 25.8545 61.0647C25.6316 62.08 25.5326 62.2533 25.1612 62.2533C24.4431 62.2533 20.8526 60.718 20.4811 60.2476C19.9116 59.5542 19.9116 59.3809 20.6297 58.6628C21.1002 58.1923 21.3973 58.0933 22.0907 58.2171C23.2545 58.3904 23.3783 58.118 23.7497 54.5028C24.0964 51.1847 24.1459 51.2589 22.1402 50.1199C21.4221 49.6989 19.9364 48.5846 18.8221 47.6437C17.7325 46.678 16.7421 45.9103 16.643 45.9103C16.2468 45.9103 11.4677 47.9904 11.3192 48.238C11.2201 48.3866 11.1954 48.857 11.2696 49.278C11.4182 50.0951 10.923 50.8628 10.2296 50.8628C9.75916 50.8628 8.89249 49.9218 8.27344 48.758C7.902 48.0894 7.85248 47.7923 8.05058 47.4456C8.39724 46.9008 9.46201 46.777 9.88297 47.2475C10.4525 47.9656 11.0715 47.6437 12.7801 45.7865C15.0087 43.3103 15.083 43.0875 14.1916 41.4284C13.4239 39.9922 12.7058 39.6208 12.1116 40.3389C11.8392 40.6856 11.8639 40.9084 12.3096 41.8246L12.8297 42.9141L11.7401 44.1275C10.6506 45.3408 10.6258 45.3408 9.68487 45.0932C8.94201 44.8951 8.57058 44.9199 7.82772 45.2913C6.02009 46.1332 5.6239 48.238 6.93628 50.1942C8.1001 51.977 8.99153 52.5961 10.3039 52.5961C11.2449 52.5961 11.542 52.4723 12.2601 51.7542C12.7306 51.2837 13.1268 50.6894 13.1268 50.3923C13.1516 50.0951 13.1763 49.7485 13.2011 49.5751C13.2011 49.4018 13.9439 48.9808 14.8354 48.6094L16.4201 47.9408L17.8068 49.2037C18.5497 49.8723 19.7878 50.838 20.5306 51.3085C21.2735 51.779 21.9421 52.1999 21.9916 52.2494C22.0411 52.299 21.9916 53.2151 21.8926 54.3047C21.744 56.1371 21.6697 56.3104 21.1745 56.3104C20.9021 56.3104 20.3078 56.5333 19.8621 56.8056C18.3516 57.7218 17.8563 59.678 18.7973 61.1885C19.3421 62.08 20.0106 62.4762 22.5364 63.3924C25.3592 64.4076 26.6964 64.1847 27.365 62.6247C27.9097 61.3371 27.8107 59.7523 27.1421 58.7619L26.5726 57.9199L27.5383 56.4342C28.0583 55.6171 28.5536 54.8742 28.6526 54.7752C28.7516 54.6761 29.7421 54.7256 30.8812 54.8494C32.7383 55.0475 35.8336 54.8742 37.6412 54.478C38.1365 54.3542 38.3841 54.5275 39.1765 55.6666C40.2165 57.2018 40.2165 57.2266 39.7212 58.1923C39.0031 59.5542 39.4984 61.1885 40.8355 61.8819C41.8755 62.4266 42.5936 62.3523 44.8717 61.4609C47.3479 60.52 47.9422 60.1485 48.4127 59.2571C49.3784 57.3504 47.9175 55.0723 45.7384 55.0723C45.1937 55.0723 45.1194 54.9485 44.8965 53.3637C44.6736 51.6799 44.6736 51.6304 45.2927 51.2837C45.6394 51.0609 46.7041 50.2437 47.6946 49.4018L49.4775 47.9161L50.468 48.337C51.2604 48.6837 51.4832 48.9313 51.607 49.5504C52.1023 52.1999 55.3709 53.0666 57.2528 51.0361C58.9366 49.2037 59.1099 47.2475 57.6985 45.8113C57.0052 45.1427 56.7575 45.0437 55.4451 45.0189C53.9594 44.9942 53.4147 44.7465 52.9442 43.8551C52.7461 43.4837 52.8699 42.9884 53.5137 41.5522L54.3308 39.7198H56.1137C57.649 39.7198 57.8966 39.7941 58.0452 40.2151C58.1194 40.4627 58.5404 40.9827 58.9366 41.3294C60.3728 42.5179 62.6509 41.9979 63.3195 40.2894C63.8147 39.0017 64.409 35.4608 64.2604 34.6189C64.0128 33.4055 62.8738 32.5388 61.4623 32.5388C60.5214 32.5388 60.2242 32.6627 59.4814 33.4055L58.6147 34.2722L57.3518 33.7274C55.4699 32.9598 55.4451 32.9103 55.4451 31.2017C55.4451 30.3598 55.3213 28.9979 55.1728 28.2055C54.9004 26.7693 54.9251 26.7198 55.569 26.175C56.1632 25.655 56.2623 25.6302 56.7575 25.9769C57.0547 26.175 57.8223 26.3483 58.4909 26.3483C59.5804 26.3483 59.828 26.2493 60.6947 25.3578C61.6604 24.3921 61.6852 24.3178 61.5861 23.055C61.2395 19.2416 58.8375 17.1368 56.287 18.4245Z"/>
<path d="M40.2165 18.6472C38.9784 19.39 38.5327 20.0834 38.4336 21.3215C38.3098 22.8567 38.9784 23.971 40.4146 24.6148C41.7765 25.2339 42.8908 25.2339 44.2032 24.5901C46.8032 23.352 46.9518 20.1577 44.5003 18.6719C43.4108 18.0281 41.2565 18.0034 40.2165 18.6472ZM43.386 20.1824C44.2032 20.5539 44.6241 21.5196 44.3022 22.1386C43.5841 23.5005 41.0584 23.4758 40.3403 22.1139C39.5727 20.7272 41.6774 19.39 43.386 20.1824Z"/>
<path d="M37.4185 29.617C36.7252 30.3103 37.2699 31.3008 38.3842 31.3008C39.0528 31.3008 39.8452 30.756 39.8452 30.3103C39.8452 29.4932 38.0376 28.9979 37.4185 29.617Z"/>
<path d="M17.8566 32.3407C17.1137 33.0836 17.7823 34.1236 18.9461 33.975C19.788 33.876 20.2585 33.2074 19.8871 32.5883C19.5652 32.0683 18.3023 31.895 17.8566 32.3407Z"/>
<path d="M42.6681 33.0093C41.5291 33.7026 41.0834 34.495 41.0834 35.7083C41.0834 36.9712 41.5538 38.0112 42.3958 38.556C44.7481 40.0912 47.5215 38.5312 47.5215 35.6836C47.5215 34.6931 47.3977 34.3712 46.7043 33.6283C46.011 32.8607 45.6891 32.7121 44.6491 32.6131C43.7329 32.5388 43.2377 32.6378 42.6681 33.0093ZM45.491 34.9655C46.1843 35.8569 45.4662 37.2436 44.3024 37.2436C42.8662 37.2436 42.3462 35.1883 43.6091 34.5693C44.2777 34.2721 45.0453 34.4207 45.491 34.9655Z"/>
<path d="M29.5689 33.6283C26.6717 34.9159 26.1022 38.8035 28.5041 40.834C31.6984 43.5331 36.527 40.2645 35.2641 36.2283C34.546 33.9502 31.7479 32.6625 29.5689 33.6283ZM32.9365 35.9807C33.7537 36.7978 33.8527 37.6397 33.2832 38.7293C32.5898 40.0664 31.0298 40.3883 29.8413 39.4474C28.9003 38.7045 28.6279 37.8626 28.9498 36.8473C29.5193 35.114 31.6241 34.6683 32.9365 35.9807Z"/>
<path d="M19.9117 38.7542C17.8564 39.3732 16.9155 41.7256 17.9555 43.7066C18.4755 44.7218 20.2088 45.4894 21.4221 45.2666C23.1555 44.9447 24.4926 42.9142 24.0717 41.2551C23.626 39.3732 21.6945 38.2342 19.9117 38.7542ZM21.7193 40.8589C22.7593 41.577 22.165 43.4342 20.8526 43.4342C20.1593 43.4342 19.2926 42.617 19.2926 41.9485C19.2926 41.3294 20.1345 40.4627 20.7288 40.4627C20.9764 40.4627 21.4221 40.6361 21.7193 40.8589Z"/>
<path d="M41.1824 43.0379C40.811 43.9789 41.1577 44.3008 42.5691 44.3008C43.9062 44.3008 43.931 44.3008 43.931 43.5579C43.931 42.8398 43.9062 42.8151 42.6186 42.7408C41.6529 42.6912 41.2815 42.7655 41.1824 43.0379Z"/>
<path d="M34.5215 44.4493C31.7976 45.2169 31.4262 49.0798 33.9272 50.417C34.9424 50.9617 35.611 50.9865 36.75 50.516C38.3596 49.8227 39.1024 47.5693 38.2358 45.9103C37.6167 44.7465 35.8834 44.0531 34.5215 44.4493ZM36.4777 46.7027C36.9729 47.4208 36.9729 47.8665 36.4529 48.436C36.0072 48.9312 34.8929 49.0303 34.4472 48.5846C34.0015 48.1389 34.0757 46.7274 34.5957 46.4303C35.2891 46.0093 36.0815 46.1331 36.4777 46.7027Z"/>
<path d="M26.2508 46.1084C25.8298 46.9008 26.4241 47.4455 27.5879 47.3465C28.5041 47.2722 28.5784 47.2227 28.5784 46.5293C28.5784 45.836 28.5041 45.7865 27.5384 45.7122C26.7212 45.6627 26.4489 45.7369 26.2508 46.1084Z"/>
</mask>
<path d="M34.1251 2.0815C32.9613 2.40341 32.1937 3.09674 31.7727 4.18627C31.327 5.39962 31.5251 6.46438 32.4413 7.6282C32.7632 8.04915 32.887 8.44535 32.7632 8.8663C32.5899 9.55964 32.3175 9.63393 29.5442 9.88155L27.786 10.0549L26.7708 8.61868C25.8298 7.28153 25.7803 7.15772 26.127 6.73677C26.3498 6.51391 26.5975 5.82057 26.647 5.22628C26.7708 4.28532 26.6718 4.0377 26.0032 3.27008C24.9879 2.10626 24.1213 1.95769 22.1898 2.6015C18.525 3.86437 17.3117 4.80533 17.3117 6.41486C17.3117 7.90058 18.6736 9.2625 20.1346 9.2625C20.8279 9.2625 20.927 9.48535 21.1498 11.4911L21.2984 12.853L20.3574 13.3978C19.8374 13.6701 18.7231 14.5368 17.906 15.3044L16.3955 16.6663L15.3555 16.2702C14.5631 15.9482 14.3403 15.7502 14.3403 15.2797C14.3403 14.3635 13.5974 13.2739 12.6564 12.8282C11.0221 12.0606 9.43737 13.0511 7.67926 15.9482C7.01069 17.0625 7.01069 17.9044 7.72879 18.9445C8.39736 19.9597 9.75928 20.4054 10.8736 19.9845C11.4926 19.7616 11.6412 19.7864 12.2107 20.3807C12.5574 20.7521 12.8545 21.1483 12.8545 21.2721C12.8545 21.3959 12.4831 22.3864 12.0126 23.5007C11.5421 24.5902 11.0221 26.1502 10.8488 26.9674C10.6755 27.7845 10.4526 28.5769 10.3536 28.7255C10.2298 28.8493 9.43737 29.1217 8.54594 29.295L6.9364 29.6169L6.24307 28.8245C5.35163 27.834 3.59353 27.5121 2.57828 28.1807C1.31542 29.0226 0.96875 29.9636 0.96875 32.6626C0.96875 34.1484 1.09256 35.3865 1.29066 35.7579C1.68685 36.5503 3.09829 37.4912 3.86591 37.4912C4.90592 37.4912 6.19354 36.7236 6.58973 35.8569C7.03545 34.9655 7.18402 34.9655 9.51166 35.6093C10.304 35.8569 10.5021 36.0303 10.6507 36.6493C10.725 37.0703 10.8736 37.5408 10.9726 37.6893C11.2202 38.1103 11.9879 38.0608 12.3593 37.615C12.7555 37.1446 12.2355 34.5941 11.666 34.2969C10.9479 33.9255 6.51545 32.9845 5.8964 33.0836C5.45068 33.1331 5.27735 33.356 5.1783 34.0245C4.9802 35.1636 4.75734 35.5103 4.18782 35.5103C3.024 35.5103 2.94971 35.3369 2.94971 32.7864C2.94971 30.3102 3.19733 29.5674 4.03924 29.5674C4.4602 29.5674 5.1783 30.3845 5.1783 30.855C5.1783 31.0779 5.35163 31.375 5.54973 31.5483C5.84687 31.796 6.49069 31.6969 8.81832 31.1521C12.1364 30.335 12.0621 30.434 12.7307 27.2893C12.9536 26.2493 13.5726 24.4664 14.1174 23.3273C14.9098 21.7426 15.0584 21.173 14.885 20.7768C14.4888 19.9349 12.0869 17.434 11.6907 17.434C11.4926 17.434 11.0469 17.6568 10.7002 17.9292C10.2298 18.3006 9.95737 18.3502 9.6107 18.1521C8.8926 17.7806 9.04118 17.1121 10.1555 15.7006C10.8983 14.7597 11.2945 14.4625 11.6907 14.512C12.1612 14.5863 12.2355 14.7349 12.2355 15.7006V16.8149L14.0926 17.7311C15.1079 18.2264 16.1726 18.6473 16.445 18.6721C16.7174 18.6721 17.6088 18.053 18.426 17.2854C19.2431 16.5425 20.6546 15.4282 21.5955 14.8092C23.4775 13.5463 23.4279 13.7692 22.8584 10.1539C22.3879 7.20724 22.1651 6.83581 20.927 7.20724C19.8622 7.52915 19.1936 7.15772 19.3422 6.29105C19.3917 5.82057 19.7879 5.54819 21.3974 4.87961C23.7746 3.91389 24.5917 3.88913 24.6908 4.85485C24.7403 5.35009 24.5917 5.62247 24.146 5.94438C23.7994 6.16724 23.5022 6.53867 23.5022 6.76153C23.5022 6.98439 24.2451 8.24725 25.1613 9.60916L26.8203 12.0358L28.207 11.8873C28.9499 11.813 30.4356 11.6644 31.4756 11.5901C33.7042 11.392 33.8527 11.2682 34.6699 9.03964L35.2394 7.45487L34.3232 6.73677C33.2585 5.87009 33.1346 5.07771 33.927 4.28532C34.3728 3.83961 34.6451 3.76532 35.7347 3.88913C37.6413 4.11199 38.508 5.4739 37.369 6.46438C37.0966 6.712 36.6756 7.08343 36.4032 7.30629C36.007 7.65296 35.9823 7.90058 36.1804 9.28726C36.5023 11.7139 36.4775 11.6644 38.4337 12.2587C39.4242 12.5311 41.0337 13.1501 42.049 13.6206C43.0642 14.0911 43.9557 14.4625 44.0795 14.4625C44.55 14.4625 49.0071 10.6739 49.0071 10.2777C49.0071 10.0301 48.7347 9.5844 48.3881 9.2625C47.5709 8.49487 47.5709 7.57868 48.3881 7.38058C48.8585 7.25677 49.3538 7.50439 50.7405 8.56916C52.5729 9.95583 53.0433 10.773 52.3995 11.4168C52.0776 11.7635 51.9043 11.7635 51.2605 11.4911C50.8395 11.3177 50.3195 11.2435 50.1214 11.3425C49.6509 11.5158 47.4719 16.0721 47.4719 16.8892C47.4471 17.7064 48.2395 18.474 48.9824 18.3749C49.5519 18.3006 49.6262 18.1768 49.6262 17.3102C49.6262 16.7654 49.8986 15.6759 50.2205 14.8835C50.7652 13.5216 50.8395 13.472 51.7062 13.472C53.811 13.472 55.2472 11.4416 54.3805 9.63393C53.9595 8.76725 50.6414 5.94438 49.5271 5.52343C48.71 5.20152 47.67 5.44914 46.7785 6.192C45.8376 7.00915 45.59 8.27201 46.1347 9.43583C46.5309 10.2777 46.5309 10.3025 45.8623 10.8225C45.4909 11.1196 44.8966 11.5901 44.5747 11.8873L43.9557 12.4073L42.4699 11.7387C41.628 11.3673 40.3156 10.8473 39.548 10.6244C38.2604 10.2035 38.1366 10.1044 38.0623 9.41107C38.0128 8.84154 38.1861 8.42059 38.7804 7.70249C39.449 6.95962 39.5975 6.58819 39.5975 5.64724C39.5975 4.2358 38.9042 3.02246 37.7899 2.50246C36.8242 2.05674 34.9918 1.85864 34.1251 2.0815Z" fill="#FF8743"/>
<path d="M34.2242 15.9483C33.6052 16.1959 33.4813 16.914 33.9518 17.3845C34.1252 17.5578 34.6452 17.6816 35.1404 17.6816C36.6261 17.6816 37.2452 16.4188 35.9823 15.9483C35.2394 15.6512 34.9423 15.6512 34.2242 15.9483Z" fill="#FF8743"/>
<path d="M24.4679 17.8053C20.0602 19.2168 17.584 24.0206 19.3421 27.7349C20.3079 29.7902 22.4622 30.9292 25.0622 30.7559C27.6622 30.5826 29.4946 29.2702 28.3308 28.4283C27.9593 28.1559 27.7365 28.1806 26.9936 28.5025C24.9136 29.394 22.3879 28.874 21.224 27.3387C19.664 25.234 21.0507 21.6435 23.9726 20.1082C28.2317 17.8796 32.0946 21.1235 30.1879 25.3082C29.8165 26.1502 29.767 26.4968 29.9651 26.8683C30.4108 27.7349 31.2279 27.3635 31.9213 25.9768C33.0355 23.7482 32.6889 20.9749 31.0793 19.2168C29.7174 17.7063 26.7212 17.0872 24.4679 17.8053Z" fill="#FF8743"/>
<path d="M56.287 18.4245C55.2966 18.9197 54.9747 19.3407 54.4547 20.7026C54.108 21.6931 52.8699 21.6931 52.3746 20.6778C51.8794 19.7616 51.3842 19.5883 50.7156 20.1331L50.1708 20.5788L50.8642 21.8664C51.2851 22.6093 51.7804 23.2035 52.1023 23.2778C52.5975 23.4016 55.8166 22.9807 56.2375 22.7331C56.3366 22.6588 56.4356 22.114 56.4356 21.5445C56.4356 20.3064 56.8318 19.8359 57.8471 19.9597C58.3918 20.0092 58.6642 20.2816 59.1347 21.2473C59.8528 22.6835 59.9023 23.8226 59.2833 24.2683C58.5899 24.7636 58.0699 24.6893 57.3023 23.9712C56.5099 23.2531 56.4356 23.2778 54.4547 24.615C52.7708 25.754 52.7956 25.7045 53.3404 28.7007C53.5385 29.7903 53.687 31.4245 53.7118 32.316C53.7118 33.3312 53.8356 34.0493 54.0337 34.1979C54.628 34.6931 58.9861 36.5008 59.5556 36.5008C60.0261 36.5008 60.1747 36.3027 60.3976 35.535C60.6947 34.396 61.4623 33.9998 62.0814 34.6189C62.428 34.9408 62.428 35.2379 62.1557 37.0455C61.8337 39.1751 61.388 40.2151 60.769 40.2151C60.2737 40.2151 59.6052 39.4722 59.7537 39.0513C59.828 38.8532 59.7785 38.4817 59.6547 38.2093C59.4318 37.8132 59.1347 37.7389 57.7233 37.7636C56.8071 37.7884 55.3956 37.8627 54.5785 37.9617C52.9442 38.1351 53.1918 37.8627 51.508 41.4037C50.988 42.5427 50.5918 43.657 50.6661 43.9046C50.7156 44.1275 51.4089 45.0189 52.2261 45.9103L53.6623 47.5199L54.5289 47.0494C55.5442 46.5046 56.2623 46.678 56.6337 47.5446C56.8813 48.0399 56.8566 48.3123 56.5594 48.8818C55.4947 50.937 53.4642 50.7637 53.4642 48.6094C53.4642 47.6685 53.4394 47.6437 51.8051 46.8761C49.007 45.6132 48.9822 45.638 47.1994 47.3218C46.3575 48.1389 45.0203 49.2285 44.2279 49.7237C42.5689 50.7885 42.5689 50.8875 43.2622 54.8247L43.6832 57.1771H45.1689C46.5803 57.1771 46.6546 57.2018 46.7289 57.8209C46.8279 58.6133 46.6298 58.7618 44.2032 59.7276C42.7174 60.3219 42.1479 60.4457 41.8013 60.2476C41.1327 59.9009 41.207 58.9352 41.9498 58.4399C42.2965 58.2171 42.5689 57.8704 42.5689 57.6476C42.5689 57.2266 39.4984 52.819 39.0031 52.5466C38.805 52.4475 37.8146 52.5218 36.7498 52.7199C34.5212 53.1656 31.5993 53.1904 29.5936 52.819C27.8355 52.4971 27.7364 52.5713 25.8545 55.5428C23.9973 58.4895 24.0221 58.4152 25.1116 59.4057C25.9288 60.1733 26.0031 60.3466 25.8545 61.0647C25.6316 62.08 25.5326 62.2533 25.1612 62.2533C24.4431 62.2533 20.8526 60.718 20.4811 60.2476C19.9116 59.5542 19.9116 59.3809 20.6297 58.6628C21.1002 58.1923 21.3973 58.0933 22.0907 58.2171C23.2545 58.3904 23.3783 58.118 23.7497 54.5028C24.0964 51.1847 24.1459 51.2589 22.1402 50.1199C21.4221 49.6989 19.9364 48.5846 18.8221 47.6437C17.7325 46.678 16.7421 45.9103 16.643 45.9103C16.2468 45.9103 11.4677 47.9904 11.3192 48.238C11.2201 48.3866 11.1954 48.857 11.2696 49.278C11.4182 50.0951 10.923 50.8628 10.2296 50.8628C9.75916 50.8628 8.89249 49.9218 8.27344 48.758C7.902 48.0894 7.85248 47.7923 8.05058 47.4456C8.39724 46.9008 9.46201 46.777 9.88297 47.2475C10.4525 47.9656 11.0715 47.6437 12.7801 45.7865C15.0087 43.3103 15.083 43.0875 14.1916 41.4284C13.4239 39.9922 12.7058 39.6208 12.1116 40.3389C11.8392 40.6856 11.8639 40.9084 12.3096 41.8246L12.8297 42.9141L11.7401 44.1275C10.6506 45.3408 10.6258 45.3408 9.68487 45.0932C8.94201 44.8951 8.57058 44.9199 7.82772 45.2913C6.02009 46.1332 5.6239 48.238 6.93628 50.1942C8.1001 51.977 8.99153 52.5961 10.3039 52.5961C11.2449 52.5961 11.542 52.4723 12.2601 51.7542C12.7306 51.2837 13.1268 50.6894 13.1268 50.3923C13.1516 50.0951 13.1763 49.7485 13.2011 49.5751C13.2011 49.4018 13.9439 48.9808 14.8354 48.6094L16.4201 47.9408L17.8068 49.2037C18.5497 49.8723 19.7878 50.838 20.5306 51.3085C21.2735 51.779 21.9421 52.1999 21.9916 52.2494C22.0411 52.299 21.9916 53.2151 21.8926 54.3047C21.744 56.1371 21.6697 56.3104 21.1745 56.3104C20.9021 56.3104 20.3078 56.5333 19.8621 56.8056C18.3516 57.7218 17.8563 59.678 18.7973 61.1885C19.3421 62.08 20.0106 62.4762 22.5364 63.3924C25.3592 64.4076 26.6964 64.1847 27.365 62.6247C27.9097 61.3371 27.8107 59.7523 27.1421 58.7619L26.5726 57.9199L27.5383 56.4342C28.0583 55.6171 28.5536 54.8742 28.6526 54.7752C28.7516 54.6761 29.7421 54.7256 30.8812 54.8494C32.7383 55.0475 35.8336 54.8742 37.6412 54.478C38.1365 54.3542 38.3841 54.5275 39.1765 55.6666C40.2165 57.2018 40.2165 57.2266 39.7212 58.1923C39.0031 59.5542 39.4984 61.1885 40.8355 61.8819C41.8755 62.4266 42.5936 62.3523 44.8717 61.4609C47.3479 60.52 47.9422 60.1485 48.4127 59.2571C49.3784 57.3504 47.9175 55.0723 45.7384 55.0723C45.1937 55.0723 45.1194 54.9485 44.8965 53.3637C44.6736 51.6799 44.6736 51.6304 45.2927 51.2837C45.6394 51.0609 46.7041 50.2437 47.6946 49.4018L49.4775 47.9161L50.468 48.337C51.2604 48.6837 51.4832 48.9313 51.607 49.5504C52.1023 52.1999 55.3709 53.0666 57.2528 51.0361C58.9366 49.2037 59.1099 47.2475 57.6985 45.8113C57.0052 45.1427 56.7575 45.0437 55.4451 45.0189C53.9594 44.9942 53.4147 44.7465 52.9442 43.8551C52.7461 43.4837 52.8699 42.9884 53.5137 41.5522L54.3308 39.7198H56.1137C57.649 39.7198 57.8966 39.7941 58.0452 40.2151C58.1194 40.4627 58.5404 40.9827 58.9366 41.3294C60.3728 42.5179 62.6509 41.9979 63.3195 40.2894C63.8147 39.0017 64.409 35.4608 64.2604 34.6189C64.0128 33.4055 62.8738 32.5388 61.4623 32.5388C60.5214 32.5388 60.2242 32.6627 59.4814 33.4055L58.6147 34.2722L57.3518 33.7274C55.4699 32.9598 55.4451 32.9103 55.4451 31.2017C55.4451 30.3598 55.3213 28.9979 55.1728 28.2055C54.9004 26.7693 54.9251 26.7198 55.569 26.175C56.1632 25.655 56.2623 25.6302 56.7575 25.9769C57.0547 26.175 57.8223 26.3483 58.4909 26.3483C59.5804 26.3483 59.828 26.2493 60.6947 25.3578C61.6604 24.3921 61.6852 24.3178 61.5861 23.055C61.2395 19.2416 58.8375 17.1368 56.287 18.4245Z" fill="#FF8743"/>
<path d="M40.2165 18.6472C38.9784 19.39 38.5327 20.0834 38.4336 21.3215C38.3098 22.8567 38.9784 23.971 40.4146 24.6148C41.7765 25.2339 42.8908 25.2339 44.2032 24.5901C46.8032 23.352 46.9518 20.1577 44.5003 18.6719C43.4108 18.0281 41.2565 18.0034 40.2165 18.6472ZM43.386 20.1824C44.2032 20.5539 44.6241 21.5196 44.3022 22.1386C43.5841 23.5005 41.0584 23.4758 40.3403 22.1139C39.5727 20.7272 41.6774 19.39 43.386 20.1824Z" fill="#FF8743"/>
<path d="M37.4185 29.617C36.7252 30.3103 37.2699 31.3008 38.3842 31.3008C39.0528 31.3008 39.8452 30.756 39.8452 30.3103C39.8452 29.4932 38.0376 28.9979 37.4185 29.617Z" fill="#FF8743"/>
<path d="M17.8566 32.3407C17.1137 33.0836 17.7823 34.1236 18.9461 33.975C19.788 33.876 20.2585 33.2074 19.8871 32.5883C19.5652 32.0683 18.3023 31.895 17.8566 32.3407Z" fill="#FF8743"/>
<path d="M42.6681 33.0093C41.5291 33.7026 41.0834 34.495 41.0834 35.7083C41.0834 36.9712 41.5538 38.0112 42.3958 38.556C44.7481 40.0912 47.5215 38.5312 47.5215 35.6836C47.5215 34.6931 47.3977 34.3712 46.7043 33.6283C46.011 32.8607 45.6891 32.7121 44.6491 32.6131C43.7329 32.5388 43.2377 32.6378 42.6681 33.0093ZM45.491 34.9655C46.1843 35.8569 45.4662 37.2436 44.3024 37.2436C42.8662 37.2436 42.3462 35.1883 43.6091 34.5693C44.2777 34.2721 45.0453 34.4207 45.491 34.9655Z" fill="#FF8743"/>
<path d="M29.5689 33.6283C26.6717 34.9159 26.1022 38.8035 28.5041 40.834C31.6984 43.5331 36.527 40.2645 35.2641 36.2283C34.546 33.9502 31.7479 32.6625 29.5689 33.6283ZM32.9365 35.9807C33.7537 36.7978 33.8527 37.6397 33.2832 38.7293C32.5898 40.0664 31.0298 40.3883 29.8413 39.4474C28.9003 38.7045 28.6279 37.8626 28.9498 36.8473C29.5193 35.114 31.6241 34.6683 32.9365 35.9807Z" fill="#FF8743"/>
<path d="M19.9117 38.7542C17.8564 39.3732 16.9155 41.7256 17.9555 43.7066C18.4755 44.7218 20.2088 45.4894 21.4221 45.2666C23.1555 44.9447 24.4926 42.9142 24.0717 41.2551C23.626 39.3732 21.6945 38.2342 19.9117 38.7542ZM21.7193 40.8589C22.7593 41.577 22.165 43.4342 20.8526 43.4342C20.1593 43.4342 19.2926 42.617 19.2926 41.9485C19.2926 41.3294 20.1345 40.4627 20.7288 40.4627C20.9764 40.4627 21.4221 40.6361 21.7193 40.8589Z" fill="#FF8743"/>
<path d="M41.1824 43.0379C40.811 43.9789 41.1577 44.3008 42.5691 44.3008C43.9062 44.3008 43.931 44.3008 43.931 43.5579C43.931 42.8398 43.9062 42.8151 42.6186 42.7408C41.6529 42.6912 41.2815 42.7655 41.1824 43.0379Z" fill="#FF8743"/>
<path d="M34.5215 44.4493C31.7976 45.2169 31.4262 49.0798 33.9272 50.417C34.9424 50.9617 35.611 50.9865 36.75 50.516C38.3596 49.8227 39.1024 47.5693 38.2358 45.9103C37.6167 44.7465 35.8834 44.0531 34.5215 44.4493ZM36.4777 46.7027C36.9729 47.4208 36.9729 47.8665 36.4529 48.436C36.0072 48.9312 34.8929 49.0303 34.4472 48.5846C34.0015 48.1389 34.0757 46.7274 34.5957 46.4303C35.2891 46.0093 36.0815 46.1331 36.4777 46.7027Z" fill="#FF8743"/>
<path d="M26.2508 46.1084C25.8298 46.9008 26.4241 47.4455 27.5879 47.3465C28.5041 47.2722 28.5784 47.2227 28.5784 46.5293C28.5784 45.836 28.5041 45.7865 27.5384 45.7122C26.7212 45.6627 26.4489 45.7369 26.2508 46.1084Z" fill="#FF8743"/>
<path d="M34.1251 2.0815C32.9613 2.40341 32.1937 3.09674 31.7727 4.18627C31.327 5.39962 31.5251 6.46438 32.4413 7.6282C32.7632 8.04915 32.887 8.44535 32.7632 8.8663C32.5899 9.55964 32.3175 9.63393 29.5442 9.88155L27.786 10.0549L26.7708 8.61868C25.8298 7.28153 25.7803 7.15772 26.127 6.73677C26.3498 6.51391 26.5975 5.82057 26.647 5.22628C26.7708 4.28532 26.6718 4.0377 26.0032 3.27008C24.9879 2.10626 24.1213 1.95769 22.1898 2.6015C18.525 3.86437 17.3117 4.80533 17.3117 6.41486C17.3117 7.90058 18.6736 9.2625 20.1346 9.2625C20.8279 9.2625 20.927 9.48535 21.1498 11.4911L21.2984 12.853L20.3574 13.3978C19.8374 13.6701 18.7231 14.5368 17.906 15.3044L16.3955 16.6663L15.3555 16.2702C14.5631 15.9482 14.3403 15.7502 14.3403 15.2797C14.3403 14.3635 13.5974 13.2739 12.6564 12.8282C11.0221 12.0606 9.43737 13.0511 7.67926 15.9482C7.01069 17.0625 7.01069 17.9044 7.72879 18.9445C8.39736 19.9597 9.75928 20.4054 10.8736 19.9845C11.4926 19.7616 11.6412 19.7864 12.2107 20.3807C12.5574 20.7521 12.8545 21.1483 12.8545 21.2721C12.8545 21.3959 12.4831 22.3864 12.0126 23.5007C11.5421 24.5902 11.0221 26.1502 10.8488 26.9674C10.6755 27.7845 10.4526 28.5769 10.3536 28.7255C10.2298 28.8493 9.43737 29.1217 8.54594 29.295L6.9364 29.6169L6.24307 28.8245C5.35163 27.834 3.59353 27.5121 2.57828 28.1807C1.31542 29.0226 0.96875 29.9636 0.96875 32.6626C0.96875 34.1484 1.09256 35.3865 1.29066 35.7579C1.68685 36.5503 3.09829 37.4912 3.86591 37.4912C4.90592 37.4912 6.19354 36.7236 6.58973 35.8569C7.03545 34.9655 7.18402 34.9655 9.51166 35.6093C10.304 35.8569 10.5021 36.0303 10.6507 36.6493C10.725 37.0703 10.8736 37.5408 10.9726 37.6893C11.2202 38.1103 11.9879 38.0608 12.3593 37.615C12.7555 37.1446 12.2355 34.5941 11.666 34.2969C10.9479 33.9255 6.51545 32.9845 5.8964 33.0836C5.45068 33.1331 5.27735 33.356 5.1783 34.0245C4.9802 35.1636 4.75734 35.5103 4.18782 35.5103C3.024 35.5103 2.94971 35.3369 2.94971 32.7864C2.94971 30.3102 3.19733 29.5674 4.03924 29.5674C4.4602 29.5674 5.1783 30.3845 5.1783 30.855C5.1783 31.0779 5.35163 31.375 5.54973 31.5483C5.84687 31.796 6.49069 31.6969 8.81832 31.1521C12.1364 30.335 12.0621 30.434 12.7307 27.2893C12.9536 26.2493 13.5726 24.4664 14.1174 23.3273C14.9098 21.7426 15.0584 21.173 14.885 20.7768C14.4888 19.9349 12.0869 17.434 11.6907 17.434C11.4926 17.434 11.0469 17.6568 10.7002 17.9292C10.2298 18.3006 9.95737 18.3502 9.6107 18.1521C8.8926 17.7806 9.04118 17.1121 10.1555 15.7006C10.8983 14.7597 11.2945 14.4625 11.6907 14.512C12.1612 14.5863 12.2355 14.7349 12.2355 15.7006V16.8149L14.0926 17.7311C15.1079 18.2264 16.1726 18.6473 16.445 18.6721C16.7174 18.6721 17.6088 18.053 18.426 17.2854C19.2431 16.5425 20.6546 15.4282 21.5955 14.8092C23.4775 13.5463 23.4279 13.7692 22.8584 10.1539C22.3879 7.20724 22.1651 6.83581 20.927 7.20724C19.8622 7.52915 19.1936 7.15772 19.3422 6.29105C19.3917 5.82057 19.7879 5.54819 21.3974 4.87961C23.7746 3.91389 24.5917 3.88913 24.6908 4.85485C24.7403 5.35009 24.5917 5.62247 24.146 5.94438C23.7994 6.16724 23.5022 6.53867 23.5022 6.76153C23.5022 6.98439 24.2451 8.24725 25.1613 9.60916L26.8203 12.0358L28.207 11.8873C28.9499 11.813 30.4356 11.6644 31.4756 11.5901C33.7042 11.392 33.8527 11.2682 34.6699 9.03964L35.2394 7.45487L34.3232 6.73677C33.2585 5.87009 33.1346 5.07771 33.927 4.28532C34.3728 3.83961 34.6451 3.76532 35.7347 3.88913C37.6413 4.11199 38.508 5.4739 37.369 6.46438C37.0966 6.712 36.6756 7.08343 36.4032 7.30629C36.007 7.65296 35.9823 7.90058 36.1804 9.28726C36.5023 11.7139 36.4775 11.6644 38.4337 12.2587C39.4242 12.5311 41.0337 13.1501 42.049 13.6206C43.0642 14.0911 43.9557 14.4625 44.0795 14.4625C44.55 14.4625 49.0071 10.6739 49.0071 10.2777C49.0071 10.0301 48.7347 9.5844 48.3881 9.2625C47.5709 8.49487 47.5709 7.57868 48.3881 7.38058C48.8585 7.25677 49.3538 7.50439 50.7405 8.56916C52.5729 9.95583 53.0433 10.773 52.3995 11.4168C52.0776 11.7635 51.9043 11.7635 51.2605 11.4911C50.8395 11.3177 50.3195 11.2435 50.1214 11.3425C49.6509 11.5158 47.4719 16.0721 47.4719 16.8892C47.4471 17.7064 48.2395 18.474 48.9824 18.3749C49.5519 18.3006 49.6262 18.1768 49.6262 17.3102C49.6262 16.7654 49.8986 15.6759 50.2205 14.8835C50.7652 13.5216 50.8395 13.472 51.7062 13.472C53.811 13.472 55.2472 11.4416 54.3805 9.63393C53.9595 8.76725 50.6414 5.94438 49.5271 5.52343C48.71 5.20152 47.67 5.44914 46.7785 6.192C45.8376 7.00915 45.59 8.27201 46.1347 9.43583C46.5309 10.2777 46.5309 10.3025 45.8623 10.8225C45.4909 11.1196 44.8966 11.5901 44.5747 11.8873L43.9557 12.4073L42.4699 11.7387C41.628 11.3673 40.3156 10.8473 39.548 10.6244C38.2604 10.2035 38.1366 10.1044 38.0623 9.41107C38.0128 8.84154 38.1861 8.42059 38.7804 7.70249C39.449 6.95962 39.5975 6.58819 39.5975 5.64724C39.5975 4.2358 38.9042 3.02246 37.7899 2.50246C36.8242 2.05674 34.9918 1.85864 34.1251 2.0815Z" stroke="#FF8743" stroke-width="0.825" mask="url(#path-1-outside-1_538_3237)"/>
<path d="M34.2242 15.9483C33.6052 16.1959 33.4813 16.914 33.9518 17.3845C34.1252 17.5578 34.6452 17.6816 35.1404 17.6816C36.6261 17.6816 37.2452 16.4188 35.9823 15.9483C35.2394 15.6512 34.9423 15.6512 34.2242 15.9483Z" stroke="#FF8743" stroke-width="0.825" mask="url(#path-1-outside-1_538_3237)"/>
<path d="M24.4679 17.8053C20.0602 19.2168 17.584 24.0206 19.3421 27.7349C20.3079 29.7902 22.4622 30.9292 25.0622 30.7559C27.6622 30.5826 29.4946 29.2702 28.3308 28.4283C27.9593 28.1559 27.7365 28.1806 26.9936 28.5025C24.9136 29.394 22.3879 28.874 21.224 27.3387C19.664 25.234 21.0507 21.6435 23.9726 20.1082C28.2317 17.8796 32.0946 21.1235 30.1879 25.3082C29.8165 26.1502 29.767 26.4968 29.9651 26.8683C30.4108 27.7349 31.2279 27.3635 31.9213 25.9768C33.0355 23.7482 32.6889 20.9749 31.0793 19.2168C29.7174 17.7063 26.7212 17.0872 24.4679 17.8053Z" stroke="#FF8743" stroke-width="0.825" mask="url(#path-1-outside-1_538_3237)"/>
<path d="M56.287 18.4245C55.2966 18.9197 54.9747 19.3407 54.4547 20.7026C54.108 21.6931 52.8699 21.6931 52.3746 20.6778C51.8794 19.7616 51.3842 19.5883 50.7156 20.1331L50.1708 20.5788L50.8642 21.8664C51.2851 22.6093 51.7804 23.2035 52.1023 23.2778C52.5975 23.4016 55.8166 22.9807 56.2375 22.7331C56.3366 22.6588 56.4356 22.114 56.4356 21.5445C56.4356 20.3064 56.8318 19.8359 57.8471 19.9597C58.3918 20.0092 58.6642 20.2816 59.1347 21.2473C59.8528 22.6835 59.9023 23.8226 59.2833 24.2683C58.5899 24.7636 58.0699 24.6893 57.3023 23.9712C56.5099 23.2531 56.4356 23.2778 54.4547 24.615C52.7708 25.754 52.7956 25.7045 53.3404 28.7007C53.5385 29.7903 53.687 31.4245 53.7118 32.316C53.7118 33.3312 53.8356 34.0493 54.0337 34.1979C54.628 34.6931 58.9861 36.5008 59.5556 36.5008C60.0261 36.5008 60.1747 36.3027 60.3976 35.535C60.6947 34.396 61.4623 33.9998 62.0814 34.6189C62.428 34.9408 62.428 35.2379 62.1557 37.0455C61.8337 39.1751 61.388 40.2151 60.769 40.2151C60.2737 40.2151 59.6052 39.4722 59.7537 39.0513C59.828 38.8532 59.7785 38.4817 59.6547 38.2093C59.4318 37.8132 59.1347 37.7389 57.7233 37.7636C56.8071 37.7884 55.3956 37.8627 54.5785 37.9617C52.9442 38.1351 53.1918 37.8627 51.508 41.4037C50.988 42.5427 50.5918 43.657 50.6661 43.9046C50.7156 44.1275 51.4089 45.0189 52.2261 45.9103L53.6623 47.5199L54.5289 47.0494C55.5442 46.5046 56.2623 46.678 56.6337 47.5446C56.8813 48.0399 56.8566 48.3123 56.5594 48.8818C55.4947 50.937 53.4642 50.7637 53.4642 48.6094C53.4642 47.6685 53.4394 47.6437 51.8051 46.8761C49.007 45.6132 48.9822 45.638 47.1994 47.3218C46.3575 48.1389 45.0203 49.2285 44.2279 49.7237C42.5689 50.7885 42.5689 50.8875 43.2622 54.8247L43.6832 57.1771H45.1689C46.5803 57.1771 46.6546 57.2018 46.7289 57.8209C46.8279 58.6133 46.6298 58.7618 44.2032 59.7276C42.7174 60.3219 42.1479 60.4457 41.8013 60.2476C41.1327 59.9009 41.207 58.9352 41.9498 58.4399C42.2965 58.2171 42.5689 57.8704 42.5689 57.6476C42.5689 57.2266 39.4984 52.819 39.0031 52.5466C38.805 52.4475 37.8146 52.5218 36.7498 52.7199C34.5212 53.1656 31.5993 53.1904 29.5936 52.819C27.8355 52.4971 27.7364 52.5713 25.8545 55.5428C23.9973 58.4895 24.0221 58.4152 25.1116 59.4057C25.9288 60.1733 26.0031 60.3466 25.8545 61.0647C25.6316 62.08 25.5326 62.2533 25.1612 62.2533C24.4431 62.2533 20.8526 60.718 20.4811 60.2476C19.9116 59.5542 19.9116 59.3809 20.6297 58.6628C21.1002 58.1923 21.3973 58.0933 22.0907 58.2171C23.2545 58.3904 23.3783 58.118 23.7497 54.5028C24.0964 51.1847 24.1459 51.2589 22.1402 50.1199C21.4221 49.6989 19.9364 48.5846 18.8221 47.6437C17.7325 46.678 16.7421 45.9103 16.643 45.9103C16.2468 45.9103 11.4677 47.9904 11.3192 48.238C11.2201 48.3866 11.1954 48.857 11.2696 49.278C11.4182 50.0951 10.923 50.8628 10.2296 50.8628C9.75916 50.8628 8.89249 49.9218 8.27344 48.758C7.902 48.0894 7.85248 47.7923 8.05058 47.4456C8.39724 46.9008 9.46201 46.777 9.88297 47.2475C10.4525 47.9656 11.0715 47.6437 12.7801 45.7865C15.0087 43.3103 15.083 43.0875 14.1916 41.4284C13.4239 39.9922 12.7058 39.6208 12.1116 40.3389C11.8392 40.6856 11.8639 40.9084 12.3096 41.8246L12.8297 42.9141L11.7401 44.1275C10.6506 45.3408 10.6258 45.3408 9.68487 45.0932C8.94201 44.8951 8.57058 44.9199 7.82772 45.2913C6.02009 46.1332 5.6239 48.238 6.93628 50.1942C8.1001 51.977 8.99153 52.5961 10.3039 52.5961C11.2449 52.5961 11.542 52.4723 12.2601 51.7542C12.7306 51.2837 13.1268 50.6894 13.1268 50.3923C13.1516 50.0951 13.1763 49.7485 13.2011 49.5751C13.2011 49.4018 13.9439 48.9808 14.8354 48.6094L16.4201 47.9408L17.8068 49.2037C18.5497 49.8723 19.7878 50.838 20.5306 51.3085C21.2735 51.779 21.9421 52.1999 21.9916 52.2494C22.0411 52.299 21.9916 53.2151 21.8926 54.3047C21.744 56.1371 21.6697 56.3104 21.1745 56.3104C20.9021 56.3104 20.3078 56.5333 19.8621 56.8056C18.3516 57.7218 17.8563 59.678 18.7973 61.1885C19.3421 62.08 20.0106 62.4762 22.5364 63.3924C25.3592 64.4076 26.6964 64.1847 27.365 62.6247C27.9097 61.3371 27.8107 59.7523 27.1421 58.7619L26.5726 57.9199L27.5383 56.4342C28.0583 55.6171 28.5536 54.8742 28.6526 54.7752C28.7516 54.6761 29.7421 54.7256 30.8812 54.8494C32.7383 55.0475 35.8336 54.8742 37.6412 54.478C38.1365 54.3542 38.3841 54.5275 39.1765 55.6666C40.2165 57.2018 40.2165 57.2266 39.7212 58.1923C39.0031 59.5542 39.4984 61.1885 40.8355 61.8819C41.8755 62.4266 42.5936 62.3523 44.8717 61.4609C47.3479 60.52 47.9422 60.1485 48.4127 59.2571C49.3784 57.3504 47.9175 55.0723 45.7384 55.0723C45.1937 55.0723 45.1194 54.9485 44.8965 53.3637C44.6736 51.6799 44.6736 51.6304 45.2927 51.2837C45.6394 51.0609 46.7041 50.2437 47.6946 49.4018L49.4775 47.9161L50.468 48.337C51.2604 48.6837 51.4832 48.9313 51.607 49.5504C52.1023 52.1999 55.3709 53.0666 57.2528 51.0361C58.9366 49.2037 59.1099 47.2475 57.6985 45.8113C57.0052 45.1427 56.7575 45.0437 55.4451 45.0189C53.9594 44.9942 53.4147 44.7465 52.9442 43.8551C52.7461 43.4837 52.8699 42.9884 53.5137 41.5522L54.3308 39.7198H56.1137C57.649 39.7198 57.8966 39.7941 58.0452 40.2151C58.1194 40.4627 58.5404 40.9827 58.9366 41.3294C60.3728 42.5179 62.6509 41.9979 63.3195 40.2894C63.8147 39.0017 64.409 35.4608 64.2604 34.6189C64.0128 33.4055 62.8738 32.5388 61.4623 32.5388C60.5214 32.5388 60.2242 32.6627 59.4814 33.4055L58.6147 34.2722L57.3518 33.7274C55.4699 32.9598 55.4451 32.9103 55.4451 31.2017C55.4451 30.3598 55.3213 28.9979 55.1728 28.2055C54.9004 26.7693 54.9251 26.7198 55.569 26.175C56.1632 25.655 56.2623 25.6302 56.7575 25.9769C57.0547 26.175 57.8223 26.3483 58.4909 26.3483C59.5804 26.3483 59.828 26.2493 60.6947 25.3578C61.6604 24.3921 61.6852 24.3178 61.5861 23.055C61.2395 19.2416 58.8375 17.1368 56.287 18.4245Z" stroke="#FF8743" stroke-width="0.825" mask="url(#path-1-outside-1_538_3237)"/>
<path d="M40.2165 18.6472C38.9784 19.39 38.5327 20.0834 38.4336 21.3215C38.3098 22.8567 38.9784 23.971 40.4146 24.6148C41.7765 25.2339 42.8908 25.2339 44.2032 24.5901C46.8032 23.352 46.9518 20.1577 44.5003 18.6719C43.4108 18.0281 41.2565 18.0034 40.2165 18.6472ZM43.386 20.1824C44.2032 20.5539 44.6241 21.5196 44.3022 22.1386C43.5841 23.5005 41.0584 23.4758 40.3403 22.1139C39.5727 20.7272 41.6774 19.39 43.386 20.1824Z" stroke="#FF8743" stroke-width="0.825" mask="url(#path-1-outside-1_538_3237)"/>
<path d="M37.4185 29.617C36.7252 30.3103 37.2699 31.3008 38.3842 31.3008C39.0528 31.3008 39.8452 30.756 39.8452 30.3103C39.8452 29.4932 38.0376 28.9979 37.4185 29.617Z" stroke="#FF8743" stroke-width="0.825" mask="url(#path-1-outside-1_538_3237)"/>
<path d="M17.8566 32.3407C17.1137 33.0836 17.7823 34.1236 18.9461 33.975C19.788 33.876 20.2585 33.2074 19.8871 32.5883C19.5652 32.0683 18.3023 31.895 17.8566 32.3407Z" stroke="#FF8743" stroke-width="0.825" mask="url(#path-1-outside-1_538_3237)"/>
<path d="M42.6681 33.0093C41.5291 33.7026 41.0834 34.495 41.0834 35.7083C41.0834 36.9712 41.5538 38.0112 42.3958 38.556C44.7481 40.0912 47.5215 38.5312 47.5215 35.6836C47.5215 34.6931 47.3977 34.3712 46.7043 33.6283C46.011 32.8607 45.6891 32.7121 44.6491 32.6131C43.7329 32.5388 43.2377 32.6378 42.6681 33.0093ZM45.491 34.9655C46.1843 35.8569 45.4662 37.2436 44.3024 37.2436C42.8662 37.2436 42.3462 35.1883 43.6091 34.5693C44.2777 34.2721 45.0453 34.4207 45.491 34.9655Z" stroke="#FF8743" stroke-width="0.825" mask="url(#path-1-outside-1_538_3237)"/>
<path d="M29.5689 33.6283C26.6717 34.9159 26.1022 38.8035 28.5041 40.834C31.6984 43.5331 36.527 40.2645 35.2641 36.2283C34.546 33.9502 31.7479 32.6625 29.5689 33.6283ZM32.9365 35.9807C33.7537 36.7978 33.8527 37.6397 33.2832 38.7293C32.5898 40.0664 31.0298 40.3883 29.8413 39.4474C28.9003 38.7045 28.6279 37.8626 28.9498 36.8473C29.5193 35.114 31.6241 34.6683 32.9365 35.9807Z" stroke="#FF8743" stroke-width="0.825" mask="url(#path-1-outside-1_538_3237)"/>
<path d="M19.9117 38.7542C17.8564 39.3732 16.9155 41.7256 17.9555 43.7066C18.4755 44.7218 20.2088 45.4894 21.4221 45.2666C23.1555 44.9447 24.4926 42.9142 24.0717 41.2551C23.626 39.3732 21.6945 38.2342 19.9117 38.7542ZM21.7193 40.8589C22.7593 41.577 22.165 43.4342 20.8526 43.4342C20.1593 43.4342 19.2926 42.617 19.2926 41.9485C19.2926 41.3294 20.1345 40.4627 20.7288 40.4627C20.9764 40.4627 21.4221 40.6361 21.7193 40.8589Z" stroke="#FF8743" stroke-width="0.825" mask="url(#path-1-outside-1_538_3237)"/>
<path d="M41.1824 43.0379C40.811 43.9789 41.1577 44.3008 42.5691 44.3008C43.9062 44.3008 43.931 44.3008 43.931 43.5579C43.931 42.8398 43.9062 42.8151 42.6186 42.7408C41.6529 42.6912 41.2815 42.7655 41.1824 43.0379Z" stroke="#FF8743" stroke-width="0.825" mask="url(#path-1-outside-1_538_3237)"/>
<path d="M34.5215 44.4493C31.7976 45.2169 31.4262 49.0798 33.9272 50.417C34.9424 50.9617 35.611 50.9865 36.75 50.516C38.3596 49.8227 39.1024 47.5693 38.2358 45.9103C37.6167 44.7465 35.8834 44.0531 34.5215 44.4493ZM36.4777 46.7027C36.9729 47.4208 36.9729 47.8665 36.4529 48.436C36.0072 48.9312 34.8929 49.0303 34.4472 48.5846C34.0015 48.1389 34.0757 46.7274 34.5957 46.4303C35.2891 46.0093 36.0815 46.1331 36.4777 46.7027Z" stroke="#FF8743" stroke-width="0.825" mask="url(#path-1-outside-1_538_3237)"/>
<path d="M26.2508 46.1084C25.8298 46.9008 26.4241 47.4455 27.5879 47.3465C28.5041 47.2722 28.5784 47.2227 28.5784 46.5293C28.5784 45.836 28.5041 45.7865 27.5384 45.7122C26.7212 45.6627 26.4489 45.7369 26.2508 46.1084Z" stroke="#FF8743" stroke-width="0.825" mask="url(#path-1-outside-1_538_3237)"/>
</svg>
