<svg width="66" height="66" viewBox="0 0 66 66" fill="none" xmlns="http://www.w3.org/2000/svg">
<g clip-path="url(#clip0_470_1059)">
<path fill-rule="evenodd" clip-rule="evenodd" d="M14.7266 45.7863C9.60789 42.8475 6.19864 38.8792 4.11133 34.1155C5.41295 29.2048 8.1917 28.9415 11.215 29.451L24.3117 15.0713C26.4088 13.5674 30.0325 13.7006 32.3059 15.3386C34.8612 16.4883 36.7893 19.5604 36.535 22.1287L30.6297 40.6602C32.583 43.0238 33.744 45.562 30.1422 49.1443C24.9731 49.7188 19.8316 48.7503 14.7266 45.7863Z" stroke="#FF8743" stroke-width="2.4375" stroke-miterlimit="1.5" stroke-linecap="round" stroke-linejoin="round"/>
<path d="M5.4375 36.7279L8.51363 34.1304L27.7406 45.2316L27.4969 49.3014" stroke="#FF8743" stroke-width="2.4375" stroke-miterlimit="1.5" stroke-linecap="round" stroke-linejoin="round"/>
<path d="M28.8145 14.0666L35.3283 7.19531L38.7879 9.19244L35.156 17.7277" stroke="#FF8743" stroke-width="2.4375" stroke-miterlimit="1.5" stroke-linecap="round" stroke-linejoin="round"/>
<path d="M25.3203 22.895C26.2222 24.5281 27.6506 25.244 29.4649 25.2878" stroke="#FF8743" stroke-width="2.4375" stroke-miterlimit="1.5" stroke-linecap="round" stroke-linejoin="round"/>
<path d="M21.3281 25.0386C23.1286 28.3016 25.9829 29.7308 29.6067 29.8185" stroke="#FF8743" stroke-width="2.4375" stroke-miterlimit="1.5" stroke-linecap="round" stroke-linejoin="round"/>
<path d="M17.5215 28.0542C19.9509 32.4547 23.7997 34.382 28.6877 34.5006" stroke="#FF8743" stroke-width="2.4375" stroke-miterlimit="1.5" stroke-linecap="round" stroke-linejoin="round"/>
<path d="M36.6934 7.98392C51.2127 -3.32689 69.3087 13.7194 54.3222 26.1717C42.4012 36.0777 43.8897 54.5361 49.5569 62.1996" stroke="#FF8743" stroke-width="2.4375" stroke-miterlimit="1.5" stroke-linecap="round" stroke-linejoin="round"/>
</g>
<defs>
<clipPath id="clip0_470_1059">
<rect width="65" height="65" fill="white" transform="translate(0.5 0.5)"/>
</clipPath>
</defs>
</svg>
