<svg width="66" height="66" viewBox="0 0 66 66" fill="none" xmlns="http://www.w3.org/2000/svg">
<g clip-path="url(#clip0_470_1107)">
<path d="M51.7081 31.8164H24.9785V50.8663H51.7081V31.8164Z" stroke="#FF8743" stroke-width="2.4375" stroke-miterlimit="1.5" stroke-linecap="round" stroke-linejoin="round"/>
<path d="M30.9844 37.8232H44.4402" stroke="#FF8743" stroke-width="2.4375" stroke-miterlimit="1.5" stroke-linecap="round" stroke-linejoin="round"/>
<path d="M30.9844 44.4077H39.722" stroke="#FF8743" stroke-width="2.4375" stroke-miterlimit="1.5" stroke-linecap="round" stroke-linejoin="round"/>
<path fill-rule="evenodd" clip-rule="evenodd" d="M19.6462 19.8099V14.4336H46.3515V19.8099H47.558C48.6581 19.8099 49.7136 20.247 50.4911 21.0254C51.2695 21.803 51.7066 22.8584 51.7066 23.9585C51.7066 31.7561 51.7066 48.5131 51.7066 56.3107C51.7066 57.4108 51.2695 58.4662 50.4911 59.2446C49.7136 60.0222 48.6581 60.4593 47.558 60.4593C40.3593 60.4593 25.6384 60.4593 18.4396 60.4593C17.3395 60.4593 16.2841 60.0222 15.5065 59.2446C14.7281 58.4662 14.291 57.4108 14.291 56.3107C14.291 48.5131 14.291 31.7561 14.291 23.9585C14.291 22.8584 14.7281 21.803 15.5065 21.0254C16.2841 20.247 17.3395 19.8099 18.4396 19.8099H19.6462Z" stroke="#FF8743" stroke-width="2.4375" stroke-miterlimit="1.5" stroke-linecap="round" stroke-linejoin="round"/>
<path fill-rule="evenodd" clip-rule="evenodd" d="M49.3554 14.4338H17.2227C17.2227 14.4338 17.2227 10.4737 17.2227 7.83877C17.2227 6.56964 18.2513 5.54102 19.5204 5.54102C25.437 5.54102 41.141 5.54102 47.0577 5.54102C48.3268 5.54102 49.3554 6.56964 49.3554 7.83877C49.3554 10.4737 49.3554 14.4338 49.3554 14.4338Z" stroke="#FF8743" stroke-width="2.4375" stroke-miterlimit="1.5" stroke-linecap="round" stroke-linejoin="round"/>
<path d="M33.291 5.54102V9.98702" stroke="#FF8743" stroke-width="2.4375" stroke-miterlimit="1.5" stroke-linecap="round" stroke-linejoin="round"/>
<path d="M24.9785 5.54102V9.98702" stroke="#FF8743" stroke-width="2.4375" stroke-miterlimit="1.5" stroke-linecap="round" stroke-linejoin="round"/>
<path d="M41.375 5.54102V9.98702" stroke="#FF8743" stroke-width="2.4375" stroke-miterlimit="1.5" stroke-linecap="round" stroke-linejoin="round"/>
<path d="M14.291 42.4795H24.977" stroke="#FF8743" stroke-width="2.4375" stroke-miterlimit="1.5" stroke-linecap="round" stroke-linejoin="round"/>
</g>
<defs>
<clipPath id="clip0_470_1107">
<rect width="65" height="65" fill="white" transform="translate(0.5 0.5)"/>
</clipPath>
</defs>
</svg>
