<svg width="66" height="66" viewBox="0 0 66 66" fill="none" xmlns="http://www.w3.org/2000/svg">
<mask id="path-1-outside-1_538_3237" maskUnits="userSpaceOnUse" x="0.933594" y="0.956787" width="63" height="63" fill="black">
<path d="M2.22179 2.24498C2.00564 2.46113 1.93359 4.43046 1.93359 9.666V16.7988L3.20645 17.8555C5.65611 19.9449 5.9443 20.089 6.61676 19.7288C7.19315 19.4166 7.28921 19.4886 9.11445 21.2418C10.1471 22.2505 11.0598 23.0911 11.1558 23.0911C11.2279 23.0911 11.7322 22.6828 12.2846 22.2025L13.2452 21.3139L18.1205 26.1892L17.5922 27.2939C16.1752 30.1999 17.7123 33.322 20.6903 33.6102C21.6509 33.7062 22.2753 33.5621 23.8844 32.9377L25.9018 32.1692L25.5416 31.2806C25.3494 30.8003 25.1573 30.392 25.1093 30.344C25.0852 30.32 24.1726 30.6322 23.0679 31.0645L21.0985 31.833L20.234 31.3527C18.9131 30.6562 18.745 29.7196 19.5615 27.8703C20.0418 26.8616 20.1859 26.2132 20.0659 25.7809C19.9698 25.4206 18.745 23.9557 17.28 22.4907L14.6622 19.8249L15.5028 19.0083C15.9591 18.552 16.3433 18.0477 16.3433 17.8555C16.3433 17.6634 15.5028 16.6547 14.4941 15.622C13.0771 14.157 12.7169 13.6527 12.933 13.4365C13.1011 13.2684 13.2212 12.9802 13.2212 12.7401C13.2212 12.0916 3.54268 1.95679 2.91826 1.95679C2.6781 1.95679 2.3899 2.07687 2.22179 2.24498ZM10.3153 12.3558C10.6035 12.7641 10.4594 13.0043 8.39396 15.0696C7.16913 16.3185 6.04037 17.3272 5.89627 17.3272C5.77619 17.3272 5.29587 16.9909 4.88759 16.6067L4.09505 15.8862V5.6793L7.04905 8.7774C8.65814 10.4825 10.1231 12.0916 10.3153 12.3558ZM12.6208 16.6067L13.7976 17.8075L12.5007 19.1284L11.1798 20.4493L8.53806 17.8075L9.73887 16.6067C10.3873 15.9582 11.0357 15.4059 11.1798 15.4059C11.3239 15.4059 11.9724 15.9582 12.6208 16.6067Z"/>
<path d="M20.114 6.39976C18.1927 6.88008 16.4636 7.74467 14.8064 9.06556L13.4135 10.1703L14.8545 11.6113L16.1513 10.6506C18.3849 8.94548 19.9699 8.34507 22.5877 8.24901C24.7251 8.15294 25.0374 8.22499 27.511 9.06556C29.9126 9.88211 30.393 9.97818 32.6745 9.97818C34.9561 9.97818 35.4364 9.88211 37.838 9.06556C40.3117 8.22499 40.6239 8.15294 42.7613 8.24901C44.7787 8.32106 45.259 8.44114 46.8681 9.18564C49.2457 10.3384 50.9509 12.0196 52.1036 14.4212L52.9682 16.2464V19.6087C52.9682 24.7962 51.8875 28.8069 49.2457 33.442C48.189 35.3393 48.0449 35.7716 47.7087 38.1973C47.1803 41.8717 47.1803 41.7517 48.189 41.9438C48.6693 42.0158 49.1016 42.0399 49.1497 41.9918C49.1977 41.9438 49.4378 40.6229 49.654 39.0618C50.0142 36.4921 50.1583 36.0358 51.191 34.2106C54.3131 28.6388 55.9222 21.0256 54.9376 16.4866C53.9289 11.8995 50.8788 8.36909 46.5319 6.80803C45.0909 6.27968 44.3944 6.18361 42.281 6.18361C39.9995 6.18361 39.5432 6.25566 37.4778 7.00016C35.4124 7.76868 34.9561 7.84073 32.6745 7.84073C30.417 7.84073 29.9126 7.74467 27.8713 7.02418C25.1574 6.06353 22.3475 5.82337 20.114 6.39976Z"/>
<path d="M11.7324 25.5408L10.8678 25.781L11.3481 27.4861C11.9966 29.7197 13.2214 32.6256 14.3742 34.5949L15.3108 36.18L16.6557 46.0747C18.1447 57.0021 18.2648 57.4344 19.994 58.5632C20.8105 59.1155 21.2669 59.2356 22.4917 59.2356C23.7645 59.2356 24.1488 59.1395 25.0134 58.5151C25.5658 58.1068 26.2382 57.3864 26.4784 56.906C26.7906 56.3296 27.5111 52.6552 28.5918 46.0987C30.2489 36.204 30.2489 36.18 30.9934 35.5076C32.0021 34.5949 33.347 34.619 34.3797 35.5316C35.1002 36.18 35.1482 36.3001 36.229 42.7364L37.3337 49.2689L38.1743 49.1248C38.6546 49.0287 39.1109 48.9326 39.183 48.8846C39.3511 48.7885 37.3817 36.8765 37.0215 35.7477C36.4931 34.1867 34.3557 32.6977 32.6265 32.6977C30.9694 32.7217 29.1202 33.9705 28.4477 35.5076C28.2796 35.9158 27.415 40.5029 26.5504 45.7145C25.6858 50.902 24.8693 55.4651 24.7012 55.8253C24.3409 56.7379 23.6204 57.1942 22.5157 57.1942C21.4109 57.1942 20.5704 56.6899 20.2101 55.8013C20.066 55.441 19.3456 50.7339 18.6251 45.3302L17.2802 35.5076L16.1994 33.6343C14.9986 31.5689 13.7017 28.4468 13.1974 26.5015C13.0293 25.829 12.8372 25.2526 12.7651 25.2766C12.6931 25.3007 12.2367 25.3967 11.7324 25.5408Z"/>
<path d="M54.4572 39.134C49.8941 43.697 47.0842 46.6751 47.0842 46.9632C47.0842 47.2274 47.3243 47.6837 47.6125 47.9959L48.1409 48.5723L46.1475 50.5657L44.1542 52.583L42.7853 51.9346C41.5845 51.3822 41.1522 51.3102 38.7986 51.3102C36.445 51.3102 36.0127 51.3822 34.8359 51.9346C32.098 53.2075 30.7291 55.0327 30.7291 57.3383C30.7291 59.4277 31.8819 61.1088 34.1875 62.3096C37.4777 64.0628 42.2569 63.6305 44.8987 61.373C47.1082 59.4757 47.6125 56.6418 46.1235 54.5284L45.6672 53.9039L47.6366 51.9586L49.6059 49.9893L50.2543 50.6137C50.6626 51.022 51.0228 51.1901 51.3351 51.094C51.5752 51.022 54.3851 48.3322 57.6033 45.114L63.4152 39.2781V35.7957C63.4152 32.1452 63.2951 31.737 62.3345 31.737C62.0223 31.737 59.3565 34.2346 54.4572 39.134ZM51.191 48.6444L50.3264 47.8278L49.4858 47.0113L55.2977 41.1753L61.1337 35.3394L61.2778 38.5576L51.191 48.6444ZM41.3443 53.6157C43.1936 54.0961 44.9227 55.8493 44.9227 57.2422C44.9227 58.2509 44.3223 59.2596 43.2176 60.0521C40.4557 62.0695 35.1721 61.5171 33.3469 59.0194C32.2662 57.5064 32.5784 55.9213 34.1875 54.6965C36.0607 53.2555 38.5584 52.8712 41.3443 53.6157Z"/>
</mask>
<path d="M2.22179 2.24498C2.00564 2.46113 1.93359 4.43046 1.93359 9.666V16.7988L3.20645 17.8555C5.65611 19.9449 5.9443 20.089 6.61676 19.7288C7.19315 19.4166 7.28921 19.4886 9.11445 21.2418C10.1471 22.2505 11.0598 23.0911 11.1558 23.0911C11.2279 23.0911 11.7322 22.6828 12.2846 22.2025L13.2452 21.3139L18.1205 26.1892L17.5922 27.2939C16.1752 30.1999 17.7123 33.322 20.6903 33.6102C21.6509 33.7062 22.2753 33.5621 23.8844 32.9377L25.9018 32.1692L25.5416 31.2806C25.3494 30.8003 25.1573 30.392 25.1093 30.344C25.0852 30.32 24.1726 30.6322 23.0679 31.0645L21.0985 31.833L20.234 31.3527C18.9131 30.6562 18.745 29.7196 19.5615 27.8703C20.0418 26.8616 20.1859 26.2132 20.0659 25.7809C19.9698 25.4206 18.745 23.9557 17.28 22.4907L14.6622 19.8249L15.5028 19.0083C15.9591 18.552 16.3433 18.0477 16.3433 17.8555C16.3433 17.6634 15.5028 16.6547 14.4941 15.622C13.0771 14.157 12.7169 13.6527 12.933 13.4365C13.1011 13.2684 13.2212 12.9802 13.2212 12.7401C13.2212 12.0916 3.54268 1.95679 2.91826 1.95679C2.6781 1.95679 2.3899 2.07687 2.22179 2.24498ZM10.3153 12.3558C10.6035 12.7641 10.4594 13.0043 8.39396 15.0696C7.16913 16.3185 6.04037 17.3272 5.89627 17.3272C5.77619 17.3272 5.29587 16.9909 4.88759 16.6067L4.09505 15.8862V5.6793L7.04905 8.7774C8.65814 10.4825 10.1231 12.0916 10.3153 12.3558ZM12.6208 16.6067L13.7976 17.8075L12.5007 19.1284L11.1798 20.4493L8.53806 17.8075L9.73887 16.6067C10.3873 15.9582 11.0357 15.4059 11.1798 15.4059C11.3239 15.4059 11.9724 15.9582 12.6208 16.6067Z" fill="#FF8743"/>
<path d="M20.114 6.39976C18.1927 6.88008 16.4636 7.74467 14.8064 9.06556L13.4135 10.1703L14.8545 11.6113L16.1513 10.6506C18.3849 8.94548 19.9699 8.34507 22.5877 8.24901C24.7251 8.15294 25.0374 8.22499 27.511 9.06556C29.9126 9.88211 30.393 9.97818 32.6745 9.97818C34.9561 9.97818 35.4364 9.88211 37.838 9.06556C40.3117 8.22499 40.6239 8.15294 42.7613 8.24901C44.7787 8.32106 45.259 8.44114 46.8681 9.18564C49.2457 10.3384 50.9509 12.0196 52.1036 14.4212L52.9682 16.2464V19.6087C52.9682 24.7962 51.8875 28.8069 49.2457 33.442C48.189 35.3393 48.0449 35.7716 47.7087 38.1973C47.1803 41.8717 47.1803 41.7517 48.189 41.9438C48.6693 42.0158 49.1016 42.0399 49.1497 41.9918C49.1977 41.9438 49.4378 40.6229 49.654 39.0618C50.0142 36.4921 50.1583 36.0358 51.191 34.2106C54.3131 28.6388 55.9222 21.0256 54.9376 16.4866C53.9289 11.8995 50.8788 8.36909 46.5319 6.80803C45.0909 6.27968 44.3944 6.18361 42.281 6.18361C39.9995 6.18361 39.5432 6.25566 37.4778 7.00016C35.4124 7.76868 34.9561 7.84073 32.6745 7.84073C30.417 7.84073 29.9126 7.74467 27.8713 7.02418C25.1574 6.06353 22.3475 5.82337 20.114 6.39976Z" fill="#FF8743"/>
<path d="M11.7324 25.5408L10.8678 25.781L11.3481 27.4861C11.9966 29.7197 13.2214 32.6256 14.3742 34.5949L15.3108 36.18L16.6557 46.0747C18.1447 57.0021 18.2648 57.4344 19.994 58.5632C20.8105 59.1155 21.2669 59.2356 22.4917 59.2356C23.7645 59.2356 24.1488 59.1395 25.0134 58.5151C25.5658 58.1068 26.2382 57.3864 26.4784 56.906C26.7906 56.3296 27.5111 52.6552 28.5918 46.0987C30.2489 36.204 30.2489 36.18 30.9934 35.5076C32.0021 34.5949 33.347 34.619 34.3797 35.5316C35.1002 36.18 35.1482 36.3001 36.229 42.7364L37.3337 49.2689L38.1743 49.1248C38.6546 49.0287 39.1109 48.9326 39.183 48.8846C39.3511 48.7885 37.3817 36.8765 37.0215 35.7477C36.4931 34.1867 34.3557 32.6977 32.6265 32.6977C30.9694 32.7217 29.1202 33.9705 28.4477 35.5076C28.2796 35.9158 27.415 40.5029 26.5504 45.7145C25.6858 50.902 24.8693 55.4651 24.7012 55.8253C24.3409 56.7379 23.6204 57.1942 22.5157 57.1942C21.4109 57.1942 20.5704 56.6899 20.2101 55.8013C20.066 55.441 19.3456 50.7339 18.6251 45.3302L17.2802 35.5076L16.1994 33.6343C14.9986 31.5689 13.7017 28.4468 13.1974 26.5015C13.0293 25.829 12.8372 25.2526 12.7651 25.2766C12.6931 25.3007 12.2367 25.3967 11.7324 25.5408Z" fill="#FF8743"/>
<path d="M54.4572 39.134C49.8941 43.697 47.0842 46.6751 47.0842 46.9632C47.0842 47.2274 47.3243 47.6837 47.6125 47.9959L48.1409 48.5723L46.1475 50.5657L44.1542 52.583L42.7853 51.9346C41.5845 51.3822 41.1522 51.3102 38.7986 51.3102C36.445 51.3102 36.0127 51.3822 34.8359 51.9346C32.098 53.2075 30.7291 55.0327 30.7291 57.3383C30.7291 59.4277 31.8819 61.1088 34.1875 62.3096C37.4777 64.0628 42.2569 63.6305 44.8987 61.373C47.1082 59.4757 47.6125 56.6418 46.1235 54.5284L45.6672 53.9039L47.6366 51.9586L49.6059 49.9893L50.2543 50.6137C50.6626 51.022 51.0228 51.1901 51.3351 51.094C51.5752 51.022 54.3851 48.3322 57.6033 45.114L63.4152 39.2781V35.7957C63.4152 32.1452 63.2951 31.737 62.3345 31.737C62.0223 31.737 59.3565 34.2346 54.4572 39.134ZM51.191 48.6444L50.3264 47.8278L49.4858 47.0113L55.2977 41.1753L61.1337 35.3394L61.2778 38.5576L51.191 48.6444ZM41.3443 53.6157C43.1936 54.0961 44.9227 55.8493 44.9227 57.2422C44.9227 58.2509 44.3223 59.2596 43.2176 60.0521C40.4557 62.0695 35.1721 61.5171 33.3469 59.0194C32.2662 57.5064 32.5784 55.9213 34.1875 54.6965C36.0607 53.2555 38.5584 52.8712 41.3443 53.6157Z" fill="#FF8743"/>
<path d="M2.22179 2.24498C2.00564 2.46113 1.93359 4.43046 1.93359 9.666V16.7988L3.20645 17.8555C5.65611 19.9449 5.9443 20.089 6.61676 19.7288C7.19315 19.4166 7.28921 19.4886 9.11445 21.2418C10.1471 22.2505 11.0598 23.0911 11.1558 23.0911C11.2279 23.0911 11.7322 22.6828 12.2846 22.2025L13.2452 21.3139L18.1205 26.1892L17.5922 27.2939C16.1752 30.1999 17.7123 33.322 20.6903 33.6102C21.6509 33.7062 22.2753 33.5621 23.8844 32.9377L25.9018 32.1692L25.5416 31.2806C25.3494 30.8003 25.1573 30.392 25.1093 30.344C25.0852 30.32 24.1726 30.6322 23.0679 31.0645L21.0985 31.833L20.234 31.3527C18.9131 30.6562 18.745 29.7196 19.5615 27.8703C20.0418 26.8616 20.1859 26.2132 20.0659 25.7809C19.9698 25.4206 18.745 23.9557 17.28 22.4907L14.6622 19.8249L15.5028 19.0083C15.9591 18.552 16.3433 18.0477 16.3433 17.8555C16.3433 17.6634 15.5028 16.6547 14.4941 15.622C13.0771 14.157 12.7169 13.6527 12.933 13.4365C13.1011 13.2684 13.2212 12.9802 13.2212 12.7401C13.2212 12.0916 3.54268 1.95679 2.91826 1.95679C2.6781 1.95679 2.3899 2.07687 2.22179 2.24498ZM10.3153 12.3558C10.6035 12.7641 10.4594 13.0043 8.39396 15.0696C7.16913 16.3185 6.04037 17.3272 5.89627 17.3272C5.77619 17.3272 5.29587 16.9909 4.88759 16.6067L4.09505 15.8862V5.6793L7.04905 8.7774C8.65814 10.4825 10.1231 12.0916 10.3153 12.3558ZM12.6208 16.6067L13.7976 17.8075L12.5007 19.1284L11.1798 20.4493L8.53806 17.8075L9.73887 16.6067C10.3873 15.9582 11.0357 15.4059 11.1798 15.4059C11.3239 15.4059 11.9724 15.9582 12.6208 16.6067Z" stroke="#FF8743" stroke-width="0.825" mask="url(#path-1-outside-1_538_3237)"/>
<path d="M20.114 6.39976C18.1927 6.88008 16.4636 7.74467 14.8064 9.06556L13.4135 10.1703L14.8545 11.6113L16.1513 10.6506C18.3849 8.94548 19.9699 8.34507 22.5877 8.24901C24.7251 8.15294 25.0374 8.22499 27.511 9.06556C29.9126 9.88211 30.393 9.97818 32.6745 9.97818C34.9561 9.97818 35.4364 9.88211 37.838 9.06556C40.3117 8.22499 40.6239 8.15294 42.7613 8.24901C44.7787 8.32106 45.259 8.44114 46.8681 9.18564C49.2457 10.3384 50.9509 12.0196 52.1036 14.4212L52.9682 16.2464V19.6087C52.9682 24.7962 51.8875 28.8069 49.2457 33.442C48.189 35.3393 48.0449 35.7716 47.7087 38.1973C47.1803 41.8717 47.1803 41.7517 48.189 41.9438C48.6693 42.0158 49.1016 42.0399 49.1497 41.9918C49.1977 41.9438 49.4378 40.6229 49.654 39.0618C50.0142 36.4921 50.1583 36.0358 51.191 34.2106C54.3131 28.6388 55.9222 21.0256 54.9376 16.4866C53.9289 11.8995 50.8788 8.36909 46.5319 6.80803C45.0909 6.27968 44.3944 6.18361 42.281 6.18361C39.9995 6.18361 39.5432 6.25566 37.4778 7.00016C35.4124 7.76868 34.9561 7.84073 32.6745 7.84073C30.417 7.84073 29.9126 7.74467 27.8713 7.02418C25.1574 6.06353 22.3475 5.82337 20.114 6.39976Z" stroke="#FF8743" stroke-width="0.825" mask="url(#path-1-outside-1_538_3237)"/>
<path d="M11.7324 25.5408L10.8678 25.781L11.3481 27.4861C11.9966 29.7197 13.2214 32.6256 14.3742 34.5949L15.3108 36.18L16.6557 46.0747C18.1447 57.0021 18.2648 57.4344 19.994 58.5632C20.8105 59.1155 21.2669 59.2356 22.4917 59.2356C23.7645 59.2356 24.1488 59.1395 25.0134 58.5151C25.5658 58.1068 26.2382 57.3864 26.4784 56.906C26.7906 56.3296 27.5111 52.6552 28.5918 46.0987C30.2489 36.204 30.2489 36.18 30.9934 35.5076C32.0021 34.5949 33.347 34.619 34.3797 35.5316C35.1002 36.18 35.1482 36.3001 36.229 42.7364L37.3337 49.2689L38.1743 49.1248C38.6546 49.0287 39.1109 48.9326 39.183 48.8846C39.3511 48.7885 37.3817 36.8765 37.0215 35.7477C36.4931 34.1867 34.3557 32.6977 32.6265 32.6977C30.9694 32.7217 29.1202 33.9705 28.4477 35.5076C28.2796 35.9158 27.415 40.5029 26.5504 45.7145C25.6858 50.902 24.8693 55.4651 24.7012 55.8253C24.3409 56.7379 23.6204 57.1942 22.5157 57.1942C21.4109 57.1942 20.5704 56.6899 20.2101 55.8013C20.066 55.441 19.3456 50.7339 18.6251 45.3302L17.2802 35.5076L16.1994 33.6343C14.9986 31.5689 13.7017 28.4468 13.1974 26.5015C13.0293 25.829 12.8372 25.2526 12.7651 25.2766C12.6931 25.3007 12.2367 25.3967 11.7324 25.5408Z" stroke="#FF8743" stroke-width="0.825" mask="url(#path-1-outside-1_538_3237)"/>
<path d="M54.4572 39.134C49.8941 43.697 47.0842 46.6751 47.0842 46.9632C47.0842 47.2274 47.3243 47.6837 47.6125 47.9959L48.1409 48.5723L46.1475 50.5657L44.1542 52.583L42.7853 51.9346C41.5845 51.3822 41.1522 51.3102 38.7986 51.3102C36.445 51.3102 36.0127 51.3822 34.8359 51.9346C32.098 53.2075 30.7291 55.0327 30.7291 57.3383C30.7291 59.4277 31.8819 61.1088 34.1875 62.3096C37.4777 64.0628 42.2569 63.6305 44.8987 61.373C47.1082 59.4757 47.6125 56.6418 46.1235 54.5284L45.6672 53.9039L47.6366 51.9586L49.6059 49.9893L50.2543 50.6137C50.6626 51.022 51.0228 51.1901 51.3351 51.094C51.5752 51.022 54.3851 48.3322 57.6033 45.114L63.4152 39.2781V35.7957C63.4152 32.1452 63.2951 31.737 62.3345 31.737C62.0223 31.737 59.3565 34.2346 54.4572 39.134ZM51.191 48.6444L50.3264 47.8278L49.4858 47.0113L55.2977 41.1753L61.1337 35.3394L61.2778 38.5576L51.191 48.6444ZM41.3443 53.6157C43.1936 54.0961 44.9227 55.8493 44.9227 57.2422C44.9227 58.2509 44.3223 59.2596 43.2176 60.0521C40.4557 62.0695 35.1721 61.5171 33.3469 59.0194C32.2662 57.5064 32.5784 55.9213 34.1875 54.6965C36.0607 53.2555 38.5584 52.8712 41.3443 53.6157Z" stroke="#FF8743" stroke-width="0.825" mask="url(#path-1-outside-1_538_3237)"/>
</svg>
