<svg width="66" height="66" viewBox="0 0 66 66" fill="none" xmlns="http://www.w3.org/2000/svg">
<mask id="path-1-outside-1_538_3237" maskUnits="userSpaceOnUse" x="0.546387" y="7.8916" width="65" height="50" fill="black">
<path d="M48.2692 9.26124C47.7675 9.84211 48.0051 12.588 48.586 12.9576C49.4309 13.4857 49.959 12.852 50.0382 11.1623C50.1174 9.55167 49.8269 8.8916 49.0349 8.8916C48.7708 8.8916 48.4276 9.05002 48.2692 9.26124Z"/>
<path d="M43.0939 10.555C42.5131 11.0039 42.6715 11.796 43.5692 13.1425C44.2293 14.1458 45.2062 14.3571 45.7078 13.5914C45.919 13.2481 45.8398 12.8785 45.3646 12.0072C44.7837 10.9511 44.1236 10.2118 43.754 10.2118C43.6748 10.2118 43.3844 10.3702 43.0939 10.555Z"/>
<path d="M53.7608 10.5285C52.9687 11.1622 52.1502 12.9048 52.335 13.5649C52.5726 14.5154 53.7344 14.2778 54.5001 13.1424C55.3978 11.7959 55.5562 11.0038 54.9753 10.555C54.368 10.1325 54.2624 10.1325 53.7608 10.5285Z"/>
<path d="M3.48964 13.3536C3.19921 13.4857 2.67115 13.9081 2.30151 14.3042L1.64144 15.017L1.56223 32.707C1.50942 45.6972 1.58863 50.5025 1.79985 50.7666C2.01108 51.0306 2.85597 51.1362 4.99461 51.1362C7.50288 51.1362 7.87252 51.189 8.00454 51.6115C8.79663 54.1197 9.95835 55.5983 11.9122 56.628C13.7604 57.5785 16.6383 57.6313 18.4073 56.7072C20.4403 55.6511 21.8133 54.0141 22.3677 51.9283L22.5261 51.2682L31.8728 51.1362C40.3745 51.0042 41.2194 50.9514 41.4834 50.5289C41.6946 50.2121 41.6946 49.9481 41.4834 49.6048C41.2194 49.2088 40.3745 49.156 31.8728 49.024L22.5261 48.892L22.3677 48.2319C21.0212 43.2417 14.8957 41.0503 10.8825 44.113C10.0376 44.7731 9.82634 44.7995 6.81641 44.7995H3.62166V30.3307C3.62166 19.4263 3.70086 15.7827 3.93849 15.5451C4.44015 15.0434 38.8167 15.0962 39.2392 15.5715C39.424 15.8355 39.556 19.9016 39.5824 29.0898C39.6616 41.2879 39.688 42.2648 40.1369 42.5289C40.4537 42.7401 40.7177 42.7401 41.061 42.5289C41.4834 42.2648 41.5098 41.4199 41.589 31.8885L41.6418 21.565H48.0842C53.8664 21.565 54.5265 21.6178 54.8961 22.0138C55.1337 22.2778 56.0314 24.9709 56.9555 28.0337L58.5925 33.5783L62.7642 37.8027V44.7995H59.5958C56.5067 44.7995 56.4275 44.7731 55.3186 44.0074C52.9687 42.3704 49.5891 42.3176 47.1336 43.9282L45.9983 44.6675L35.0675 44.7995C25.0344 44.9315 24.1103 44.9579 23.8463 45.3804C23.6351 45.7236 23.6351 45.9876 23.8463 46.3045C24.1103 46.7533 24.9552 46.7797 34.3018 46.8589L44.4934 46.9117L44.1237 47.9151C42.6187 52.1131 45.8399 56.9184 50.4868 57.3937C54.104 57.7633 57.1404 55.5455 58.3813 51.5851C58.5133 51.189 58.8829 51.1362 61.3912 51.1362C63.2658 51.1362 64.3483 51.0306 64.5596 50.8194C64.7972 50.5817 64.8764 48.6543 64.8764 43.7698V37.0107L62.685 34.7664L60.4671 32.5222L58.8037 26.9247C56.7707 20.0336 56.5331 19.6639 53.9984 19.5055L52.2558 19.3999L52.1238 18.2118C51.939 16.4164 50.7772 15.3603 49.0347 15.3603C47.2921 15.3603 46.1303 16.4164 45.9455 18.2382L45.7871 19.4527H41.6946L41.6154 17.2085C41.5098 15.0962 41.457 14.9378 40.6385 14.1193L39.7936 13.248L21.8925 13.1952C12.0706 13.1688 3.78007 13.248 3.48964 13.3536ZM49.7739 17.6573C49.9588 17.8421 50.0908 18.3174 50.0908 18.7134C50.0908 19.3999 50.0116 19.4527 49.0347 19.4527C48.0577 19.4527 47.9785 19.3999 47.9785 18.7134C47.9785 17.8949 48.401 17.3405 49.0347 17.3405C49.2723 17.3405 49.5891 17.4725 49.7739 17.6573ZM18.1433 45.6972C19.701 46.7269 20.3875 48.0471 20.3875 50.0801C20.3875 52.1395 19.701 53.4333 18.064 54.5158C16.5855 55.4927 14.0244 55.5455 12.5194 54.595C10.5128 53.354 9.58871 50.8986 10.196 48.5487C10.5656 47.2022 12.1762 45.4596 13.4435 45.0899C14.8429 44.6675 17.0079 44.9315 18.1433 45.6972ZM54.0512 45.6972C55.609 46.7269 56.2955 48.0471 56.2955 50.0801C56.2955 52.1395 55.609 53.4333 53.972 54.5158C52.4934 55.4927 49.9324 55.5455 48.4274 54.595C46.4208 53.354 45.4967 50.8986 46.1039 48.5487C46.4736 47.2022 48.0842 45.4596 49.3515 45.0899C50.7508 44.6675 52.9159 44.9315 54.0512 45.6972ZM8.24216 47.8886L7.89893 48.892L3.62166 49.0504V46.9117H8.5854L8.24216 47.8886ZM62.7642 49.0504L58.4869 48.892L58.1437 47.8886L57.8004 46.9117H62.7642V49.0504Z"/>
<path d="M14.0508 47.1493C12.8627 47.6773 12.2026 48.7335 12.2026 50.1064C12.2026 51.2153 12.3346 51.5058 13.0739 52.2451C13.8132 52.9843 14.1036 53.1163 15.2389 53.1163C16.3743 53.1163 16.6647 52.9843 17.404 52.2451C18.1433 51.5058 18.2753 51.2153 18.2753 50.08C18.2753 48.9711 18.1433 48.6543 17.4568 47.9414C16.5855 47.0701 15.0277 46.7268 14.0508 47.1493ZM16.031 49.4199C16.7175 50.2648 15.6878 51.5586 14.7901 50.9777C13.866 50.3968 14.1828 49.0239 15.2389 49.0239C15.503 49.0239 15.8462 49.2087 16.031 49.4199Z"/>
<path d="M49.9588 47.1493C48.7707 47.6773 48.1106 48.7335 48.1106 50.1064C48.1106 51.2153 48.2427 51.5058 48.9819 52.2451C49.7212 52.9843 50.0116 53.1163 51.147 53.1163C52.2823 53.1163 52.5727 52.9843 53.312 52.2451C54.0513 51.5058 54.1833 51.2153 54.1833 50.08C54.1833 48.9711 54.0513 48.6543 53.3648 47.9414C52.4935 47.0701 50.9357 46.7268 49.9588 47.1493ZM51.9391 49.4199C52.6255 50.2648 51.5958 51.5586 50.6981 50.9777C49.774 50.3968 50.0909 49.0239 51.147 49.0239C51.411 49.0239 51.7542 49.2087 51.9391 49.4199Z"/>
<path d="M18.7242 22.9379C18.5394 23.1227 18.4074 23.994 18.4074 25.0501V26.8455H16.612C15.5559 26.8455 14.6846 26.9775 14.4998 27.1624C14.0773 27.5848 14.0773 32.4429 14.4998 32.8654C14.6846 33.0502 15.5559 33.1822 16.612 33.1822H18.4074V34.9776C18.4074 36.0337 18.5394 36.905 18.7242 37.0899C19.1467 37.5123 24.0048 37.5123 24.4272 37.0899C24.6121 36.905 24.7441 36.0337 24.7441 34.9776V33.1822H26.5395C27.5956 33.1822 28.4669 33.0502 28.6517 32.8654C29.0742 32.4429 29.0742 27.5848 28.6517 27.1624C28.4669 26.9775 27.5956 26.8455 26.5395 26.8455H24.7441V25.0501C24.7441 23.994 24.6121 23.1227 24.4272 22.9379C24.216 22.7267 23.1863 22.6211 21.5757 22.6211C19.9652 22.6211 18.9354 22.7267 18.7242 22.9379ZM22.6319 26.5287C22.6319 27.5848 22.7639 28.4561 22.9487 28.6409C23.1335 28.8257 24.0048 28.9578 25.0609 28.9578H26.8563V31.07H25.0609C24.0048 31.07 23.1335 31.202 22.9487 31.3868C22.7639 31.5716 22.6319 32.4429 22.6319 33.4991V35.2945H20.5196V33.4991C20.5196 32.4429 20.3876 31.5716 20.2028 31.3868C20.018 31.202 19.1467 31.07 18.0906 31.07H16.2952V28.9578H18.0906C19.1467 28.9578 20.018 28.8257 20.2028 28.6409C20.3876 28.4561 20.5196 27.5848 20.5196 26.5287V24.7333H22.6319V26.5287Z"/>
<path d="M44.071 23.9939C43.5958 24.4692 43.6222 33.5254 44.1238 33.9478C44.3615 34.1591 46.1833 34.2383 50.0909 34.1855C55.0018 34.1063 55.7411 34.0534 55.9787 33.6574C56.2692 33.2086 55.6619 30.7003 54.0777 25.9214L53.3912 23.8091L48.9028 23.7299C45.6288 23.6771 44.3086 23.7563 44.071 23.9939ZM52.4407 27.6903C52.7576 28.7465 53.18 30.1722 53.3912 30.8587L53.7609 32.126H45.8664V25.7893H51.8599L52.4407 27.6903Z"/>
<path d="M44.0709 36.6675C43.6484 37.09 43.6748 37.8029 44.1237 38.1725C44.7045 38.6742 47.4504 38.4365 47.8201 37.8557C48.0313 37.5388 48.0313 37.2748 47.8201 36.9316C47.4504 36.3771 44.5989 36.1395 44.0709 36.6675Z"/>
</mask>
<path d="M48.2692 9.26124C47.7675 9.84211 48.0051 12.588 48.586 12.9576C49.4309 13.4857 49.959 12.852 50.0382 11.1623C50.1174 9.55167 49.8269 8.8916 49.0349 8.8916C48.7708 8.8916 48.4276 9.05002 48.2692 9.26124Z" fill="#FF8743"/>
<path d="M43.0939 10.555C42.5131 11.0039 42.6715 11.796 43.5692 13.1425C44.2293 14.1458 45.2062 14.3571 45.7078 13.5914C45.919 13.2481 45.8398 12.8785 45.3646 12.0072C44.7837 10.9511 44.1236 10.2118 43.754 10.2118C43.6748 10.2118 43.3844 10.3702 43.0939 10.555Z" fill="#FF8743"/>
<path d="M53.7608 10.5285C52.9687 11.1622 52.1502 12.9048 52.335 13.5649C52.5726 14.5154 53.7344 14.2778 54.5001 13.1424C55.3978 11.7959 55.5562 11.0038 54.9753 10.555C54.368 10.1325 54.2624 10.1325 53.7608 10.5285Z" fill="#FF8743"/>
<path d="M3.48964 13.3536C3.19921 13.4857 2.67115 13.9081 2.30151 14.3042L1.64144 15.017L1.56223 32.707C1.50942 45.6972 1.58863 50.5025 1.79985 50.7666C2.01108 51.0306 2.85597 51.1362 4.99461 51.1362C7.50288 51.1362 7.87252 51.189 8.00454 51.6115C8.79663 54.1197 9.95835 55.5983 11.9122 56.628C13.7604 57.5785 16.6383 57.6313 18.4073 56.7072C20.4403 55.6511 21.8133 54.0141 22.3677 51.9283L22.5261 51.2682L31.8728 51.1362C40.3745 51.0042 41.2194 50.9514 41.4834 50.5289C41.6946 50.2121 41.6946 49.9481 41.4834 49.6048C41.2194 49.2088 40.3745 49.156 31.8728 49.024L22.5261 48.892L22.3677 48.2319C21.0212 43.2417 14.8957 41.0503 10.8825 44.113C10.0376 44.7731 9.82634 44.7995 6.81641 44.7995H3.62166V30.3307C3.62166 19.4263 3.70086 15.7827 3.93849 15.5451C4.44015 15.0434 38.8167 15.0962 39.2392 15.5715C39.424 15.8355 39.556 19.9016 39.5824 29.0898C39.6616 41.2879 39.688 42.2648 40.1369 42.5289C40.4537 42.7401 40.7177 42.7401 41.061 42.5289C41.4834 42.2648 41.5098 41.4199 41.589 31.8885L41.6418 21.565H48.0842C53.8664 21.565 54.5265 21.6178 54.8961 22.0138C55.1337 22.2778 56.0314 24.9709 56.9555 28.0337L58.5925 33.5783L62.7642 37.8027V44.7995H59.5958C56.5067 44.7995 56.4275 44.7731 55.3186 44.0074C52.9687 42.3704 49.5891 42.3176 47.1336 43.9282L45.9983 44.6675L35.0675 44.7995C25.0344 44.9315 24.1103 44.9579 23.8463 45.3804C23.6351 45.7236 23.6351 45.9876 23.8463 46.3045C24.1103 46.7533 24.9552 46.7797 34.3018 46.8589L44.4934 46.9117L44.1237 47.9151C42.6187 52.1131 45.8399 56.9184 50.4868 57.3937C54.104 57.7633 57.1404 55.5455 58.3813 51.5851C58.5133 51.189 58.8829 51.1362 61.3912 51.1362C63.2658 51.1362 64.3483 51.0306 64.5596 50.8194C64.7972 50.5817 64.8764 48.6543 64.8764 43.7698V37.0107L62.685 34.7664L60.4671 32.5222L58.8037 26.9247C56.7707 20.0336 56.5331 19.6639 53.9984 19.5055L52.2558 19.3999L52.1238 18.2118C51.939 16.4164 50.7772 15.3603 49.0347 15.3603C47.2921 15.3603 46.1303 16.4164 45.9455 18.2382L45.7871 19.4527H41.6946L41.6154 17.2085C41.5098 15.0962 41.457 14.9378 40.6385 14.1193L39.7936 13.248L21.8925 13.1952C12.0706 13.1688 3.78007 13.248 3.48964 13.3536ZM49.7739 17.6573C49.9588 17.8421 50.0908 18.3174 50.0908 18.7134C50.0908 19.3999 50.0116 19.4527 49.0347 19.4527C48.0577 19.4527 47.9785 19.3999 47.9785 18.7134C47.9785 17.8949 48.401 17.3405 49.0347 17.3405C49.2723 17.3405 49.5891 17.4725 49.7739 17.6573ZM18.1433 45.6972C19.701 46.7269 20.3875 48.0471 20.3875 50.0801C20.3875 52.1395 19.701 53.4333 18.064 54.5158C16.5855 55.4927 14.0244 55.5455 12.5194 54.595C10.5128 53.354 9.58871 50.8986 10.196 48.5487C10.5656 47.2022 12.1762 45.4596 13.4435 45.0899C14.8429 44.6675 17.0079 44.9315 18.1433 45.6972ZM54.0512 45.6972C55.609 46.7269 56.2955 48.0471 56.2955 50.0801C56.2955 52.1395 55.609 53.4333 53.972 54.5158C52.4934 55.4927 49.9324 55.5455 48.4274 54.595C46.4208 53.354 45.4967 50.8986 46.1039 48.5487C46.4736 47.2022 48.0842 45.4596 49.3515 45.0899C50.7508 44.6675 52.9159 44.9315 54.0512 45.6972ZM8.24216 47.8886L7.89893 48.892L3.62166 49.0504V46.9117H8.5854L8.24216 47.8886ZM62.7642 49.0504L58.4869 48.892L58.1437 47.8886L57.8004 46.9117H62.7642V49.0504Z" fill="#FF8743"/>
<path d="M14.0508 47.1493C12.8627 47.6773 12.2026 48.7335 12.2026 50.1064C12.2026 51.2153 12.3346 51.5058 13.0739 52.2451C13.8132 52.9843 14.1036 53.1163 15.2389 53.1163C16.3743 53.1163 16.6647 52.9843 17.404 52.2451C18.1433 51.5058 18.2753 51.2153 18.2753 50.08C18.2753 48.9711 18.1433 48.6543 17.4568 47.9414C16.5855 47.0701 15.0277 46.7268 14.0508 47.1493ZM16.031 49.4199C16.7175 50.2648 15.6878 51.5586 14.7901 50.9777C13.866 50.3968 14.1828 49.0239 15.2389 49.0239C15.503 49.0239 15.8462 49.2087 16.031 49.4199Z" fill="#FF8743"/>
<path d="M49.9588 47.1493C48.7707 47.6773 48.1106 48.7335 48.1106 50.1064C48.1106 51.2153 48.2427 51.5058 48.9819 52.2451C49.7212 52.9843 50.0116 53.1163 51.147 53.1163C52.2823 53.1163 52.5727 52.9843 53.312 52.2451C54.0513 51.5058 54.1833 51.2153 54.1833 50.08C54.1833 48.9711 54.0513 48.6543 53.3648 47.9414C52.4935 47.0701 50.9357 46.7268 49.9588 47.1493ZM51.9391 49.4199C52.6255 50.2648 51.5958 51.5586 50.6981 50.9777C49.774 50.3968 50.0909 49.0239 51.147 49.0239C51.411 49.0239 51.7542 49.2087 51.9391 49.4199Z" fill="#FF8743"/>
<path d="M18.7242 22.9379C18.5394 23.1227 18.4074 23.994 18.4074 25.0501V26.8455H16.612C15.5559 26.8455 14.6846 26.9775 14.4998 27.1624C14.0773 27.5848 14.0773 32.4429 14.4998 32.8654C14.6846 33.0502 15.5559 33.1822 16.612 33.1822H18.4074V34.9776C18.4074 36.0337 18.5394 36.905 18.7242 37.0899C19.1467 37.5123 24.0048 37.5123 24.4272 37.0899C24.6121 36.905 24.7441 36.0337 24.7441 34.9776V33.1822H26.5395C27.5956 33.1822 28.4669 33.0502 28.6517 32.8654C29.0742 32.4429 29.0742 27.5848 28.6517 27.1624C28.4669 26.9775 27.5956 26.8455 26.5395 26.8455H24.7441V25.0501C24.7441 23.994 24.6121 23.1227 24.4272 22.9379C24.216 22.7267 23.1863 22.6211 21.5757 22.6211C19.9652 22.6211 18.9354 22.7267 18.7242 22.9379ZM22.6319 26.5287C22.6319 27.5848 22.7639 28.4561 22.9487 28.6409C23.1335 28.8257 24.0048 28.9578 25.0609 28.9578H26.8563V31.07H25.0609C24.0048 31.07 23.1335 31.202 22.9487 31.3868C22.7639 31.5716 22.6319 32.4429 22.6319 33.4991V35.2945H20.5196V33.4991C20.5196 32.4429 20.3876 31.5716 20.2028 31.3868C20.018 31.202 19.1467 31.07 18.0906 31.07H16.2952V28.9578H18.0906C19.1467 28.9578 20.018 28.8257 20.2028 28.6409C20.3876 28.4561 20.5196 27.5848 20.5196 26.5287V24.7333H22.6319V26.5287Z" fill="#FF8743"/>
<path d="M44.071 23.9939C43.5958 24.4692 43.6222 33.5254 44.1238 33.9478C44.3615 34.1591 46.1833 34.2383 50.0909 34.1855C55.0018 34.1063 55.7411 34.0534 55.9787 33.6574C56.2692 33.2086 55.6619 30.7003 54.0777 25.9214L53.3912 23.8091L48.9028 23.7299C45.6288 23.6771 44.3086 23.7563 44.071 23.9939ZM52.4407 27.6903C52.7576 28.7465 53.18 30.1722 53.3912 30.8587L53.7609 32.126H45.8664V25.7893H51.8599L52.4407 27.6903Z" fill="#FF8743"/>
<path d="M44.0709 36.6675C43.6484 37.09 43.6748 37.8029 44.1237 38.1725C44.7045 38.6742 47.4504 38.4365 47.8201 37.8557C48.0313 37.5388 48.0313 37.2748 47.8201 36.9316C47.4504 36.3771 44.5989 36.1395 44.0709 36.6675Z" fill="#FF8743"/>
<path d="M48.2692 9.26124C47.7675 9.84211 48.0051 12.588 48.586 12.9576C49.4309 13.4857 49.959 12.852 50.0382 11.1623C50.1174 9.55167 49.8269 8.8916 49.0349 8.8916C48.7708 8.8916 48.4276 9.05002 48.2692 9.26124Z" stroke="#FF8743" stroke-width="0.495" mask="url(#path-1-outside-1_538_3237)"/>
<path d="M43.0939 10.555C42.5131 11.0039 42.6715 11.796 43.5692 13.1425C44.2293 14.1458 45.2062 14.3571 45.7078 13.5914C45.919 13.2481 45.8398 12.8785 45.3646 12.0072C44.7837 10.9511 44.1236 10.2118 43.754 10.2118C43.6748 10.2118 43.3844 10.3702 43.0939 10.555Z" stroke="#FF8743" stroke-width="0.495" mask="url(#path-1-outside-1_538_3237)"/>
<path d="M53.7608 10.5285C52.9687 11.1622 52.1502 12.9048 52.335 13.5649C52.5726 14.5154 53.7344 14.2778 54.5001 13.1424C55.3978 11.7959 55.5562 11.0038 54.9753 10.555C54.368 10.1325 54.2624 10.1325 53.7608 10.5285Z" stroke="#FF8743" stroke-width="0.495" mask="url(#path-1-outside-1_538_3237)"/>
<path d="M3.48964 13.3536C3.19921 13.4857 2.67115 13.9081 2.30151 14.3042L1.64144 15.017L1.56223 32.707C1.50942 45.6972 1.58863 50.5025 1.79985 50.7666C2.01108 51.0306 2.85597 51.1362 4.99461 51.1362C7.50288 51.1362 7.87252 51.189 8.00454 51.6115C8.79663 54.1197 9.95835 55.5983 11.9122 56.628C13.7604 57.5785 16.6383 57.6313 18.4073 56.7072C20.4403 55.6511 21.8133 54.0141 22.3677 51.9283L22.5261 51.2682L31.8728 51.1362C40.3745 51.0042 41.2194 50.9514 41.4834 50.5289C41.6946 50.2121 41.6946 49.9481 41.4834 49.6048C41.2194 49.2088 40.3745 49.156 31.8728 49.024L22.5261 48.892L22.3677 48.2319C21.0212 43.2417 14.8957 41.0503 10.8825 44.113C10.0376 44.7731 9.82634 44.7995 6.81641 44.7995H3.62166V30.3307C3.62166 19.4263 3.70086 15.7827 3.93849 15.5451C4.44015 15.0434 38.8167 15.0962 39.2392 15.5715C39.424 15.8355 39.556 19.9016 39.5824 29.0898C39.6616 41.2879 39.688 42.2648 40.1369 42.5289C40.4537 42.7401 40.7177 42.7401 41.061 42.5289C41.4834 42.2648 41.5098 41.4199 41.589 31.8885L41.6418 21.565H48.0842C53.8664 21.565 54.5265 21.6178 54.8961 22.0138C55.1337 22.2778 56.0314 24.9709 56.9555 28.0337L58.5925 33.5783L62.7642 37.8027V44.7995H59.5958C56.5067 44.7995 56.4275 44.7731 55.3186 44.0074C52.9687 42.3704 49.5891 42.3176 47.1336 43.9282L45.9983 44.6675L35.0675 44.7995C25.0344 44.9315 24.1103 44.9579 23.8463 45.3804C23.6351 45.7236 23.6351 45.9876 23.8463 46.3045C24.1103 46.7533 24.9552 46.7797 34.3018 46.8589L44.4934 46.9117L44.1237 47.9151C42.6187 52.1131 45.8399 56.9184 50.4868 57.3937C54.104 57.7633 57.1404 55.5455 58.3813 51.5851C58.5133 51.189 58.8829 51.1362 61.3912 51.1362C63.2658 51.1362 64.3483 51.0306 64.5596 50.8194C64.7972 50.5817 64.8764 48.6543 64.8764 43.7698V37.0107L62.685 34.7664L60.4671 32.5222L58.8037 26.9247C56.7707 20.0336 56.5331 19.6639 53.9984 19.5055L52.2558 19.3999L52.1238 18.2118C51.939 16.4164 50.7772 15.3603 49.0347 15.3603C47.2921 15.3603 46.1303 16.4164 45.9455 18.2382L45.7871 19.4527H41.6946L41.6154 17.2085C41.5098 15.0962 41.457 14.9378 40.6385 14.1193L39.7936 13.248L21.8925 13.1952C12.0706 13.1688 3.78007 13.248 3.48964 13.3536ZM49.7739 17.6573C49.9588 17.8421 50.0908 18.3174 50.0908 18.7134C50.0908 19.3999 50.0116 19.4527 49.0347 19.4527C48.0577 19.4527 47.9785 19.3999 47.9785 18.7134C47.9785 17.8949 48.401 17.3405 49.0347 17.3405C49.2723 17.3405 49.5891 17.4725 49.7739 17.6573ZM18.1433 45.6972C19.701 46.7269 20.3875 48.0471 20.3875 50.0801C20.3875 52.1395 19.701 53.4333 18.064 54.5158C16.5855 55.4927 14.0244 55.5455 12.5194 54.595C10.5128 53.354 9.58871 50.8986 10.196 48.5487C10.5656 47.2022 12.1762 45.4596 13.4435 45.0899C14.8429 44.6675 17.0079 44.9315 18.1433 45.6972ZM54.0512 45.6972C55.609 46.7269 56.2955 48.0471 56.2955 50.0801C56.2955 52.1395 55.609 53.4333 53.972 54.5158C52.4934 55.4927 49.9324 55.5455 48.4274 54.595C46.4208 53.354 45.4967 50.8986 46.1039 48.5487C46.4736 47.2022 48.0842 45.4596 49.3515 45.0899C50.7508 44.6675 52.9159 44.9315 54.0512 45.6972ZM8.24216 47.8886L7.89893 48.892L3.62166 49.0504V46.9117H8.5854L8.24216 47.8886ZM62.7642 49.0504L58.4869 48.892L58.1437 47.8886L57.8004 46.9117H62.7642V49.0504Z" stroke="#FF8743" stroke-width="0.495" mask="url(#path-1-outside-1_538_3237)"/>
<path d="M14.0508 47.1493C12.8627 47.6773 12.2026 48.7335 12.2026 50.1064C12.2026 51.2153 12.3346 51.5058 13.0739 52.2451C13.8132 52.9843 14.1036 53.1163 15.2389 53.1163C16.3743 53.1163 16.6647 52.9843 17.404 52.2451C18.1433 51.5058 18.2753 51.2153 18.2753 50.08C18.2753 48.9711 18.1433 48.6543 17.4568 47.9414C16.5855 47.0701 15.0277 46.7268 14.0508 47.1493ZM16.031 49.4199C16.7175 50.2648 15.6878 51.5586 14.7901 50.9777C13.866 50.3968 14.1828 49.0239 15.2389 49.0239C15.503 49.0239 15.8462 49.2087 16.031 49.4199Z" stroke="#FF8743" stroke-width="0.495" mask="url(#path-1-outside-1_538_3237)"/>
<path d="M49.9588 47.1493C48.7707 47.6773 48.1106 48.7335 48.1106 50.1064C48.1106 51.2153 48.2427 51.5058 48.9819 52.2451C49.7212 52.9843 50.0116 53.1163 51.147 53.1163C52.2823 53.1163 52.5727 52.9843 53.312 52.2451C54.0513 51.5058 54.1833 51.2153 54.1833 50.08C54.1833 48.9711 54.0513 48.6543 53.3648 47.9414C52.4935 47.0701 50.9357 46.7268 49.9588 47.1493ZM51.9391 49.4199C52.6255 50.2648 51.5958 51.5586 50.6981 50.9777C49.774 50.3968 50.0909 49.0239 51.147 49.0239C51.411 49.0239 51.7542 49.2087 51.9391 49.4199Z" stroke="#FF8743" stroke-width="0.495" mask="url(#path-1-outside-1_538_3237)"/>
<path d="M18.7242 22.9379C18.5394 23.1227 18.4074 23.994 18.4074 25.0501V26.8455H16.612C15.5559 26.8455 14.6846 26.9775 14.4998 27.1624C14.0773 27.5848 14.0773 32.4429 14.4998 32.8654C14.6846 33.0502 15.5559 33.1822 16.612 33.1822H18.4074V34.9776C18.4074 36.0337 18.5394 36.905 18.7242 37.0899C19.1467 37.5123 24.0048 37.5123 24.4272 37.0899C24.6121 36.905 24.7441 36.0337 24.7441 34.9776V33.1822H26.5395C27.5956 33.1822 28.4669 33.0502 28.6517 32.8654C29.0742 32.4429 29.0742 27.5848 28.6517 27.1624C28.4669 26.9775 27.5956 26.8455 26.5395 26.8455H24.7441V25.0501C24.7441 23.994 24.6121 23.1227 24.4272 22.9379C24.216 22.7267 23.1863 22.6211 21.5757 22.6211C19.9652 22.6211 18.9354 22.7267 18.7242 22.9379ZM22.6319 26.5287C22.6319 27.5848 22.7639 28.4561 22.9487 28.6409C23.1335 28.8257 24.0048 28.9578 25.0609 28.9578H26.8563V31.07H25.0609C24.0048 31.07 23.1335 31.202 22.9487 31.3868C22.7639 31.5716 22.6319 32.4429 22.6319 33.4991V35.2945H20.5196V33.4991C20.5196 32.4429 20.3876 31.5716 20.2028 31.3868C20.018 31.202 19.1467 31.07 18.0906 31.07H16.2952V28.9578H18.0906C19.1467 28.9578 20.018 28.8257 20.2028 28.6409C20.3876 28.4561 20.5196 27.5848 20.5196 26.5287V24.7333H22.6319V26.5287Z" stroke="#FF8743" stroke-width="0.495" mask="url(#path-1-outside-1_538_3237)"/>
<path d="M44.071 23.9939C43.5958 24.4692 43.6222 33.5254 44.1238 33.9478C44.3615 34.1591 46.1833 34.2383 50.0909 34.1855C55.0018 34.1063 55.7411 34.0534 55.9787 33.6574C56.2692 33.2086 55.6619 30.7003 54.0777 25.9214L53.3912 23.8091L48.9028 23.7299C45.6288 23.6771 44.3086 23.7563 44.071 23.9939ZM52.4407 27.6903C52.7576 28.7465 53.18 30.1722 53.3912 30.8587L53.7609 32.126H45.8664V25.7893H51.8599L52.4407 27.6903Z" stroke="#FF8743" stroke-width="0.495" mask="url(#path-1-outside-1_538_3237)"/>
<path d="M44.0709 36.6675C43.6484 37.09 43.6748 37.8029 44.1237 38.1725C44.7045 38.6742 47.4504 38.4365 47.8201 37.8557C48.0313 37.5388 48.0313 37.2748 47.8201 36.9316C47.4504 36.3771 44.5989 36.1395 44.0709 36.6675Z" stroke="#FF8743" stroke-width="0.495" mask="url(#path-1-outside-1_538_3237)"/>
</svg>
