<svg width="66" height="66" viewBox="0 0 66 66" fill="none" xmlns="http://www.w3.org/2000/svg">
<g clip-path="url(#clip0_470_1011)">
<path d="M55.7138 31.2521C58.0213 30.0585 60.4418 29.4109 60.4418 26.5566V16.7002C60.4418 28.5123 3.27344 25.0616 3.27344 16.7002V26.5566C3.27344 32.1239 20.5854 34.4907 34.2394 34.4858" stroke="#FF8743" stroke-width="2.4375" stroke-miterlimit="1.5" stroke-linecap="round" stroke-linejoin="round"/>
<path d="M3.27468 15.737C2.77743 5.92114 60.3877 5.31989 60.443 15.737" stroke="#FF8743" stroke-width="2.4375" stroke-miterlimit="1.5" stroke-linecap="round" stroke-linejoin="round"/>
<path d="M56.6913 21.1592C48.3672 17.0504 18.6314 16.4825 8.89844 20.9374" stroke="#FF8743" stroke-width="2.4375" stroke-miterlimit="1.5" stroke-linecap="round" stroke-linejoin="round"/>
<path d="M46.726 60.4905C55.5633 60.4905 62.7274 53.3265 62.7274 44.4892C62.7274 35.6519 55.5633 28.4878 46.726 28.4878C37.8887 28.4878 30.7246 35.6519 30.7246 44.4892C30.7246 53.3265 37.8887 60.4905 46.726 60.4905Z" stroke="#FF8743" stroke-width="2.4375" stroke-miterlimit="1.5" stroke-linecap="round" stroke-linejoin="round"/>
<path d="M46.9247 50.62C50.2023 50.62 52.8592 47.963 52.8592 44.6855C52.8592 41.4079 50.2023 38.751 46.9247 38.751C43.6472 38.751 40.9902 41.4079 40.9902 44.6855C40.9902 47.963 43.6472 50.62 46.9247 50.62Z" stroke="#FF8743" stroke-width="2.4375" stroke-miterlimit="1.5" stroke-linecap="round" stroke-linejoin="round"/>
</g>
<defs>
<clipPath id="clip0_470_1011">
<rect width="65" height="65" fill="white" transform="translate(0.5 0.5)"/>
</clipPath>
</defs>
</svg>
