<svg width="17" height="17" viewBox="0 0 13 17" fill="none" xmlns="http://www.w3.org/2000/svg">
<path d="M7.96305 14.6379L8.56024 15.0916L7.96305 14.6379ZM5.03695 14.6379L4.43976 15.0916L5.03695 14.6379ZM11.25 6.97461C11.25 7.34283 11.1359 7.83877 10.8995 8.44614C10.6667 9.04392 10.3343 9.70225 9.94287 10.3809C9.15994 11.7382 8.17199 13.1231 7.36585 14.1841L8.56024 15.0916C9.38346 14.008 10.414 12.5662 11.2422 11.1304C11.6563 10.4126 12.0277 9.68279 12.2972 8.99038C12.5631 8.30758 12.75 7.61125 12.75 6.97461H11.25ZM6.5 2.22461C9.12335 2.22461 11.25 4.35126 11.25 6.97461H12.75C12.75 3.52283 9.95178 0.724609 6.5 0.724609V2.22461ZM1.75 6.97461C1.75 4.35126 3.87665 2.22461 6.5 2.22461V0.724609C3.04822 0.724609 0.25 3.52283 0.25 6.97461H1.75ZM5.63415 14.1841C4.82801 13.1231 3.84006 11.7382 3.05713 10.3809C2.66565 9.70225 2.33329 9.04392 2.10054 8.44614C1.86405 7.83877 1.75 7.34283 1.75 6.97461H0.25C0.25 7.61125 0.436899 8.30758 0.702754 8.99038C0.972347 9.68279 1.34372 10.4126 1.75781 11.1304C2.58602 12.5662 3.61654 14.008 4.43976 15.0916L5.63415 14.1841ZM7.36585 14.1841C6.92058 14.7702 6.07942 14.7702 5.63415 14.1841L4.43976 15.0916C5.4853 16.4677 7.51469 16.4677 8.56024 15.0916L7.36585 14.1841ZM8.25 6.97461C8.25 7.94111 7.4665 8.72461 6.5 8.72461V10.2246C8.29493 10.2246 9.75 8.76954 9.75 6.97461H8.25ZM6.5 5.22461C7.4665 5.22461 8.25 6.00811 8.25 6.97461H9.75C9.75 5.17968 8.29493 3.72461 6.5 3.72461V5.22461ZM4.75 6.97461C4.75 6.00811 5.5335 5.22461 6.5 5.22461V3.72461C4.70507 3.72461 3.25 5.17968 3.25 6.97461H4.75ZM6.5 8.72461C5.5335 8.72461 4.75 7.94111 4.75 6.97461H3.25C3.25 8.76954 4.70507 10.2246 6.5 10.2246V8.72461Z" fill="#7BB007"/>
</svg>
