<svg width="2970" height="542" viewBox="0 0 2970 542" fill="none" xmlns="http://www.w3.org/2000/svg">
<g clip-path="url(#clip0_504_1376)">
<rect x="-180.555" y="-39" width="3528.11" height="642" fill="url(#paint0_linear_504_1376)"/>
<g clip-path="url(#clip1_504_1376)">
<g filter="url(#filter0_d_504_1376)">
<circle cx="2889.81" cy="530.449" r="157.919" transform="rotate(180 2889.81 530.449)" fill="white"/>
<circle cx="2734.33" cy="525.088" r="71.6483" transform="rotate(180 2734.33 525.088)" fill="white"/>
<circle cx="2661.71" cy="507.054" r="47.7655" transform="rotate(180 2661.71 507.054)" fill="white"/>
<circle cx="2562.76" cy="517.29" r="109.666" transform="rotate(180 2562.76 517.29)" fill="white"/>
<circle cx="2454.08" cy="524.601" r="78.9594" transform="rotate(180 2454.08 524.601)" fill="white"/>
<circle cx="2301.52" cy="525.088" r="109.666" transform="rotate(180 2301.52 525.088)" fill="white"/>
<circle cx="2192.34" cy="471.473" r="63.8498" transform="rotate(180 2192.34 471.473)" fill="white"/>
<circle cx="2137.26" cy="526.55" r="70.1861" transform="rotate(180 2137.26 526.55)" fill="white"/>
<circle cx="2067.08" cy="541.172" r="70.1861" transform="rotate(180 2067.08 541.172)" fill="white"/>
<circle cx="1965.69" cy="515.828" r="70.1861" transform="rotate(180 1965.69 515.828)" fill="white"/>
<circle cx="1864.8" cy="541.66" r="109.666" transform="rotate(180 1864.8 541.66)" fill="white"/>
<circle cx="1754.65" cy="563.105" r="109.666" transform="rotate(180 1754.65 563.105)" fill="white"/>
<circle cx="1590.88" cy="487.071" r="109.666" transform="rotate(180 1590.88 487.071)" fill="white"/>
<circle cx="1463.33" cy="529.67" r="109.666" transform="rotate(180 1463.33 529.67)" fill="white"/>
<circle cx="1325.03" cy="510.812" r="109.666" transform="rotate(180 1325.03 510.812)" fill="white"/>
</g>
<g filter="url(#filter1_d_504_1376)">
<circle cx="1183.18" cy="530.449" r="157.919" transform="rotate(180 1183.18 530.449)" fill="white"/>
<circle cx="1027.7" cy="525.088" r="71.6483" transform="rotate(180 1027.7 525.088)" fill="white"/>
<circle cx="955.078" cy="507.054" r="47.7655" transform="rotate(180 955.078 507.054)" fill="white"/>
<circle cx="856.135" cy="517.29" r="109.666" transform="rotate(180 856.135 517.29)" fill="white"/>
<circle cx="747.447" cy="524.601" r="78.9594" transform="rotate(180 747.447 524.601)" fill="white"/>
<circle cx="594.889" cy="525.088" r="109.666" transform="rotate(180 594.889 525.088)" fill="white"/>
<circle cx="485.709" cy="471.473" r="63.8498" transform="rotate(180 485.709 471.473)" fill="white"/>
<circle cx="430.63" cy="526.55" r="70.1861" transform="rotate(180 430.63 526.55)" fill="white"/>
<circle cx="360.447" cy="541.172" r="70.1861" transform="rotate(180 360.447 541.172)" fill="white"/>
<circle cx="259.064" cy="515.828" r="70.1861" transform="rotate(180 259.064 515.828)" fill="white"/>
<circle cx="158.174" cy="541.66" r="109.666" transform="rotate(180 158.174 541.66)" fill="white"/>
<circle cx="48.0217" cy="563.105" r="109.666" transform="rotate(180 48.0217 563.105)" fill="white"/>
</g>
<g filter="url(#filter2_d_504_1376)">
<circle cx="88.635" cy="88.635" r="88.635" transform="matrix(1 0 0 -1 -97.8047 656.764)" fill="white"/>
<circle cx="74.8055" cy="74.8055" r="74.8055" transform="matrix(1 0 0 -1 84.4961 649.22)" fill="white"/>
<circle cx="96.8071" cy="96.8071" r="96.8071" transform="matrix(1 0 0 -1 190.102 658.021)" fill="white"/>
<circle cx="141.439" cy="141.439" r="141.439" transform="matrix(1 0 0 -1 314.566 676.879)" fill="white"/>
<circle cx="76.0627" cy="76.0627" r="76.0627" transform="matrix(1 0 0 -1 527.039 650.478)" fill="white"/>
<circle cx="63.4904" cy="63.4904" r="63.4904" transform="matrix(1 0 0 -1 737 656.764)" fill="white"/>
<circle cx="93.0354" cy="93.0354" r="93.0354" transform="matrix(1 0 0 -1 612.531 678.137)" fill="white"/>
<circle cx="82.3489" cy="82.3489" r="82.3489" transform="matrix(1 0 0 -1 819.977 639.162)" fill="white"/>
<circle cx="90.5209" cy="90.5209" r="90.5209" transform="matrix(1 0 0 -1 882.836 642.934)" fill="white"/>
<circle cx="90.5209" cy="90.5209" r="90.5209" transform="matrix(1 0 0 -1 973.359 674.365)" fill="white"/>
<circle cx="90.5209" cy="90.5209" r="90.5209" transform="matrix(1 0 0 -1 1104.11 704.539)" fill="white"/>
<circle cx="141.439" cy="141.439" r="141.439" transform="matrix(1 0 0 -1 1199.66 785.001)" fill="white"/>
<circle cx="141.439" cy="141.439" r="141.439" transform="matrix(1 0 0 -1 1366.88 747.284)" fill="white"/>
<circle cx="141.439" cy="141.439" r="141.439" transform="matrix(1 0 0 -1 1536.6 718.368)" fill="white"/>
<circle cx="141.439" cy="141.439" r="141.439" transform="matrix(1 0 0 -1 1536.6 718.368)" fill="white"/>
</g>
<g filter="url(#filter3_d_504_1376)">
<circle cx="88.635" cy="88.635" r="88.635" transform="matrix(1 0 0 -1 1843.64 656.764)" fill="white"/>
<circle cx="74.8055" cy="74.8055" r="74.8055" transform="matrix(1 0 0 -1 2025.95 649.22)" fill="white"/>
<circle cx="96.8071" cy="96.8071" r="96.8071" transform="matrix(1 0 0 -1 2131.55 658.021)" fill="white"/>
<circle cx="141.439" cy="141.439" r="141.439" transform="matrix(1 0 0 -1 2256.02 676.879)" fill="white"/>
<circle cx="76.0627" cy="76.0627" r="76.0627" transform="matrix(1 0 0 -1 2468.49 650.478)" fill="white"/>
<circle cx="63.4904" cy="63.4904" r="63.4904" transform="matrix(1 0 0 -1 2678.45 656.764)" fill="white"/>
<circle cx="93.0354" cy="93.0354" r="93.0354" transform="matrix(1 0 0 -1 2553.98 678.137)" fill="white"/>
<circle cx="82.3489" cy="82.3489" r="82.3489" transform="matrix(1 0 0 -1 2761.43 639.162)" fill="white"/>
<circle cx="90.5209" cy="90.5209" r="90.5209" transform="matrix(1 0 0 -1 2824.29 642.934)" fill="white"/>
<circle cx="90.5209" cy="90.5209" r="90.5209" transform="matrix(1 0 0 -1 2914.81 674.365)" fill="white"/>
</g>
</g>
</g>
<defs>
<filter id="filter0_d_504_1376" x="1051.37" y="208.531" width="2160.36" height="643.837" filterUnits="userSpaceOnUse" color-interpolation-filters="sRGB">
<feFlood flood-opacity="0" result="BackgroundImageFix"/>
<feColorMatrix in="SourceAlpha" type="matrix" values="0 0 0 0 0 0 0 0 0 0 0 0 0 0 0 0 0 0 127 0" result="hardAlpha"/>
<feOffset/>
<feGaussianBlur stdDeviation="82"/>
<feComposite in2="hardAlpha" operator="out"/>
<feColorMatrix type="matrix" values="0 0 0 0 0.571389 0 0 0 0 0.704367 0 0 0 0 0.779167 0 0 0 0.24 0"/>
<feBlend mode="normal" in2="BackgroundImageFix" result="effect1_dropShadow_504_1376"/>
<feBlend mode="normal" in="SourceGraphic" in2="effect1_dropShadow_504_1376" result="shape"/>
</filter>
<filter id="filter1_d_504_1376" x="-655.262" y="208.531" width="2160.36" height="643.837" filterUnits="userSpaceOnUse" color-interpolation-filters="sRGB">
<feFlood flood-opacity="0" result="BackgroundImageFix"/>
<feColorMatrix in="SourceAlpha" type="matrix" values="0 0 0 0 0 0 0 0 0 0 0 0 0 0 0 0 0 0 127 0" result="hardAlpha"/>
<feOffset/>
<feGaussianBlur stdDeviation="82"/>
<feComposite in2="hardAlpha" operator="out"/>
<feColorMatrix type="matrix" values="0 0 0 0 0.571389 0 0 0 0 0.704367 0 0 0 0 0.779167 0 0 0 0.24 0"/>
<feBlend mode="normal" in2="BackgroundImageFix" result="effect1_dropShadow_504_1376"/>
<feBlend mode="normal" in="SourceGraphic" in2="effect1_dropShadow_504_1376" result="shape"/>
</filter>
<filter id="filter2_d_504_1376" x="-191.805" y="300.001" width="2105.29" height="579" filterUnits="userSpaceOnUse" color-interpolation-filters="sRGB">
<feFlood flood-opacity="0" result="BackgroundImageFix"/>
<feColorMatrix in="SourceAlpha" type="matrix" values="0 0 0 0 0 0 0 0 0 0 0 0 0 0 0 0 0 0 127 0" result="hardAlpha"/>
<feOffset/>
<feGaussianBlur stdDeviation="47"/>
<feComposite in2="hardAlpha" operator="out"/>
<feColorMatrix type="matrix" values="0 0 0 0 0.515104 0 0 0 0 0.758771 0 0 0 0 0.895833 0 0 0 0.26 0"/>
<feBlend mode="normal" in2="BackgroundImageFix" result="effect1_dropShadow_504_1376"/>
<feBlend mode="normal" in="SourceGraphic" in2="effect1_dropShadow_504_1376" result="shape"/>
</filter>
<filter id="filter3_d_504_1376" x="1749.64" y="300.001" width="2105.29" height="579" filterUnits="userSpaceOnUse" color-interpolation-filters="sRGB">
<feFlood flood-opacity="0" result="BackgroundImageFix"/>
<feColorMatrix in="SourceAlpha" type="matrix" values="0 0 0 0 0 0 0 0 0 0 0 0 0 0 0 0 0 0 127 0" result="hardAlpha"/>
<feOffset/>
<feGaussianBlur stdDeviation="47"/>
<feComposite in2="hardAlpha" operator="out"/>
<feColorMatrix type="matrix" values="0 0 0 0 0.515104 0 0 0 0 0.758771 0 0 0 0 0.895833 0 0 0 0.26 0"/>
<feBlend mode="normal" in2="BackgroundImageFix" result="effect1_dropShadow_504_1376"/>
<feBlend mode="normal" in="SourceGraphic" in2="effect1_dropShadow_504_1376" result="shape"/>
</filter>
<linearGradient id="paint0_linear_504_1376" x1="1583.5" y1="46.9852" x2="1583.5" y2="423.541" gradientUnits="userSpaceOnUse">
<stop stop-color="white"/>
<stop offset="1" stop-color="#DCF7FF"/>
</linearGradient>
<clipPath id="clip0_504_1376">
<rect width="2970" height="542" fill="white"/>
</clipPath>
<clipPath id="clip1_504_1376">
<rect width="3257" height="632" fill="white" transform="translate(-136 -13)"/>
</clipPath>
</defs>
</svg>
