<svg width="40" height="40" viewBox="0 0 40 40" fill="none" xmlns="http://www.w3.org/2000/svg">
<circle cx="20" cy="20" r="20" fill="#778EC7"/>
<path d="M4.55817 19.3122L3.96481 18.7071L4.55817 19.3122ZM35.704 21.649L36.2974 22.2541L35.704 21.649ZM35.704 19.3122L36.2974 18.7071L35.704 19.3122ZM35.1107 21.0439C33.933 22.1987 31.8692 24.0264 29.245 25.5613C26.6172 27.0984 23.4771 28.313 20.1311 28.313V30.0079C23.8811 30.0079 27.3199 28.6509 30.1008 27.0243C32.8853 25.3956 35.0599 23.4675 36.2974 22.2541L35.1107 21.0439ZM20.1311 12.6483C23.4771 12.6483 26.6172 13.8629 29.245 15.3999C31.8692 16.9349 33.933 18.7625 35.1107 19.9173L36.2974 18.7071C35.0599 17.4937 32.8853 15.5656 30.1008 13.9369C27.3199 12.3103 23.8811 10.9533 20.1311 10.9533V12.6483ZM5.15152 19.9173C6.32919 18.7625 8.393 16.9349 11.0172 15.3999C13.645 13.8629 16.7851 12.6483 20.1311 12.6483V10.9533C16.3811 10.9533 12.9423 12.3103 10.1614 13.9369C7.37688 15.5656 5.20224 17.4937 3.96481 18.7071L5.15152 19.9173ZM20.1311 28.313C16.7851 28.313 13.645 27.0984 11.0172 25.5613C8.393 24.0264 6.32919 22.1987 5.15152 21.0439L3.96481 22.2541C5.20224 23.4675 7.37688 25.3956 10.1614 27.0243C12.9423 28.6509 16.3811 30.0079 20.1311 30.0079V28.313ZM25.3446 20.4806C25.3446 23.36 23.0104 25.6942 20.1311 25.6942V27.3891C23.9465 27.3891 27.0395 24.2961 27.0395 20.4806H25.3446ZM20.1311 15.2671C23.0104 15.2671 25.3446 17.6013 25.3446 20.4806H27.0395C27.0395 16.6652 23.9465 13.5721 20.1311 13.5721V15.2671ZM14.9175 20.4806C14.9175 17.6013 17.2517 15.2671 20.1311 15.2671V13.5721C16.3156 13.5721 13.2226 16.6652 13.2226 20.4806H14.9175ZM20.1311 25.6942C17.2517 25.6942 14.9175 23.36 14.9175 20.4806H13.2226C13.2226 24.2961 16.3156 27.3891 20.1311 27.3891V25.6942ZM3.96481 18.7071C2.95989 19.6925 2.95989 21.2687 3.96481 22.2541L5.15152 21.0439C4.82425 20.723 4.82425 20.2382 5.15152 19.9173L3.96481 18.7071ZM36.2974 22.2541C37.3023 21.2687 37.3023 19.6925 36.2974 18.7071L35.1107 19.9173C35.4379 20.2382 35.4379 20.723 35.1107 21.0439L36.2974 22.2541Z" fill="white"/>
</svg>
