<svg width="202" height="52" viewBox="0 0 202 52" fill="none" xmlns="http://www.w3.org/2000/svg">
<g clip-path="url(#clip0_413_1517)">
<path fill-rule="evenodd" clip-rule="evenodd" d="M38.0357 17.0634H49.1488C49.909 17.0634 50.5288 17.6785 50.5288 18.4317V33.5688C50.5288 34.3233 49.909 34.9384 49.1488 34.9384H38.0357V39.7133C38.0357 40.4675 37.4163 41.0826 36.6561 41.0826H34.3035V49.6718C34.3035 50.426 33.6841 51.0411 32.9239 51.0411H17.6729C16.913 51.0411 16.2933 50.426 16.2933 49.6718V41.0826H13.941C13.1821 41.0826 12.5623 40.4675 12.5623 39.7133V34.9384H1.44799C0.687786 34.9384 0.0683594 34.3233 0.0683594 33.5688V18.4317C0.0683594 17.6785 0.687786 17.0634 1.44799 17.0634H12.5623V12.2872C12.5623 11.533 13.1821 10.918 13.941 10.918H16.2933V2.32869C16.2933 1.57546 16.913 0.960693 17.6729 0.960693H32.9239C33.6841 0.960693 34.3035 1.57546 34.3035 2.32869V10.918H36.6561C37.4163 10.918 38.0357 11.533 38.0357 12.2872V17.0634Z" fill="white"/>
<path fill-rule="evenodd" clip-rule="evenodd" d="M17.6722 2.32861H32.9232V18.4316H49.1481V33.5687H32.9232V49.6718H17.6722V33.5687H1.44727V18.4316H17.6722V2.32861Z" fill="#DF0017"/>
<path fill-rule="evenodd" clip-rule="evenodd" d="M22.6828 21.237H27.9132V12.2872C27.9132 11.3048 28.721 10.5032 29.7108 10.5032H36.6556C37.6467 10.5032 38.4532 11.3048 38.4532 12.2872V39.7134C38.4532 40.6967 37.6467 41.4974 36.6556 41.4974H29.7108C28.721 41.4974 27.9132 40.6967 27.9132 39.7134V30.3696H22.6828V39.7134C22.6828 40.6967 21.8751 41.4974 20.8852 41.4974H13.9405C12.9503 41.4974 12.1426 40.6967 12.1426 39.7134V12.2872C12.1426 11.3048 12.9503 10.5032 13.9405 10.5032H20.8852C21.8751 10.5032 22.6828 11.3048 22.6828 12.2872V21.237Z" fill="white"/>
<path fill-rule="evenodd" clip-rule="evenodd" d="M13.9414 12.2871V39.7132H20.8862V28.5854H29.7118V39.7132H36.6565V12.2871H29.7118V23.0209H20.8862V12.2871H13.9414Z" fill="#004192"/>
<path fill-rule="evenodd" clip-rule="evenodd" d="M62.8086 13.9443V33.0806H67.6537V25.3158H73.8121V33.0806H78.6572V13.9443H73.8121V21.4338H67.6537V13.9443H62.8086ZM92.1333 13.5686C89.2566 13.5686 86.783 14.5206 84.8911 16.3993C83.0481 18.2274 82.0645 20.6824 82.0645 23.5131C82.0645 26.3427 83.0481 28.7724 84.9156 30.6256C86.783 32.4801 89.2819 33.4563 92.1333 33.4563C95.0108 33.4563 97.4834 32.4801 99.3518 30.6256C101.219 28.7724 102.203 26.3427 102.203 23.5131C102.203 20.6824 101.219 18.2274 99.3518 16.3993C97.4589 14.5206 95.0364 13.5686 92.1333 13.5686ZM92.1333 29.1734C89.1555 29.1734 86.9606 26.8693 86.9606 23.5131C86.9606 20.1566 89.1299 17.8528 92.1333 17.8528C95.1365 17.8528 97.2823 20.1566 97.2823 23.5131C97.2823 26.8693 95.1365 29.1734 92.1333 29.1734ZM111.642 29.4742H110.077V24.6899H111.238C113.08 24.6899 114.065 25.5162 114.065 27.0697C114.065 28.5222 113.157 29.4742 111.642 29.4742ZM111.238 21.8844H110.077V17.3259H110.834C112.853 17.3259 113.787 17.8769 113.787 19.6057C113.787 21.0832 112.903 21.8844 111.238 21.8844ZM105.61 13.9443V33.0806H112.298C116.588 33.0806 118.834 31.1016 118.834 27.4698C118.834 25.2914 117.75 23.7884 115.857 23.2121C117.522 22.4112 118.406 20.9577 118.406 19.0791C118.406 15.9738 116.235 13.9443 112.652 13.9443H105.61ZM131.277 13.5686C128.399 13.5686 125.926 14.5206 124.034 16.3993C122.191 18.2274 121.207 20.6824 121.207 23.5131C121.207 26.3427 122.191 28.7724 124.059 30.6256C125.926 32.4801 128.424 33.4563 131.277 33.4563C134.153 33.4563 136.627 32.4801 138.494 30.6256C140.362 28.7724 141.345 26.3427 141.345 23.5131C141.345 20.6824 140.362 18.2274 138.494 16.3993C136.601 14.5206 134.179 13.5686 131.277 13.5686ZM131.277 29.1734C128.298 29.1734 126.103 26.8693 126.103 23.5131C126.103 20.1566 128.273 17.8528 131.277 17.8528C134.28 17.8528 136.425 20.1566 136.425 23.5131C136.425 26.8693 134.28 29.1734 131.277 29.1734ZM161.687 23.3622V33.0806H166.129V13.9443H160.4L155.429 24.4397L150.709 13.9443H144.753V33.0806H149.195V23.3622C149.195 22.5862 149.068 21.209 148.791 19.3049C149.27 20.7573 149.851 21.8348 150.204 22.5862L155.403 33.4309L160.653 22.5862C161.107 21.6596 161.636 20.6075 162.066 19.3049C161.788 21.209 161.687 22.5862 161.687 23.3622ZM170.469 13.9443V33.0806H181.271V29.1986H175.315V25.266H181.271V21.5592H175.315V17.6521H181.271V13.9443H170.469ZM197.069 33.1312V36.8379H201.436V29.2735H199.391V14.0446H188.918C188.388 16.775 187.984 18.7034 187.378 21.3588C186.697 24.0386 186.167 26.6181 185.157 29.2989H183.845V36.8379H188.236V33.1312C191.189 33.1312 194.092 33.1312 197.069 33.1312ZM194.546 29.2735H189.852C190.407 27.3697 190.936 25.266 191.441 23.2375C191.896 21.4084 192.123 19.6806 192.577 17.8769H194.546V29.2735Z" fill="#004192"/>
<path fill-rule="evenodd" clip-rule="evenodd" d="M67.12 43.0816L65.4881 39.6849H62.8086V46.834H64.9708V44.464L64.9045 43.4109L64.8781 42.9105L67.1067 47.2947L69.375 42.9369L69.322 43.4238L69.2956 44.4378L69.2689 46.834H71.4845V39.6849H68.8841L68.8181 39.7505L67.12 43.0816ZM79.9877 44.8853L77.7458 44.4508C77.4937 44.938 76.9898 45.2014 76.3529 45.2014C75.4641 45.2014 74.8805 44.6748 74.8009 43.7925H80.1604V43.6214C80.1604 41.0541 78.6878 39.5664 76.2468 39.5664C73.9252 39.5664 72.3865 41.0935 72.3865 43.3186C72.3865 45.491 73.9385 46.9787 76.3265 46.9787C78.0642 46.9787 79.3908 46.2019 79.9877 44.8853ZM77.8121 42.7129H74.7742C74.8406 41.8309 75.4244 41.2779 76.2601 41.2779C77.1225 41.2779 77.6927 41.8044 77.8121 42.7129ZM88.3454 44.9512H87.3901C87.3901 43.2001 87.3901 41.4887 87.3901 39.7637C85.8514 39.7637 84.3258 39.7637 82.8135 39.7637C82.5747 41.7518 81.8584 43.7925 81.4736 44.9512H80.8237V48.3875H83.0256V46.7943H86.1565V48.3875L88.3454 48.3743V44.9512ZM85.1881 44.938H83.6889C84.0207 44.3061 84.3788 42.6603 84.5645 41.4887H85.1881V44.938ZM94.0231 39.6849L92.2454 42.6341L92.0199 43.029L91.7281 43.7137L91.7945 43.4371L91.8475 42.5286V39.6849H89.5656V46.834H91.8475L93.9701 43.4371L94.3149 42.7526L94.2485 43.0948L94.1425 44.227V46.834H96.4241V39.6849H94.0231ZM100.218 44.9644V39.6979H97.91V46.834H103.269V48.4666H105.392V44.9512H104.45V39.7111H102.115V44.9644H100.218ZM111.07 39.6849L109.292 42.6341L109.067 43.029L108.775 43.7137L108.841 43.4371L108.894 42.5286V39.6849H106.612V46.834H108.894L111.017 43.4371L111.362 42.7526L111.295 43.0948L111.189 44.227V46.834H113.471V39.6849H111.07ZM117.238 42.3181V39.7111H114.904V46.8602H117.252V44.2009H119.149V46.8602H121.483V39.7243H119.122V42.3181H117.238ZM129.589 45.7676L128.169 44.2403C127.851 44.7536 127.347 45.0435 126.777 45.0435C125.861 45.0435 125.145 44.3323 125.145 43.2792C125.145 42.2258 125.861 41.5016 126.777 41.5016C127.241 41.5016 127.705 41.7124 128.063 42.1205L129.443 40.6064C128.62 39.856 127.679 39.5664 126.631 39.5664C124.336 39.5664 122.797 41.0803 122.797 43.2792C122.797 45.4778 124.336 46.9787 126.631 46.9787C127.825 46.9787 128.766 46.597 129.589 45.7676ZM130.902 39.7376V46.8075H133.224V43.5161L135.121 46.8075H137.906L135.24 43.0025L137.628 39.7376H134.962L133.224 42.6867V39.7376H130.902ZM143.744 39.6849L141.966 42.6341L141.74 43.029L141.449 43.7137L141.515 43.4371L141.568 42.5286V39.6849H139.286V46.834H141.568L143.691 43.4371L144.035 42.7526L143.969 43.0948L143.863 44.227V46.834H146.145V39.6849H143.744ZM152.128 39.6849L150.35 42.6341L150.124 43.029L149.833 43.7137L149.899 43.4371L149.952 42.5286V39.6849H147.67V46.834H149.952L152.075 43.4371L152.419 42.7526L152.353 43.0948L152.247 44.227V46.834H154.529V39.6849H152.128ZM149.687 36.6829H148.838C148.931 38.0259 149.594 38.658 150.88 38.658C152.181 38.658 152.804 38.0391 152.91 36.6829H152.061C152.035 37.2885 151.65 37.5784 150.88 37.5784C150.124 37.5784 149.74 37.3017 149.687 36.6829Z" fill="#004192"/>
<path fill-rule="evenodd" clip-rule="evenodd" d="M164.027 44.9644V39.6979H161.719V46.834H167.078V48.4666H169.201V44.9511H168.259V39.7111H165.924V44.9644H164.027ZM177.532 44.8853L175.29 44.4508C175.038 44.9379 174.533 45.2013 173.897 45.2013C173.008 45.2013 172.424 44.6748 172.345 43.7925H177.704V43.6214C177.704 41.0541 176.231 39.5664 173.791 39.5664C171.469 39.5664 169.93 41.0935 169.93 43.3185C169.93 45.4909 171.482 46.9786 173.87 46.9786C175.608 46.9786 176.935 46.2019 177.532 44.8853ZM175.356 42.7129H172.318C172.384 41.8309 172.968 41.2778 173.804 41.2778C174.666 41.2778 175.237 41.8044 175.356 42.7129ZM181.419 42.318V39.7111H179.084V46.8601H181.432V44.2008H183.329V46.8601H185.664V39.7243H183.302V42.318H181.419ZM192.615 41.5674V39.7243H186.672V41.5674H188.449L188.502 41.6071V46.8207H190.85V41.5674H192.615ZM197.59 41.3701C198.412 41.3701 199.089 42.1072 199.089 43.2659C199.089 44.4246 198.412 45.1881 197.59 45.1881C196.78 45.1881 196.091 44.4246 196.091 43.2659C196.091 42.1072 196.78 41.3701 197.59 41.3701ZM196.144 40.6986V39.7375H193.849V49.4277H196.077V45.8202C196.343 46.4915 197.112 46.9392 198.12 46.9392C199.035 46.9392 199.898 46.5573 200.548 45.8596C201.158 45.1881 201.437 44.3455 201.437 43.2659C201.437 42.2257 201.092 41.3305 200.468 40.6722C199.818 39.9877 198.969 39.619 198.041 39.619C197.086 39.619 196.409 40.0139 196.144 40.6986Z" fill="#004192"/>
</g>
<defs>
<clipPath id="clip0_413_1517">
<rect width="202" height="52" fill="white"/>
</clipPath>
</defs>
</svg>
