<svg width="40" height="40" viewBox="0 0 40 40" fill="none" xmlns="http://www.w3.org/2000/svg">
<circle cx="20" cy="20" r="20" fill="#FF8743"/>
<path d="M4.65257 11.9703C4.30298 12.2171 4.27213 12.6798 4.54975 13.7697C5.24893 16.4842 7.01744 19.9698 9.48514 23.4348C11.6752 26.5297 14.4719 28.545 17.4949 29.2031C18.6567 29.4601 20.7132 29.4498 21.2273 29.1928C21.7002 28.9563 21.7825 28.5553 21.7825 26.468C21.7928 24.2574 21.8339 24.1546 22.5948 24.1546C23.5921 24.1649 24.6718 24.9463 26.9852 27.3832C27.8386 28.2674 28.6715 29.09 28.8463 29.2031C29.1342 29.3779 29.3707 29.3984 31.3757 29.3984C33.4629 29.3984 33.6069 29.3882 33.8639 29.1825C34.4294 28.7404 34.121 27.6813 32.9797 26.2213C32.1468 25.1622 30.7279 23.5582 29.8642 22.7151C29.0416 21.9028 28.7846 21.5429 28.7846 21.1625C28.7846 21.0288 29.4735 19.8875 30.3166 18.6125C32.4142 15.4148 33.1339 14.1398 33.4629 13.0191C33.6274 12.433 33.576 12.104 33.2676 11.8984C33.2059 11.8572 32.1674 11.8161 30.9644 11.8161C29.2267 11.8161 28.7126 11.8469 28.4761 11.9703C28.2499 12.0937 27.9929 12.505 27.2628 13.9959C25.4943 17.5843 23.3762 20.3502 22.3891 20.3502C21.8545 20.3502 21.8442 20.2988 21.7928 16.1963C21.7517 12.762 22.0018 12.2498 21.5563 12.0937C20.9986 11.8984 15.1832 11.4388 14.9449 12.3919C14.8935 12.5873 14.9552 12.762 15.202 13.0808C15.6172 13.6114 16.1891 14.8493 16.1891 14.8493L16.2199 17.8825C16.2507 19.9184 16.2199 21.0391 16.1376 21.2962C15.932 22.0159 15.3048 21.8925 14.4205 20.9877C13.3204 19.8361 11.6238 16.8646 10.647 14.3352C9.93755 12.5153 9.75247 12.1451 9.49542 11.9703C9.14583 11.7441 4.98159 11.7441 4.65257 11.9703Z" stroke="white" stroke-width="1.8"/>
</svg>
